<?xml version="1.0" standalone="no"?>
<!DOCTYPE svg PUBLIC "-//W3C//DTD SVG 1.1//EN" "http://www.w3.org/Graphics/SVG/1.1/DTD/svg11.dtd" >
<svg xmlns="http://www.w3.org/2000/svg" xmlns:xlink="http://www.w3.org/1999/xlink" version="1.1">
<metadata>
Created by FontForge 20201107 at Fri Feb  2 11:39:18 2024
 By 
Copyright (c) 2018 by Muhammad rizal ( Mr Letters ). All rights reserved. |DCNT
</metadata>
<defs>
<font id="SVN-Heavenly" horiz-adv-x="595" >
  <font-face 
    font-family="SVN-Heavenly"
    font-weight="400"
    font-stretch="normal"
    units-per-em="2048"
    panose-1="2 0 5 5 0 0 0 2 0 3"
    ascent="1206"
    descent="-842"
    x-height="279"
    cap-height="1243"
    bbox="-2222.05 -1933 3647 2263"
    underline-thickness="102"
    underline-position="-204"
    unicode-range="U+000D-FB02"
  />
<missing-glyph horiz-adv-x="317" 
 />
    <glyph glyph-name=".notdef" horiz-adv-x="317" 
 />
    <glyph glyph-name=".null" horiz-adv-x="0" 
 />
    <glyph glyph-name="nonmarkingreturn" horiz-adv-x="682" 
 />
    <glyph glyph-name="NULL" horiz-adv-x="0" 
 />
    <glyph glyph-name="NULL" horiz-adv-x="0" 
 />
    <glyph glyph-name="CR" unicode="&#xd;" horiz-adv-x="317" 
 />
    <glyph glyph-name="space" unicode=" " horiz-adv-x="317" 
 />
    <glyph glyph-name="exclam" unicode="!" horiz-adv-x="1705" 
d="M983 1470l-225 -1560h-39l213 1560h51zM748 -186h-39v39h49z" />
    <glyph glyph-name="quotedbl" unicode="&#x22;" horiz-adv-x="206" 
d="M145 1169l-32 -194h-23l35 194h20zM225 1167l-32 -194h-23l35 194h20z" />
    <glyph glyph-name="numbersign" unicode="#" horiz-adv-x="1067" 
d="M279 -129h-29l246 1012h28zM1047 551h-928l8 22h928zM539 -129h-31l246 1012h30zM979 201h-928l6 20h930z" />
    <glyph glyph-name="dollar" unicode="$" horiz-adv-x="497" 
d="M238 160l-41 -207h-35l39 207q-67 4 -114.5 33.5t-59.5 72.5l6 6q9 -40 57 -69q52 -30 115 -33l63 395q-116 101 -116 211q5 67 54 105q51 39 120 39l20 129h35l-21 -136q72 -18 72 -92q0 -43 -24 -92l-9 2q29 58 29 94q0 59 -70 80l-53 -330l38 -40q26 -27 42 -47
q75 -84 70 -148q0 -55 -38 -96q-67 -77 -179 -84zM313 184q51 15 83 51t32 84q0 47 -43 115l-88 103l-55 -367q55 9 71 14zM205 868q-31 -31 -31 -84q0 -87 100 -180l50 307q-37 0 -70.5 -12t-48.5 -31z" />
    <glyph glyph-name="percent" unicode="%" horiz-adv-x="745" 
d="M698 37q-24 -155 -80 -236q-55 -82 -112 -82q-51 0 -83 60t-32 164q0 164 65 271q66 108 146 108q48 0 76.5 -46t28.5 -131q0 -43 -9 -108zM424 49q-10 -66 -10 -110q0 -98 28.5 -154.5t73.5 -56.5q25 0 55 26t58 74q30 51 48.5 134t18.5 179q0 80 -25 123t-67 43
q-56 0 -109 -71q-54 -71 -71 -187zM397 1055q-24 -155 -80 -236q-55 -82 -112 -82q-51 0 -83 60t-32 164q0 164 65 271t146 107q48 0 76.5 -45.5t28.5 -130.5q0 -43 -9 -108zM123 1067q-10 -66 -10 -111q0 -98 28.5 -154.5t73.5 -56.5q54 0 113 101q30 51 48.5 134t18.5 179
q0 80 -25 123t-67 43q-55 0 -109 -72q-55 -71 -71 -186zM225 -289l-39 8l422 1618l33 -10z" />
    <glyph glyph-name="ampersand" unicode="&#x26;" horiz-adv-x="2078" 
d="M1102 1651q-115 -151 -115 -359q0 -123 51 -229q60 1 130 5q68 5 129 13q63 8 131 22q140 31 243 89q124 72 203 174q104 132 104 262q0 124 -97 199q-99 76 -241 76q-154 0 -304 -68q-149 -66 -234 -184zM1059 1059h-17q55 -124 164.5 -208.5t253.5 -119.5l-5 -7
q-5 -7 -5 -9q-67 18 -161 38q-91 19 -163 19q-136 0 -255 -60q-118 -60 -196 -157q-80 -100 -124 -222q-45 -125 -45 -253q0 -230 127 -396q63 -83 157.5 -130.5t208.5 -47.5q120 0 233 52q110 50 189 132q80 82 126 187t46 211q0 124 -53 229q-156 -225 -377 -225
q-79 0 -170 27l-2 4q86 -23 148 -23q117 0 209 68q90 67 194 215q60 85 103 131q101 107 219 107q85 0 209 -58l-5 -6q-106 51 -188 51q-51 0 -90.5 -17t-82.5 -59q-43 -43 -76 -85q-21 -26 -91 -123q59 -108 59 -238q0 -114 -49 -219q-48 -107 -131 -189q-84 -82 -202 -131
q-117 -49 -252 -49q-120 0 -219 46.5t-164 127.5q-131 163 -131 402q0 225 112 403q60 93 133 156q78 68 183 106.5t221 38.5q110 0 219 -26q-227 84 -334 303q-277 -11 -425 -45q-417 -94 -473 -433q-9 -54 -9 -114q0 -100 31 -227l-9 -3q-28 127 -28 230q0 173 74 297
q60 100 192 176q56 30 125 52q75 23 130 35q63 13 137 20q110 10 131 11q67 4 124 5q-53 113 -53 239q0 175 90 316t247 220q156 79 343 79q164 0 280 -84q115 -82 115 -213q0 -66 -31.5 -139.5t-85.5 -139.5q-137 -166 -385 -234q-78 -20 -148 -27q-110 -12 -298 -17z" />
    <glyph glyph-name="quotesingle" unicode="'" horiz-adv-x="126" 
d="M143 1106h-34v211h34v-211z" />
    <glyph glyph-name="parenleft" unicode="(" horiz-adv-x="864" 
d="M786 -664l-2 -16q-321 123 -521 415q-202 294 -202 646q0 189 67 381q69 192 182 341q116 155 270 275t325 187l-33 -37q-215 -101 -389 -283q-173 -182 -273 -409q-99 -223 -99 -451q0 -215 83 -425q81 -206 238 -377q153 -166 354 -247z" />
    <glyph glyph-name="parenright" unicode=")" horiz-adv-x="864" 
d="M123 1548l2 17q205 -80 373 -240q162 -154 257 -374q93 -215 93 -449q0 -191 -68 -381q-67 -191 -181 -341q-119 -157 -269 -274q-153 -120 -326 -186l33 37q215 100 387 281q174 181 274 407q101 229 101 449q0 217 -83 428q-80 204 -239 377q-155 168 -354 249z" />
    <glyph glyph-name="asterisk" unicode="*" horiz-adv-x="688" 
d="M401 96h238v-37h-240l-4 -8l228 -207l-23 -22l-225 203q-8 -6 -21 -9l-12 -229h-31l13 227q-5 1 -21 11l-244 -203l-18 22l244 203q-4 4 -4 10l-236 -4v35h236l6 16l-224 205l23 23l223 -205q9 5 21 8l12 248h31l-13 -248q5 -1 19 -10l248 207l18 -23l-248 -207z" />
    <glyph glyph-name="plus" unicode="+" horiz-adv-x="677" 
d="M346 156l-4 -338l-23 -2l5 340h-340l2 22h338l4 346l22 2l-4 -348h348l-2 -22h-346z" />
    <glyph glyph-name="comma" unicode="," horiz-adv-x="215" 
d="M37 -57v4q13 0 32 21q11 12 29 42q-12 20 -12 49q0 36 16 64q17 31 45 31q27 0 27 -27q-5 -46 -55 -116q-51 -70 -74 -70q-6 0 -8 2z" />
    <glyph glyph-name="hyphen" unicode="-" horiz-adv-x="665" 
d="M627 66h-582v34h582v-34z" />
    <glyph glyph-name="period" unicode="." horiz-adv-x="378" 
d="M104 147h7q20 -6 20 -28q-2 -23 -25 -53q-23 -29 -45 -29q-16 0 -16 20q0 25 17 59q17 31 42 31z" />
    <glyph glyph-name="slash" unicode="/" horiz-adv-x="858" 
d="M51 -465l-35 19l824 1474l28 -18z" />
    <glyph glyph-name="zero" unicode="0" horiz-adv-x="700" 
d="M649 111q-51 -302 -159 -464q-108 -163 -222 -163q-98 0 -163 117q-64 116 -64 325q0 270 91 462q64 134 150 209t175 75q96 0 153.5 -93t57.5 -264q0 -101 -19 -204zM106 135q-18 -120 -18 -223q0 -195 56 -303q57 -109 143 -109q83 0 178 128q45 61 89 159
q41 87 67 228q26 139 26 294q0 162 -50.5 250t-133.5 88q-110 0 -216 -142q-107 -141 -141 -370z" />
    <glyph glyph-name="one" unicode="1" horiz-adv-x="260" 
d="M193 727l26 -18q-74 -442 -137 -1162q-2 0 -13 1t-14 1l25 252l26 285q3 33 7.5 74t11 96t10.5 90q9 85 35 264q8 45 8 54q0 6 -4 6q-20 0 -119 -129v22q46 61 138 164z" />
    <glyph glyph-name="two" unicode="2" horiz-adv-x="698" 
d="M631 -416q-125 113 -215 152q-64 -75 -156 -137q-94 -64 -174 -64q-41 0 -81 24q-36 23 -36 56q0 37 50 78q49 41 98 61q67 29 153 29q54 0 119 -19q84 101 158 287q76 192 76 342q0 116 -50 180t-147 64q-54 0 -114 -23t-79 -59l-14 4q75 90 207 90q109 0 167 -71
t58 -197q0 -158 -72 -350q-72 -191 -157 -287q77 -29 213 -152q-2 -8 -4 -8zM379 -244q-68 15 -115 15q-74 0 -147 -25q-41 -14 -87 -51q-44 -37 -44 -74q0 -25 24.5 -45t61.5 -20q29 0 63 14q52 20 145 90q96 68 99 96z" />
    <glyph glyph-name="three" unicode="3" horiz-adv-x="733" 
d="M381 735l-25 10q21 7 60 7q121 0 200 -73q80 -72 80 -194q0 -88 -39 -175q-39 -88 -106 -138q66 -16 101.5 -76.5t35.5 -148.5q0 -100 -42 -193q-42 -95 -124 -160q-80 -65 -182 -65q-122 0 -196 84q-62 70 -113 203q3 6 10 6h6q81 -277 283 -277q79 0 154 60
q76 60 124 154q47 91 47 192q0 151 -120 207l6 43q56 53 96 135q39 80 39 156q0 106 -78 175q-76 70 -182 70q-21 0 -35 -2z" />
    <glyph glyph-name="four" unicode="4" horiz-adv-x="563" 
d="M371 713l20 -2v-2q-42 -58 -162 -259q-75 -126 -159 -276q61 -5 195 -9q137 -5 200 -9l45 153h12h-4q13 -3 19 -4q-42 -177 -82 -312q-16 -55 -41 -141l-49 -163l-48 -156l-30 8q2 28 70 261q70 235 106 339l-222 6q-58 2 -105 4.5t-67 3.5t-22 1q17 56 100 196
q65 107 75 123q4 6 83 134q14 21 29.5 46.5t24 38.5t12.5 19z" />
    <glyph glyph-name="five" unicode="5" horiz-adv-x="626" 
d="M289 772l321 -29q-2 -3 -3.5 -9t-2.5 -7q-89 0 -313 23q-19 -64 -109 -445q24 2 54 2q182 0 266 -106q78 -98 78 -230q0 -102 -40 -201t-119 -169t-173 -70q-104 0 -162 66q-57 66 -57 170q0 123 82 237h18q-90 -116 -90 -248q0 -91 52 -150q55 -61 153 -61q84 0 159 66
q74 65 116 165q42 99 42 197q0 143 -92 232q-90 90 -285 90h-41q59 290 73 340q38 137 73 137z" />
    <glyph glyph-name="six" unicode="6" horiz-adv-x="604" 
d="M307 -428q85 68 135 188q52 124 52 217q0 79 -34.5 131t-103.5 64q-21 0 -32 -4l-13 6q18 6 35 6q63 0 105 -33q73 -57 73 -176q0 -56 -22.5 -130t-61.5 -144q-41 -74 -97 -119q-58 -49 -122 -49t-108 44q-80 80 -80 255q0 139 48 304t105 276q66 131 157 216
q105 103 237 103q20 0 20 -6q-3 -6 -4 -6q-141 0 -251 -123q-91 -103 -148 -246q-45 -111 -88 -271q-41 -154 -41 -288q0 -112 36 -178q38 -70 113 -70q48 0 90 33z" />
    <glyph glyph-name="seven" unicode="7" horiz-adv-x="485" 
d="M197 219h-140l-6 14l150 5q136 313 270 505h-369l-8 23l426 -2l-31 -53q-151 -256 -241 -471l141 -2v-19l-147 4q-67 -173 -113 -334q-41 -144 -41 -280l-33 4q-2 10 -2 25q0 117 43 277q43 158 101 304z" />
    <glyph glyph-name="eight" unicode="8" horiz-adv-x="626" 
d="M207 633q-6 -13 -6 -62q-4 -48 37 -150q6 -14 27 -54q7 -13 17 -29.5t12 -21.5l34 -56l32 -53q234 221 234 409q0 94 -53 147q-54 54 -127 54q-69 0 -127 -48q-59 -49 -80 -136zM373 186q37 -67 61 -118q25 -54 43 -115q21 -73 21 -127q0 -150 -75 -223q-68 -66 -147 -66
q-94 0 -170 70q-75 69 -75 166q0 27 8 62q10 35 69 123q18 25 53 61l54 55q1 1 61 57l56 51q-51 87 -80 142q-32 65 -54 127q-26 76 -26 131q0 119 73 186q74 68 158 68q85 0 149 -62q62 -61 62 -166q0 -196 -241 -422zM63 -164q-8 -35 -8 -69q0 -92 67 -154t150 -62
q78 0 140 64q61 62 61 186q0 79 -34 160q-37 93 -95 199l-50 -43q-13 -12 -25.5 -23t-22.5 -20t-12 -11l-51 -51q-40 -40 -54 -59q-52 -70 -66 -117z" />
    <glyph glyph-name="nine" unicode="9" horiz-adv-x="583" 
d="M395 676q-3 0 -12.5 1t-11.5 1q-81 0 -147 -61q-64 -60 -64 -138q0 -96 88 -169q87 -72 194 -72q-15 -13 -36 -13q-110 0 -195 75q-86 75 -86 173q0 86 69 152q68 65 160 65q74 0 121 -38q86 -65 86 -228q0 -204 -109 -439q-51 -110 -119 -211q-65 -96 -151 -162
q-82 -64 -166 -75l9 17q96 25 191 132q96 104 164 239q66 130 109 280q43 144 43 256q0 197 -137 215z" />
    <glyph glyph-name="colon" unicode=":" horiz-adv-x="167" 
d="M104 147h7q20 -6 20 -28q-2 -23 -25 -53q-23 -29 -45 -29q-16 0 -16 20q0 25 17 59q17 31 42 31zM115 350h6q20 -6 20 -28q-2 -27 -23 -54q-21 -28 -44 -28q-19 0 -19 26q2 24 20 55q17 29 40 29z" />
    <glyph glyph-name="semicolon" unicode=";" horiz-adv-x="221" 
d="M168 350h6q21 -6 21 -28q-2 -26 -24 -54q-21 -28 -44 -28q-18 0 -18 26q2 26 19 55t40 29zM37 -57v4q13 0 32 21q11 12 29 42q-12 20 -12 49q0 36 16 64q17 31 45 31q27 0 27 -27q-5 -46 -55 -116q-51 -70 -74 -70q-6 0 -8 2z" />
    <glyph glyph-name="less" unicode="&#x3c;" horiz-adv-x="458" 
d="M41 188l369 291l8 -12q-59 -50 -190 -153q-35 -27 -67 -53l-56 -45.5t-31 -25.5l178 -149l69 -60q38 -31 91 -65l-9 -16q-103 72 -177 134z" />
    <glyph glyph-name="equal" unicode="=" horiz-adv-x="831" 
d="M801 229h-750l2 33h750zM786 -72h-749l2 33h749z" />
    <glyph glyph-name="greater" unicode="&#x3e;" horiz-adv-x="462" 
d="M422 190l-371 -290l-10 12l354 276l-182 150l-45 36q-64 54 -121 89l10 16q171 -121 365 -289z" />
    <glyph glyph-name="question" unicode="?" horiz-adv-x="794" 
d="M582 791q69 -61 69 -146q0 -97 -79 -171q-41 -40 -73 -64q-108 -89 -151 -160q-24 -41 -35 -73q-13 -37 -21 -68q-6 -23 -11 -80q-4 -48 -6 -71q0 -42 -1 -81v-74h-28q1 19 3 109q3 94 7 126q5 43 20 102q14 55 48 112q49 78 148 160q37 32 57 50.5t45 48t36 60t11 64.5
q0 70 -48 130t-127 60q-91 0 -175 -84q-83 -82 -91 -204h-4q-2 6 -2 8q0 105 93 197q94 94 198 94q69 0 117 -45zM270 -217q11 -5 11 -16q-1 -11 -9.5 -20t-17.5 -9q-8 0 -16.5 6.5t-8.5 11.5q1 12 12 20.5t23 8.5q4 0 6 -2z" />
    <glyph glyph-name="at" unicode="@" horiz-adv-x="1028" 
d="M139 432l6 4q2 0 2 2q0 -2 -2 -2zM543 301l22 35q-63 0 -106 -6q-58 -12 -109 -70q-48 -56 -53 -115q0 -25 9 -54q9 -30 38 -30q43 0 87 61q20 27 39 56q20 30 40 67q18 33 33 56zM129 109q28 -136 157 -238q128 -100 294 -100q125 0 202 71l6 -6q-82 -74 -213 -74
q-119 0 -229 54q-112 55 -179 150q-69 97 -69 212q0 91 38.5 172.5t104.5 137.5q137 118 314 118q88 0 173.5 -37.5t146.5 -116t61 -180.5q0 -81 -42 -162q-43 -83 -116 -137q-73 -55 -157 -55q-60 0 -75 43q-16 46 -16 102q1 45 18 118q14 60 32 120l18 59q-17 -12 -40 -49
q-36 -58 -48 -81q-22 -42 -27 -48l-68 -89q-33 -40 -77 -40q-37 0 -57.5 30.5t-20.5 80.5q0 72 68 126t198 54q4 0 21.5 -1t21.5 -1q35 48 49 49q23 0 23 -31t-35 -158t-35 -182q0 -94 64 -94q75 0 144 57q71 57 109 135q40 79 40 154q0 94 -59 171q-58 75 -143.5 116
t-178.5 41q-180 0 -302 -128t-122 -306q0 -32 6 -57z" />
    <glyph glyph-name="A" unicode="A" horiz-adv-x="1785" 
d="M1616 905q68 6 250 23q100 110 231 110q37 0 86 -10q-92 86 -196 86q-157 0 -371 -209zM330 -80h6q1 -52 38.5 -78t96.5 -26q92 0 211 81q51 35 112 91q50 46 105 105q42 45 105 122q64 78 93 118l87 116q19 25 42.5 56t28.5 38q-547 -97 -604 -422h-8q28 152 153 252
q56 45 135 82q131 61 331 96q181 232 286 342q-449 -45 -668 -93q-544 -119 -741 -391q-123 -171 -123 -407q0 -90 23 -211h-6q-23 121 -23 211q0 500 557 716q295 113 824 166l163 15q119 119 215 177.5t187 58.5q65 0 133 -32q72 -33 104 -77q2 -6 2 -8q0 -60 -325 -96
q-98 -110 -176 -324q21 0 61 4v-8q-25 0 -65 -4q-25 -67 -61 -180q-25 -78 -56 -187q-18 -65 -52 -175q-53 -171 -126 -286q-72 -116 -181 -116q-44 0 -81 30q-37 28 -37 80q0 48 32 92l7 -4q-31 -48 -31 -86q0 -49 35 -77q37 -29 75 -29q138 -7 240 238q30 69 58 158
q42 131 54 174q38 130 56 187q35 110 61 181q-214 -15 -366 -37l-86 -114q-69 -91 -107 -139q-70 -88 -113 -141q-74 -90 -126 -141q-44 -43 -125 -111q-132 -112 -250 -112q-70 0 -124.5 32t-55.5 93zM1608 897q-117 -117 -285 -336q119 17 363 35q78 215 174 324
q-84 -9 -126 -12q-66 -5 -126 -11zM1876 928q272 30 315 92q-50 12 -90 12q-127 0 -225 -104z" />
    <glyph glyph-name="B" unicode="B" horiz-adv-x="1785" 
d="M43 -49l4 4q64 -67 143.5 -95.5t158.5 -19t157 50.5q94 48 179 139q81 86 143 194q49 86 122 230q81 162 117 237q54 113 126 225q74 116 150 186q-125 77 -284 87q-304 21 -613 -170q-138 -85 -246 -202q-100 -111 -149 -246q-47 -132 -14 -258l-6 -2q-54 201 94 418
q127 187 352 317q253 145 506 151q213 5 363 -91q72 61 160 101.5t179 53.5t176.5 -21.5t141.5 -117.5l-4 -4q-58 74 -140 104.5t-168 13.5q-171 -34 -305 -155q93 -68 154 -155q62 -88 62 -166q0 -70 -38 -146q-38 -75 -112 -120q76 -64 106 -141q56 -140 -33 -299
q-60 -106 -173.5 -175t-235.5 -69q-135 0 -186 104q-94 17 -115 88l6 2q22 -68 105 -82q-17 40 -17 80q0 61 32 127.5t83 118.5q51 53 112 85t113 32q63 0 107 -46q43 -44 43 -104q0 -82 -63 -154q-61 -71 -157 -111q-93 -40 -196 -40q-20 0 -45 4q49 -88 156 -88
q79 0 152 32q151 63 233 203q40 67 52 142q13 73 -10 147.5t-81 132.5q-90 -65 -172 -65q-47 0 -75 22.5t-28 55.5q0 30 26.5 52.5t68.5 22.5q85 0 184 -71q112 118 112 258q0 87 -46 172t-128 149q-68 -66 -132 -159q-87 -129 -213 -398q-118 -250 -212 -394
q-124 -192 -286 -267q-84 -41 -181 -47q-94 -6 -179 29.5t-136 107.5zM934 -80q29 -4 47 -4q94 0 180 43q90 44 146 117q57 75 57 160q0 57 -29 89.5t-86 32.5q-71 0 -148 -53q-77 -52 -132 -137q-54 -84 -54 -166q0 -42 19 -82zM1432 492q-74 71 -168 71q-42 0 -67.5 -19.5
t-25.5 -47.5q0 -29 27 -49.5t72 -20.5q87 0 162 66z" />
    <glyph glyph-name="C" unicode="C" horiz-adv-x="1951" 
d="M1759 1149q-161 0 -335 -58q-175 -58 -328 -165h65q77 0 184 -4q108 -4 185 -4q148 0 263 24q71 15 112 46t41 75q0 27 -20 45.5t-54 27.5q-52 13 -113 13zM1178 920h-93q-177 -120 -311 -297q-69 -92 -109 -196t-40 -202q0 -198 125 -317q81 -75 187 -97q110 -24 217 -2
q161 31 314.5 128t227.5 215q80 124 80 256q0 78 -32 139.5t-93 89.5l2 6q63 -30 96 -94.5t33 -145.5q0 -131 -78 -253q-59 -90 -148.5 -164.5t-194.5 -120.5q-107 -48 -217 -66q-111 -19 -219.5 6.5t-191.5 92.5q-151 124 -151 340q0 96 37.5 197t102.5 190
q128 175 298 295q-94 -2 -214 -15q-223 -22 -391 -97q-86 -38 -161.5 -98.5t-126.5 -136.5q-111 -169 -111 -426h-6q0 131 31 244q58 207 212 328q140 110 353 159q180 42 422 48q169 114 343 176q179 63 341 63q207 0 236 -79q4 -11 4 -25q0 -45 -42 -77.5t-114 -47.5
q-138 -25 -266 -25q-76 0 -179 4q-128 5 -173 5z" />
    <glyph glyph-name="D" unicode="D" horiz-adv-x="2033" 
d="M1059 1223q-185 0 -371 -74q-181 -71 -326 -201q-114 -103 -199 -240q-85 -138 -85 -268q0 -18 2 -32h-6q-2 14 -2 32q0 132 86 272q87 141 200 242q146 130 329 202q187 73 372 73q239 0 450 -131q200 172 398 172q78 0 142 -37t101 -103l-4 -4q-72 125 -209 125
q-196 0 -393 -178q154 -99 233 -257q81 -159 81 -331q0 -217 -123 -397q-124 -181 -346 -256q-80 -25 -146 -25q-165 0 -223 115q-97 18 -119 90l6 2q23 -70 111 -84q-14 39 -14 84q0 89 51 176q52 89 132 142q80 55 163 55q71 0 113 -46q42 -45 42 -103q0 -96 -70 -170
q-70 -75 -173 -112q-99 -38 -207 -38q-12 0 -27 4q62 -96 189 -96q80 0 161 33q143 54 244 158q199 205 199 493q0 166 -73 311t-212 246q-146 -139 -273 -333q-146 -222 -229 -359q-114 -185 -232 -318q-125 -141 -288 -204q-87 -33 -170 -33q-86 0 -154.5 35.5
t-107.5 103.5l4 4q78 -125 223 -125q199 4 379 167q105 94 209 236q45 61 90 131q47 72 84 134l81 135l76 119q59 90 86 124q105 134 187 206q-202 133 -442 133zM1024 -70q103 0 205 43q103 43 169 117t66 154q0 53 -32 94q-33 43 -86 43q-80 0 -159 -58q-78 -59 -128 -146
q-49 -86 -49 -169q0 -41 14 -78z" />
    <glyph glyph-name="E" unicode="E" horiz-adv-x="1785" 
d="M1233 952q186 -32 317 -32q73 0 145 11q70 12 70 42q-5 32 -76 51q-74 20 -155 20q-82 0 -164 -25q-83 -25 -137 -67zM1225 944q-54 -45 -95 -121q-38 -73 -38 -143q0 -52 26 -92q143 16 156 16q59 0 59 -18q0 -13 -37 -25q-36 -12 -82 -12q-59 0 -98 33
q-176 -44 -326 -153q-80 -59 -138 -125q-60 -69 -95 -156.5t-35 -178.5q0 -89 27 -154t75.5 -100.5t105.5 -52t126 -16.5q111 0 213 35q140 49 272 158q69 57 125 122q57 66 91 141t34 144q0 105 -58 154q-59 51 -147 51q-98 0 -206 -51q-111 -51 -190 -121
q-82 -73 -142 -154q-61 -81 -80 -145q-12 -36 -12 -86q0 -69 40 -119q40 -51 119 -51q91 0 186 48q97 49 152 110q58 63 58 108q0 51 -62 51q-44 0 -96 -29q-52 -28 -68 -61l-8 2q18 35 72 65q52 29 98 29q72 0 72 -59q0 -53 -64 -117q-63 -65 -159 -109q-98 -45 -185 -45
q-90 0 -143 50t-53 133q0 123 126 284q66 84 155 147q98 69 210 109q73 25 150 25q103 0 172 -54t69 -165q0 -91 -53 -184q-58 -99 -134 -170q-79 -75 -168.5 -133t-168.5 -85q-96 -34 -219 -34q-77 0 -142 18.5t-119 58t-84 108t-30 159.5q0 93 37 180.5t102 156.5
q94 100 225.5 170t264.5 97q-47 41 -47 121q0 64 34 129t89 112q-169 23 -303 23q-122 0 -250 -15q-189 -24 -346 -118q-83 -49 -145 -111q-64 -64 -101 -147.5t-37 -173.5q0 -60 23 -144l-5 -2q-24 68 -24 146q0 91 37 175.5t102 147.5q94 94 227 155t271 79q117 14 239 14
q140 0 318 -23q59 50 145 75q92 28 178 28q94 0 178 -25q81 -22 81 -63q0 -24 -40 -37q-63 -23 -169 -23q-109 0 -338 33zM1124 584q34 -29 88 -29q30 0 57.5 6t42.5 13.5t15 13.5q0 10 -55 10q-18 0 -68 -7t-80 -7z" />
    <glyph glyph-name="F" unicode="F" horiz-adv-x="1480" 
d="M1436 1059q276 29 383 51q156 34 157 78q0 22 -86 22q-115 0 -238 -42q-128 -44 -216 -109zM1305 451l40 6l43 9q35 7 81 34q38 23 38 67q0 22 -16 36.5t-41 14.5q-27 0 -52 -17q-17 -12 -41 -44q-16 -24 -30 -55l-12 -28q-2 -6 -4.5 -11l-4 -8t-1.5 -4zM1217 436l77 13
l15 36l16 38l15 32q12 24 40 52q23 22 60 22q31 0 54.5 -19.5t23.5 -46.5q0 -25 -16.5 -47t-40.5 -34q-19 -10 -57 -21q-36 -9 -54 -12q-6 -1 -47 -7q-64 -166 -115 -204l-10 2q55 35 114 202q-19 -4 -79 -12q-114 -17 -175 -35q-79 -233 -94 -273q-107 -269 -258 -386
q-144 -111 -350 -111q-112 0 -189 59q-75 58 -75 138q0 42 24 69t66 27q46 0 53 -45l-4 -6q-5 45 -47 45t-65 -26.5t-23 -65.5q0 -74 64 -125q65 -51 163 -51q312 0 489 271q80 122 164 368q2 6 16 47l15 45q-146 -54 -209 -195l-6 2q58 144 217 203q41 119 66 185
q33 86 73 168q88 184 228 302q-102 -15 -230 -40q-102 -20 -228 -57t-221 -80q-108 -50 -192 -108q-89 -62 -155 -142q-140 -172 -140 -404q0 -52 5 -84h-7q-4 25 -4 84q0 123 38 225q70 195 258 325q170 117 418 190q128 39 232 59q136 26 236 39q90 78 224 129t255 51
q50 0 93 -10q47 -11 47 -33q0 -17 -19 -31q-34 -23 -134 -46q-51 -10 -100 -17q-93 -14 -103 -15l-108 -13q-94 -11 -96 -11q-111 -86 -198 -225q-32 -50 -74 -138q-33 -71 -59 -139q-7 -19 -25 -68.5t-29 -79.5q55 15 77 19q52 10 100 16z" />
    <glyph glyph-name="G" unicode="G" horiz-adv-x="1757" 
d="M1538 217l51 2l-50 -124l-53 -131q-20 -54 -52 -121q-38 -81 -64 -126q-72 -127 -151 -217q32 -84 32 -166q0 -120 -57 -245l-6 4q55 116 55 239q0 63 -31 164q-161 -172 -360 -223q-48 -12 -104 -12.5t-111 10.5t-106.5 35t-90.5 57t-62.5 81t-23.5 103q0 111 114 194
q116 83 259 83q142 0 271 -78q131 -78 198 -205q68 82 132 197q57 104 98 202q33 76 88 219l14 36q-84 -119 -197 -197t-235 -78q-105 0 -181 67q-73 66 -73 185q0 110 62 224q64 118 153 208q-294 -46 -398 -69q-261 -63 -406 -194q-162 -144 -237 -413h-6q90 323 307 472
q149 104 421 158q72 14 327 54q139 139 278 209q143 72 261 72q120 0 120 -45q0 -41 -108 -91q-105 -48 -240 -85q-141 -38 -254 -58q-96 -93 -168 -214q-69 -119 -69 -232q0 -120 60 -180q60 -62 155 -62q120 0 240 85q121 87 198 206zM1436 829q-158 -67 -303 -206
q117 20 248 58q145 42 237 85q104 48 104 84q-3 22 -69 22q-115 0 -217 -43zM844 -700q203 62 346 235q-63 127 -194 204q-130 77 -269 77q-140 0 -253 -80q-112 -81 -112 -189q0 -66 33.5 -119t86.5 -83t117.5 -46t128.5 -15t116 16z" />
    <glyph glyph-name="H" unicode="H" horiz-adv-x="2310" 
d="M2208 -180l2 -4q-185 -71 -436 -123q-56 -69 -129 -124q-71 -54 -127 -54q-45 0 -45 24q0 17 10 31q13 17 77 55q24 13 53 24l44 16q4 1 39 13q43 44 79 105q3 4 32 53q17 26 34 62q5 9 11.5 22.5t10.5 21t6 12.5q8 14 28 64l25 59l27 63q22 55 23 59q13 33 61 136
q32 70 76 147q50 88 93 151q110 161 232 251q144 105 296 105q115 0 192 -56q78 -55 78 -161q0 -26 -6 -61l-6 2q4 16 4 53q0 103 -62 155q-61 52 -159 52q-105 0 -205 -52q-97 -49 -174 -128q-70 -70 -146 -184q-73 -110 -117 -196q-43 -84 -87 -190l-43 -102
q-46 -110 -50 -119q-11 -27 -46 -97q-49 -106 -121 -204q223 44 426 119zM1690 -334q-75 -20 -140 -53q-71 -35 -71 -72q0 -8 12 -8q66 0 199 133zM2144 498q25 4 131 16v-6q-17 -2 -66 -9q-59 -9 -69 -10q-260 -35 -518 -127q-19 -47 -60 -136q-26 -57 -76 -146
q-49 -89 -91 -148q-105 -155 -231 -246q-142 -104 -294 -104q-114 0 -192 57q-78 55 -78 160q0 27 6 62l6 -2q-4 -16 -4 -54q0 -101 62 -154q62 -52 159 -52q76 0 149 26q136 50 252 175q102 109 192 268q73 130 132 272q-484 -195 -510 -543l-6 2q24 349 521 549l42 102
q10 22 21.5 49.5t18.5 43t11 25.5t10.5 24t17 36.5t17.5 38.5q49 104 122 203q-157 -32 -268 -66q-273 -79 -492 -216q-233 -147 -374 -357q-152 -226 -181 -528l-6 -2q13 154 62 292q92 257 290 441q183 171 448 284q235 102 529 161q53 66 128 123q73 55 128 55
q45 0 45 -25q0 -15 -11 -31q-13 -21 -77 -55q-21 -12 -53 -23l-44 -17q-2 0 -38 -13q-53 -57 -110 -154q-55 -93 -83 -158q-30 -70 -74 -178l-12 -30q247 83 518 125zM1911 905q70 19 138 53q73 36 73 72q0 8 -13 8q-65 0 -198 -133z" />
    <glyph glyph-name="I" unicode="I" horiz-adv-x="1701" 
d="M557 -129l4 -6q-49 -25 -49 -80q0 -59 34 -99q60 -69 163 -69q20 0 53 4q227 25 376 169q136 130 231 334q45 97 170 411q38 96 88 204q104 222 237 355q-98 -22 -443 -87q-333 -61 -528 -118q-291 -86 -493 -213q-109 -70 -187 -157t-123 -202t-45 -245q0 -134 45 -287
h-6q-47 156 -47 289q0 129 45.5 244t124.5 204q79 86 189 157q204 130 495 216q188 56 532 120q330 63 449 89q35 30 47 41q23 21 56 49q62 49 118 49q37 0 37 -20q0 -31 -54 -59q-60 -32 -139 -50q-78 -70 -142 -166q-68 -100 -115 -199q-23 -48 -49.5 -109t-45 -107
t-48 -119t-44.5 -109q-106 -266 -208 -408q-206 -297 -546 -296q-30 0 -60.5 5.5t-62 19.5t-56 34t-39.5 52.5t-15 72.5q0 57 51 86zM2081 1214q-52 -21 -131 -92q80 23 126 49t46 50q0 4 -4 4q-17 0 -37 -11z" />
    <glyph glyph-name="J" unicode="J" horiz-adv-x="1687" 
d="M1393 -342l-7 4q19 49 19 88q0 102 -96 180q-105 -185 -261 -306q-168 -130 -378 -130q-86 0 -148 45q-61 45 -61 142q0 81 48 153q49 72 124 118q164 99 332 99q165 0 311 -90q48 84 105 223q49 117 97 251q52 144 95 248t115 231t149 208q-141 -35 -442 -100
q-333 -71 -523 -133q-289 -95 -478 -224q-103 -68 -182 -158q-163 -190 -163 -439q0 -150 53 -306l-6 -2q-55 168 -55 310q0 126 44 239.5t121 202.5q79 89 184 159q195 131 480 224q184 61 529 135q309 68 448 103l20 20l24 25q9 8 54 47q43 31 59 38q36 15 62 15
q35 0 35 -21q0 -26 -53 -58.5t-137 -53.5q-170 -165 -289 -452q-46 -114 -97 -254q-48 -133 -102 -265q-58 -146 -110 -240q98 -77 98 -184q0 -46 -18 -92zM2046 1247q-5 -2 -11 -5.5t-13 -7.5t-10 -6q-4 -2 -16.5 -11.5t-15.5 -11.5l-29 -25l-16 -15q-9 -7 -14 -12
q78 23 125 50.5t47 51.5q0 7 -8 7q-7 0 -39 -15zM1272 -43q-141 88 -303 88q-167 0 -330 -97q-74 -46 -124 -117q-48 -71 -48 -150q0 -89 51 -132q52 -43 121 -43q15 0 74 9q190 35 326.5 145t232.5 297z" />
    <glyph glyph-name="K" unicode="K" horiz-adv-x="2269" 
d="M610 -145l2 -7q-47 -32 -47 -79q0 -56 36 -98q68 -79 165 -79q100 0 231 54q128 52 220 140q88 83 150 188.5t118 248.5q38 97 102 288.5t81 240.5q45 128 114 255q71 131 153 222q-100 -27 -234 -62q-118 -30 -251 -61q-100 -23 -252 -65q-165 -46 -251 -74
q-112 -36 -233 -88q-119 -49 -215 -106q-98 -58 -181 -128q-82 -69 -143 -156q-122 -178 -122 -407q0 -155 64 -342h-6q-64 180 -64 344q0 246 138 431q62 85 157 161q157 128 424 235q181 74 499 156q141 38 246 60l233 56q112 28 202 56q8 6 65 63q51 52 90 75.5t80 23.5
q31 0 31 -23q0 -31 -55 -65.5t-148 -61.5q-96 -96 -168 -224q-46 -81 -87 -177t-65 -165.5t-62 -186.5q-105 -327 -207 -514q-64 -118 -162.5 -210t-223.5 -143q-128 -53 -233 -53q-61 0 -90 12h-2q-56 15 -104 66q-46 49 -46 113q0 50 51 86zM2159 1368q-55 -26 -138 -108
q185 60 185 116q0 6 -8 6q-9 0 -39 -14zM2552 1108l2 -6q-86 -36 -152.5 -103.5t-143.5 -173.5q-97 -138 -177 -222q-109 -112 -258 -159q95 -40 119 -193q11 -77 14 -137q4 -57 4 -145q2 -86 4 -114q8 -91 45 -149q37 -59 96.5 -58t120.5 65l6 -4q-62 -65 -127 -65
q-60 0 -102 60q-41 59 -49 151q-2 23 -4 93q0 158 -8 235q-6 64 -20 116q-13 51 -43 90t-69 53q-88 -22 -106 -22q-35 0 -35 14q0 4 8.5 9t28.5 9.5t45 4.5q35 0 61 -8q198 57 355 266q161 214 170 225q95 119 215 168zM1737 432q34 3 63 14q-25 5 -69 5q-56 -6 -56 -17
q0 -8 23 -8q15 0 39 6z" />
    <glyph glyph-name="L" unicode="L" horiz-adv-x="1675" 
d="M2097 -362l33 -3q-101 -19 -208 -19q-105 -1 -190 12q-77 12 -183 35q-91 20 -175 44q-104 27 -179 42q-116 23 -183 30q-73 -40 -171 -61q-104 -23 -200 -23q-68 0 -133 14q-63 13 -66 37q-2 6 6 13t30 14t55 13t87 9.5t121 3.5q60 0 217 -8q133 66 234 204
q40 50 87 140q45 87 71 152q21 49 65 166l31 83l34 89l31 81q20 49 37 86l36 76q24 51 43 81l43 70q42 66 106 134q42 44 96 80q56 37 104 37q42 0 45 -23q3 -13 -12 -28q-169 -169 -522 -303q-75 -29 -456 -154q-343 -111 -521 -202q-289 -150 -376 -359q-93 -220 9 -531
h-6q-139 423 81 681q142 166 474 298q103 42 472 162q358 115 534 201q196 98 309 211q11 11 10 22q-8 5 -21.5 2.5t-23.5 -6.5q-51 -18 -121 -76q-110 -92 -199 -242q-32 -52 -77 -151q-45 -98 -65 -151l-58 -160q-18 -54 -51 -138q-22 -60 -52 -129q-37 -84 -64 -127
q-50 -90 -117.5 -166t-145.5 -116q67 -7 183 -30q62 -12 175 -41q116 -29 172 -42q99 -22 173 -32q86 -13 181 -16q99 -3 191 14zM487 -274q49 -11 123 -11q187 0 338 70q-120 8 -254 8q-85 -3 -142.5 -10.5t-82 -17.5t-20.5 -21q0 -11 38 -18z" />
    <glyph glyph-name="M" unicode="M" horiz-adv-x="2353" 
d="M1049 401q102 176 227 332q71 88 142.5 137.5t131.5 49.5q88 0 88 -154q0 -138 -53 -335q-59 -218 -108 -349q128 252 319 557q284 455 379 455q41 0 41 -103q0 -195 -112 -622q-112 -431 -197 -611q-12 -27 -31 -59q-12 -22 -35 -53q-45 -62 -104 -62q-26 0 -54 15l3 6
q21 -8 28 -8q73 0 154 167q86 179 200 611q113 429 113 641q0 65 -22 65q-39 0 -174 -178q-75 -97 -148 -207q-86 -128 -173 -281q-109 -190 -183 -341h-51q167 470 167 717q0 118 -61 118q-87 0 -213 -135q-62 -69 -112 -136q-95 -130 -185 -290q-42 -99 -72 -164
q-42 -93 -76 -153q-51 -94 -84 -142q-95 -143 -199 -213q-119 -82 -251 -82q-38 0 -82 14q-42 13 -72 45t-30 73q0 42 37 67l4 -6q-37 -24 -37 -63q0 -58 45 -83q48 -28 98 -28q101 0 193.5 47.5t164.5 130.5q145 168 256 422l108 251l107 248q58 130 112 225
q62 110 126 181q-68 -20 -168 -45l-180 -44q-75 -18 -181 -48q-72 -19 -181 -54q-87 -28 -169 -64q-166 -69 -286 -169q-189 -156 -193 -407q0 -111 50 -250l-7 -2q-49 137 -49 254q0 165 90 297q39 55 105 112q114 98 288 171q86 37 171 64q109 34 183 55q107 29 184 48
q14 3 182 46q71 18 171 46q106 117 168 117q25 0 25 -14q0 -43 -121 -86l-8 -8q-35 -34 -81 -95q-48 -66 -70 -104q-29 -51 -66 -126q-48 -100 -60 -128l-61 -143q-54 -124 -61 -140zM1567 1225l-25 -13q-32 -16 -76 -57q40 13 71.5 33.5t31.5 34.5q0 2 -2 2z" />
    <glyph glyph-name="N" unicode="N" horiz-adv-x="2088" 
d="M223 -195l2 -6q-37 -24 -37 -65q0 -60 48 -87q50 -28 102 -28q102 0 196.5 46t167.5 127q149 161 266 410l112 243l109 240q54 120 113 219q65 110 123 175q-131 -36 -176 -47q-34 -8 -96.5 -24t-90.5 -23q-50 -12 -189 -49q-93 -25 -188 -56q-73 -23 -174 -66
q-175 -74 -294 -176q-191 -161 -197 -419q0 -125 50 -260l-9 -2q-49 132 -49 260q0 183 103 324q47 63 117 121q122 101 318 179q142 57 373 118l184 47q98 23 175 42q72 18 152 42l53 54q28 26 58 44q39 24 67 24q22 0 22 -18q0 -21 -35.5 -45t-93.5 -43l-6 -8
q-84 -83 -164 -214q-79 -134 -132 -252l-123 -280q-70 -164 -115 -250q18 22 82 106q119 151 124 158q20 25 69.5 85t72.5 88q90 110 158 181q58 61 150 150q160 154 249 154q76 0 76 -133q0 -136 -79 -419q-76 -274 -193 -548q-114 -267 -201 -373q-63 -73 -127 -73
q-30 0 -56 14l4 6q14 -8 31 -8q48 0 109 70q89 105 202 378q115 275 191 549q78 278 78 414q0 115 -47 115q-75 0 -222 -135q-54 -49 -142 -142q-78 -83 -144 -162q-88 -104 -140 -169q-37 -45 -118 -150l-91 -118l-47 -60h-2q-80 -150 -174 -261q-61 -72 -114 -113
q-134 -105 -289 -105q-74 0 -132 34q-61 37 -61 101q0 44 41 69zM1597 1178q-30 -13 -79 -62q46 19 77 39t31 31q0 2 -2 2q-8 0 -27 -10z" />
    <glyph glyph-name="O" unicode="O" horiz-adv-x="1314" 
d="M956 446q-37 -4 -61 -4q-59 0 -127 17l-2 -8q63 -15 127 -15q22 0 59 4zM1130 713l5 8q32 -42 41 -111q16 48 16 92q0 134 -105 218t-239 84q-205 0 -416 -175q-157 -132 -269 -334q-112 -203 -112 -401q-3 -171 89 -289.5t243 -117.5q89 0 181 41q177 75 345 267
q80 91 137 185q125 206 125 377v29q-60 -125 -219 -146l4 6q158 21 215 152q-11 69 -41 115zM1178 598q2 -16 2 -39q0 -101 -48 -224q-48 -121 -131 -236q-81 -114 -182 -209q-102 -96 -216 -152q-115 -57 -218 -57q-167 0 -271 119q-104 121 -104 306q0 118 35 230
q67 218 235 402q120 130 262.5 206t272.5 76q135 0 255 -80q58 -39 93 -101t35 -134q0 -55 -20 -107z" />
    <glyph glyph-name="P" unicode="P" horiz-adv-x="1998" 
d="M2212 1436q-81 -40 -144 -119l-4 -2q195 75 195 129q0 6 -8 6q-9 0 -39 -14zM1956 -178l-6 -2q-55 91 -272 157q-214 66 -457 66q-161 0 -302 -39q-142 -39 -233 -115q-90 -75 -90 -172q0 -79 67 -134q66 -54 179 -54q247 0 399 138q74 66 133 155q91 133 180 412
q29 86 72.5 244.5t63.5 223.5q60 181 75 222q82 226 217 358q-87 -32 -261 -84q-148 -42 -305 -85q-162 -44 -318 -95q-176 -58 -317 -117q-148 -61 -283 -145q-137 -84 -236 -186t-156 -238t-57 -289q0 -177 78 -381l-6 -2q-80 205 -80 385q0 235 127 425q60 88 148 164
q89 77 188 138q103 63 223 117t242 98q79 29 261 85q166 51 261 76q23 7 113.5 32t145.5 41q232 68 243 71l38 40q36 38 47 48q94 92 152 86q35 0 35 -22q0 -60 -211 -137q-83 -89 -145 -199q61 16 121 16q131 0 213 -82q81 -81 81 -192q0 -98 -52 -196q-51 -96 -142 -162
q-88 -66 -186 -66q-76 0 -121 45q-43 46 -43 104q0 50 30.5 80.5t85.5 30.5v-6q-52 0 -81 -30.5t-29 -78.5q0 -51 36 -90t99 -39q91 0 176 67q86 69 133 164q49 97 49 185q0 104 -74 182q-75 80 -186 80q-45 0 -114 -18q-51 -78 -95 -181q-36 -86 -77 -215
q-16 -52 -65.5 -216t-77.5 -250q-89 -277 -188 -423q-60 -90 -135 -159q-158 -145 -405 -145q-128 0 -203 59q-75 58 -75 145q0 98 91 177q88 75 235 116q141 41 311 41q244 0 460 -66q217 -67 275 -163z" />
    <glyph glyph-name="Q" unicode="Q" horiz-adv-x="1226" 
d="M82 -74q75 -219 274 -219q122 0 262 84q-141 93 -192 193l6 2q58 -108 193 -191q184 111 343 331q159 221 175 419q-81 -96 -258 -96v6q74 0 156 24q46 13 75 40.5t29 62.5q0 156 -113 225l2 6q117 -72 117 -229v-17q47 65 47 150q0 76 -28.5 136t-78.5 94
q-97 67 -223 67q-174 0 -319 -90q-91 -55 -179.5 -144.5t-159.5 -198.5q-70 -106 -114 -233q-43 -123 -43 -242q0 -99 29 -180zM41 -63q-29 81 -29 180q0 119 43 245q45 131 115 238q72 111 165 202.5t191 147.5q143 80 310 80q141 0 249 -71q57 -37 89 -99t32 -141
q0 -94 -55 -164q-9 -136 -90 -290q-81 -153 -196 -277q-118 -128 -234 -197q79 -50 189 -89q105 -38 202 -38q78 0 133 29l2 -6q-55 -29 -135 -29q-98 0 -205 38q-113 40 -192 91q-146 -86 -277 -86q-107 0 -187.5 59t-119.5 177z" />
    <glyph glyph-name="R" unicode="R" horiz-adv-x="2314" 
d="M584 -250l4 -6q-43 -33 -43 -68q6 -71 85 -111t179 -40q367 0 541 423q64 156 123 443q49 243 102 399q56 166 162 302q-121 -39 -247 -92q-127 -52 -266 -126q-147 -79 -267 -159q-115 -77 -243 -195q-117 -110 -201 -228q-86 -121 -135.5 -265.5t-49.5 -292.5
q0 -195 104 -412l-6 -2q-104 207 -104 420q0 152 51 296q51 141 135 259t208 232q216 200 516 357q251 131 513 216l32 39l34 38q23 24 46 43q56 38 95 42q14 0 24.5 -8t10.5 -17q0 -59 -177 -125q-70 -73 -124 -178q48 14 104 14q122 0 207 -76q84 -75 84 -192
q0 -128 -81 -243q-39 -57 -99 -94t-129 -42q114 -81 164 -258q40 -135 61 -339q26 -232 58 -329q74 -251 312 -272v-2q-87 3 -151.5 36.5t-105 94t-64.5 130.5t-39 164q-9 56 -25 175t-26 181q-12 79 -36 167q-49 174 -159 252q-46 1 -105 33q-54 30 -54 74q0 7 10 8
q32 0 145 -101q63 5 119.5 44t91.5 97q72 123 72 234q0 109 -73 179q-73 71 -183 71q-48 0 -103 -12q-38 -73 -73 -180q-35 -106 -50 -175q-24 -108 -40 -190q-8 -46 -35 -162q-16 -68 -47 -166q-31 -96 -66 -166q-36 -75 -86 -145q-52 -75 -114 -123q-135 -110 -324 -110
q-118 0 -209 44q-93 45 -100 123q0 37 47 72zM1980 1243l-2 2q-67 -16 -161 -121q163 56 163 119zM1749 313q-104 97 -139 97q-6 -3 -6 -7q0 -33 53 -61q55 -29 92 -29z" />
    <glyph glyph-name="S" unicode="S" horiz-adv-x="1572" 
d="M1616 1044h-27q-94 -9 -179 -47.5t-142 -94.5q-113 -113 -125 -206l113 58l150 74q130 70 134 72q152 84 152 116q0 28 -76 28zM1257 746l-116 -58q0 -4 -1 -17t-1 -16q0 -57 23 -140q23 -75 53 -147q32 -75 53 -152q24 -84 24 -155q0 -72 -35 -147t-97 -137.5
t-157.5 -102t-205.5 -39.5q-97 0 -185 35.5t-148.5 110t-60.5 172.5q0 64 24.5 118.5t64.5 86.5q81 67 170 67q53 0 84.5 -24.5t31.5 -67.5q0 -50 -41 -110l-6 2q39 63 39 106q0 41 -29 63.5t-79 22.5q-92 0 -173 -72q-79 -72 -79 -194q0 -90 51 -159q51 -68 128.5 -103
t168.5 -35q97 0 189 34.5t158 93.5q68 59 107 136t39 158q0 68 -24 152q-21 78 -52 150q-33 76 -54 146q-23 81 -23 142q-358 -198 -525 -308q-383 -253 -497 -486q-79 -164 -41 -325l-6 -2q-73 314 283 625q194 170 590 393l196 109q2 82 49 156q46 72 119 125
q72 52 157 82t162 30q33 0 73 -12t40 -39q0 -33 -153 -118l-137 -74q-22 -11 -151 -76z" />
    <glyph glyph-name="T" unicode="T" horiz-adv-x="1273" 
d="M176 -170l4 -4q-45 -22 -45 -64q0 -47 44 -85q43 -38 101.5 -58t112.5 -20q74 0 152 30q85 35 155 95.5t114 134.5q92 146 144 338q21 76 108 370q63 202 161 324q-89 -8 -217 -29q-237 -43 -393 -117q-186 -87 -283 -225q-109 -155 -109 -377q0 -97 25 -225l-6 -2
q-25 128 -25 225q0 329 238 513q141 108 351 168q187 54 427 77q96 115 225 193q103 62 260 99q154 36 299 36q75 0 171 -19q51 -9 81.5 -31.5t30.5 -52.5q3 -67 -83 -110t-230 -68q-95 -15 -190 -22q-109 -8 -191 -12l-182 -8q-102 -3 -140 -7q-59 -69 -110 -177
q-64 -135 -144 -428q-70 -261 -155 -415q-51 -94 -130.5 -164t-181.5 -106q-77 -25 -143 -25q-58 0 -127 22q-67 21 -117 64q-49 43 -49 94q0 43 47 68zM2120 1208q-48 4 -82 4q-212 0 -416 -83q-203 -81 -328 -226q36 4 137 7q155 6 365 20q209 17 345 58q74 22 114.5 57
t40.5 79q0 71 -176 84z" />
    <glyph glyph-name="U" unicode="U" horiz-adv-x="2283" 
d="M1694 987h47q-58 -81 -124 -181q-65 -96 -160 -249q-97 -160 -166 -286q-71 -131 -123 -264q-52 -131 -52 -210q0 -110 103 -110q225 0 645 477q43 150 111 286q70 140 152 256q115 166 234.5 279t169.5 109q28 0 31 -29q0 -52 -134 -239q-153 -215 -501 -601
q-57 -168 -57 -325q0 -88 23 -166q25 -80 76 -130t116 -50q75 0 165 51q92 52 140 119l4 -3q-50 -71 -142 -123q-91 -53 -171 -53q-112 0 -181 105t-69 264q0 117 31 236l-73 -76q-38 -40 -99 -101q-37 -37 -109 -101q-59 -53 -122 -98q-136 -93 -234 -93q-69 0 -109.5 33
t-40.5 96q0 298 600 1153q-93 -79 -274 -141q-107 -37 -168 -54q-135 -39 -205 -59q-53 -15 -167 -45q-248 -65 -358 -111q-200 -84 -314 -236q-107 -141 -171 -376l-8 2q94 335 265 480q107 93 259 150q128 47 325 98l55 14l112 30l173 49q20 5 151 47q70 22 144 53
q140 63 200 123zM1933 242q222 248 361 422q149 186 203 271q57 90 57 122q0 12 -12 12q-27 0 -105 -70q-80 -73 -168 -179q-95 -114 -187 -267q-94 -157 -149 -311z" />
    <glyph glyph-name="V" unicode="V" horiz-adv-x="2228" 
d="M1667 1075l51 6q-49 -103 -116 -264q-76 -182 -137 -339q-74 -193 -123 -379q-48 -183 -48 -296q3 -143 105 -143q91 0 219 116q59 54 120 128q62 75 116 149q45 60 117 168q15 23 38 58.5t39.5 60.5t28.5 45l95 154l77 123q205 320 397 631q177 289 231 395l5 -2
q-12 -28 -74 -134l-55 -94l-71 -117l-76 -122l-87 -138q-34 -52 -86 -138l-92 -145l-88 -141l-79 -128l-98 -156q-17 -28 -106 -163q-55 -84 -118 -169q-54 -73 -118 -147q-69 -81 -123 -128q-130 -114 -227 -114q-129 0 -129 182q0 54 14 132q11 63 31 147q16 65 53 172
q46 134 58 167q21 60 69 176l63 155l64 149q34 78 50 117q-80 -96 -251 -192q-69 -39 -163 -88q-24 -12 -201 -99q-122 -58 -170 -80q-228 -105 -332 -171q-184 -116 -269 -275q-94 -172 -119 -441l-7 2q34 350 190 543q105 129 306 237q81 42 308 150q20 9 91 43
q289 142 403 209q161 99 224 188z" />
    <glyph glyph-name="W" unicode="W" horiz-adv-x="3252" 
d="M3324 -772q82 0 172 51q88 50 145 125l6 -4q-58 -77 -147 -128q-89 -52 -174 -52q-364 3 -415 337q-32 181 34 460q57 242 170 501l-215 -248q-497 -557 -715 -557q-54 0 -87.5 33.5t-33.5 95.5q0 82 51 214q53 137 133 284q155 280 339 551l-121 -136l-157 -177
q-102 -114 -174 -193q-140 -150 -189 -200q-87 -89 -188 -182q-113 -103 -180 -155q-183 -141 -288 -141q-68 0 -108.5 38t-40.5 105q0 233 385 834q117 187 239 358q-59 -50 -178 -103q-122 -52 -215 -80q-122 -36 -282 -81q-126 -35 -176 -47q-257 -68 -369 -114
q-206 -86 -325 -239q-114 -149 -183 -398l-6 2q91 333 273 497q128 116 353 187q88 28 339 93l94 25l178 51q19 5 42.5 12.5t56.5 18l55 17.5q77 25 148 54q139 61 208 126h51q-68 -97 -131 -191q-68 -99 -165 -256q-111 -178 -173 -294q-71 -131 -126 -271
q-54 -137 -54 -219q0 -119 112 -119q103 0 287 145q84 65 182 156q94 86 190 185q86 89 190 202q96 105 176 196l157 178l121 136h57q-187 -274 -348 -560q-87 -155 -144 -298q-55 -141 -55 -221q0 -54 24.5 -83.5t65.5 -29.5q52 0 136 49q83 48 162 114q71 59 169 152
q100 97 145 144l99 109l217 252q87 191 168 333q75 132 174 240q32 35 71 53q20 9 28.5 5.5t6.5 -20.5q0 -3 -1 -5q-5 -19 -33 -72q-105 -177 -387 -514q-97 -210 -165 -441q-64 -219 -70 -431q0 -103 22 -184t68.5 -144t127 -97t191.5 -34zM3158 582q292 348 375 491
q29 48 33 72q2 10 -2.5 12t-15.5 -3q-31 -15 -67 -53l-3 -3q-163 -170 -320 -516z" />
    <glyph glyph-name="X" unicode="X" horiz-adv-x="2269" 
d="M1599 973l41 2q28 -118 72 -361q46 -242 70 -348l923 922l7 -6l-930 -922q25 -106 56 -214q24 -82 72 -197q42 -101 90 -177q112 -175 258 -261q165 -97 390 -97q229 0 375 119l4 -6q-145 -117 -381 -117q-316 0 -523 177q-93 79 -168 201q-73 120 -121 250
q-45 125 -83 289q-772 -754 -1006 -903l-4 4q245 160 1008 905q-26 110 -73 363q-51 275 -72 365q-12 -30 -43 -66q-59 -65 -147 -110l-96 -48q-51 -23 -118 -47l-123 -44l-137 -46l-150 -49q-234 -75 -338 -125q-181 -89 -283 -243q-90 -137 -138 -355l-6 2
q41 188 110.5 311t169.5 203q111 80 220 123q81 33 271 95l47 15q4 1 40.5 12.5t54.5 18.5q315 107 418 156q201 98 243 209z" />
    <glyph glyph-name="Y" unicode="Y" horiz-adv-x="2250" 
d="M1876 -45h2q-13 -26 -34 -78q-24 -58 -35 -83l-33 -76q-21 -49 -38 -79l-38 -73q-25 -51 -44 -78q-77 -128 -149 -201q29 -82 29 -155q0 -126 -63 -256l-7 4q62 124 62 264q-6 70 -27 139q-97 -100 -224 -163q-125 -62 -255 -62q-142 0 -260 88q-117 87 -117 203
q0 111 113 192q115 82 258 82q142 0 274 -82q133 -83 197 -213q69 80 135 193q61 104 100 188q36 74 93 209q16 38 16 39l207 555q-60 -71 -72 -85q-40 -47 -83 -96q-69 -80 -97 -110q-35 -39 -102 -106q-77 -79 -108 -106q-50 -46 -106 -90q-66 -54 -105 -76
q-108 -66 -185 -66q-46 0 -73.5 26.5t-27.5 81.5q0 83 62 231q64 154 154 307q183 309 341 527q-89 -72 -254 -128q-111 -37 -153 -49q-21 -6 -191 -54q-5 -1 -56.5 -15.5t-88.5 -23.5q-239 -62 -343 -107q-190 -80 -296 -228q-94 -132 -150 -337l-8 2q52 189 128 303
q83 127 172 185q109 71 220 108q81 28 126 40q115 32 141 38l51 13q25 7 102 28q35 9 89 24.5t72 20.5q19 5 138 43q83 28 134 50q40 18 100 51q49 28 84 63h49q-47 -67 -117 -172q-40 -60 -147 -233q-97 -157 -155 -266q-67 -125 -113 -244q-48 -125 -48 -197
q0 -43 15.5 -61.5t48.5 -18.5q136 0 368 213q116 102 263 265q99 110 209 244q1 1 8.5 10t11.5 13q57 144 119 267q62 119 127 196q66 78 118 78q13 0 13 -14q0 -76 -293 -436q-31 -71 -80 -198q-28 -74 -92 -248q-75 -202 -82 -220zM1004 -924q132 5 257 73q128 69 220 173
q-63 134 -197 214q-134 79 -278 79q-144 -6 -249 -84q-104 -78 -104 -186q-2 -70 50.5 -134t135 -100.5t165.5 -34.5zM2138 643q128 154 200 260t72 131q0 4 -4 4q-16 0 -82 -73q-94 -106 -186 -322z" />
    <glyph glyph-name="Z" unicode="Z" horiz-adv-x="1675" 
d="M2075 -276l4 -5q-124 -114 -414 -114q-135 0 -330 29q-158 24 -320 59q-112 25 -333 80q-137 -101 -285 -101q-65 0 -150 30q-42 15 -68.5 42t-26.5 59q0 28 30 43t82 15q42 0 102 -9l98 -19q15 -3 52 -12.5t54 -13.5q69 -18 71 -18q120 85 207 204q33 43 78 120
q43 74 63 119l63 132l19 42q-275 -42 -354 -148l-6 4q81 108 364 150q70 154 151 276q76 117 193 209q-114 18 -267 47q-374 72 -562 72q-209 0 -343 -67q-231 -117 -231 -455h-6q0 236 108 364q50 58 125 96q135 68 347 68q62 0 134 -6q62 -5 130 -14q62 -7 148 -22
q27 -4 54 -9t50.5 -9t32.5 -6q56 -10 149 -28q29 -6 61.5 -12.5l50 -10t25.5 -4.5q126 102 295 155q171 54 355 54q106 0 185 -17q140 -30 140 -87q0 -42 -48 -78t-125 -56q-145 -38 -290 -38q-194 0 -469 53q-116 -88 -194 -203q-78 -116 -148 -264q87 10 234 10
q184 0 213 -31l-6 -4q-29 29 -201 29q-133 0 -244 -12q-12 -28 -40 -86l-42 -90l-9 -18t-15.5 -30.5t-17.5 -34.5q-25 -50 -49 -88q-19 -31 -51 -77q-35 -53 -61 -80q-75 -81 -149 -131q198 -48 332 -78q126 -28 317 -57q194 -29 328 -29q289 0 410 111zM2247 1081
q-65 9 -138 9q-370 0 -632 -197q272 -53 462 -53q105 0 213 18q90 17 165 61q77 45 77 87q0 56 -147 75zM330 -307q4 0 15 -1t13 -1q141 0 275 92l-53 14q-65 17 -79 20q-3 1 -76 16q-102 20 -163 20q-47 0 -75.5 -13t-28.5 -37q0 -36 31 -60q54 -44 141 -50z" />
    <glyph glyph-name="bracketleft" unicode="[" horiz-adv-x="413" 
d="M344 -522h-321v1544h401v-35h-363v-1474h283v-35z" />
    <glyph glyph-name="backslash" unicode="\" horiz-adv-x="858" 
d="M793 -446l-31 -19l-670 1475l37 18z" />
    <glyph glyph-name="bracketright" unicode="]" horiz-adv-x="413" 
d="M94 1022h328v-1544h-408v35h363v1474h-283v35z" />
    <glyph glyph-name="asciicircum" unicode="^" horiz-adv-x="849" 
d="M455 1311l-353 -447l-16 10l140 183l130 167q33 42 101 124q247 -295 395 -494l-23 -12q-52 78 -91 126l-79 95z" />
    <glyph glyph-name="underscore" unicode="_" horiz-adv-x="913" 
d="M864 -133h-831l2 33h831z" />
    <glyph glyph-name="grave" unicode="`" horiz-adv-x="245" 
d="M254 1073l-131 141l16 15l119 -148z" />
    <glyph glyph-name="a" unicode="a" horiz-adv-x="563" 
d="M184 264l37 -4q-38 -76 -47 -98q-16 -35 -34 -91q-19 -58 -19 -102q0 -32 26 -32q33 0 133 79q129 102 287 260l6 -4q-75 -75 -139 -135q-77 -72 -167 -140q-97 -75 -132 -75q-49 0 -49 62q0 27 23 110q12 39 27 70l20 45q-162 -219 -236 -219q-23 0 -36 19.5t-13 45.5
q0 89 79 173q78 83 144 83q31 0 50.5 -14.5t19.5 -38.5q0 -16 -10 -37l-7 -4q11 17 11 35q0 19 -10.5 32t-28.5 13q-47 0 -97 -49t-79 -109q-31 -62 -31 -100q0 -39 22 -39q43 0 143 117q99 117 107 147z" />
    <glyph glyph-name="b" unicode="b" horiz-adv-x="563" 
d="M61 322q142 123 242 239q105 122 164 224q117 201 117 325q0 76 -31 76q-28 0 -69 -40q-39 -38 -58 -65q-160 -205 -365 -759zM182 53l33 8q41 76 41 127q0 62 -37 62q-44 0 -112 -65t-146 -185h-45q15 67 29 109q56 190 172 471q66 159 135 298q66 131 144 232
q75 96 136 96q26 0 42 -23.5t16 -68.5q0 -125 -117 -331q-61 -107 -167 -229q-110 -126 -249 -245q-53 -140 -96 -297q165 246 268 246q31 0 49.5 -25t18.5 -61q0 -42 -25 -94q19 5 43 14q23 9 87 50q18 11 47 34l37 31q2 2 7.5 6.5t16 13.5t20.5 17q38 31 39 32l4 -4
l-27 -24q-24 -21 -31 -25l-29 -23l-30 -26l-29 -21q-18 -13 -62 -41q-49 -30 -97 -42q0 -5 -11 -21q-2 -3 -4.5 -6t-3.5 -5l-2 -4l-1 -1q-39 -57 -94.5 -93t-112.5 -36q-74 0 -74 39q-5 32 78 66q37 18 94 32zM209 53q-1 0 -21 -5l-28 -8q-39 -9 -69 -20q-53 -19 -67 -27
q-51 -26 -51 -50q0 -21 33 -21q59 3 113 41q55 38 90 90z" />
    <glyph glyph-name="c" unicode="c" horiz-adv-x="497" 
d="M502 276q2 0 6 -4q-37 -31 -86 -77q-51 -48 -105 -94q-35 -30 -99 -79q-116 -88 -193 -88q-54 3 -82.5 37.5t-28.5 89.5q0 52 29 121q29 68 82 120t112 52q39 0 64 -22.5t28 -59.5h-8q-15 64 -65 64q-34 0 -73 -36q-68 -63 -99 -142q-29 -67 -29 -125q0 -66 43.5 -85.5
t118.5 15.5q47 22 103 66q59 47 98 80q68 61 102 93q40 38 82 74z" />
    <glyph glyph-name="d" unicode="d" horiz-adv-x="684" 
d="M729 1153q57 0 57 -98q0 -129 -118 -330q-61 -106 -168 -227q-108 -123 -248 -242q-70 -212 -70 -315q0 -62 31 -62q16 0 54 24q34 21 108 86q88 77 120 106q14 13 160 151l33 30l6 -4q-258 -240 -341 -309q-109 -92 -148 -92q-28 0 -45 27t-17 73q0 84 47 234
q-146 -205 -237 -205q-28 0 -45 20.5t-17 49.5q0 89 79 174q78 84 147 84q32 0 51.5 -14.5t19.5 -39.5q0 -18 -12 -36l-8 2q14 19 14 36q0 13 -11.5 25t-29.5 12q-46 0 -96 -49q-52 -49 -80 -109q-31 -61 -31 -102t31 -41q47 0 111 64q67 69 121 151q83 261 178 457
q5 9 21 46l30 61l34 65q14 27 40 72q67 107 87 130q82 99 142 95zM258 268q133 115 243 241q106 122 164 225q115 201 115 327q0 72 -30 72q-54 0 -127 -99q-76 -101 -147 -250q-124 -261 -218 -516z" />
    <glyph glyph-name="e" unicode="e" horiz-adv-x="485" 
d="M-70 -6q3 -36 24.5 -58t57.5 -22q34 0 87 29q51 26 97 60q42 32 110 94q73 68 97 92l89 90l4 -7l-22 -21q-85 -85 -115 -113q-43 -40 -116 -104q-144 -126 -231 -126q-60 0 -89 42q-29 43 -29 99q0 68 31 131q30 68 89 116q60 48 127 48q29 0 49.5 -16t20.5 -41
q0 -45 -78 -84q-75 -37 -139 -37q-13 0 -21 2q-45 -87 -45 -154q0 -12 2 -20zM201 274v9q0 14 -13.5 23t-35.5 9q-45 0 -95 -42q-47 -41 -80 -97q2 0 9.5 -1t9.5 -1q65 0 129 34q67 36 76 66z" />
    <glyph glyph-name="f" unicode="f" horiz-adv-x="477" 
d="M61 322q142 123 242 239q105 122 164 224q117 201 117 325q0 76 -31 76q-53 0 -127 -99q-75 -99 -146 -249q-128 -270 -219 -516zM57 309q-40 -109 -57 -170q41 -16 100 -16q171 0 385 158l4 -7q-216 -159 -387 -159q-53 0 -104 18l-4 -12q117 -175 117 -369
q0 -81 -33 -171q-15 -47 -45 -77t-66 -30q-44 0 -68 56t-24 148q0 96 24 232q22 121 46 199q56 190 172 471q66 159 135 298q66 131 144 232q75 96 136 96q26 0 43 -24.5t17 -69.5q0 -121 -119 -330q-62 -108 -168 -229q-110 -127 -248 -244zM-8 113q-88 -276 -88 -451
q0 -72 21 -126q20 -54 52 -54q41 0 70 53q57 97 57 219q0 187 -112 359z" />
    <glyph glyph-name="g" unicode="g" horiz-adv-x="579" 
d="M213 254l43 4l-46 -157q-34 -112 -48 -167l424 342l4 -4q-46 -40 -231 -189q-148 -118 -199 -161q-61 -225 -123 -430q-112 -368 -255 -534q-131 -150 -243 -150q-67 0 -111 53q-46 52 -46 142q0 61 25 129q46 128 163 264q59 69 116 126q63 63 132 124q62 55 127 110
q47 40 121 100l38 31q12 45 51 172q37 116 52 177q-67 -101 -131 -166q-70 -70 -125 -70q-28 0 -45 20.5t-17 49.5q0 89 79 174q78 84 147 84q32 0 51.5 -14.5t19.5 -39.5q0 -18 -12 -36l-8 2q14 19 14 36q0 13 -11.5 25t-29.5 12q-46 0 -96 -49q-52 -49 -80 -109
q-31 -61 -31 -102t31 -41q50 0 121 75q70 74 129 167zM-610 -995q0 -79 36 -128q36 -51 87 -51q67 0 134 52t117 124q50 71 100 172q57 119 78 177q36 97 54 155q50 156 106 369q-6 -5 -24 -21t-38 -33t-41 -35q-87 -72 -130 -111q-90 -79 -133 -118q-130 -120 -241 -271
q-105 -145 -105 -281z" />
    <glyph glyph-name="h" unicode="h" horiz-adv-x="671" 
d="M61 322q138 118 244 241q109 126 165 225q116 202 116 326q0 72 -33 72q-53 0 -127 -99q-75 -99 -146 -249q-128 -270 -219 -516zM268 209l21 47q16 42 16 61q0 11 -6 11q-17 0 -79 -56l-47 -44q-26 -23 -28 -25q-93 -93 -186 -201h-41q5 21 15 61t12 46q56 190 172 471
q66 159 135 298q66 131 144 232q75 96 136 96q26 0 43 -24.5t17 -69.5q0 -121 -119 -330q-62 -108 -168 -229q-110 -127 -248 -244q-39 -109 -92 -291q90 107 176 189l33 32l44 40q73 58 92 64q4 1 7 1q23 0 23 -37q0 -41 -54 -178q-55 -138 -55 -170q0 -29 25 -29
q26 0 88 47q63 47 120 99q70 65 128 120q51 49 86 80l4 -4q-101 -101 -251 -230q-139 -120 -185 -120q-47 0 -47 62q0 27 12 72q11 41 26 78z" />
    <glyph glyph-name="i" unicode="i" horiz-adv-x="374" 
d="M0 276h41q-36 -80 -67 -165q-37 -97 -37 -142q0 -32 22 -32q34 0 115 65q74 58 192 168q32 30 60 56t42 38l13 12l4 -4q-110 -110 -253 -233q-139 -119 -179 -119q-24 0 -37.5 18t-13.5 46q0 56 35 143q35 94 63 149zM80 348q0 -31 -39 -31q-20 0 -27 15q0 14 12 24.5
t27 10.5q21 0 27 -19z" />
    <glyph glyph-name="j" unicode="j" horiz-adv-x="374" 
d="M35 365h10q29 0 29 -23q0 -10 -11.5 -18.5t-25.5 -8.5q-29 0 -29 23q0 19 27 27zM-817 -997q0 -77 36 -127t87 -50q66 0 135 52t119 124t100 172q73 147 131 332q55 184 105 369q-22 -19 -67 -55.5t-65 -53.5q-37 -31 -147 -132q-103 -95 -158 -152q-62 -65 -131 -153
q-65 -82 -98 -152q-47 -104 -47 -174zM-100 -113l100 392h45q-31 -102 -88 -345l422 342q1 0 3 -2t3 -2l-432 -350q-106 -405 -206 -647q-105 -250 -204 -358q-100 -109 -211 -109q-65 0 -109 53q-46 52 -46 142q0 83 47 174q87 179 313 392q89 85 183 168q75 65 180 150z
" />
    <glyph glyph-name="k" unicode="k" horiz-adv-x="671" 
d="M-39 4h-43l27 105q56 190 172 471q66 159 135 298q66 131 144 232q75 96 136 96q26 0 43 -24.5t17 -69.5q0 -121 -119 -330q-62 -108 -168 -229q-110 -127 -248 -244q-19 -53 -94 -291q15 17 45 62q10 16 30 43t27 37q112 160 199 155q35 0 35 -18q0 -38 -158 -104
q12 -71 34 -148q14 -50 38 -79t51 -29q26 0 91 49q71 54 128 106q4 3 124 118q60 58 71 66l4 -4l-64 -59l-103 -97q-35 -33 -95 -85q-121 -107 -170 -107q-29 0 -57.5 33t-45.5 81q-34 96 -34 159q0 9 34 27q66 38 73 42l42 23q10 7 10 12q0 8 -16 8q-63 0 -139 -89
q-42 -51 -61 -79q-41 -59 -55 -81q-20 -31 -40 -56zM61 322q142 123 242 239q105 122 164 224q117 201 117 325q0 76 -31 76q-53 0 -127 -99q-75 -99 -146 -249q-128 -270 -219 -516z" />
    <glyph glyph-name="l" unicode="l" horiz-adv-x="428" 
d="M61 322q138 118 244 241q109 126 165 225q116 202 116 326q0 72 -31 72q-38 0 -85 -46q-46 -46 -94 -127q-44 -74 -93 -169q-43 -83 -90 -196q-66 -155 -75 -179q-45 -114 -57 -147zM29 -66q39 14 115 76q81 66 180 160l114 109l4 -5l-132 -122q-245 -228 -302 -228
q-29 0 -45 26.5t-16 74.5q0 155 135 477q115 285 224 475q63 109 122 169t107 60q26 0 41.5 -23.5t15.5 -68.5q0 -124 -117 -330q-61 -107 -168 -230q-113 -128 -250 -245q-22 -55 -45 -147q-26 -107 -26 -168q0 -62 30 -62q7 0 13 2z" />
    <glyph glyph-name="m" unicode="m" horiz-adv-x="741" 
d="M-59 0h-37q5 59 37 140q36 90 59 136h41q-66 -146 -96 -256q75 112 154 204q81 95 112 95q20 0 20 -32q0 -34 -19 -92q-16 -48 -44 -119l-25 -62q171 222 217 222q17 0 19.5 -20t-7 -52t-18.5 -55.5t-20 -46.5l-6 -13q-25 -62 -25 -92q0 -27 23 -27q29 0 124 77
q138 112 295 269l7 -4q-66 -66 -144 -138q-82 -75 -171 -146q-92 -74 -122 -74q-20 0 -32.5 17t-12.5 40t11 59q9 29 27 72l10 22t7.5 16t2.5 7q18 48 18 62q0 10 -6 10q-30 0 -201 -219h-37q1 17 49 148q46 126 46 149q0 6 -4 6q-22 0 -136 -143q-111 -140 -116 -160z" />
    <glyph glyph-name="n" unicode="n" horiz-adv-x="575" 
d="M-70 -39h-39q27 150 109 315h43q-55 -115 -109 -299q77 99 155 177q82 82 104 82q33 0 16 -66q-11 -49 -47 -121q-25 -63 -25 -92q0 -27 23 -27q31 0 113 67q88 72 194 172l113 107l4 -4q-362 -362 -439 -362q-67 0 -22 139q6 23 24 65q22 52 25 64q1 3 2.5 9t3 13.5
t0.5 13t-4 5.5q-19 0 -96 -83q-77 -84 -148 -175z" />
    <glyph glyph-name="o" unicode="o" horiz-adv-x="569" 
d="M102 299q-48 -38 -69 -84q75 -97 246 -82q20 55 20 111q0 75 -36 129q-35 53 -103 53q-58 0 -106 -39q-46 -39 -46 -96v-10q15 19 42 37q30 22 38 22t14.5 -9t6.5 -18q0 -11 -7 -14zM578 279l6 -7q-67 -51 -153 -94q-80 -41 -148 -53q-33 -76 -86 -116t-111 -40
q-61 0 -102 40q-43 42 -43 106q0 75 57 155v13q0 65 50 106q50 43 114 43q73 0 109 -54t36 -132q0 -64 -18 -111q57 9 141 51q88 45 148 93zM31 205q-33 -69 -33 -117q0 -49 27.5 -76.5t70.5 -27.5q53 0 101 37t75 104q-74 -9 -139.5 12t-101.5 68z" />
    <glyph glyph-name="p" unicode="p" horiz-adv-x="518" 
d="M0 279l47 -3q-40 -112 -53 -161q139 166 215 166q27 0 45 -27.5t18 -67.5q0 -37 -16 -82q66 23 124.5 62.5t141.5 109.5l8 -4q-154 -131 -278 -176q-34 -77 -95 -131q-62 -55 -137 -55q-26 0 -41.5 10t-15.5 25q0 39 68 71q42 21 60 28q54 21 63 24q39 13 45 16
q30 62 30 113q0 75 -39 75q-35 -3 -92 -55q-56 -51 -108 -119l-34 -123q-29 -107 -39 -143q-4 -15 -43 -142q-28 -91 -50 -151q-21 -57 -54 -135q-35 -79 -65 -130q-72 -122 -151 -181q-50 -35 -89 -35q-33 0 -52 20t-19 54q0 64 60 190q59 124 150 265q177 274 326 462
q38 135 70 230zM-74 31q-104 -129 -211 -283q-118 -172 -214 -349q-99 -180 -99 -263q0 -60 41 -60q29 0 80 39q171 132 317 610q28 93 86 306zM41 -61q95 29 156 137q-2 0 -11 -3.5t-21 -8t-19 -6.5q-12 -4 -67 -26q-48 -20 -80.5 -42.5t-31.5 -42.5q0 -17 39 -17
q25 5 35 9z" />
    <glyph glyph-name="q" unicode="q" horiz-adv-x="600" 
d="M225 272h47q-53 -122 -137 -346q45 6 113 52q73 48 123 91q61 51 135 118q77 69 100 89l4 -4l-101 -91q-115 -103 -137 -121q-50 -42 -124 -89q-72 -47 -115 -51q-9 -23 -10 -31q39 -107 39 -305q0 -266 -60 -415q-61 -150 -145 -150q-38 0 -58 37.5t-20 101.5
q0 204 117 535q70 194 101 273q29 73 110 263q-183 -231 -291 -231q-32 0 -49 16.5t-17 44.5q0 68 71 150t147 82q36 0 61 -17t25 -43q0 -23 -23 -43l-6 2q22 22 22 43q0 14 -13 24.5t-34 10.5q-70 0 -140 -82q-69 -81 -69 -143q0 -37 33 -37q36 0 83.5 31.5t92.5 81.5
q90 99 125 153zM119 -121q-113 -303 -146 -423q-53 -188 -53 -333q0 -96 45 -96q73 0 130 152q59 151 59 399q0 202 -35 301z" />
    <glyph glyph-name="r" unicode="r" horiz-adv-x="444" 
d="M272 780q-96 -56 -186 -187t-90 -243q0 -39 18 -63q63 59 141 144t150 192q74 107 74 157q-3 29 -31 29q-29 0 -76 -29zM-2 -47q3 -29 27 -29q25 0 88 48q54 41 121 103q60 54 131 122l86 79l4 -4l-128 -120q-129 -121 -204.5 -178.5t-110.5 -57.5q-47 0 -47 57
q0 47 30 135q26 77 58 144q-54 18 -76 42.5t-22 67.5q0 59 33 131q35 75 69 125q66 96 137 152.5t134 56.5q59 0 59 -51q0 -41 -43 -112q-46 -77 -106 -147q-113 -133 -220 -236q23 -26 78 -31q-22 -47 -62 -157q-36 -103 -36 -140z" />
    <glyph glyph-name="s" unicode="s" horiz-adv-x="299" 
d="M72 119q125 72 231 157l4 -4q-54 -45 -109 -84q-51 -33 -124 -75q16 -110 -56 -172q-39 -33 -88 -33q-27 0 -43 11t-16 28q0 32 41 71q20 18 43 32q24 16 42 26q31 18 40 22q-1 5 -22 81q-17 62 -17 93q0 42 24 67.5t58 25.5q37 0 37 -29q0 -11 -17 -31l-4 6q15 15 15 27
q0 6 -9 6q-24 0 -41 -20q-33 -40 -18 -102q4 -19 15 -55q12 -41 14 -48zM37 92l-34 -19q-19 -10 -44 -26q-34 -20 -59.5 -47t-22.5 -51q0 -21 31 -21q45 0 80 35q49 49 49 129z" />
    <glyph glyph-name="t" unicode="t" horiz-adv-x="430" 
d="M0 102q-14 -75 -14 -110q0 -62 28 -62q25 0 87 47q72 55 121 100l129 120l85 79l4 -4q-24 -20 -131 -121q-243 -229 -303 -229q-28 0 -43.5 26.5t-15.5 74.5q0 178 124 471q70 165 98 226q8 16 26.5 55.5t37.5 79t39 79.5q-174 0 -259.5 -9.5t-114.5 -37.5l-7 8
q32 28 123.5 38.5t264.5 10.5q64 127 124 207h54q-67 -87 -129 -207q97 -5 226 -2q148 3 261 10q128 8 212 40q87 33 81 85h10q0 -111 -337 -135q-126 -8 -459 -8q-120 -238 -201 -438q-78 -196 -121 -394z" />
    <glyph glyph-name="u" unicode="u" horiz-adv-x="632" 
d="M262 274l43 2q-37 -75 -79 -179q-42 -102 -42 -138q0 -29 23 -29q64 0 368 287l64 59l4 -4l-61 -59q-124 -119 -232 -206q-115 -91 -153 -91q-20 0 -31.5 15.5t-11.5 43.5q0 82 96 277l-59 -71q-10 -12 -33.5 -40.5t-34.5 -40.5q-19 -23 -63 -69q-69 -74 -109 -74
q-18 0 -29.5 13.5t-11.5 39.5q0 63 94 277h43q-104 -231 -106 -293q0 -27 20 -27q37 0 113 84l66 76l69 83z" />
    <glyph glyph-name="v" unicode="v" horiz-adv-x="493" 
d="M0 276h43q-113 -264 -113 -333q0 -27 21 -27q69 0 252 272q-76 27 -76 131q0 81 40 180q41 101 77 156q45 68 92 107t84 39q23 0 36 -17.5t13 -50.5q0 -73 -61 -201q-72 -146 -195 -339q25 -7 47 -7q54 0 124 27q69 27 116 63l4 -4q-46 -36 -118 -66q-72 -28 -126 -28
q-29 0 -51 8q-40 -59 -61 -88q-30 -42 -66 -86q-83 -106 -141 -106q-19 0 -31 15t-12 44q0 92 102 311zM205 195q68 105 121 199q58 105 75 141q62 127 62 196q0 64 -45 64q-35 0 -81.5 -39t-88.5 -105q-33 -49 -75 -152q-40 -99 -40 -180q0 -97 72 -124z" />
    <glyph glyph-name="w" unicode="w" horiz-adv-x="757" 
d="M207 197l51 65h43q-106 -248 -106 -319q0 -27 20 -27q69 0 252 272q-76 27 -76 131q0 81 40 180q41 101 77 156q45 68 92 107t84 39q23 0 36 -17.5t13 -50.5q0 -73 -61 -201q-72 -146 -195 -339q25 -7 47 -7q54 0 124 27q69 27 116 63l4 -4q-46 -36 -118 -66
q-72 -28 -126 -28q-29 0 -51 8q-9 -12 -29.5 -43t-30.5 -45q-24 -33 -67 -86q-83 -106 -141 -106q-19 0 -31 15.5t-12 45.5q0 78 88 277l-40 -53q-9 -13 -24.5 -31.5t-20.5 -25.5l-44 -54q-42 -52 -87 -91q-41 -40 -73 -40q-43 0 -43 61q0 90 84 269h43q-94 -232 -94 -293
q0 -50 53 -15q33 21 75 69q25 28 63 75q1 1 26 32t39 50zM469 195q68 105 121 199q64 115 76 141q61 125 61 196q0 64 -45 64q-35 0 -81.5 -39t-88.5 -105q-33 -49 -75 -152q-40 -99 -40 -180q0 -97 72 -124z" />
    <glyph glyph-name="x" unicode="x" horiz-adv-x="604" 
d="M55 150l346 305h11l-355 -314q18 -112 40 -166.5t57 -54.5q47 0 152 85l95 82q10 9 30.5 27t40 36t38.5 35q41 39 100 91l4 -4q-88 -88 -217 -203q-127 -113 -184 -139q-35 -16 -63 -16q-51 0 -77.5 45t-49.5 154q-224 -194 -302 -240l-4 6q73 42 306 240q-16 91 -25 160
h41q5 -59 16 -129z" />
    <glyph glyph-name="y" unicode="y" horiz-adv-x="567" 
d="M571 276l4 -4q-149 -136 -346 -290q-80 -310 -137 -490q-55 -181 -122.5 -319t-135.5 -215q-131 -150 -242 -150q-67 0 -111 53q-46 52 -46 144q0 57 22 123q59 164 211 345q63 75 157 166q74 70 169 154q115 99 180 152l78 307l-40 -51l-44 -58q-4 -6 -44 -54
q-37 -46 -87 -92q-43 -40 -74 -40q-19 0 -31 15.5t-12 45.5q0 45 26 121q25 73 56 140h41q-90 -231 -90 -285q0 -27 20 -27q34 0 106 79q47 55 59 70q22 26 67 84l51 66l2 6h45q-16 -53 -72 -280q273 222 340 284zM172 -63q-110 -90 -176 -147q-91 -80 -163 -148
q-91 -88 -154 -163q-150 -183 -214 -353q-22 -59 -22 -123q0 -77 36 -126q36 -51 87 -51q66 0 135 52t119 124t100 172q73 147 131 332q42 136 121 431z" />
    <glyph glyph-name="z" unicode="z" horiz-adv-x="708" 
d="M711 274l8 -2q-30 -29 -121 -115q-51 -48 -165 -141q-97 -80 -251 -194q0 -85 -22 -189q-27 -125 -87 -282q-55 -144 -146 -295q-86 -144 -177 -207q-51 -34 -109 -40.5t-103 15.5q-47 22 -77 68.5t-30 106.5q0 51 21 108q42 112 142 223q57 62 111 114q62 58 135 118
q34 28 145 116q53 43 156 121v29q0 105 -45 162q3 29 61 119q58 89 81 112q-3 0 -45 -8t-68 -8q-96 0 -129 74l6 4q29 -70 125 -70q47 0 90 10t49 10h8h9q4 -4 4 -6q0 -1 -36 -54q-3 -4 -73 -112q-36 -57 -41 -84q42 -51 45 -147q134 100 248 194q117 97 159 136
q58 53 122 114zM119 -358q19 83 22 149q-106 -82 -155 -120q-123 -98 -144 -115q-77 -66 -133 -118q-43 -40 -109 -112q-55 -61 -88 -112q-75 -118 -75 -211q0 -61 28.5 -106.5t71.5 -64.5t95.5 -11.5t97.5 44.5q86 74 170 222q151 270 219 555z" />
    <glyph glyph-name="braceleft" unicode="{" horiz-adv-x="294" 
d="M203 -367v-6q-99 37 -99 154q0 61 16 138q15 72 15 138q0 113 -84 142q63 53 81 114q20 65 24 133l4 152q4 74 30 140q25 65 107 104v-13q-115 -50 -122 -207q-3 -69 -3 -142q0 -74 -19 -147q-20 -76 -69 -128q68 -29 68 -135q0 -63 -16 -143q-15 -75 -15 -142
q0 -123 82 -152z" />
    <glyph glyph-name="bar" unicode="|" horiz-adv-x="1705" 
d="M631 1315h37v-1729h-37v1729z" />
    <glyph glyph-name="braceright" unicode="}" horiz-adv-x="294" 
d="M51 -373v6q101 39 101 199q0 28 -5 105q-4 61 -4 102q9 130 88 166q-67 74 -67 198q0 38 8 124t8 120q0 135 -96 182v13q111 -57 111 -209q0 -30 -8 -113q-7 -71 -7 -112q0 -135 84 -209q-64 -20 -84 -72q-20 -54 -20 -117q0 -31 3 -91t3 -91q0 -68 -23 -122
q-23 -55 -92 -79z" />
    <glyph glyph-name="asciitilde" unicode="~" horiz-adv-x="886" 
d="M864 461l4 -23q-77 -37 -157 -37q-77 0 -206 46l-60 24l-49 22l-29 13q-75 33 -142 33q-81 0 -159 -72v20q70 70 165 70q60 0 249 -67q186 -66 235 -66q76 0 149 37z" />
    <glyph glyph-name="exclamdown" unicode="&#xa1;" horiz-adv-x="288" 
d="M31 -188l239 1560h39l-227 -1560h-51zM283 1468h39v-38h-52z" />
    <glyph glyph-name="cent" unicode="&#xa2;" horiz-adv-x="559" 
d="M172 -18l-8 -175h-37l8 173q-77 0 -117.5 48.5t-40.5 125.5q0 93 52 176q51 82 131 108l10 197h37l-10 -191q109 0 110 -51l-14 -6q-3 31 -62 31q-25 0 -36 -4l-23 -426q105 17 236 141q51 48 97 98q33 35 75 86l6 -4q-254 -305 -414 -327zM70 14q28 -25 65 -28l23 409
q-58 -37 -93 -108q-36 -74 -36 -148q0 -81 41 -125z" />
    <glyph glyph-name="sterling" unicode="&#xa3;" horiz-adv-x="1675" 
d="M2169 -305l2 -6q-146 -19 -270 -19q-137 0 -310 19q-119 13 -356 48q-226 33 -313 42q-79 -39 -181 -61q-107 -23 -202 -23q-67 0 -131 14q-62 14 -62 37q0 12 26 24q70 29 281 29q63 0 215 -8q102 48 188 129q80 75 145.5 168t134.5 219q36 65 116.5 220.5t124.5 232.5
q54 97 139 210q76 99 168 175q-33 -4 -429 -42q-360 -34 -533 -69q-155 -29 -279 -69q-128 -42 -245 -106q-122 -67 -201 -149q-84 -88 -132.5 -208t-48.5 -262q0 -87 23 -205h-6q-23 118 -23 207q0 303 208 496q127 119 313 191q166 66 389 111q193 38 532 68
q380 37 442 45q37 37 105 79q61 38 112 38q18 0 30.5 -6.5t12.5 -16.5q0 -29 -55 -53q-59 -26 -139 -37q-96 -71 -176 -170q-75 -91 -135 -189.5t-135 -243.5q-162 -313 -247 -444q-143 -222 -335 -325q104 -11 311 -41q426 -66 662 -66q140 0 264 17zM2103 1241
q-50 -17 -131 -76q72 12 125 35q51 22 51 45q0 4 -10 4l-4 -1q-4 -1 -13 -3zM389 -274q49 -11 121 -11q188 0 348 70q-120 8 -252 8q-165 -6 -229 -29q-17 -6 -22.5 -13t2.5 -14t32 -11zM1790 418h-582v35h582v-35z" />
    <glyph glyph-name="currency" unicode="&#xa4;" horiz-adv-x="1705" 
 />
    <glyph glyph-name="yen" unicode="&#xa5;" horiz-adv-x="2250" 
d="M1876 -45h2q-13 -26 -34 -78q-24 -58 -35 -83l-33 -76q-21 -49 -38 -79l-38 -73q-25 -51 -44 -78q-77 -128 -149 -201q29 -82 29 -155q0 -126 -63 -256l-7 4q62 124 62 264q-6 70 -27 139q-97 -100 -224 -163q-125 -62 -255 -62q-142 0 -260 88q-117 87 -117 203
q0 111 113 192q115 82 258 82q142 0 274 -82q133 -83 197 -213q69 80 135 193q61 104 100 188q36 74 93 209q16 38 16 39l207 555q-60 -71 -72 -85q-40 -47 -83 -96q-69 -80 -97 -110q-35 -39 -102 -106q-77 -79 -108 -106q-50 -46 -106 -90q-66 -54 -105 -76
q-108 -66 -185 -66q-46 0 -73.5 26.5t-27.5 81.5q0 83 62 231q64 154 154 307q183 309 341 527q-89 -72 -254 -128q-111 -37 -153 -49q-21 -6 -191 -54q-5 -1 -56.5 -15.5t-88.5 -23.5q-239 -62 -343 -107q-190 -80 -296 -228q-94 -132 -150 -337l-8 2q52 189 128 303
q83 127 172 185q109 71 220 108q81 28 126 40q115 32 141 38l51 13q25 7 102 28q35 9 89 24.5t72 20.5q19 5 138 43q83 28 134 50q40 18 100 51q49 28 84 63h49q-47 -67 -117 -172q-40 -60 -147 -233q-97 -157 -155 -266q-67 -125 -113 -244q-48 -125 -48 -197
q0 -43 15.5 -61.5t48.5 -18.5q136 0 368 213q116 102 263 265q99 110 209 244q1 1 8.5 10t11.5 13q57 144 119 267q62 119 127 196q66 78 118 78q13 0 13 -14q0 -76 -293 -436q-31 -71 -80 -198q-28 -74 -92 -248q-75 -202 -82 -220zM1004 -924q132 5 257 73q128 69 220 173
q-63 134 -197 214q-134 79 -278 79q-144 -6 -249 -84q-104 -78 -104 -186q-2 -70 50.5 -134t135 -100.5t165.5 -34.5zM2138 643q128 154 200 260t72 131q0 4 -4 4q-16 0 -82 -73q-94 -106 -186 -322zM2310 362h-1458l2 33h1458zM2296 61h-1458l2 33h1458z" />
    <glyph glyph-name="brokenbar" unicode="&#xa6;" horiz-adv-x="126" 
d="M117 612h-45l34 664h11v-664zM25 -311l81 663z" />
    <glyph glyph-name="section" unicode="&#xa7;" horiz-adv-x="768" 
d="M346 950l16 23q28 33 72 52t90 19q62 0 95.5 -33.5t33.5 -97.5q-4 -44 -18 -82l-12 3q20 45 20 88q0 56 -31.5 84t-85.5 28q-75 0 -129 -42q-53 -41 -53 -103q0 -46 30 -97q8 -14 17.5 -26.5t22 -26t21.5 -22.5t26 -24t25 -21.5t29.5 -24t28.5 -23.5q31 -26 96 -82
q46 -39 74.5 -89.5t28.5 -98.5q-3 -42 -29 -81.5t-67 -67.5q-83 -54 -147 -62q-94 -98 -244 -98q-92 0 -148 41q-57 42 -57 100q3 53 62.5 99t171.5 73l4 -6q-114 -31 -172 -75.5t-58 -94.5t57 -89q56 -38 142 -38q38 0 81.5 10.5t87 31.5t71.5 59.5t28 87.5q0 43 -21.5 85
t-56 77t-76 69.5t-82.5 69.5t-75.5 70t-56 77t-21.5 86q4 77 66 125q62 47 143 47zM592 182q53 20 86 62.5t33 95.5q0 48 -29 97q-9 16 -22 32t-21.5 26.5t-29 29t-27 24t-34 28.5t-31.5 26l-93 80q-100 88 -100 181q0 45 18 78q-76 0 -129 -44q-53 -43 -53 -103
q0 -105 140 -216q7 -6 34 -26.5t36.5 -28.5t34 -28t35.5 -30.5t31 -30t29.5 -32.5t22.5 -31.5t19 -34t10.5 -34t4.5 -35.5q0 -56 -47 -112q32 4 82 26z" />
    <glyph glyph-name="dieresis" unicode="&#xa8;" horiz-adv-x="382" 
d="M100 1247h6q21 -6 21 -28q-2 -26 -24 -54q-21 -28 -44 -28q-18 0 -18 26q2 26 19 55t40 29zM315 1264h7q20 -6 20 -29q-2 -25 -24 -53q-21 -29 -44 -29q-18 0 -18 27q2 25 19 54q17 30 40 30z" />
    <glyph glyph-name="copyright" unicode="&#xa9;" horiz-adv-x="1705" 
 />
    <glyph glyph-name="ordfeminine" unicode="&#xaa;" horiz-adv-x="741" 
d="M688 795q0 3 -24 4q4 28 16 78q12 49 14 81l-20 -36q-14 -26 -25 -42q-48 -80 -86 -73q-41 0 -41 70q0 45 43 70.5t129 25.5q0 32 -7 44.5t-28 12.5q-22 0 -71 -26l-2 6q141 73 133 -58q0 -27 -16 -94q-15 -62 -15 -63zM545 870q0 -55 28 -55q22 0 44 25q27 31 49 72
l28 53v6q-74 0 -110 -24.5t-39 -76.5z" />
    <glyph glyph-name="guillemotleft" unicode="&#xab;" horiz-adv-x="831" 
d="M489 -84l-12 -16q-327 292 -422 383l280 201l265 180l8 -23q-46 -26 -135 -86q-29 -20 -59 -42l-22 -16t-17.5 -13t-9.5 -7l-273 -196q43 -42 186 -169q136 -122 211 -196zM705 -84l-13 -16q-327 292 -422 383l280 201l265 180l8 -23q-46 -26 -135 -86q-29 -20 -59 -42
l-22 -16t-17.5 -13t-9.5 -7l-273 -196q43 -42 186 -169q146 -130 212 -196z" />
    <glyph glyph-name="logicalnot" unicode="&#xac;" horiz-adv-x="933" 
d="M920 563v-407h-68v364h-784v43h852z" />
    <glyph glyph-name="degree" unicode="&#xb0;" horiz-adv-x="387" 
d="M92 983q3 57 49 97t109 40q64 0 105 -40q42 -40 42 -97q0 -55 -50 -96t-111 -41q-64 0 -104 39t-40 98zM113 983q0 -51 35 -85t92 -34q54 0 96 36q43 37 43 87q0 49 -38 83q-37 34 -89 34q-55 0 -97 -36q-41 -35 -42 -85z" />
    <glyph glyph-name="plusminus" unicode="&#xb1;" horiz-adv-x="790" 
d="M414 156l-4 -338l-23 -2l4 340h-340l2 22h338l4 346l23 2l-4 -348h348l-2 -22h-346zM735 -285h-708l2 23h708z" />
    <glyph glyph-name="twosuperior" unicode="&#xb2;" horiz-adv-x="747" 
d="M796 529q-52 49 -93 65q-27 -32 -66 -58q-43 -27 -74 -27q-19 0 -34.5 10t-15.5 24t20.5 31.5t43.5 27.5q27 12 65 12q21 0 50 -8q34 39 68 122q32 79 32 145q0 105 -83 105q-25 0 -50 -10t-33 -25l-6 1q33 39 89 39q95 0 95 -115q0 -65 -31 -149q-30 -80 -66 -121
q33 -11 91 -64zM688 603q-30 6 -49 6q-27 0 -62 -11q-21 -7 -39 -22t-18 -30q0 -11 10.5 -20t26.5 -9q13 0 27 6q12 5 62 39q40 27 42 41z" />
    <glyph glyph-name="threesuperior" unicode="&#xb3;" horiz-adv-x="733" 
d="M626 1082l-13 5q12 4 29 4q58 0 95.5 -35t37.5 -92q0 -41 -19 -83t-50 -66q65 -16 65 -107q0 -75 -47 -137q-48 -61 -118 -61q-53 0 -86.5 33t-60.5 103q2 2 8 2q39 -131 134 -131q57 0 106 61t49 132t-58 98l3 20q28 26 46 64.5t18 74.5q0 49 -37 83q-36 33 -86 33
q-13 0 -16 -1z" />
    <glyph glyph-name="acute" unicode="&#xb4;" horiz-adv-x="225" 
d="M96 1081l135 148l17 -15l-148 -141z" />
    <glyph glyph-name="middot" unicode="&#xb7;" horiz-adv-x="167" 
d="M106 188h7q20 -6 20 -28q-2 -26 -24 -54t-46 -28q-16 0 -16 20q0 23 18 59q17 31 41 31z" />
    <glyph glyph-name="cedilla" unicode="&#xb8;" horiz-adv-x="229" 
d="M43 2v4q62 -25 98.5 -68t36.5 -88t-38.5 -74t-106.5 -32v16q55 3 89 31t34 68q0 44 -29.5 83t-83.5 60z" />
    <glyph glyph-name="onesuperior" unicode="&#xb9;" horiz-adv-x="165" 
d="M160 1140l13 -11q-42 -245 -71 -602q-2 0 -7.5 0.5t-6.5 0.5q5 43 15 167q22 235 44 383q5 25 5 28t-2 3q-10 0 -62 -67v13q23 30 72 85z" />
    <glyph glyph-name="ordmasculine" unicode="&#xba;" horiz-adv-x="477" 
d="M119 668q18 -32 56.5 -50t84.5 -20q21 42 21 84q0 52 -27 80.5t-64 28.5q-35 0 -61 -20t-27 -50q0 -6 2 -14q14 17 31 28l21 -22q-28 -23 -37 -45zM258 594q-42 0 -82.5 18.5t-60.5 49.5q-15 -32 -15 -68q0 -70 56 -70q29 0 57 20t45 50zM100 700q-4 15 -4 21
q3 33 30 54.5t62 21.5q42 0 70.5 -30t28.5 -83q0 -38 -21 -86q117 0 201 100l4 -4q-87 -100 -207 -100q-44 -76 -117 -76q-34 0 -52.5 26.5t-18.5 67.5q0 50 24 88z" />
    <glyph glyph-name="guillemotright" unicode="&#xbb;" horiz-adv-x="831" 
d="M342 -100l-12 16q80 70 235 197q159 130 203 168l-153 121l-105 85l-96 72q-45 32 -125 82l8 23q105 -70 250 -180l258 -201q-167 -146 -463 -383zM127 -100l-12 16q80 70 235 197q159 130 203 168l-153 121l-105 85l-96 72q-45 32 -125 82l8 23q105 -70 250 -180
l258 -201q-167 -146 -463 -383z" />
    <glyph glyph-name="onequarter" unicode="&#xbc;" horiz-adv-x="1681" 
d="M597 1219l17 -14q-48 -287 -93 -793q-2 0 -9.5 0.5t-8.5 0.5q1 7 20 216q4 45 30 294q4 38 28 216q6 25 6 36q0 4 -3 4q-14 0 -81 -88v15q16 26 94 113zM311 -465l-35 19l824 1474l28 -18zM822 63l35 56l11 -1v-1q-25 -36 -88 -141q-69 -118 -80 -139q55 -3 99 -4
q67 -3 108 -6l24 81h6h-2q1 0 2.5 -0.5l3 -1t3.5 -0.5q-19 -84 -115 -404l-15 4q2 19 38 138q30 100 54 176l-116 3q-93 4 -102 4q7 25 52 103l39 65z" />
    <glyph glyph-name="onehalf" unicode="&#xbd;" horiz-adv-x="1865" 
d="M311 -465l-35 19l824 1474l28 -18zM1047 -388q-62 56 -104 73q-32 -38 -76 -66q-47 -31 -83 -31q-22 0 -38.5 11.5t-16.5 27.5t24 37q23 19 47 30q27 13 73 13q23 0 58 -8q39 45 76 137q35 88 35 164q0 56 -24 86.5t-70 30.5q-29 0 -56 -11t-36 -28l-7 2q36 43 99 43
q52 0 80.5 -34.5t28.5 -94.5q0 -77 -36 -167q-37 -95 -75 -138q33 -11 103 -73q-1 -4 -2 -4zM926 -305q-27 7 -56 7q-36 0 -70 -12q-24 -9 -44 -26t-20 -34q0 -12 12 -21.5t30 -9.5q17 0 30 7q24 8 70 42q46 33 48 47zM597 1219l17 -14q-48 -287 -93 -793q-2 0 -9.5 0.5
t-8.5 0.5q1 7 20 216q4 45 30 294q4 38 28 216q6 25 6 36q0 4 -3 4q-14 0 -81 -88v15q16 26 94 113z" />
    <glyph glyph-name="threequarters" unicode="&#xbe;" horiz-adv-x="2154" 
d="M933 1082l-12 5q10 5 29 5q63 0 103.5 -37.5t40.5 -99.5q0 -44 -20.5 -88t-53.5 -71q33 -8 51.5 -39t18.5 -75q0 -78 -51 -146q-52 -67 -127 -67q-57 0 -92.5 35t-64.5 110q1 3 8 3q44 -140 144 -140q62 0 113 66q52 65 52 141t-61 104l3 23q31 28 50 68t19 79
q0 54 -40 90q-38 35 -93 35q-14 0 -17 -1zM784 -465l-34 19l823 1474l29 -18zM1352 112l10 -1v-1q-54 -77 -155 -257q5 0 21 -1.5t34.5 -2.5t37.5 -1l97 -5l21 74h6h-2q1 -1 4.5 -1.5t5.5 -0.5q-20 -90 -106 -371l-14 4q2 15 34 126q42 138 50 162l-200 7q10 34 156 269z
" />
    <glyph glyph-name="questiondown" unicode="&#xbf;" horiz-adv-x="794" 
d="M311 -14q-69 62 -69 145q0 96 77 171q43 41 74 65q107 85 152 159q22 37 34 72q12 37 21 70q8 28 12 78q4 45 4 72q1 15 1 81q1 39 1 74h29q-1 -7 -4 -109q-1 -88 -6 -127q-3 -28 -22 -101q-16 -61 -46 -112q-48 -75 -149 -160q-47 -38 -74 -65t-50.5 -70t-23.5 -88
q0 -71 47 -130q48 -60 127 -60q90 0 175 83q85 85 92 206h4q2 -6 2 -9q0 -104 -94 -198q-94 -92 -197 -92q-69 0 -117 45zM623 993q-11 5 -11 17q1 11 9.5 19.5t17.5 8.5q8 0 16.5 -6.5t8.5 -11.5q-1 -12 -12 -20.5t-23 -8.5q-4 0 -6 2z" />
    <glyph glyph-name="Agrave" unicode="&#xc0;" horiz-adv-x="1785" 
d="M1616 905q68 6 250 23q100 110 231 110q37 0 86 -10q-92 86 -196 86q-157 0 -371 -209zM330 -80h6q1 -52 38.5 -78t96.5 -26q92 0 211 81q51 35 112 91q50 46 105 105q42 45 105 122q64 78 93 118l87 116q19 25 42.5 56t28.5 38q-547 -97 -604 -422h-8q28 152 153 252
q56 45 135 82q131 61 331 96q181 232 286 342q-449 -45 -668 -93q-544 -119 -741 -391q-123 -171 -123 -407q0 -90 23 -211h-6q-23 121 -23 211q0 500 557 716q295 113 824 166l163 15q119 119 215 177.5t187 58.5q65 0 133 -32q72 -33 104 -77q2 -6 2 -8q0 -60 -325 -96
q-98 -110 -176 -324q21 0 61 4v-8q-25 0 -65 -4q-25 -67 -61 -180q-25 -78 -56 -187q-18 -65 -52 -175q-53 -171 -126 -286q-72 -116 -181 -116q-44 0 -81 30q-37 28 -37 80q0 48 32 92l7 -4q-31 -48 -31 -86q0 -49 35 -77q37 -29 75 -29q138 -7 240 238q30 69 58 158
q42 131 54 174q38 130 56 187q35 110 61 181q-214 -15 -366 -37l-86 -114q-69 -91 -107 -139q-70 -88 -113 -141q-74 -90 -126 -141q-44 -43 -125 -111q-132 -112 -250 -112q-70 0 -124.5 32t-55.5 93zM1608 897q-117 -117 -285 -336q119 17 363 35q78 215 174 324
q-84 -9 -126 -12q-66 -5 -126 -11zM1876 928q272 30 315 92q-50 12 -90 12q-127 0 -225 -104zM2040 1193q-59 6 -96.5 40t-46.5 86l10 1q22 -103 133 -122v-5z" />
    <glyph glyph-name="Aacute" unicode="&#xc1;" horiz-adv-x="1785" 
d="M1616 905q68 6 250 23q100 110 231 110q37 0 86 -10q-92 86 -196 86q-157 0 -371 -209zM330 -80h6q1 -52 38.5 -78t96.5 -26q92 0 211 81q51 35 112 91q50 46 105 105q42 45 105 122q64 78 93 118l87 116q19 25 42.5 56t28.5 38q-547 -97 -604 -422h-8q28 152 153 252
q56 45 135 82q131 61 331 96q181 232 286 342q-449 -45 -668 -93q-544 -119 -741 -391q-123 -171 -123 -407q0 -90 23 -211h-6q-23 121 -23 211q0 500 557 716q295 113 824 166l163 15q119 119 215 177.5t187 58.5q65 0 133 -32q72 -33 104 -77q2 -6 2 -8q0 -60 -325 -96
q-98 -110 -176 -324q21 0 61 4v-8q-25 0 -65 -4q-25 -67 -61 -180q-25 -78 -56 -187q-18 -65 -52 -175q-53 -171 -126 -286q-72 -116 -181 -116q-44 0 -81 30q-37 28 -37 80q0 48 32 92l7 -4q-31 -48 -31 -86q0 -49 35 -77q37 -29 75 -29q138 -7 240 238q30 69 58 158
q42 131 54 174q38 130 56 187q35 110 61 181q-214 -15 -366 -37l-86 -114q-69 -91 -107 -139q-70 -88 -113 -141q-74 -90 -126 -141q-44 -43 -125 -111q-132 -112 -250 -112q-70 0 -124.5 32t-55.5 93zM1608 897q-117 -117 -285 -336q119 17 363 35q78 215 174 324
q-84 -9 -126 -12q-66 -5 -126 -11zM1876 928q272 30 315 92q-50 12 -90 12q-127 0 -225 -104zM1939 1193v5q117 19 163 122l9 -1q-21 -52 -66 -86t-106 -40z" />
    <glyph glyph-name="Acircumflex" unicode="&#xc2;" horiz-adv-x="1785" 
d="M1616 905q68 6 250 23q100 110 231 110q37 0 86 -10q-92 86 -196 86q-157 0 -371 -209zM330 -80h6q1 -52 38.5 -78t96.5 -26q92 0 211 81q51 35 112 91q50 46 105 105q42 45 105 122q64 78 93 118l87 116q19 25 42.5 56t28.5 38q-547 -97 -604 -422h-8q28 152 153 252
q56 45 135 82q131 61 331 96q181 232 286 342q-449 -45 -668 -93q-544 -119 -741 -391q-123 -171 -123 -407q0 -90 23 -211h-6q-23 121 -23 211q0 500 557 716q295 113 824 166l163 15q119 119 215 177.5t187 58.5q65 0 133 -32q72 -33 104 -77q2 -6 2 -8q0 -60 -325 -96
q-98 -110 -176 -324q21 0 61 4v-8q-25 0 -65 -4q-25 -67 -61 -180q-25 -78 -56 -187q-18 -65 -52 -175q-53 -171 -126 -286q-72 -116 -181 -116q-44 0 -81 30q-37 28 -37 80q0 48 32 92l7 -4q-31 -48 -31 -86q0 -49 35 -77q37 -29 75 -29q138 -7 240 238q30 69 58 158
q42 131 54 174q38 130 56 187q35 110 61 181q-214 -15 -366 -37l-86 -114q-69 -91 -107 -139q-70 -88 -113 -141q-74 -90 -126 -141q-44 -43 -125 -111q-132 -112 -250 -112q-70 0 -124.5 32t-55.5 93zM1608 897q-117 -117 -285 -336q119 17 363 35q78 215 174 324
q-84 -9 -126 -12q-66 -5 -126 -11zM1876 928q272 30 315 92q-50 12 -90 12q-127 0 -225 -104zM1855 1193h-13q81 60 135 123q3 -6 9.5 -19.5t8 -17t6.5 -13t6.5 -12t6 -10.5t7 -11.5t7.5 -11t9.5 -14.5t11.5 -16h-10q-45 63 -64 108q-56 -60 -120 -106z" />
    <glyph glyph-name="Atilde" unicode="&#xc3;" horiz-adv-x="1785" 
d="M1616 905q68 6 250 23q100 110 231 110q37 0 86 -10q-92 86 -196 86q-157 0 -371 -209zM330 -80h6q1 -52 38.5 -78t96.5 -26q92 0 211 81q51 35 112 91q50 46 105 105q42 45 105 122q64 78 93 118l87 116q19 25 42.5 56t28.5 38q-547 -97 -604 -422h-8q28 152 153 252
q56 45 135 82q131 61 331 96q181 232 286 342q-449 -45 -668 -93q-544 -119 -741 -391q-123 -171 -123 -407q0 -90 23 -211h-6q-23 121 -23 211q0 500 557 716q295 113 824 166l163 15q119 119 215 177.5t187 58.5q65 0 133 -32q72 -33 104 -77q2 -6 2 -8q0 -60 -325 -96
q-98 -110 -176 -324q21 0 61 4v-8q-25 0 -65 -4q-25 -67 -61 -180q-25 -78 -56 -187q-18 -65 -52 -175q-53 -171 -126 -286q-72 -116 -181 -116q-44 0 -81 30q-37 28 -37 80q0 48 32 92l7 -4q-31 -48 -31 -86q0 -49 35 -77q37 -29 75 -29q138 -7 240 238q30 69 58 158
q42 131 54 174q38 130 56 187q35 110 61 181q-214 -15 -366 -37l-86 -114q-69 -91 -107 -139q-70 -88 -113 -141q-74 -90 -126 -141q-44 -43 -125 -111q-132 -112 -250 -112q-70 0 -124.5 32t-55.5 93zM1608 897q-117 -117 -285 -336q119 17 363 35q78 215 174 324
q-84 -9 -126 -12q-66 -5 -126 -11zM1876 928q272 30 315 92q-50 12 -90 12q-127 0 -225 -104zM2160 1244l3 -5q-1 0 -10.5 -7.5t-17.5 -12.5t-21 -12t-28.5 -10.5t-31.5 -3.5q-26 0 -45.5 10.5t-30 23.5t-28.5 23.5t-40 10.5q-31 0 -65 -34l-8 4q36 38 73 38q36 0 70 -34
t70 -35q12 0 23 1.5t21 5t18 6.5t16.5 8.5t13 8.5t11 8t7.5 6z" />
    <glyph glyph-name="Adieresis" unicode="&#xc4;" horiz-adv-x="1785" 
d="M1616 905q68 6 250 23q100 110 231 110q37 0 86 -10q-92 86 -196 86q-157 0 -371 -209zM330 -80h6q1 -52 38.5 -78t96.5 -26q92 0 211 81q51 35 112 91q50 46 105 105q42 45 105 122q64 78 93 118l87 116q19 25 42.5 56t28.5 38q-547 -97 -604 -422h-8q28 152 153 252
q56 45 135 82q131 61 331 96q181 232 286 342q-449 -45 -668 -93q-544 -119 -741 -391q-123 -171 -123 -407q0 -90 23 -211h-6q-23 121 -23 211q0 500 557 716q295 113 824 166l163 15q119 119 215 177.5t187 58.5q65 0 133 -32q72 -33 104 -77q2 -6 2 -8q0 -60 -325 -96
q-98 -110 -176 -324q21 0 61 4v-8q-25 0 -65 -4q-25 -67 -61 -180q-25 -78 -56 -187q-18 -65 -52 -175q-53 -171 -126 -286q-72 -116 -181 -116q-44 0 -81 30q-37 28 -37 80q0 48 32 92l7 -4q-31 -48 -31 -86q0 -49 35 -77q37 -29 75 -29q138 -7 240 238q30 69 58 158
q42 131 54 174q38 130 56 187q35 110 61 181q-214 -15 -366 -37l-86 -114q-69 -91 -107 -139q-70 -88 -113 -141q-74 -90 -126 -141q-44 -43 -125 -111q-132 -112 -250 -112q-70 0 -124.5 32t-55.5 93zM1608 897q-117 -117 -285 -336q119 17 363 35q78 215 174 324
q-84 -9 -126 -12q-66 -5 -126 -11zM1876 928q272 30 315 92q-50 12 -90 12q-127 0 -225 -104zM1845 1305h6q21 -6 21 -29q-2 -25 -24 -53q-21 -29 -44 -29q-18 0 -18 27q2 25 19 54q17 30 40 30zM2060 1321h6q21 -6 21 -29q-2 -25 -24 -53q-21 -29 -44 -29q-18 0 -18 27
q2 25 19 54q17 30 40 30z" />
    <glyph glyph-name="Aring" unicode="&#xc5;" horiz-adv-x="1785" 
d="M1616 905q68 6 250 23q100 110 231 110q37 0 86 -10q-92 86 -196 86q-157 0 -371 -209zM330 -80h6q1 -52 38.5 -78t96.5 -26q92 0 211 81q51 35 112 91q50 46 105 105q42 45 105 122q64 78 93 118l87 116q19 25 42.5 56t28.5 38q-547 -97 -604 -422h-8q28 152 153 252
q56 45 135 82q131 61 331 96q181 232 286 342q-449 -45 -668 -93q-544 -119 -741 -391q-123 -171 -123 -407q0 -90 23 -211h-6q-23 121 -23 211q0 500 557 716q295 113 824 166l163 15q119 119 215 177.5t187 58.5q65 0 133 -32q72 -33 104 -77q2 -6 2 -8q0 -60 -325 -96
q-98 -110 -176 -324q21 0 61 4v-8q-25 0 -65 -4q-25 -67 -61 -180q-25 -78 -56 -187q-18 -65 -52 -175q-53 -171 -126 -286q-72 -116 -181 -116q-44 0 -81 30q-37 28 -37 80q0 48 32 92l7 -4q-31 -48 -31 -86q0 -49 35 -77q37 -29 75 -29q138 -7 240 238q30 69 58 158
q42 131 54 174q38 130 56 187q35 110 61 181q-214 -15 -366 -37l-86 -114q-69 -91 -107 -139q-70 -88 -113 -141q-74 -90 -126 -141q-44 -43 -125 -111q-132 -112 -250 -112q-70 0 -124.5 32t-55.5 93zM1608 897q-117 -117 -285 -336q119 17 363 35q78 215 174 324
q-84 -9 -126 -12q-66 -5 -126 -11zM1876 928q272 30 315 92q-50 12 -90 12q-127 0 -225 -104zM1800 1319q3 49 43 85q42 36 96 36q55 0 91 -32.5t36 -82.5q0 -52 -41 -90q-41 -37 -98 -37t-92 34t-35 87zM1817 1319q0 -46 30.5 -76.5t79.5 -30.5q46 0 85 31q38 32 38 76
q0 45 -30.5 74.5t-80.5 29.5q-49 0 -84 -30t-38 -74z" />
    <glyph glyph-name="AE" unicode="&#xc6;" horiz-adv-x="3061" 
d="M1616 905q68 6 250 23q100 110 231 110q37 0 86 -10q-92 86 -196 86q-157 0 -371 -209zM330 -80h6q1 -52 38.5 -78t96.5 -26q92 0 211 81q51 35 112 91q50 46 105 105q42 45 105 122q64 78 93 118l87 116q19 25 42.5 56t28.5 38q-547 -97 -604 -422h-8q28 152 153 252
q56 45 135 82q131 61 331 96q181 232 286 342q-449 -45 -668 -93q-544 -119 -741 -391q-123 -171 -123 -407q0 -90 23 -211h-6q-23 121 -23 211q0 500 557 716q295 113 824 166l163 15q119 119 215 177.5t187 58.5q65 0 133 -32q72 -33 104 -77q2 -6 2 -8q0 -60 -325 -96
q-98 -110 -176 -324q21 0 61 4v-8q-25 0 -65 -4q-25 -67 -61 -180q-25 -78 -56 -187q-18 -65 -52 -175q-53 -171 -126 -286q-72 -116 -181 -116q-44 0 -81 30q-37 28 -37 80q0 48 32 92l7 -4q-31 -48 -31 -86q0 -49 35 -77q37 -29 75 -29q138 -7 240 238q30 69 58 158
q42 131 54 174q38 130 56 187q35 110 61 181q-214 -15 -366 -37l-86 -114q-69 -91 -107 -139q-70 -88 -113 -141q-74 -90 -126 -141q-44 -43 -125 -111q-132 -112 -250 -112q-70 0 -124.5 32t-55.5 93zM1608 897q-117 -117 -285 -336q119 17 363 35q78 215 174 324
q-84 -9 -126 -12q-66 -5 -126 -11zM1876 928q272 30 315 92q-50 12 -90 12q-127 0 -225 -104zM2427 1016q192 -33 317 -33q73 0 145 11q70 12 70 42q-5 32 -76 51q-78 21 -155 21q-78 0 -164 -26t-137 -66zM2419 1008q-54 -45 -95 -121q-38 -73 -38 -144q0 -52 26 -92
q151 17 156 17q59 0 59 -19q0 -12 -37 -24q-39 -13 -82 -13q-59 0 -98 33q-180 -45 -327 -152q-78 -57 -137 -125q-60 -69 -95 -156.5t-35 -178.5q0 -89 27 -154t75.5 -101t105.5 -52.5t126 -16.5q111 0 213 35q138 48 272 159q68 56 125 121q57 67 91 142t34 143
q0 106 -58 155q-57 50 -147 50q-100 0 -206 -50q-109 -50 -190 -122q-82 -73 -142 -154q-61 -81 -80 -145q-12 -36 -12 -86q0 -69 40 -119q40 -51 119 -51q91 0 186 48t152 111q58 63 58 107q0 51 -62 51q-46 0 -96 -28q-51 -27 -68 -62l-8 2q19 36 72 66q52 29 98 29
q72 0 72 -60q0 -53 -64 -117q-62 -63 -159 -108q-98 -45 -185 -45q-90 0 -143 49.5t-53 132.5q0 124 126 285q64 82 155 146q100 71 210 110q70 24 150 24q103 0 172 -54t69 -165q0 -90 -53 -183q-58 -99 -134 -170q-79 -75 -168.5 -133t-168.5 -85q-99 -35 -219 -35
q-77 0 -142 18.5t-119 58t-84 108t-30 159.5q0 93 37 180.5t102 156.5q94 100 225.5 170t264.5 97q-47 41 -47 121q0 64 34 129.5t89 112.5q-161 22 -303 22q-130 0 -250 -14q-187 -24 -346 -119q-86 -51 -145 -110q-64 -64 -101 -148t-37 -174q0 -59 23 -143l-5 -2
q-24 67 -24 145q0 91 37 176t102 148q94 94 226.5 154.5t271.5 78.5q117 14 239 14q148 0 318 -22q59 50 145 75q89 27 178 27q97 0 178 -24q81 -22 81 -64q0 -24 -40 -37q-60 -22 -169 -22t-338 33zM2318 647q34 -29 88 -29q30 0 57.5 6t42.5 13.5t15 13.5q0 11 -55 11
q-10 0 -68 -8q-50 -7 -80 -7z" />
    <glyph glyph-name="Ccedilla" unicode="&#xc7;" horiz-adv-x="1951" 
d="M1759 1149q-161 0 -335 -58q-175 -58 -328 -165h65q77 0 184 -4q108 -4 185 -4q148 0 263 24q71 15 112 46t41 75q0 27 -20 45.5t-54 27.5q-52 13 -113 13zM1178 920h-93q-177 -120 -311 -297q-69 -92 -109 -196t-40 -202q0 -198 125 -317q81 -75 187 -97q110 -24 217 -2
q161 31 314.5 128t227.5 215q80 124 80 256q0 78 -32 139.5t-93 89.5l2 6q63 -30 96 -94.5t33 -145.5q0 -131 -78 -253q-59 -90 -148.5 -164.5t-194.5 -120.5q-107 -48 -217 -66q-111 -19 -219.5 6.5t-191.5 92.5q-151 124 -151 340q0 96 37.5 197t102.5 190
q128 175 298 295q-94 -2 -214 -15q-223 -22 -391 -97q-86 -38 -161.5 -98.5t-126.5 -136.5q-111 -169 -111 -426h-6q0 131 31 244q58 207 212 328q140 110 353 159q180 42 422 48q169 114 343 176q179 63 341 63q207 0 236 -79q4 -11 4 -25q0 -45 -42 -77.5t-114 -47.5
q-138 -25 -266 -25q-76 0 -179 4q-128 5 -173 5zM754 -117v4q62 -25 98.5 -67.5t36.5 -87.5t-39 -74.5t-107 -32.5v17q56 3 89.5 30.5t33.5 67.5q0 44 -29 83t-83 60z" />
    <glyph glyph-name="Egrave" unicode="&#xc8;" horiz-adv-x="1785" 
d="M1233 952q186 -32 317 -32q73 0 145 11q70 12 70 42q-5 32 -76 51q-74 20 -155 20q-82 0 -164 -25q-83 -25 -137 -67zM1225 944q-54 -45 -95 -121q-38 -73 -38 -143q0 -52 26 -92q143 16 156 16q59 0 59 -18q0 -13 -37 -25q-36 -12 -82 -12q-59 0 -98 33
q-176 -44 -326 -153q-80 -59 -138 -125q-60 -69 -95 -156.5t-35 -178.5q0 -89 27 -154t75.5 -100.5t105.5 -52t126 -16.5q111 0 213 35q140 49 272 158q69 57 125 122q57 66 91 141t34 144q0 105 -58 154q-59 51 -147 51q-98 0 -206 -51q-111 -51 -190 -121
q-82 -73 -142 -154q-61 -81 -80 -145q-12 -36 -12 -86q0 -69 40 -119q40 -51 119 -51q91 0 186 48q97 49 152 110q58 63 58 108q0 51 -62 51q-44 0 -96 -29q-52 -28 -68 -61l-8 2q18 35 72 65q52 29 98 29q72 0 72 -59q0 -53 -64 -117q-63 -65 -159 -109q-98 -45 -185 -45
q-90 0 -143 50t-53 133q0 123 126 284q66 84 155 147q98 69 210 109q73 25 150 25q103 0 172 -54t69 -165q0 -91 -53 -184q-58 -99 -134 -170q-79 -75 -168.5 -133t-168.5 -85q-96 -34 -219 -34q-77 0 -142 18.5t-119 58t-84 108t-30 159.5q0 93 37 180.5t102 156.5
q94 100 225.5 170t264.5 97q-47 41 -47 121q0 64 34 129t89 112q-169 23 -303 23q-122 0 -250 -15q-189 -24 -346 -118q-83 -49 -145 -111q-64 -64 -101 -147.5t-37 -173.5q0 -60 23 -144l-5 -2q-24 68 -24 146q0 91 37 175.5t102 147.5q94 94 227 155t271 79q117 14 239 14
q140 0 318 -23q59 50 145 75q92 28 178 28q94 0 178 -25q81 -22 81 -63q0 -24 -40 -37q-63 -23 -169 -23q-109 0 -338 33zM1124 584q34 -29 88 -29q30 0 57.5 6t42.5 13.5t15 13.5q0 10 -55 10q-18 0 -68 -7t-80 -7zM1627 1132q-59 6 -96 39.5t-46 85.5l9 1
q21 -102 133 -121v-5z" />
    <glyph glyph-name="Eacute" unicode="&#xc9;" horiz-adv-x="1785" 
d="M1233 952q186 -32 317 -32q73 0 145 11q70 12 70 42q-5 32 -76 51q-74 20 -155 20q-82 0 -164 -25q-83 -25 -137 -67zM1225 944q-54 -45 -95 -121q-38 -73 -38 -143q0 -52 26 -92q143 16 156 16q59 0 59 -18q0 -13 -37 -25q-36 -12 -82 -12q-59 0 -98 33
q-176 -44 -326 -153q-80 -59 -138 -125q-60 -69 -95 -156.5t-35 -178.5q0 -89 27 -154t75.5 -100.5t105.5 -52t126 -16.5q111 0 213 35q140 49 272 158q69 57 125 122q57 66 91 141t34 144q0 105 -58 154q-59 51 -147 51q-98 0 -206 -51q-111 -51 -190 -121
q-82 -73 -142 -154q-61 -81 -80 -145q-12 -36 -12 -86q0 -69 40 -119q40 -51 119 -51q91 0 186 48q97 49 152 110q58 63 58 108q0 51 -62 51q-44 0 -96 -29q-52 -28 -68 -61l-8 2q18 35 72 65q52 29 98 29q72 0 72 -59q0 -53 -64 -117q-63 -65 -159 -109q-98 -45 -185 -45
q-90 0 -143 50t-53 133q0 123 126 284q66 84 155 147q98 69 210 109q73 25 150 25q103 0 172 -54t69 -165q0 -91 -53 -184q-58 -99 -134 -170q-79 -75 -168.5 -133t-168.5 -85q-96 -34 -219 -34q-77 0 -142 18.5t-119 58t-84 108t-30 159.5q0 93 37 180.5t102 156.5
q94 100 225.5 170t264.5 97q-47 41 -47 121q0 64 34 129t89 112q-169 23 -303 23q-122 0 -250 -15q-189 -24 -346 -118q-83 -49 -145 -111q-64 -64 -101 -147.5t-37 -173.5q0 -60 23 -144l-5 -2q-24 68 -24 146q0 91 37 175.5t102 147.5q94 94 227 155t271 79q117 14 239 14
q140 0 318 -23q59 50 145 75q92 28 178 28q94 0 178 -25q81 -22 81 -63q0 -24 -40 -37q-63 -23 -169 -23q-109 0 -338 33zM1124 584q34 -29 88 -29q30 0 57.5 6t42.5 13.5t15 13.5q0 10 -55 10q-18 0 -68 -7t-80 -7zM1503 1132v5q117 19 163 121l9 -1q-21 -52 -66 -85.5
t-106 -39.5z" />
    <glyph glyph-name="Ecircumflex" unicode="&#xca;" horiz-adv-x="1785" 
d="M1233 952q186 -32 317 -32q73 0 145 11q70 12 70 42q-5 32 -76 51q-74 20 -155 20q-82 0 -164 -25q-83 -25 -137 -67zM1225 944q-54 -45 -95 -121q-38 -73 -38 -143q0 -52 26 -92q143 16 156 16q59 0 59 -18q0 -13 -37 -25q-36 -12 -82 -12q-59 0 -98 33
q-176 -44 -326 -153q-80 -59 -138 -125q-60 -69 -95 -156.5t-35 -178.5q0 -89 27 -154t75.5 -100.5t105.5 -52t126 -16.5q111 0 213 35q140 49 272 158q69 57 125 122q57 66 91 141t34 144q0 105 -58 154q-59 51 -147 51q-98 0 -206 -51q-111 -51 -190 -121
q-82 -73 -142 -154q-61 -81 -80 -145q-12 -36 -12 -86q0 -69 40 -119q40 -51 119 -51q91 0 186 48q97 49 152 110q58 63 58 108q0 51 -62 51q-44 0 -96 -29q-52 -28 -68 -61l-8 2q18 35 72 65q52 29 98 29q72 0 72 -59q0 -53 -64 -117q-63 -65 -159 -109q-98 -45 -185 -45
q-90 0 -143 50t-53 133q0 123 126 284q66 84 155 147q98 69 210 109q73 25 150 25q103 0 172 -54t69 -165q0 -91 -53 -184q-58 -99 -134 -170q-79 -75 -168.5 -133t-168.5 -85q-96 -34 -219 -34q-77 0 -142 18.5t-119 58t-84 108t-30 159.5q0 93 37 180.5t102 156.5
q94 100 225.5 170t264.5 97q-47 41 -47 121q0 64 34 129t89 112q-169 23 -303 23q-122 0 -250 -15q-189 -24 -346 -118q-83 -49 -145 -111q-64 -64 -101 -147.5t-37 -173.5q0 -60 23 -144l-5 -2q-24 68 -24 146q0 91 37 175.5t102 147.5q94 94 227 155t271 79q117 14 239 14
q140 0 318 -23q59 50 145 75q92 28 178 28q94 0 178 -25q81 -22 81 -63q0 -24 -40 -37q-63 -23 -169 -23q-109 0 -338 33zM1124 584q34 -29 88 -29q30 0 57.5 6t42.5 13.5t15 13.5q0 10 -55 10q-18 0 -68 -7t-80 -7zM1434 1134h-14q83 62 135 122q26 -53 35 -69.5t37 -54.5
h-10q-45 63 -64 108q-58 -62 -119 -106z" />
    <glyph glyph-name="Edieresis" unicode="&#xcb;" horiz-adv-x="1785" 
d="M1233 952q186 -32 317 -32q73 0 145 11q70 12 70 42q-5 32 -76 51q-74 20 -155 20q-82 0 -164 -25q-83 -25 -137 -67zM1225 944q-54 -45 -95 -121q-38 -73 -38 -143q0 -52 26 -92q143 16 156 16q59 0 59 -18q0 -13 -37 -25q-36 -12 -82 -12q-59 0 -98 33
q-176 -44 -326 -153q-80 -59 -138 -125q-60 -69 -95 -156.5t-35 -178.5q0 -89 27 -154t75.5 -100.5t105.5 -52t126 -16.5q111 0 213 35q140 49 272 158q69 57 125 122q57 66 91 141t34 144q0 105 -58 154q-59 51 -147 51q-98 0 -206 -51q-111 -51 -190 -121
q-82 -73 -142 -154q-61 -81 -80 -145q-12 -36 -12 -86q0 -69 40 -119q40 -51 119 -51q91 0 186 48q97 49 152 110q58 63 58 108q0 51 -62 51q-44 0 -96 -29q-52 -28 -68 -61l-8 2q18 35 72 65q52 29 98 29q72 0 72 -59q0 -53 -64 -117q-63 -65 -159 -109q-98 -45 -185 -45
q-90 0 -143 50t-53 133q0 123 126 284q66 84 155 147q98 69 210 109q73 25 150 25q103 0 172 -54t69 -165q0 -91 -53 -184q-58 -99 -134 -170q-79 -75 -168.5 -133t-168.5 -85q-96 -34 -219 -34q-77 0 -142 18.5t-119 58t-84 108t-30 159.5q0 93 37 180.5t102 156.5
q94 100 225.5 170t264.5 97q-47 41 -47 121q0 64 34 129t89 112q-169 23 -303 23q-122 0 -250 -15q-189 -24 -346 -118q-83 -49 -145 -111q-64 -64 -101 -147.5t-37 -173.5q0 -60 23 -144l-5 -2q-24 68 -24 146q0 91 37 175.5t102 147.5q94 94 227 155t271 79q117 14 239 14
q140 0 318 -23q59 50 145 75q92 28 178 28q94 0 178 -25q81 -22 81 -63q0 -24 -40 -37q-63 -23 -169 -23q-109 0 -338 33zM1124 584q34 -29 88 -29q30 0 57.5 6t42.5 13.5t15 13.5q0 10 -55 10q-18 0 -68 -7t-80 -7zM1454 1309h6q21 -6 21 -29q-2 -25 -24 -53
q-21 -29 -44 -29q-18 0 -18 27q2 25 19 54q17 30 40 30zM1669 1325h6q21 -6 21 -29q-2 -25 -24 -53q-21 -29 -44 -29q-18 0 -18 27q2 25 19 54q17 30 40 30z" />
    <glyph glyph-name="Igrave" unicode="&#xcc;" horiz-adv-x="1701" 
d="M557 -129l4 -6q-49 -25 -49 -80q0 -59 34 -99q60 -69 163 -69q20 0 53 4q227 25 376 169q136 130 231 334q45 97 170 411q38 96 88 204q104 222 237 355q-98 -22 -443 -87q-333 -61 -528 -118q-291 -86 -493 -213q-109 -70 -187 -157t-123 -202t-45 -245q0 -134 45 -287
h-6q-47 156 -47 289q0 129 45.5 244t124.5 204q79 86 189 157q204 130 495 216q188 56 532 120q330 63 449 89q35 30 47 41q23 21 56 49q62 49 118 49q37 0 37 -20q0 -31 -54 -59q-60 -32 -139 -50q-78 -70 -142 -166q-68 -100 -115 -199q-23 -48 -49.5 -109t-45 -107
t-48 -119t-44.5 -109q-106 -266 -208 -408q-206 -297 -546 -296q-30 0 -60.5 5.5t-62 19.5t-56 34t-39.5 52.5t-15 72.5q0 57 51 86zM2081 1214q-52 -21 -131 -92q80 23 126 49t46 50q0 4 -4 4q-17 0 -37 -11zM2040 1295q-59 6 -96.5 40t-46.5 86l10 1q22 -103 133 -122v-5z
" />
    <glyph glyph-name="Iacute" unicode="&#xcd;" horiz-adv-x="1701" 
d="M557 -129l4 -6q-49 -25 -49 -80q0 -59 34 -99q60 -69 163 -69q20 0 53 4q227 25 376 169q136 130 231 334q45 97 170 411q38 96 88 204q104 222 237 355q-98 -22 -443 -87q-333 -61 -528 -118q-291 -86 -493 -213q-109 -70 -187 -157t-123 -202t-45 -245q0 -134 45 -287
h-6q-47 156 -47 289q0 129 45.5 244t124.5 204q79 86 189 157q204 130 495 216q188 56 532 120q330 63 449 89q35 30 47 41q23 21 56 49q62 49 118 49q37 0 37 -20q0 -31 -54 -59q-60 -32 -139 -50q-78 -70 -142 -166q-68 -100 -115 -199q-23 -48 -49.5 -109t-45 -107
t-48 -119t-44.5 -109q-106 -266 -208 -408q-206 -297 -546 -296q-30 0 -60.5 5.5t-62 19.5t-56 34t-39.5 52.5t-15 72.5q0 57 51 86zM2081 1214q-52 -21 -131 -92q80 23 126 49t46 50q0 4 -4 4q-17 0 -37 -11zM1913 1295v5q117 19 163 122l9 -1q-21 -52 -66 -86t-106 -40z
" />
    <glyph glyph-name="Icircumflex" unicode="&#xce;" horiz-adv-x="1701" 
d="M557 -129l4 -6q-49 -25 -49 -80q0 -59 34 -99q60 -69 163 -69q20 0 53 4q227 25 376 169q136 130 231 334q45 97 170 411q38 96 88 204q104 222 237 355q-98 -22 -443 -87q-333 -61 -528 -118q-291 -86 -493 -213q-109 -70 -187 -157t-123 -202t-45 -245q0 -134 45 -287
h-6q-47 156 -47 289q0 129 45.5 244t124.5 204q79 86 189 157q204 130 495 216q188 56 532 120q330 63 449 89q35 30 47 41q23 21 56 49q62 49 118 49q37 0 37 -20q0 -31 -54 -59q-60 -32 -139 -50q-78 -70 -142 -166q-68 -100 -115 -199q-23 -48 -49.5 -109t-45 -107
t-48 -119t-44.5 -109q-106 -266 -208 -408q-206 -297 -546 -296q-30 0 -60.5 5.5t-62 19.5t-56 34t-39.5 52.5t-15 72.5q0 57 51 86zM2081 1214q-52 -21 -131 -92q80 23 126 49t46 50q0 4 -4 4q-17 0 -37 -11zM1855 1266l-36 2q17 81 71 137q57 57 133 57q74 0 117 -49
t70 -151h-33q-39 174 -158 174q-60 0 -105 -51q-44 -52 -59 -119z" />
    <glyph glyph-name="Idieresis" unicode="&#xcf;" horiz-adv-x="1701" 
d="M557 -129l4 -6q-49 -25 -49 -80q0 -59 34 -99q60 -69 163 -69q20 0 53 4q227 25 376 169q136 130 231 334q45 97 170 411q38 96 88 204q104 222 237 355q-98 -22 -443 -87q-333 -61 -528 -118q-291 -86 -493 -213q-109 -70 -187 -157t-123 -202t-45 -245q0 -134 45 -287
h-6q-47 156 -47 289q0 129 45.5 244t124.5 204q79 86 189 157q204 130 495 216q188 56 532 120q330 63 449 89q35 30 47 41q23 21 56 49q62 49 118 49q37 0 37 -20q0 -31 -54 -59q-60 -32 -139 -50q-78 -70 -142 -166q-68 -100 -115 -199q-23 -48 -49.5 -109t-45 -107
t-48 -119t-44.5 -109q-106 -266 -208 -408q-206 -297 -546 -296q-30 0 -60.5 5.5t-62 19.5t-56 34t-39.5 52.5t-15 72.5q0 57 51 86zM2081 1214q-52 -21 -131 -92q80 23 126 49t46 50q0 4 -4 4q-17 0 -37 -11zM1733 1386h6q20 -6 20 -28q-2 -26 -23 -53q-21 -29 -44 -29
q-19 0 -19 27q2 23 20 54q17 29 40 29zM1948 1403h6q20 -6 20 -29q-2 -26 -23 -53q-21 -29 -44 -29q-19 0 -19 27q2 23 20 54q17 30 40 30z" />
    <glyph glyph-name="Eth" unicode="&#xd0;" horiz-adv-x="2033" 
d="M1059 1223q-185 0 -371 -74q-181 -71 -326 -201q-114 -103 -199 -240q-85 -138 -85 -268q0 -18 2 -32h-6q-2 14 -2 32q0 132 86 272q87 141 200 242q146 130 329 202q187 73 372 73q239 0 450 -131q200 172 398 172q78 0 142 -37t101 -103l-4 -4q-72 125 -209 125
q-196 0 -393 -178q154 -99 233 -257q81 -159 81 -331q0 -217 -123 -397q-124 -181 -346 -256q-80 -25 -146 -25q-165 0 -223 115q-97 18 -119 90l6 2q23 -70 111 -84q-14 39 -14 84q0 89 51 176q52 89 132 142q80 55 163 55q71 0 113 -46q42 -45 42 -103q0 -96 -70 -170
q-70 -75 -173 -112q-99 -38 -207 -38q-12 0 -27 4q62 -96 189 -96q80 0 161 33q143 54 244 158q199 205 199 493q0 166 -73 311t-212 246q-146 -139 -273 -333q-146 -222 -229 -359q-114 -185 -232 -318q-125 -141 -288 -204q-87 -33 -170 -33q-86 0 -154.5 35.5
t-107.5 103.5l4 4q78 -125 223 -125q199 4 379 167q105 94 209 236q45 61 90 131q47 72 84 134l81 135l76 119q59 90 86 124q105 134 187 206q-202 133 -442 133zM1024 -70q103 0 205 43q103 43 169 117t66 154q0 53 -32 94q-33 43 -86 43q-80 0 -159 -58q-78 -59 -128 -146
q-49 -86 -49 -169q0 -52 14 -78zM1348 428h-582v35h582v-35z" />
    <glyph glyph-name="Ntilde" unicode="&#xd1;" horiz-adv-x="2088" 
d="M223 -195l2 -6q-37 -24 -37 -65q0 -60 48 -87q50 -28 102 -28q102 0 196.5 46t167.5 127q149 161 266 410l112 243l109 240q54 120 113 219q65 110 123 175q-131 -36 -176 -47q-34 -8 -96.5 -24t-90.5 -23q-50 -12 -189 -49q-93 -25 -188 -56q-73 -23 -174 -66
q-175 -74 -294 -176q-191 -161 -197 -419q0 -125 50 -260l-9 -2q-49 132 -49 260q0 183 103 324q47 63 117 121q122 101 318 179q142 57 373 118l184 47q98 23 175 42q72 18 152 42l53 54q28 26 58 44q39 24 67 24q22 0 22 -18q0 -21 -35.5 -45t-93.5 -43l-6 -8
q-84 -83 -164 -214q-79 -134 -132 -252l-123 -280q-70 -164 -115 -250q18 22 82 106q119 151 124 158q20 25 69.5 85t72.5 88q90 110 158 181q58 61 150 150q160 154 249 154q76 0 76 -133q0 -136 -79 -419q-76 -274 -193 -548q-114 -267 -201 -373q-63 -73 -127 -73
q-30 0 -56 14l4 6q14 -8 31 -8q48 0 109 70q89 105 202 378q115 275 191 549q78 278 78 414q0 115 -47 115q-75 0 -222 -135q-54 -49 -142 -142q-78 -83 -144 -162q-88 -104 -140 -169q-37 -45 -118 -150l-91 -118l-47 -60h-2q-80 -150 -174 -261q-61 -72 -114 -113
q-134 -105 -289 -105q-74 0 -132 34q-61 37 -61 101q0 44 41 69zM1597 1178q-30 -13 -79 -62q46 19 77 39t31 31q0 2 -2 2q-8 0 -27 -10zM1903 1171v-6q-14 -8 -41 -8q-57 0 -87 19q-60 38 -100 -2l2 6q18 18 39 18q18 0 72 -18q57 -19 67 -19q14 0 48 10z" />
    <glyph glyph-name="Ograve" unicode="&#xd2;" horiz-adv-x="1314" 
d="M956 446q-37 -4 -61 -4q-59 0 -127 17l-2 -8q63 -15 127 -15q22 0 59 4zM1130 713l5 8q32 -42 41 -111q16 48 16 92q0 134 -105 218t-239 84q-205 0 -416 -175q-157 -132 -269 -334q-112 -203 -112 -401q-3 -171 89 -289.5t243 -117.5q89 0 181 41q177 75 345 267
q80 91 137 185q125 206 125 377v29q-60 -125 -219 -146l4 6q158 21 215 152q-11 69 -41 115zM1178 598q2 -16 2 -39q0 -101 -48 -224q-48 -121 -131 -236q-81 -114 -182 -209q-102 -96 -216 -152q-115 -57 -218 -57q-167 0 -271 119q-104 121 -104 306q0 118 35 230
q67 218 235 402q120 130 262.5 206t272.5 76q135 0 255 -80q58 -39 93 -101t35 -134q0 -55 -20 -107zM984 1111q-59 6 -96 40t-46 86l9 1q22 -103 133 -122v-5z" />
    <glyph glyph-name="Oacute" unicode="&#xd3;" horiz-adv-x="1314" 
d="M956 446q-37 -4 -61 -4q-59 0 -127 17l-2 -8q63 -15 127 -15q22 0 59 4zM1130 713l5 8q32 -42 41 -111q16 48 16 92q0 134 -105 218t-239 84q-205 0 -416 -175q-157 -132 -269 -334q-112 -203 -112 -401q-3 -171 89 -289.5t243 -117.5q89 0 181 41q177 75 345 267
q80 91 137 185q125 206 125 377v29q-60 -125 -219 -146l4 6q158 21 215 152q-11 69 -41 115zM1178 598q2 -16 2 -39q0 -101 -48 -224q-48 -121 -131 -236q-81 -114 -182 -209q-102 -96 -216 -152q-115 -57 -218 -57q-167 0 -271 119q-104 121 -104 306q0 118 35 230
q67 218 235 402q120 130 262.5 206t272.5 76q135 0 255 -80q58 -39 93 -101t35 -134q0 -55 -20 -107zM845 1111v5q117 19 163 122l9 -1q-21 -52 -66 -86t-106 -40z" />
    <glyph glyph-name="Ocircumflex" unicode="&#xd4;" horiz-adv-x="1314" 
d="M956 446q-37 -4 -61 -4q-59 0 -127 17l-2 -8q63 -15 127 -15q22 0 59 4zM1130 713l5 8q32 -42 41 -111q16 48 16 92q0 134 -105 218t-239 84q-205 0 -416 -175q-157 -132 -269 -334q-112 -203 -112 -401q-3 -171 89 -289.5t243 -117.5q89 0 181 41q177 75 345 267
q80 91 137 185q125 206 125 377v29q-60 -125 -219 -146l4 6q158 21 215 152q-11 69 -41 115zM1178 598q2 -16 2 -39q0 -101 -48 -224q-48 -121 -131 -236q-81 -114 -182 -209q-102 -96 -216 -152q-115 -57 -218 -57q-167 0 -271 119q-104 121 -104 306q0 118 35 230
q67 218 235 402q120 130 262.5 206t272.5 76q135 0 255 -80q58 -39 93 -101t35 -134q0 -55 -20 -107zM791 1111h-14q81 60 135 123q3 -6 9.5 -19.5t8 -17t6.5 -13t6.5 -12t6 -10.5t7 -11.5t7.5 -11t9.5 -14.5t11.5 -16h-10q-44 62 -64 109q-21 -23 -58.5 -56.5t-60.5 -50.5z
" />
    <glyph glyph-name="Otilde" unicode="&#xd5;" horiz-adv-x="1314" 
d="M956 446q-37 -4 -61 -4q-59 0 -127 17l-2 -8q63 -15 127 -15q22 0 59 4zM1130 713l5 8q32 -42 41 -111q16 48 16 92q0 134 -105 218t-239 84q-205 0 -416 -175q-157 -132 -269 -334q-112 -203 -112 -401q-3 -171 89 -289.5t243 -117.5q89 0 181 41q177 75 345 267
q80 91 137 185q125 206 125 377v29q-60 -125 -219 -146l4 6q158 21 215 152q-11 69 -41 115zM1178 598q2 -16 2 -39q0 -101 -48 -224q-48 -121 -131 -236q-81 -114 -182 -209q-102 -96 -216 -152q-115 -57 -218 -57q-167 0 -271 119q-104 121 -104 306q0 118 35 230
q67 218 235 402q120 130 262.5 206t272.5 76q135 0 255 -80q58 -39 93 -101t35 -134q0 -55 -20 -107zM1103 1162l3 -5q-1 0 -10.5 -7.5t-17.5 -12.5t-21 -12t-28.5 -10.5t-31.5 -3.5q-26 0 -45.5 10.5t-30 23.5t-28.5 23.5t-40 10.5q-31 0 -65 -34l-8 4q36 38 73 38
q36 0 70 -34t70 -35q12 0 23 1.5t21 5t18 6.5t16.5 8.5t13 8.5t11 8t7.5 6z" />
    <glyph glyph-name="Odieresis" unicode="&#xd6;" horiz-adv-x="1314" 
d="M956 446q-37 -4 -61 -4q-59 0 -127 17l-2 -8q63 -15 127 -15q22 0 59 4zM1130 713l5 8q32 -42 41 -111q16 48 16 92q0 134 -105 218t-239 84q-205 0 -416 -175q-157 -132 -269 -334q-112 -203 -112 -401q-3 -171 89 -289.5t243 -117.5q89 0 181 41q177 75 345 267
q80 91 137 185q125 206 125 377v29q-60 -125 -219 -146l4 6q158 21 215 152q-11 69 -41 115zM1178 598q2 -16 2 -39q0 -101 -48 -224q-48 -121 -131 -236q-81 -114 -182 -209q-102 -96 -216 -152q-115 -57 -218 -57q-167 0 -271 119q-104 121 -104 306q0 118 35 230
q67 218 235 402q120 130 262.5 206t272.5 76q135 0 255 -80q58 -39 93 -101t35 -134q0 -55 -20 -107zM811 1184h6q21 -6 21 -29q-2 -25 -24 -53q-21 -29 -44 -29q-18 0 -18 27q2 25 19 54q17 30 40 30zM1026 1200h6q21 -6 21 -29q-2 -25 -24 -53q-21 -28 -44 -28
q-18 0 -18 26q2 25 19 54q17 30 40 30z" />
    <glyph glyph-name="multiply" unicode="&#xd7;" horiz-adv-x="694" 
d="M82 383l270 -242l297 242l23 -27l-293 -237l268 -236l-24 -26l-273 239l-295 -239l-20 26l291 236l-267 237z" />
    <glyph glyph-name="Oslash" unicode="&#xd8;" horiz-adv-x="1314" 
d="M956 446q-37 -4 -61 -4q-59 0 -127 17l-2 -8q63 -15 127 -15q22 0 59 4zM1130 713l5 8q32 -42 41 -111q16 48 16 92q0 134 -105 218t-239 84q-205 0 -416 -175q-157 -132 -269 -334q-112 -203 -112 -401q-3 -171 89 -289.5t243 -117.5q89 0 181 41q177 75 345 267
q80 91 137 185q125 206 125 377v29q-60 -125 -219 -146l4 6q158 21 215 152q-11 69 -41 115zM1178 598q2 -16 2 -39q0 -101 -48 -224q-48 -121 -131 -236q-81 -114 -182 -209q-102 -96 -216 -152q-115 -57 -218 -57q-167 0 -271 119q-104 121 -104 306q0 118 35 230
q67 218 235 402q120 130 262.5 206t272.5 76q135 0 255 -80q58 -39 93 -101t35 -134q0 -55 -20 -107zM266 -465l-35 19l824 1474l28 -18z" />
    <glyph glyph-name="Ugrave" unicode="&#xd9;" horiz-adv-x="2283" 
d="M1694 987h47q-58 -81 -124 -181q-65 -96 -160 -249q-97 -160 -166 -286q-71 -131 -123 -264q-52 -131 -52 -210q0 -110 103 -110q225 0 645 477q43 150 111 286q70 140 152 256q115 166 234.5 279t169.5 109q28 0 31 -29q0 -52 -134 -239q-153 -215 -501 -601
q-57 -168 -57 -325q0 -88 23 -166q25 -80 76 -130t116 -50q75 0 165 51q92 52 140 119l4 -3q-50 -71 -142 -123q-91 -53 -171 -53q-112 0 -181 105t-69 264q0 117 31 236l-73 -76q-38 -40 -99 -101q-37 -37 -109 -101q-59 -53 -122 -98q-136 -93 -234 -93q-69 0 -109.5 33
t-40.5 96q0 298 600 1153q-93 -79 -274 -141q-107 -37 -168 -54q-135 -39 -205 -59q-53 -15 -167 -45q-248 -65 -358 -111q-200 -84 -314 -236q-107 -141 -171 -376l-8 2q94 335 265 480q107 93 259 150q128 47 325 98l55 14l112 30l173 49q20 5 151 47q70 22 144 53
q140 63 200 123zM1933 242q222 248 361 422q149 186 203 271q57 90 57 122q0 12 -12 12q-27 0 -105 -70q-80 -73 -168 -179q-95 -114 -187 -267q-94 -157 -149 -311zM2116 1111q-59 6 -96.5 40t-46.5 86l9 1q22 -103 134 -122v-5z" />
    <glyph glyph-name="Uacute" unicode="&#xda;" horiz-adv-x="2283" 
d="M1694 987h47q-58 -81 -124 -181q-65 -96 -160 -249q-97 -160 -166 -286q-71 -131 -123 -264q-52 -131 -52 -210q0 -110 103 -110q225 0 645 477q43 150 111 286q70 140 152 256q115 166 234.5 279t169.5 109q28 0 31 -29q0 -52 -134 -239q-153 -215 -501 -601
q-57 -168 -57 -325q0 -88 23 -166q25 -80 76 -130t116 -50q75 0 165 51q92 52 140 119l4 -3q-50 -71 -142 -123q-91 -53 -171 -53q-112 0 -181 105t-69 264q0 117 31 236l-73 -76q-38 -40 -99 -101q-37 -37 -109 -101q-59 -53 -122 -98q-136 -93 -234 -93q-69 0 -109.5 33
t-40.5 96q0 298 600 1153q-93 -79 -274 -141q-107 -37 -168 -54q-135 -39 -205 -59q-53 -15 -167 -45q-248 -65 -358 -111q-200 -84 -314 -236q-107 -141 -171 -376l-8 2q94 335 265 480q107 93 259 150q128 47 325 98l55 14l112 30l173 49q20 5 151 47q70 22 144 53
q140 63 200 123zM1933 242q222 248 361 422q149 186 203 271q57 90 57 122q0 12 -12 12q-27 0 -105 -70q-80 -73 -168 -179q-95 -114 -187 -267q-94 -157 -149 -311zM2010 1111v5q117 19 163 122l9 -1q-21 -52 -66 -86t-106 -40z" />
    <glyph glyph-name="Ucircumflex" unicode="&#xdb;" horiz-adv-x="2283" 
d="M1694 987h47q-58 -81 -124 -181q-65 -96 -160 -249q-97 -160 -166 -286q-71 -131 -123 -264q-52 -131 -52 -210q0 -110 103 -110q225 0 645 477q43 150 111 286q70 140 152 256q115 166 234.5 279t169.5 109q28 0 31 -29q0 -52 -134 -239q-153 -215 -501 -601
q-57 -168 -57 -325q0 -88 23 -166q25 -80 76 -130t116 -50q75 0 165 51q92 52 140 119l4 -3q-50 -71 -142 -123q-91 -53 -171 -53q-112 0 -181 105t-69 264q0 117 31 236l-73 -76q-38 -40 -99 -101q-37 -37 -109 -101q-59 -53 -122 -98q-136 -93 -234 -93q-69 0 -109.5 33
t-40.5 96q0 298 600 1153q-93 -79 -274 -141q-107 -37 -168 -54q-135 -39 -205 -59q-53 -15 -167 -45q-248 -65 -358 -111q-200 -84 -314 -236q-107 -141 -171 -376l-8 2q94 335 265 480q107 93 259 150q128 47 325 98l55 14l112 30l173 49q20 5 151 47q70 22 144 53
q140 63 200 123zM1933 242q222 248 361 422q149 186 203 271q57 90 57 122q0 12 -12 12q-27 0 -105 -70q-80 -73 -168 -179q-95 -114 -187 -267q-94 -157 -149 -311zM1898 1065l-36 2q17 81 71 137q58 58 133 58q74 0 117 -49.5t70 -151.5h-33q-39 174 -158 174
q-61 0 -105 -50q-44 -52 -59 -120z" />
    <glyph glyph-name="Udieresis" unicode="&#xdc;" horiz-adv-x="2283" 
d="M1694 987h47q-58 -81 -124 -181q-65 -96 -160 -249q-97 -160 -166 -286q-71 -131 -123 -264q-52 -131 -52 -210q0 -110 103 -110q225 0 645 477q43 150 111 286q70 140 152 256q115 166 234.5 279t169.5 109q28 0 31 -29q0 -52 -134 -239q-153 -215 -501 -601
q-57 -168 -57 -325q0 -88 23 -166q25 -80 76 -130t116 -50q75 0 165 51q92 52 140 119l4 -3q-50 -71 -142 -123q-91 -53 -171 -53q-112 0 -181 105t-69 264q0 117 31 236l-73 -76q-38 -40 -99 -101q-37 -37 -109 -101q-59 -53 -122 -98q-136 -93 -234 -93q-69 0 -109.5 33
t-40.5 96q0 298 600 1153q-93 -79 -274 -141q-107 -37 -168 -54q-135 -39 -205 -59q-53 -15 -167 -45q-248 -65 -358 -111q-200 -84 -314 -236q-107 -141 -171 -376l-8 2q94 335 265 480q107 93 259 150q128 47 325 98l55 14l112 30l173 49q20 5 151 47q70 22 144 53
q140 63 200 123zM1933 242q222 248 361 422q149 186 203 271q57 90 57 122q0 12 -12 12q-27 0 -105 -70q-80 -73 -168 -179q-95 -114 -187 -267q-94 -157 -149 -311zM2001 1225h6q21 -6 21 -29q-2 -25 -24 -53q-21 -29 -44 -29q-18 0 -18 27q2 25 19 54q17 30 40 30z
M2216 1241h6q21 -6 21 -29q-2 -25 -24 -53q-21 -29 -44 -29q-18 0 -18 27q2 25 19 54q17 30 40 30z" />
    <glyph glyph-name="Yacute" unicode="&#xdd;" horiz-adv-x="2250" 
d="M1876 -45h2q-13 -26 -34 -78q-24 -58 -35 -83l-33 -76q-21 -49 -38 -79l-38 -73q-25 -51 -44 -78q-77 -128 -149 -201q29 -82 29 -155q0 -126 -63 -256l-7 4q62 124 62 264q-6 70 -27 139q-97 -100 -224 -163q-125 -62 -255 -62q-142 0 -260 88q-117 87 -117 203
q0 111 113 192q115 82 258 82q142 0 274 -82q133 -83 197 -213q69 80 135 193q61 104 100 188q36 74 93 209q16 38 16 39l207 555q-60 -71 -72 -85q-40 -47 -83 -96q-69 -80 -97 -110q-35 -39 -102 -106q-77 -79 -108 -106q-50 -46 -106 -90q-66 -54 -105 -76
q-108 -66 -185 -66q-46 0 -73.5 26.5t-27.5 81.5q0 83 62 231q64 154 154 307q183 309 341 527q-89 -72 -254 -128q-111 -37 -153 -49q-21 -6 -191 -54q-5 -1 -56.5 -15.5t-88.5 -23.5q-239 -62 -343 -107q-190 -80 -296 -228q-94 -132 -150 -337l-8 2q52 189 128 303
q83 127 172 185q109 71 220 108q81 28 126 40q115 32 141 38l51 13q25 7 102 28q35 9 89 24.5t72 20.5q19 5 138 43q83 28 134 50q40 18 100 51q49 28 84 63h49q-47 -67 -117 -172q-40 -60 -147 -233q-97 -157 -155 -266q-67 -125 -113 -244q-48 -125 -48 -197
q0 -43 15.5 -61.5t48.5 -18.5q136 0 368 213q116 102 263 265q99 110 209 244q1 1 8.5 10t11.5 13q57 144 119 267q62 119 127 196q66 78 118 78q13 0 13 -14q0 -76 -293 -436q-31 -71 -80 -198q-28 -74 -92 -248q-75 -202 -82 -220zM1004 -924q132 5 257 73q128 69 220 173
q-63 134 -197 214q-134 79 -278 79q-144 -6 -249 -84q-104 -78 -104 -186q-2 -70 50.5 -134t135 -100.5t165.5 -34.5zM2138 643q128 154 200 260t72 131q0 4 -4 4q-16 0 -82 -73q-94 -106 -186 -322zM2010 1111v5q117 19 163 122l9 -1q-21 -52 -66 -86t-106 -40z" />
    <glyph glyph-name="Thorn" unicode="&#xde;" horiz-adv-x="1705" 
 />
    <glyph glyph-name="germandbls" unicode="&#xdf;" horiz-adv-x="897" 
d="M57 -86l11 8q23 -76 94 -113q69 -36 155 -36q126 0 227 102q101 101 101 240q0 178 -164 297q-25 -9 -49 -9q-10 0 -10 9q0 14 22 14q7 -4 23 -4q51 0 95 53q47 56 67 117q22 62 22 106q0 62 -42 107t-136 45q-186 0 -186 -328v-53q6 -99 -8 -228q-6 -58 -27.5 -103.5
t-54.5 -63.5l-7 6q48 51 58 137q10 77 10 184q0 7 -1 33.5t-1 32.5q0 62 1 86q1 34 6 80q4 41 15 76q23 80 66 113q56 44 141 44q94 0 138 -53q45 -53 45 -129q0 -92 -54 -173q-53 -81 -127 -93q100 -60 144 -145q43 -83 43 -171q0 -146 -100 -247q-99 -103 -248 -103
q-115 0 -181 50q-69 51 -88 112zM186 78q2 0 2 2l2 -4q-2 0 -4 2z" />
    <glyph glyph-name="agrave" unicode="&#xe0;" horiz-adv-x="563" 
d="M184 264l37 -4q-38 -76 -47 -98q-16 -35 -34 -91q-19 -58 -19 -102q0 -32 26 -32q33 0 133 79q129 102 287 260l6 -4q-75 -75 -139 -135q-77 -72 -167 -140q-97 -75 -132 -75q-49 0 -49 62q0 27 23 110q12 39 27 70l20 45q-162 -219 -236 -219q-23 0 -36 19.5t-13 45.5
q0 89 79 173q78 83 144 83q31 0 50.5 -14.5t19.5 -38.5q0 -16 -10 -37l-7 -4q11 17 11 35q0 19 -10.5 32t-28.5 13q-47 0 -97 -49t-79 -109q-31 -62 -31 -100q0 -39 22 -39q43 0 143 117q99 117 107 147zM188 364q-59 6 -96 39.5t-46 85.5l9 1q21 -102 133 -121v-5z" />
    <glyph glyph-name="aacute" unicode="&#xe1;" horiz-adv-x="563" 
d="M184 264l37 -4q-38 -76 -47 -98q-16 -35 -34 -91q-19 -58 -19 -102q0 -32 26 -32q33 0 133 79q129 102 287 260l6 -4q-75 -75 -139 -135q-77 -72 -167 -140q-97 -75 -132 -75q-49 0 -49 62q0 27 23 110q12 39 27 70l20 45q-162 -219 -236 -219q-23 0 -36 19.5t-13 45.5
q0 89 79 173q78 83 144 83q31 0 50.5 -14.5t19.5 -38.5q0 -16 -10 -37l-7 -4q11 17 11 35q0 19 -10.5 32t-28.5 13q-47 0 -97 -49t-79 -109q-31 -62 -31 -100q0 -39 22 -39q43 0 143 117q99 117 107 147zM102 364v5q117 19 163 121l9 -1q-21 -52 -66 -85.5t-106 -39.5z" />
    <glyph glyph-name="acircumflex" unicode="&#xe2;" horiz-adv-x="563" 
d="M184 264l37 -4q-38 -76 -47 -98q-16 -35 -34 -91q-19 -58 -19 -102q0 -32 26 -32q33 0 133 79q129 102 287 260l6 -4q-75 -75 -139 -135q-77 -72 -167 -140q-97 -75 -132 -75q-49 0 -49 62q0 27 23 110q12 39 27 70l20 45q-162 -219 -236 -219q-23 0 -36 19.5t-13 45.5
q0 89 79 173q78 83 144 83q31 0 50.5 -14.5t19.5 -38.5q0 -16 -10 -37l-7 -4q11 17 11 35q0 19 -10.5 32t-28.5 13q-47 0 -97 -49t-79 -109q-31 -62 -31 -100q0 -39 22 -39q43 0 143 117q99 117 107 147zM25 366h-14q83 62 135 122q26 -53 35 -69.5t37 -54.5h-10
q-45 63 -64 108q-58 -62 -119 -106z" />
    <glyph glyph-name="atilde" unicode="&#xe3;" horiz-adv-x="563" 
d="M184 264l37 -4q-38 -76 -47 -98q-16 -35 -34 -91q-19 -58 -19 -102q0 -32 26 -32q33 0 133 79q129 102 287 260l6 -4q-75 -75 -139 -135q-77 -72 -167 -140q-97 -75 -132 -75q-49 0 -49 62q0 27 23 110q12 39 27 70l20 45q-162 -219 -236 -219q-23 0 -36 19.5t-13 45.5
q0 89 79 173q78 83 144 83q31 0 50.5 -14.5t19.5 -38.5q0 -16 -10 -37l-7 -4q11 17 11 35q0 19 -10.5 32t-28.5 13q-47 0 -97 -49t-79 -109q-31 -62 -31 -100q0 -39 22 -39q43 0 143 117q99 117 107 147zM301 417l3 -5q-1 -1 -10.5 -8t-17.5 -12t-20.5 -12t-28 -10.5
t-31.5 -3.5q-26 0 -46 10.5t-30.5 23t-28.5 23t-40 10.5q-30 0 -64 -34l-9 4q36 38 73 38q36 0 70 -33.5t70 -34.5q12 0 23 1.5t21 5t18 6.5t16.5 8.5t13 8.5t11 8t7.5 6z" />
    <glyph glyph-name="adieresis" unicode="&#xe4;" horiz-adv-x="565" 
d="M186 264l37 -4q-100 -185 -100 -291q0 -32 27 -32q33 0 133 79q124 98 286 260l6 -4q-79 -79 -221 -206q-72 -65 -131 -104.5t-86 -39.5q-45 0 -45 62q0 46 28 130l14 39l14 34q8 19 10 22q-162 -219 -236 -219q-23 0 -36 19t-13 46q0 88 79 172q78 84 144 84
q31 0 50.5 -14t19.5 -39q0 -16 -10 -37l-9 2q11 17 11 35q0 39 -37 39q-69 0 -138 -95q-69 -93 -69 -163q0 -39 23 -39q24 0 65 38q38 35 81 85q48 57 71 89q30 38 32 52zM20 451h7q20 -6 20 -29q-2 -26 -23 -53q-21 -29 -44 -29q-19 0 -19 27q2 23 20 54q17 30 39 30z
M184 451h6q21 -6 21 -29q-2 -25 -24 -53q-21 -29 -44 -29q-18 0 -18 27q2 25 19 54q17 30 40 30z" />
    <glyph glyph-name="aring" unicode="&#xe5;" horiz-adv-x="565" 
d="M186 264l37 -4q-38 -76 -47 -98q-16 -35 -34 -91q-19 -58 -19 -102q0 -32 27 -32q32 0 132 79q129 102 287 260l6 -4q-75 -75 -139 -135q-77 -72 -167 -140q-97 -75 -132 -75q-49 0 -49 62q0 27 23 110q12 39 27 70l20 45q-162 -219 -236 -219q-23 0 -36 19.5t-13 45.5
q0 89 79 173q78 83 144 83q31 0 50.5 -14.5t19.5 -38.5q0 -16 -10 -37l-6 -4q10 16 10 35t-10.5 32t-28.5 13q-47 0 -97 -49t-79 -109q-31 -62 -31 -100q0 -39 23 -39q42 0 142 117q99 117 107 147zM5 439q2 30 24.5 50.5t53.5 20.5q30 0 50 -19t20 -48q0 -31 -22.5 -52.5
t-54.5 -21.5q-31 0 -51 20t-20 50zM14 439q0 -27 17 -44t45 -17q27 0 47.5 18t20.5 43q0 27 -17 44.5t-44 17.5q-28 0 -47.5 -17.5t-21.5 -44.5z" />
    <glyph glyph-name="ae" unicode="&#xe6;" horiz-adv-x="1050" 
d="M186 264l37 -4q-38 -76 -47 -98q-16 -35 -34 -91q-19 -58 -19 -102q0 -32 27 -32q32 0 132 79q129 102 287 260l6 -4q-75 -75 -139 -135q-77 -72 -167 -140q-97 -75 -132 -75q-49 0 -49 62q0 27 23 110q12 39 27 70l20 45q-162 -219 -236 -219q-23 0 -36 19.5t-13 45.5
q0 89 79 173q78 83 144 83q31 0 50.5 -14.5t19.5 -38.5q0 -16 -10 -37l-6 -4q10 16 10 35t-10.5 32t-28.5 13q-47 0 -97 -49t-79 -109q-31 -62 -31 -100q0 -39 23 -39q42 0 142 117q99 117 107 147zM989 189l88 90l4 -7l-21 -21q-85 -85 -115 -113q-28 -26 -117 -104
q-144 -126 -230 -126q-61 0 -89 43q-30 46 -30 100q0 101 73 191q74 90 167 90q38 0 61 -13t23 -32q0 -33 -58 -56q-56 -22 -131 -22q-16 0 -24 2q-28 -30 -52 -89q-24 -62 -24 -110q0 -44 21.5 -71t62.5 -27q34 0 87 29q47 24 96 60q49 37 111 94q73 68 97 92zM727 231
q64 23 64 54q0 13 -15 22.5t-37 9.5q-67 0 -145 -100q10 -2 24 -2q58 0 109 16z" />
    <glyph glyph-name="ccedilla" unicode="&#xe7;" horiz-adv-x="497" 
d="M502 276q2 0 6 -4q-37 -31 -86 -77q-51 -48 -105 -94q-35 -30 -99 -79q-116 -88 -193 -88q-54 3 -82.5 37.5t-28.5 89.5q0 52 29 121q29 68 82 120t112 52q39 0 64 -22.5t28 -59.5h-8q-15 64 -65 64q-34 0 -73 -36q-68 -63 -99 -142q-29 -67 -29 -125q0 -66 43.5 -85.5
t118.5 15.5q47 22 103 66q59 47 98 80q68 61 102 93q40 38 82 74zM-34 -44v3q50 -20 70 -57.5t-0.5 -68t-75.5 -30.5v10q33 1 53 17.5t20 40.5q0 26 -17.5 49.5t-49.5 35.5z" />
    <glyph glyph-name="egrave" unicode="&#xe8;" horiz-adv-x="485" 
d="M-70 -6q3 -36 24.5 -58t57.5 -22q34 0 87 29q51 26 97 60q42 32 110 94q73 68 97 92l89 90l4 -7l-22 -21q-85 -85 -115 -113q-43 -40 -116 -104q-144 -126 -231 -126q-60 0 -89 42q-29 43 -29 99q0 68 31 131q30 68 89 116q60 48 127 48q29 0 49.5 -16t20.5 -41
q0 -45 -78 -84q-75 -37 -139 -37q-13 0 -21 2q-45 -87 -45 -154q0 -12 2 -20zM201 274v9q0 14 -13.5 23t-35.5 9q-45 0 -95 -42q-47 -41 -80 -97q2 0 9.5 -1t9.5 -1q65 0 129 34q67 36 76 66zM209 394q-59 6 -96 40t-46 86l9 1q22 -103 133 -122v-5z" />
    <glyph glyph-name="eacute" unicode="&#xe9;" horiz-adv-x="485" 
d="M-70 -6q3 -36 24.5 -58t57.5 -22q34 0 87 29q51 26 97 60q42 32 110 94q73 68 97 92l89 90l4 -7l-22 -21q-85 -85 -115 -113q-43 -40 -116 -104q-144 -126 -231 -126q-60 0 -89 42q-29 43 -29 99q0 68 31 131q30 68 89 116q60 48 127 48q29 0 49.5 -16t20.5 -41
q0 -45 -78 -84q-75 -37 -139 -37q-13 0 -21 2q-45 -87 -45 -154q0 -12 2 -20zM201 274v9q0 14 -13.5 23t-35.5 9q-45 0 -95 -42q-47 -41 -80 -97q2 0 9.5 -1t9.5 -1q65 0 129 34q67 36 76 66zM74 394v5q117 19 163 122l9 -1q-21 -52 -66 -86t-106 -40z" />
    <glyph glyph-name="ecircumflex" unicode="&#xea;" horiz-adv-x="485" 
d="M-70 -6q3 -36 24.5 -58t57.5 -22q34 0 87 29q51 26 97 60q42 32 110 94q73 68 97 92l89 90l4 -7l-22 -21q-85 -85 -115 -113q-43 -40 -116 -104q-144 -126 -231 -126q-60 0 -89 42q-29 43 -29 99q0 68 31 131q30 68 89 116q60 48 127 48q29 0 49.5 -16t20.5 -41
q0 -45 -78 -84q-75 -37 -139 -37q-13 0 -21 2q-45 -87 -45 -154q0 -12 2 -20zM201 274v9q0 14 -13.5 23t-35.5 9q-45 0 -95 -42q-47 -41 -80 -97q2 0 9.5 -1t9.5 -1q65 0 129 34q67 36 76 66zM37 396h-13q81 60 135 123q5 -10 13.5 -28t11 -22.5t8 -15.5t10 -18t11.5 -17
t17 -24h-10q-42 59 -63 109q-21 -22 -59 -56t-61 -51z" />
    <glyph glyph-name="edieresis" unicode="&#xeb;" horiz-adv-x="485" 
d="M424 189l88 90l4 -7l-21 -21q-85 -85 -115 -113q-28 -26 -117 -104q-144 -126 -230 -126q-61 0 -89 43q-30 46 -30 100q0 102 74 191q72 90 166 90q38 0 61 -13t23 -32q0 -33 -58 -56q-56 -22 -131 -22q-16 0 -24 2q-31 -33 -52 -89q-24 -59 -24 -110q0 -44 21.5 -71
t62.5 -27q34 0 87 29q47 24 96 60q49 37 111 94q73 68 97 92zM162 231q63 23 63 54q0 13 -15 22.5t-36 9.5q-67 0 -145 -100q10 -2 24 -2q58 0 109 16zM15 430h4q15 -5 15 -18q-2 -18 -17.5 -36t-29.5 -18t-14 18q1 19 14 36.5t28 17.5zM166 440h4q14 -5 14 -18
q-2 -18 -17 -35q-15 -18 -30 -18q-13 0 -13 17q3 20 15.5 37t26.5 17z" />
    <glyph glyph-name="igrave" unicode="&#xec;" horiz-adv-x="374" 
d="M0 276h41q-36 -80 -67 -165q-37 -97 -37 -142q0 -32 22 -32q34 0 115 65q74 58 192 168q32 30 60 56t42 38l13 12l4 -4q-110 -110 -253 -233q-139 -119 -179 -119q-24 0 -37.5 18t-13.5 46q0 56 35 143q35 94 63 149zM80 348q0 -31 -39 -31q-20 0 -27 15q0 14 12 24.5
t27 10.5q21 0 27 -19zM188 364q-59 6 -96 39.5t-46 85.5l9 1q21 -102 133 -121v-5z" />
    <glyph glyph-name="iacute" unicode="&#xed;" horiz-adv-x="374" 
d="M0 276h41q-36 -80 -67 -165q-37 -97 -37 -142q0 -32 22 -32q34 0 115 65q74 58 192 168q32 30 60 56t42 38l13 12l4 -4q-110 -110 -253 -233q-139 -119 -179 -119q-24 0 -37.5 18t-13.5 46q0 56 35 143q35 94 63 149zM80 348q0 -31 -39 -31q-20 0 -27 15q0 14 12 24.5
t27 10.5q21 0 27 -19zM110 364v5q116 19 162 121l10 -1q-21 -52 -66 -85.5t-106 -39.5z" />
    <glyph glyph-name="icircumflex" unicode="&#xee;" horiz-adv-x="493" 
d="M78 479q28 0 28 -28q0 -10 -10 -18.5t-24 -8.5q-12 0 -20.5 8t-8.5 19q1 12 11.5 20t23.5 8zM33 371l4 16q14 0 43 -4q0 -5 -35 -132t-35 -188q0 -86 64 -86q48 0 111 38q66 39 129 96q118 107 198 202l6 -4q-93 -108 -201 -207q-67 -61 -135 -98t-119 -37q-92 0 -92 123
q0 112 62 281zM-39 508l-23 1q12 52 46 85.5t81 33.5t72.5 -29.5t41.5 -93.5h-19q-25 107 -99 107q-36 0 -63.5 -29.5t-36.5 -74.5z" />
    <glyph glyph-name="idieresis" unicode="&#xef;" horiz-adv-x="493" 
d="M78 479q28 0 28 -28q0 -10 -10 -18.5t-24 -8.5q-12 0 -20.5 8t-8.5 19q1 12 11.5 20t23.5 8zM33 371l4 16q14 0 43 -4q0 -5 -35 -132t-35 -188q0 -86 64 -86q48 0 111 38q66 39 129 96q118 107 198 202l6 -4q-93 -108 -201 -207q-67 -61 -135 -98t-119 -37q-92 0 -92 123
q0 112 62 281zM-3 580h4q15 -4 15 -22q-2 -19 -17 -40q-17 -20 -33 -20q-13 0 -13 19q1 22 14.5 42.5t29.5 20.5zM156 592h5q15 -4 15 -22q-2 -19 -18 -40q-15 -21 -32 -21q-14 0 -14 20q3 22 16.5 42.5t27.5 20.5z" />
    <glyph glyph-name="eth" unicode="&#xf0;" horiz-adv-x="583" 
d="M395 676q-3 0 -12.5 1t-11.5 1q-81 0 -147 -61q-64 -60 -64 -138q0 -96 88 -169q87 -72 194 -72q-15 -13 -36 -13q-110 0 -195 75q-86 75 -86 173q0 86 69 152q68 65 160 65q74 0 121 -38q86 -65 86 -228q0 -204 -109 -439q-51 -110 -119 -211q-65 -96 -151 -162
q-82 -64 -166 -75l9 17q96 25 191 132q96 104 164 239q66 130 109 280q43 144 43 256q0 197 -137 215z" />
    <glyph glyph-name="ntilde" unicode="&#xf1;" horiz-adv-x="573" 
d="M-72 -39h-39q27 150 109 315h43q-55 -115 -109 -299q77 99 155 177q82 82 103 82q34 0 17 -66q-11 -49 -47 -121q-25 -63 -25 -92q0 -27 23 -27q31 0 113 67q88 72 194 172l113 107l4 -4q-362 -362 -439 -362q-67 0 -22 139q6 23 24 65q22 52 25 64q1 3 2.5 9t3 13.5
t0.5 13t-4 5.5q-19 0 -96 -83q-77 -84 -148 -175zM283 315v-6q-14 -8 -41 -8q-58 0 -87 18q-60 38 -100 -2l2 7q18 18 39 18q18 0 72 -18q57 -19 68 -19q13 0 47 10z" />
    <glyph glyph-name="ograve" unicode="&#xf2;" horiz-adv-x="569" 
d="M102 299q-48 -38 -69 -84q75 -97 246 -82q20 55 20 111q0 75 -36 129q-35 53 -103 53q-58 0 -106 -39q-46 -39 -46 -96v-10q15 19 42 37q30 22 38 22t14.5 -9t6.5 -18q0 -11 -7 -14zM578 279l6 -7q-67 -51 -153 -94q-80 -41 -148 -53q-33 -76 -86 -116t-111 -40
q-61 0 -102 40q-43 42 -43 106q0 75 57 155v13q0 65 50 106q50 43 114 43q73 0 109 -54t36 -132q0 -64 -18 -111q57 9 141 51q88 45 148 93zM31 205q-33 -69 -33 -117q0 -49 27.5 -76.5t70.5 -27.5q53 0 101 37t75 104q-74 -9 -139.5 12t-101.5 68zM248 476q-59 6 -96.5 40
t-46.5 86l10 1q22 -103 133 -122v-5z" />
    <glyph glyph-name="oacute" unicode="&#xf3;" horiz-adv-x="569" 
d="M102 299q-48 -38 -69 -84q75 -97 246 -82q20 55 20 111q0 75 -36 129q-35 53 -103 53q-58 0 -106 -39q-46 -39 -46 -96v-10q15 19 42 37q30 22 38 22t14.5 -9t6.5 -18q0 -11 -7 -14zM578 279l6 -7q-67 -51 -153 -94q-80 -41 -148 -53q-33 -76 -86 -116t-111 -40
q-61 0 -102 40q-43 42 -43 106q0 75 57 155v13q0 65 50 106q50 43 114 43q73 0 109 -54t36 -132q0 -64 -18 -111q57 9 141 51q88 45 148 93zM31 205q-33 -69 -33 -117q0 -49 27.5 -76.5t70.5 -27.5q53 0 101 37t75 104q-74 -9 -139.5 12t-101.5 68zM108 476v5
q116 19 162 122l10 -1q-21 -52 -66 -86t-106 -40z" />
    <glyph glyph-name="ocircumflex" unicode="&#xf4;" horiz-adv-x="569" 
d="M102 299q-48 -38 -69 -84q75 -97 246 -82q20 55 20 111q0 75 -36 129q-35 53 -103 53q-58 0 -106 -39q-46 -39 -46 -96v-10q15 19 42 37q30 22 38 22t14.5 -9t6.5 -18q0 -11 -7 -14zM578 279l6 -7q-67 -51 -153 -94q-80 -41 -148 -53q-33 -76 -86 -116t-111 -40
q-61 0 -102 40q-43 42 -43 106q0 75 57 155v13q0 65 50 106q50 43 114 43q73 0 109 -54t36 -132q0 -64 -18 -111q57 9 141 51q88 45 148 93zM31 205q-33 -69 -33 -117q0 -49 27.5 -76.5t70.5 -27.5q53 0 101 37t75 104q-74 -9 -139.5 12t-101.5 68zM90 478h-13
q81 60 135 123q3 -6 9.5 -19.5t8 -17t6.5 -13t6.5 -12t6 -10.5t7 -11.5t7.5 -11t9.5 -14.5t11.5 -16h-11q-42 59 -63 109q-21 -22 -59 -56t-61 -51z" />
    <glyph glyph-name="otilde" unicode="&#xf5;" horiz-adv-x="569" 
d="M102 299q-48 -38 -69 -84q75 -97 246 -82q20 55 20 111q0 75 -36 129q-35 53 -103 53q-58 0 -106 -39q-46 -39 -46 -96v-10q15 19 42 37q30 22 38 22t14.5 -9t6.5 -18q0 -11 -7 -14zM578 279l6 -7q-67 -51 -153 -94q-80 -41 -148 -53q-33 -76 -86 -116t-111 -40
q-61 0 -102 40q-43 42 -43 106q0 75 57 155v13q0 65 50 106q50 43 114 43q73 0 109 -54t36 -132q0 -64 -18 -111q57 9 141 51q88 45 148 93zM31 205q-33 -69 -33 -117q0 -49 27.5 -76.5t70.5 -27.5q53 0 101 37t75 104q-74 -9 -139.5 12t-101.5 68zM368 529l3 -5
q-1 0 -10.5 -7.5t-17.5 -12.5t-21 -12t-28.5 -10.5t-31.5 -3.5q-26 0 -45.5 10.5t-30 23.5t-28.5 23.5t-40 10.5q-31 0 -65 -34l-8 4q36 38 73 38q36 0 70 -34t70 -35q12 0 23 1.5t21 5t18 6.5t16.5 8.5t13 8.5t11 8t7.5 6z" />
    <glyph glyph-name="odieresis" unicode="&#xf6;" 
d="M117 299q-49 -40 -70 -84q75 -97 246 -82q20 55 20 111q0 76 -35 129t-104 53q-57 0 -105 -39q-46 -39 -46 -96v-10q15 19 42 37q30 22 37 22q8 0 14.5 -9t6.5 -18q0 -11 -6 -14zM592 279l6 -7q-67 -51 -153 -94q-80 -41 -148 -53q-33 -76 -86 -116t-111 -40
q-61 0 -102 40q-43 42 -43 106q0 75 57 155v13q0 65 50 106q50 43 114 43q74 0 110 -54t36 -132q0 -62 -19 -111q57 9 141 51q88 45 148 93zM45 205q-33 -69 -33 -117q0 -49 28 -76.5t71 -27.5q53 0 101 37t75 104q-74 -9 -140 12t-102 68zM50 463h5q17 -5 17 -23
q-2 -23 -19 -44.5t-36 -21.5q-15 0 -15 21q2 20 16 43q14 25 32 25zM224 476h5q17 -5 17 -22q-2 -23 -19 -45t-36 -22q-15 0 -15 22q2 18 17 43q13 24 31 24z" />
    <glyph glyph-name="divide" unicode="&#xf7;" horiz-adv-x="167" 
d="M100 219h8q20 -8 20 -30q-1 -22 -26 -56q-24 -30 -46 -30q-17 0 -17 22q0 28 18 61t43 33zM112 429h6q21 -6 21 -30q-2 -27 -24 -55q-24 -30 -46 -30q-20 0 -20 28q1 23 21 56q19 31 42 31zM376 243h-574v39h574v-39z" />
    <glyph glyph-name="oslash" unicode="&#xf8;" 
d="M92 227q-43 -40 -55 -75q63 -78 180 -78q45 0 51 18q7 16 7 21q1 7 1 12v29q0 81 -44 134q-45 54 -107 54q-47 0 -84 -31q-35 -28 -35 -75q0 -15 2 -25q10 15 31 35q19 18 31 18q9 0 16.5 -9t7.5 -19q0 -7 -2 -9zM600 276l10 -4q-50 -59 -154 -122q-106 -65 -182 -80
q-19 -64 -65.5 -104t-99.5 -40q-50 -2 -85.5 26.5t-49 70t-7.5 91t33 87.5q-4 9 -4 32q0 50 39 83q40 34 92 34q69 0 114 -60q44 -59 44 -145q0 -35 -6 -65q66 10 175 79q108 68 146 117zM35 141q-19 -55 -19 -88q0 -52 29 -82t72 -30q47 0 87 34.5t58 94.5q-15 -4 -49 -4
q-117 0 -178 75zM430 494l-405 -740l-35 13l403 731z" />
    <glyph glyph-name="ugrave" unicode="&#xf9;" horiz-adv-x="632" 
d="M262 274l43 2q-37 -75 -79 -179q-42 -102 -42 -138q0 -29 23 -29q64 0 368 287l64 59l4 -4l-61 -59q-124 -119 -232 -206q-115 -91 -153 -91q-20 0 -31.5 15.5t-11.5 43.5q0 82 96 277l-59 -71q-10 -12 -33.5 -40.5t-34.5 -40.5q-19 -23 -63 -69q-69 -74 -109 -74
q-18 0 -29.5 13.5t-11.5 39.5q0 63 94 277h43q-104 -231 -106 -293q0 -27 20 -27q37 0 113 84l66 76l69 83zM219 353q-59 6 -96 40t-46 86l9 1q22 -103 133 -122v-5z" />
    <glyph glyph-name="uacute" unicode="&#xfa;" horiz-adv-x="632" 
d="M262 274l43 2q-37 -75 -79 -179q-42 -102 -42 -138q0 -29 23 -29q64 0 368 287l64 59l4 -4l-61 -59q-124 -119 -232 -206q-115 -91 -153 -91q-20 0 -31.5 15.5t-11.5 43.5q0 82 96 277l-59 -71q-10 -12 -33.5 -40.5t-34.5 -40.5q-19 -23 -63 -69q-69 -74 -109 -74
q-18 0 -29.5 13.5t-11.5 39.5q0 63 94 277h43q-104 -231 -106 -293q0 -27 20 -27q37 0 113 84l66 76l69 83zM120 353v5q117 19 163 122l9 -1q-21 -52 -66 -86t-106 -40z" />
    <glyph glyph-name="ucircumflex" unicode="&#xfb;" horiz-adv-x="638" 
d="M268 274l43 2q-37 -75 -79 -179q-42 -102 -42 -138q0 -29 23 -29q65 0 369 287l63 59l4 -4l-61 -59q-124 -119 -232 -206q-115 -91 -153 -91q-20 0 -31.5 15.5t-11.5 43.5q0 82 96 277l-58 -71q-40 -48 -69 -81q-24 -30 -62 -69q-69 -74 -110 -74q-18 0 -29.5 13.5
t-11.5 39.5q0 63 94 277h43q-104 -231 -106 -293q0 -27 20 -27q37 0 113 84l66 76l69 83zM92 344l-19 1q9 43 39 72t70 29q39 0 62 -25t38 -79h-18q-20 90 -84 90q-32 0 -55.5 -25t-32.5 -63z" />
    <glyph glyph-name="udieresis" unicode="&#xfc;" horiz-adv-x="638" 
d="M268 274l43 2q-37 -75 -79 -179q-42 -102 -42 -138q0 -29 23 -29q65 0 369 287l63 59l4 -4l-61 -59q-124 -119 -232 -206q-115 -91 -153 -91q-20 0 -31.5 15.5t-11.5 43.5q0 82 96 277l-58 -71q-40 -48 -69 -81q-24 -30 -62 -69q-69 -74 -110 -74q-18 0 -29.5 13.5
t-11.5 39.5q0 63 94 277h43q-104 -231 -106 -293q0 -27 20 -27q37 0 113 84l66 76l69 83zM122 452h4q16 -4 16 -24q-2 -20 -18 -42t-35 -22q-14 0 -14 21q2 21 15 43q14 24 32 24zM290 464h5q15 -4 15 -23q-2 -20 -18 -42t-34 -22q-14 0 -14 20q2 21 14 43q14 24 32 24z" />
    <glyph glyph-name="yacute" unicode="&#xfd;" horiz-adv-x="567" 
d="M571 276l4 -4q-149 -136 -346 -290q-80 -310 -137 -490q-55 -181 -122.5 -319t-135.5 -215q-131 -150 -242 -150q-67 0 -111 53q-46 52 -46 144q0 57 22 123q59 164 211 345q63 75 157 166q74 70 169 154q115 99 180 152l78 307l-40 -51l-44 -58q-4 -6 -44 -54
q-37 -46 -87 -92q-43 -40 -74 -40q-19 0 -31 15.5t-12 45.5q0 45 26 121q25 73 56 140h41q-90 -231 -90 -285q0 -27 20 -27q34 0 106 79q47 55 59 70q22 26 67 84l51 66l2 6h45q-16 -53 -72 -280q273 222 340 284zM172 -63q-110 -90 -176 -147q-91 -80 -163 -148
q-91 -88 -154 -163q-150 -183 -214 -353q-22 -59 -22 -123q0 -77 36 -126q36 -51 87 -51q66 0 135 52t119 124t100 172q73 147 131 332q42 136 121 431zM99 353v5q117 19 163 122l9 -1q-21 -52 -66 -86t-106 -40z" />
    <glyph glyph-name="ydieresis" unicode="&#xff;" horiz-adv-x="632" 
d="M571 276l4 -4q-149 -136 -346 -290q-80 -310 -137 -490q-55 -181 -122.5 -319t-135.5 -215q-131 -150 -242 -150q-67 0 -111 53q-46 52 -46 144q0 57 22 123q59 164 211 345q63 75 157 166q74 70 169 154q115 99 180 152l78 307l-40 -51l-44 -58q-4 -6 -44 -54
q-37 -46 -87 -92q-43 -40 -74 -40q-19 0 -31 15.5t-12 45.5q0 45 26 121q25 73 56 140h41q-90 -231 -90 -285q0 -27 20 -27q34 0 106 79q47 55 59 70q22 26 67 84l51 66l2 6h45q-16 -53 -72 -280q273 222 340 284zM172 -63q-110 -90 -176 -147q-91 -80 -163 -148
q-91 -88 -154 -163q-150 -183 -214 -353q-22 -59 -22 -123q0 -77 36 -126q36 -51 87 -51q66 0 135 52t119 124t100 172q73 147 131 332q42 136 121 431zM138 391h5q17 -5 17 -21q-2 -17 -20 -40q-18 -21 -36 -21q-15 0 -15 20q3 23 17.5 42.5t31.5 19.5zM315 403h4
q18 -5 18 -21q-2 -17 -20 -40q-17 -21 -35 -21q-16 0 -16 20q1 22 16 42t33 20z" />
    <glyph glyph-name="Abreve" unicode="&#x102;" horiz-adv-x="1785" 
d="M1616 905q68 6 250 23q100 110 231 110q37 0 86 -10q-92 86 -196 86q-157 0 -371 -209zM330 -80h6q1 -52 38.5 -78t96.5 -26q92 0 211 81q51 35 112 91q50 46 105 105q42 45 105 122q64 78 93 118l87 116q19 25 42.5 56t28.5 38q-547 -97 -604 -422h-8q28 152 153 252
q56 45 135 82q131 61 331 96q181 232 286 342q-449 -45 -668 -93q-544 -119 -741 -391q-123 -171 -123 -407q0 -90 23 -211h-6q-23 121 -23 211q0 500 557 716q295 113 824 166l163 15q119 119 215 177.5t187 58.5q65 0 133 -32q72 -33 104 -77q2 -6 2 -8q0 -60 -325 -96
q-98 -110 -176 -324q21 0 61 4v-8q-25 0 -65 -4q-25 -67 -61 -180q-25 -78 -56 -187q-18 -65 -52 -175q-53 -171 -126 -286q-72 -116 -181 -116q-44 0 -81 30q-37 28 -37 80q0 48 32 92l7 -4q-31 -48 -31 -86q0 -49 35 -77q37 -29 75 -29q138 -7 240 238q30 69 58 158
q42 131 54 174q38 130 56 187q35 110 61 181q-214 -15 -366 -37l-86 -114q-69 -91 -107 -139q-70 -88 -113 -141q-74 -90 -126 -141q-44 -43 -125 -111q-132 -112 -250 -112q-70 0 -124.5 32t-55.5 93zM1608 897q-117 -117 -285 -336q119 17 363 35q78 215 174 324
q-84 -9 -126 -12q-66 -5 -126 -11zM1876 928q272 30 315 92q-50 12 -90 12q-127 0 -225 -104zM1902 1322l10 -1q-9 -46 8.5 -72t56.5 -26q95 0 150 102h9q-63 -111 -161 -111q-85 0 -73 108z" />
    <glyph glyph-name="abreve" unicode="&#x103;" horiz-adv-x="563" 
d="M62 484l11 -1q-9 -46 8.5 -72t56.5 -26q95 0 150 102h9q-62 -110 -161 -110q-86 0 -74 107zM184 264l37 -4q-38 -76 -47 -98q-16 -35 -34 -91q-19 -58 -19 -102q0 -32 26 -32q33 0 133 79q129 102 287 260l6 -4q-75 -75 -139 -135q-77 -72 -167 -140q-97 -75 -132 -75
q-49 0 -49 62q0 27 23 110q12 39 27 70l20 45q-162 -219 -236 -219q-23 0 -36 19.5t-13 45.5q0 89 79 173q78 83 144 83q31 0 50.5 -14.5t19.5 -38.5q0 -16 -10 -37l-7 -4q11 17 11 35q0 19 -10.5 32t-28.5 13q-47 0 -97 -49t-79 -109q-31 -62 -31 -100q0 -39 22 -39
q43 0 143 117q99 117 107 147z" />
    <glyph glyph-name="Dcroat" unicode="&#x110;" horiz-adv-x="2033" 
d="M1059 1223q-185 0 -371 -74q-181 -71 -326 -201q-114 -103 -199 -240q-85 -138 -85 -268q0 -18 2 -32h-6q-2 14 -2 32q0 132 86 272q87 141 200 242q146 130 329 202q187 73 372 73q239 0 450 -131q200 172 398 172q78 0 142 -37t101 -103l-4 -4q-72 125 -209 125
q-196 0 -393 -178q154 -99 233 -257q81 -159 81 -331q0 -217 -123 -397q-124 -181 -346 -256q-80 -25 -146 -25q-165 0 -223 115q-97 18 -119 90l6 2q23 -70 111 -84q-14 39 -14 84q0 89 51 176q52 89 132 142q80 55 163 55q71 0 113 -46q42 -45 42 -103q0 -96 -70 -170
q-70 -75 -173 -112q-99 -38 -207 -38q-12 0 -27 4q62 -96 189 -96q80 0 161 33q143 54 244 158q199 205 199 493q0 166 -73 311t-212 246q-146 -139 -273 -333q-138 -211 -177 -274q5 0 15.5 0.5t15.5 0.5q148 3 261 10q128 8 212 40q87 33 81 85h10q0 -111 -336 -135
q-87 -7 -263 -8q-9 -14 -25 -40.5t-23 -37.5q-114 -185 -232 -318q-125 -141 -288 -204q-87 -33 -170 -33q-86 0 -154.5 35.5t-107.5 103.5l4 4q78 -125 223 -125q199 4 379 167q105 94 209 236q45 61 90 131q42 65 51 81h-153q-174 0 -260 -9.5t-115 -37.5l-6 8
q32 28 123 38.5t264 10.5q65 -3 152 -3q17 26 28 46l81 135l76 119q59 90 86 124q105 134 187 206q-202 133 -442 133zM1024 -70q103 0 205 43q103 43 169 117t66 154q0 53 -32 94q-33 43 -86 43q-80 0 -159 -58q-78 -59 -128 -146q-49 -86 -49 -169q0 -41 14 -78z" />
    <glyph glyph-name="dcroat" unicode="&#x111;" horiz-adv-x="684" 
d="M729 1153q57 0 57 -98q0 -129 -118 -330q-18 -33 -58 -89q104 3 205 9q128 8 212 40q87 33 81 85h10q0 -111 -337 -135q-60 -5 -177 -6q-46 -64 -104 -131q-108 -123 -248 -242q-70 -212 -70 -315q0 -62 31 -62q16 0 54 24q34 21 108 86q88 77 120 106q14 13 160 151
l33 30l6 -4q-258 -240 -341 -309q-109 -92 -148 -92q-28 0 -45 27t-17 73q0 84 47 234q-146 -205 -237 -205q-28 0 -45 20.5t-17 49.5q0 89 79 174q78 84 147 84q32 0 51.5 -14.5t19.5 -39.5q0 -18 -12 -36l-8 2q14 19 14 36q0 13 -11.5 25t-29.5 12q-46 0 -96 -49
q-52 -49 -80 -109q-31 -61 -31 -102t31 -41q47 0 111 64q67 69 121 151q73 228 151 400h-26q-174 0 -260 -9.5t-115 -37.5l-6 8q32 28 123 38.5t264 10.5q7 -1 24 -1q7 16 23 48q5 9 21 46l30 61l34 65q14 27 40 72q67 107 87 130q82 99 142 95zM554 635q32 0 47 1
q38 51 64 98q115 201 115 327q0 72 -30 72q-54 0 -127 -99q-76 -101 -147 -250q-4 -8 -69 -150q42 -1 147 1zM258 268q133 115 243 241q45 52 95 119q-55 -1 -193 -1q-70 -158 -145 -359z" />
    <glyph glyph-name="Itilde" unicode="&#x128;" horiz-adv-x="1701" 
d="M2160 1347l3 -6q-1 0 -10.5 -7.5t-17.5 -12.5t-21 -12t-28.5 -10.5t-31.5 -3.5q-26 0 -45.5 10.5t-30 23.5t-28.5 23.5t-40 10.5q-31 0 -65 -34l-8 4q36 38 73 38q36 0 70 -33.5t70 -34.5q12 0 23 1.5t21 5t18 6.5t16.5 8.5t13 8.5t11 8t7.5 6zM557 -129l4 -6
q-49 -25 -49 -80q0 -59 34 -99q60 -69 163 -69q20 0 53 4q227 25 376 169q136 130 231 334q45 97 170 411q38 96 88 204q104 222 237 355q-98 -22 -443 -87q-333 -61 -528 -118q-291 -86 -493 -213q-109 -70 -187 -157t-123 -202t-45 -245q0 -134 45 -287h-6
q-47 156 -47 289q0 129 45.5 244t124.5 204q79 86 189 157q204 130 495 216q188 56 532 120q330 63 449 89q35 30 47 41q23 21 56 49q62 49 118 49q37 0 37 -20q0 -31 -54 -59q-60 -32 -139 -50q-78 -70 -142 -166q-68 -100 -115 -199q-23 -48 -49.5 -109t-45 -107t-48 -119
t-44.5 -109q-106 -266 -208 -408q-206 -297 -546 -296q-30 0 -60.5 5.5t-62 19.5t-56 34t-39.5 52.5t-15 72.5q0 57 51 86zM2081 1214q-52 -21 -131 -92q80 23 126 49t46 50q0 4 -4 4q-17 0 -37 -11z" />
    <glyph glyph-name="itilde" unicode="&#x129;" horiz-adv-x="374" 
d="M0 276h41q-36 -80 -67 -165q-37 -97 -37 -142q0 -32 22 -32q34 0 115 65q74 58 192 168q32 30 60 56t42 38l13 12l4 -4q-110 -110 -253 -233q-139 -119 -179 -119q-24 0 -37.5 18t-13.5 46q0 56 35 143q35 94 63 149zM80 348q0 -31 -39 -31q-20 0 -27 15q0 14 12 24.5
t27 10.5q21 0 27 -19zM286 447l3 -5q-1 0 -10.5 -7.5t-17.5 -12.5t-21 -12t-28.5 -10.5t-31.5 -3.5q-26 0 -45.5 10.5t-30 23.5t-28.5 23.5t-40 10.5q-31 0 -65 -34l-8 4q36 38 73 38q36 0 70 -34t70 -35q12 0 23 1.5t21 5t18 6.5t16.5 8.5t13 8.5t11 8t7.5 6z" />
    <glyph glyph-name="dotlessi" unicode="&#x131;" horiz-adv-x="493" 
d="M78 479q28 0 28 -28q0 -10 -10 -18.5t-24 -8.5q-12 0 -20.5 8t-8.5 19q1 12 11.5 20t23.5 8zM33 371l4 16q14 0 43 -4q0 -5 -35 -132t-35 -188q0 -86 64 -86q48 0 111 38q66 39 129 96q118 107 198 202l6 -4q-93 -108 -201 -207q-67 -61 -135 -98t-119 -37q-92 0 -92 123
q0 112 62 281z" />
    <glyph glyph-name="Lslash" unicode="&#x141;" horiz-adv-x="1675" 
d="M2097 -362l33 -3q-101 -19 -208 -19q-105 -1 -190 12q-77 12 -183 35q-91 20 -175 44q-104 27 -179 42q-116 23 -183 30q-73 -40 -171 -61q-104 -23 -200 -23q-68 0 -133 14q-63 13 -66 37q-2 6 6 13t30 14t55 13t87 9.5t121 3.5q60 0 217 -8q133 66 234 204
q40 50 87 140q45 87 71 152q21 49 65 166l31 83l34 89l31 81q20 49 37 86l36 76q24 51 43 81l43 70q42 66 106 134q42 44 96 80q56 37 104 37q42 0 45 -23q3 -13 -12 -28q-169 -169 -522 -303q-75 -29 -456 -154q-343 -111 -521 -202q-289 -150 -376 -359q-93 -220 9 -531
h-6q-139 423 81 681q142 166 474 298q103 42 472 162q358 115 534 201q196 98 309 211q11 11 10 22q-8 5 -21.5 2.5t-23.5 -6.5q-51 -18 -121 -76q-110 -92 -199 -242q-32 -52 -77 -151q-45 -98 -65 -151l-58 -160q-18 -54 -51 -138q-22 -60 -52 -129q-37 -84 -64 -127
q-50 -90 -117.5 -166t-145.5 -116q67 -7 183 -30q62 -12 175 -41q116 -29 172 -42q99 -22 173 -32q86 -13 181 -16q99 -3 191 14zM487 -274q49 -11 123 -11q187 0 338 70q-120 8 -254 8q-85 -3 -142.5 -10.5t-82 -17.5t-20.5 -21q0 -11 38 -18zM1776 518h-582v35h582v-35z
" />
    <glyph glyph-name="lslash" unicode="&#x142;" horiz-adv-x="428" 
d="M61 322q138 118 244 241q109 126 165 225q116 202 116 326q0 72 -31 72q-38 0 -85 -46q-46 -46 -94 -127q-44 -74 -93 -169q-43 -83 -90 -196q-66 -155 -75 -179q-45 -114 -57 -147zM29 -66q39 14 115 76q81 66 180 160l114 109l4 -5l-132 -122q-245 -228 -302 -228
q-29 0 -45 26.5t-16 74.5q0 155 135 477q115 285 224 475q63 109 122 169t107 60q26 0 41.5 -23.5t15.5 -68.5q0 -124 -117 -330q-61 -107 -168 -230q-113 -128 -250 -245q-22 -55 -45 -147q-26 -107 -26 -168q0 -62 30 -62q7 0 13 2zM434 532h-581v35h581v-35z" />
    <glyph glyph-name="OE" unicode="&#x152;" horiz-adv-x="2232" 
d="M956 446q-37 -4 -61 -4q-59 0 -127 17l-2 -8q63 -15 127 -15q22 0 59 4zM1130 713l5 8q32 -42 41 -111q16 48 16 92q0 134 -105 218t-239 84q-205 0 -416 -175q-157 -132 -269 -334q-112 -203 -112 -401q-3 -171 89 -289.5t243 -117.5q89 0 181 41q177 75 345 267
q80 91 137 185q125 206 125 377v29q-60 -125 -219 -146l4 6q158 21 215 152q-11 69 -41 115zM1178 598q2 -16 2 -39q0 -101 -48 -224q-48 -121 -131 -236q-81 -114 -182 -209q-102 -96 -216 -152q-115 -57 -218 -57q-167 0 -271 119q-104 121 -104 306q0 118 35 230
q67 218 235 402q120 130 262.5 206t272.5 76q135 0 255 -80q58 -39 93 -101t35 -134q0 -55 -20 -107zM1579 811q192 -33 317 -33q66 0 145 12q70 12 70 41q-5 33 -76 52q-74 20 -155 20q-82 0 -164 -25q-83 -25 -137 -67zM1571 803q-52 -43 -94 -121q-39 -75 -39 -143
q0 -53 26 -93q151 17 156 17q59 0 59 -19q0 -12 -37 -24q-36 -12 -81 -12q-61 0 -99 32q-179 -45 -326 -152q-80 -59 -138 -125q-60 -69 -95 -156.5t-35 -178.5q0 -89 27 -154t75.5 -101t105.5 -52.5t126 -16.5q111 0 213 35q140 49 273 159q66 54 124 122q57 66 91 140.5
t34 143.5q0 106 -58 155q-57 50 -146 50q-101 0 -207 -50q-109 -50 -190 -122q-83 -74 -142 -152q-61 -82 -80 -147q-12 -36 -12 -86q0 -69 40 -119q40 -51 120 -51q90 0 185 48t152 111q58 63 58 107q0 52 -62 52q-43 0 -96 -28q-51 -28 -67 -62l-9 2q18 35 72 65
q52 29 98 29q72 0 72 -60q0 -53 -63 -116q-63 -64 -160 -109q-98 -45 -185 -45q-90 0 -143 49.5t-53 132.5q0 124 126 285q64 82 155 146q100 71 210 110q73 25 150 25q102 0 172 -55t70 -165q0 -89 -54 -182q-57 -100 -134 -171q-79 -75 -168.5 -133t-168.5 -85
q-99 -35 -219 -35q-77 0 -142 18.5t-119 58t-84 108t-30 159.5q0 92 37.5 180t102.5 157q94 100 225 170t264 97q-47 41 -47 121q0 64 34 129.5t89 112.5q-161 22 -303 22q-130 0 -250 -14q-187 -24 -346 -119q-86 -51 -145 -110q-64 -64 -101 -148t-37 -174q0 -59 23 -143
l-4 -2q-25 70 -25 145q0 91 37 176t102 148q94 94 226.5 154.5t271.5 78.5q125 15 240 15q139 0 317 -23q59 50 145 75q92 28 179 28q93 0 177 -25q81 -23 81 -64q0 -23 -40 -36q-63 -23 -169 -23q-109 0 -338 33zM1470 442q32 -28 89 -28q30 0 57 5.5t42 13t15 13.5
q0 11 -55 11q-18 0 -68 -7q-58 -8 -80 -8z" />
    <glyph glyph-name="oe" unicode="&#x153;" horiz-adv-x="827" 
d="M47 270q27 -47 85 -73.5t126 -28.5q31 60 31 125q0 79 -42 120q-41 40 -93 40q-51 0 -88.5 -29.5t-40.5 -75.5q0 -10 2 -20q15 21 45 43l30 -33q-38 -33 -55 -68zM254 160q-66 2 -125 29t-86 73q-20 -46 -20 -102q0 -103 79 -103q42 0 84 29.5t68 73.5zM268 168
q-69 -119 -176 -119q-53 0 -80.5 38.5t-27.5 100.5q0 78 36 131q-4 17 -4 31q3 50 43 80q43 31 93 31q58 0 101 -42q44 -41 44 -124q0 -66 -29 -127zM561 356q-28 -39 -92 -60q-66 -22 -121 -22q-3 0 -11.5 1t-10.5 1q-29 -58 -29 -139q0 -69 30.5 -110t88.5 -41
q158 0 432 327l6 -4q-271 -329 -448 -329q-79 0 -120.5 49t-41.5 127q0 113 70 201q72 89 167 89q39 0 66.5 -15.5t27.5 -39.5q-5 -22 -14 -35zM330 285q51 0 137 21q42 12 68 33t26 48q0 14 -17 23.5t-42 9.5q-97 0 -172 -135z" />
    <glyph glyph-name="Scaron" unicode="&#x160;" horiz-adv-x="1572" 
d="M1616 1044h-27q-94 -9 -179 -47.5t-142 -94.5q-113 -113 -125 -206l113 58l150 74q130 70 134 72q152 84 152 116q0 28 -76 28zM1257 746l-116 -58q0 -4 -1 -17t-1 -16q0 -57 23 -140q23 -75 53 -147q32 -75 53 -152q24 -84 24 -155q0 -72 -35 -147t-97 -137.5
t-157.5 -102t-205.5 -39.5q-97 0 -185 35.5t-148.5 110t-60.5 172.5q0 64 24.5 118.5t64.5 86.5q81 67 170 67q53 0 84.5 -24.5t31.5 -67.5q0 -50 -41 -110l-6 2q39 63 39 106q0 41 -29 63.5t-79 22.5q-92 0 -173 -72q-79 -72 -79 -194q0 -90 51 -159q51 -68 128.5 -103
t168.5 -35q97 0 189 34.5t158 93.5q68 59 107 136t39 158q0 68 -24 152q-21 78 -52 150q-33 76 -54 146q-23 81 -23 142q-358 -198 -525 -308q-383 -253 -497 -486q-79 -164 -41 -325l-6 -2q-73 314 283 625q194 170 590 393l196 109q2 82 49 156q46 72 119 125
q72 52 157 82t162 30q33 0 73 -12t40 -39q0 -33 -153 -118l-137 -74q-22 -11 -151 -76zM1188 1010l-174 139l6 6l170 -131l172 125l10 -12z" />
    <glyph glyph-name="scaron" unicode="&#x161;" horiz-adv-x="290" 
d="M72 119q125 72 231 157l4 -4q-54 -45 -109 -84q-51 -33 -124 -75q16 -110 -56 -172q-39 -33 -88 -33q-27 0 -43 11t-16 28q0 32 41 71q20 18 43 32q24 16 42 26q31 18 40 22q-1 5 -22 81q-17 62 -17 93q0 42 24 67.5t58 25.5q37 0 37 -29q0 -11 -17 -31l-4 6q15 15 15 27
q0 6 -9 6q-24 0 -41 -20q-33 -40 -18 -102q4 -19 15 -55q12 -41 14 -48zM37 92l-34 -19q-19 -10 -44 -26q-34 -20 -59.5 -47t-22.5 -51q0 -21 31 -21q45 0 80 35q49 49 49 129zM55 376l-64 70l3 4l61 -67l64 63l3 -6z" />
    <glyph glyph-name="Utilde" unicode="&#x168;" horiz-adv-x="2283" 
d="M2224 1162l3 -5q-1 -1 -10.5 -8t-17.5 -12t-20.5 -12t-28 -10.5t-31.5 -3.5q-32 0 -54.5 17t-42.5 34t-48 17q-30 0 -64 -34l-8 4q36 38 72 38t70.5 -34t70.5 -35q14 0 27.5 2.5t22.5 5.5t20.5 9.5t16 9.5t13 10t9.5 7zM1694 987h47q-58 -81 -124 -181q-65 -96 -160 -249
q-97 -160 -166 -286q-71 -131 -123 -264q-52 -131 -52 -210q0 -110 103 -110q225 0 645 477q43 150 111 286q70 140 152 256q115 166 234.5 279t169.5 109q28 0 31 -29q0 -52 -134 -239q-153 -215 -501 -601q-57 -168 -57 -325q0 -88 23 -166q25 -80 76 -130t116 -50
q75 0 165 51q92 52 140 119l4 -3q-50 -71 -142 -123q-91 -53 -171 -53q-112 0 -181 105t-69 264q0 117 31 236l-73 -76q-38 -40 -99 -101q-37 -37 -109 -101q-59 -53 -122 -98q-136 -93 -234 -93q-69 0 -109.5 33t-40.5 96q0 298 600 1153q-93 -79 -274 -141
q-107 -37 -168 -54q-135 -39 -205 -59q-53 -15 -167 -45q-248 -65 -358 -111q-200 -84 -314 -236q-107 -141 -171 -376l-8 2q94 335 265 480q107 93 259 150q128 47 325 98l55 14l112 30l173 49q20 5 151 47q70 22 144 53q140 63 200 123zM1933 242q222 248 361 422
q149 186 203 271q57 90 57 122q0 12 -12 12q-27 0 -105 -70q-80 -73 -168 -179q-95 -114 -187 -267q-94 -157 -149 -311z" />
    <glyph glyph-name="utilde" unicode="&#x169;" horiz-adv-x="632" 
d="M357 404l3 -5q-1 -1 -10.5 -8t-17.5 -12t-20.5 -12t-28 -10.5t-31.5 -3.5q-26 0 -45.5 10.5t-30 23.5t-28.5 23.5t-40 10.5q-31 0 -65 -34l-8 4q36 38 73 38q36 0 70 -34t70 -35q14 0 27.5 2.5t22.5 5.5t20.5 9.5t16 9.5t13 10t9.5 7zM262 274l43 2q-37 -75 -79 -179
q-42 -102 -42 -138q0 -29 23 -29q64 0 368 287l64 59l4 -4l-61 -59q-124 -119 -232 -206q-115 -91 -153 -91q-20 0 -31.5 15.5t-11.5 43.5q0 82 96 277l-59 -71q-10 -12 -33.5 -40.5t-34.5 -40.5q-19 -23 -63 -69q-69 -74 -109 -74q-18 0 -29.5 13.5t-11.5 39.5q0 63 94 277
h43q-104 -231 -106 -293q0 -27 20 -27q37 0 113 84l66 76l69 83z" />
    <glyph glyph-name="Ydieresis" unicode="&#x178;" horiz-adv-x="2250" 
d="M1876 -45h2q-13 -26 -34 -78q-24 -58 -35 -83l-33 -76q-21 -49 -38 -79l-38 -73q-25 -51 -44 -78q-77 -128 -149 -201q29 -82 29 -155q0 -126 -63 -256l-7 4q62 124 62 264q-6 70 -27 139q-97 -100 -224 -163q-125 -62 -255 -62q-142 0 -260 88q-117 87 -117 203
q0 111 113 192q115 82 258 82q142 0 274 -82q133 -83 197 -213q69 80 135 193q61 104 100 188q36 74 93 209q16 38 16 39l207 555q-60 -71 -72 -85q-40 -47 -83 -96q-69 -80 -97 -110q-35 -39 -102 -106q-77 -79 -108 -106q-50 -46 -106 -90q-66 -54 -105 -76
q-108 -66 -185 -66q-46 0 -73.5 26.5t-27.5 81.5q0 83 62 231q64 154 154 307q183 309 341 527q-89 -72 -254 -128q-111 -37 -153 -49q-21 -6 -191 -54q-5 -1 -56.5 -15.5t-88.5 -23.5q-239 -62 -343 -107q-190 -80 -296 -228q-94 -132 -150 -337l-8 2q52 189 128 303
q83 127 172 185q109 71 220 108q81 28 126 40q115 32 141 38l51 13q25 7 102 28q35 9 89 24.5t72 20.5q19 5 138 43q83 28 134 50q40 18 100 51q49 28 84 63h49q-47 -67 -117 -172q-40 -60 -147 -233q-97 -157 -155 -266q-67 -125 -113 -244q-48 -125 -48 -197
q0 -43 15.5 -61.5t48.5 -18.5q136 0 368 213q116 102 263 265q99 110 209 244q1 1 8.5 10t11.5 13q57 144 119 267q62 119 127 196q66 78 118 78q13 0 13 -14q0 -76 -293 -436q-31 -71 -80 -198q-28 -74 -92 -248q-75 -202 -82 -220zM1004 -924q132 5 257 73q128 69 220 173
q-63 134 -197 214q-134 79 -278 79q-144 -6 -249 -84q-104 -78 -104 -186q-2 -70 50.5 -134t135 -100.5t165.5 -34.5zM2138 643q128 154 200 260t72 131q0 4 -4 4q-16 0 -82 -73q-94 -106 -186 -322zM1873 1188h10q32 -10 32 -50q-3 -44 -37 -94q-34 -49 -69 -49
q-28 0 -28 46q3 41 29 95q27 52 63 52zM2210 1217h9q33 -11 33 -51q-4 -41 -38 -93q-32 -50 -69 -50q-28 0 -28 47q3 40 29 94q27 53 64 53z" />
    <glyph glyph-name="Zcaron" unicode="&#x17d;" horiz-adv-x="1675" 
d="M2075 -276l4 -5q-124 -114 -414 -114q-135 0 -330 29q-158 24 -320 59q-112 25 -333 80q-137 -101 -285 -101q-65 0 -150 30q-42 15 -68.5 42t-26.5 59q0 28 30 43t82 15q42 0 102 -9l98 -19q15 -3 52 -12.5t54 -13.5q69 -18 71 -18q120 85 207 204q33 43 78 120
q43 74 63 119l63 132l19 42q-275 -42 -354 -148l-6 4q81 108 364 150q70 154 151 276q76 117 193 209q-114 18 -267 47q-374 72 -562 72q-209 0 -343 -67q-231 -117 -231 -455h-6q0 236 108 364q50 58 125 96q135 68 347 68q62 0 134 -6q62 -5 130 -14q62 -7 148 -22
q27 -4 54 -9t50.5 -9t32.5 -6q56 -10 149 -28q29 -6 61.5 -12.5l50 -10t25.5 -4.5q126 102 295 155q171 54 355 54q106 0 185 -17q140 -30 140 -87q0 -42 -48 -78t-125 -56q-145 -38 -290 -38q-194 0 -469 53q-116 -88 -194 -203q-78 -116 -148 -264q87 10 234 10
q184 0 213 -31l-6 -4q-29 29 -201 29q-133 0 -244 -12q-12 -28 -40 -86l-42 -90l-9 -18t-15.5 -30.5t-17.5 -34.5q-25 -50 -49 -88q-19 -31 -51 -77q-35 -53 -61 -80q-75 -81 -149 -131q198 -48 332 -78q126 -28 317 -57q194 -29 328 -29q289 0 410 111zM2247 1081
q-65 9 -138 9q-370 0 -632 -197q272 -53 462 -53q105 0 213 18q90 17 165 61q77 45 77 87q0 56 -147 75zM330 -307q4 0 15 -1t13 -1q141 0 275 92l-53 14q-65 17 -79 20q-3 1 -76 16q-102 20 -163 20q-47 0 -75.5 -13t-28.5 -37q0 -36 31 -60q54 -44 141 -50zM1360 999
l-174 140l6 6l170 -131l172 125l10 -13z" />
    <glyph glyph-name="zcaron" unicode="&#x17e;" horiz-adv-x="708" 
d="M711 274l8 -2q-30 -29 -121 -115q-51 -48 -165 -141q-97 -80 -251 -194q0 -85 -22 -189q-27 -125 -87 -282q-55 -144 -146 -295q-86 -144 -177 -207q-51 -34 -109 -40.5t-103 15.5q-47 22 -77 68.5t-30 106.5q0 51 21 108q42 112 142 223q57 62 111 114q62 58 135 118
q34 28 145 116q53 43 156 121v29q0 105 -45 162q3 29 61 119q58 89 81 112q-3 0 -45 -8t-68 -8q-96 0 -129 74l6 4q29 -70 125 -70q47 0 90 10t49 10h8h9q4 -4 4 -6q0 -1 -36 -54q-3 -4 -73 -112q-36 -57 -41 -84q42 -51 45 -147q134 100 248 194q117 97 159 136
q58 53 122 114zM119 -358q19 83 22 149q-106 -82 -155 -120q-123 -98 -144 -115q-77 -66 -133 -118q-43 -40 -109 -112q-55 -61 -88 -112q-75 -118 -75 -211q0 -61 28.5 -106.5t71.5 -64.5t95.5 -11.5t97.5 44.5q86 74 170 222q151 270 219 555zM160 270l-174 140l6 6
l170 -131l172 125l10 -13z" />
    <glyph glyph-name="Ohorn" unicode="&#x1a0;" horiz-adv-x="1314" 
d="M1178 598q2 -16 2 -39q0 -101 -48 -224q-48 -121 -131 -236q-81 -114 -182 -209q-102 -96 -216 -152q-115 -57 -218 -57q-167 0 -271 119q-104 121 -104 306q0 118 35 230q67 218 235 402q120 130 262.5 206t272.5 76q66 0 135 -21.5t120 -58.5q23 -16 39 -32l7 -7
q17 -14 44.5 -17.5t51.5 3.5t36.5 27.5t2.5 48.5q-7 20 -33 41l5 6q26 -18 34 -44q10 -27 0 -48.5t-31.5 -30.5t-47.5 -11t-49 11q69 -75 69 -182q0 -55 -20 -107zM1130 713l5 8q32 -42 41 -111q16 48 16 92q0 134 -105 218t-239 84q-205 0 -416 -175q-157 -132 -269 -334
q-112 -203 -112 -401q-3 -171 89 -289.5t243 -117.5q89 0 181 41q177 75 345 267q80 91 137 185q125 206 125 377v29q-60 -125 -219 -146l4 6q158 21 215 152q-11 69 -41 115zM956 446q-37 -4 -61 -4q-59 0 -127 17l-2 -8q63 -15 127 -15q22 0 59 4z" />
    <glyph glyph-name="ohorn" unicode="&#x1a1;" horiz-adv-x="569" 
d="M578 279l6 -7q-67 -51 -153 -94q-80 -41 -148 -53q-33 -76 -86 -116t-111 -40q-61 0 -102 40q-43 42 -43 106q0 75 57 155v13q0 65 50 106q50 43 114 43q73 0 109 -54q18 -27 27 -62q22 -22 61.5 -23.5t65.5 21t12 61.5q-6 18 -33 40l6 5q26 -18 34 -44q12 -39 -13 -64.5
t-62 -24.5t-68 20q6 -28 6 -61q0 -64 -18 -111q57 9 141 51q88 45 148 93zM102 299q-48 -38 -69 -84q75 -97 246 -82q20 55 20 111q0 75 -36 129q-35 53 -103 53q-58 0 -106 -39q-46 -39 -46 -96v-10q15 19 42 37q30 22 38 22t14.5 -9t6.5 -18q0 -11 -7 -14zM31 205
q-33 -69 -33 -117q0 -49 27.5 -76.5t70.5 -27.5q53 0 101 37t75 104q-74 -9 -139.5 12t-101.5 68z" />
    <glyph glyph-name="Uhorn" unicode="&#x1af;" horiz-adv-x="2283" 
d="M1694 987h47q-58 -81 -124 -181q-65 -96 -160 -249q-97 -160 -166 -286q-71 -131 -123 -264q-52 -131 -52 -210q0 -110 103 -110q225 0 645 477q43 150 111 286q70 140 152 256q115 166 234.5 279t169.5 109q28 0 31 -29q0 -12 -6 -27q22 -26 62.5 -28.5t67 21t12.5 62.5
q-8 21 -33 42l6 4q26 -18 34 -44q14 -41 -12.5 -66.5t-69 -24.5t-69.5 28q-23 -64 -126 -206q-153 -215 -501 -601q-57 -168 -57 -325q0 -88 23 -166q25 -80 76 -130t116 -50q75 0 165 51q92 52 140 119l4 -3q-50 -71 -142 -123q-91 -53 -171 -53q-112 0 -181 105t-69 264
q0 117 31 236l-73 -76q-38 -40 -99 -101q-37 -37 -109 -101q-59 -53 -122 -98q-136 -93 -234 -93q-69 0 -109.5 33t-40.5 96q0 298 600 1153q-93 -79 -274 -141q-107 -37 -168 -54q-135 -39 -205 -59q-53 -15 -167 -45q-248 -65 -358 -111q-200 -84 -314 -236
q-107 -141 -171 -376l-8 2q94 335 265 480q107 93 259 150q128 47 325 98l55 14l112 30l173 49q20 5 151 47q70 22 144 53q140 63 200 123zM1933 242q222 248 361 422q149 186 203 271q57 90 57 122q0 12 -12 12q-27 0 -105 -70q-80 -73 -168 -179q-95 -114 -187 -267
q-94 -157 -149 -311z" />
    <glyph glyph-name="uhorn" unicode="&#x1b0;" horiz-adv-x="632" 
d="M262 274l43 2q-16 -34 -22 -48q28 -11 59 -9t50.5 24.5t7.5 56.5q-7 20 -33 41l6 6q27 -19 35 -44q18 -54 -30.5 -79t-96.5 -1q-45 -102 -55 -126q-42 -102 -42 -138q0 -29 23 -29q64 0 368 287l64 59l4 -4l-61 -59q-124 -119 -232 -206q-115 -91 -153 -91
q-20 0 -31.5 15.5t-11.5 43.5q0 82 96 277l-59 -71q-10 -12 -33.5 -40.5t-34.5 -40.5q-19 -23 -63 -69q-69 -74 -109 -74q-18 0 -29.5 13.5t-11.5 39.5q0 63 94 277h43q-104 -231 -106 -293q0 -27 20 -27q37 0 113 84l66 76l69 83z" />
    <glyph glyph-name="circumflex" unicode="&#x2c6;" horiz-adv-x="475" 
d="M135 1094l-37 2q17 80 72 137q57 57 133 57q74 0 116.5 -48.5t69.5 -151.5h-32q-39 174 -158 174q-60 0 -105 -51q-44 -52 -59 -119z" />
    <glyph glyph-name="caron" unicode="&#x2c7;" horiz-adv-x="440" 
d="M285 1206l-174 140l6 6l170 -131l172 125l10 -13z" />
    <glyph glyph-name="breve" unicode="&#x2d8;" horiz-adv-x="446" 
d="M98 1266l29 2q7 -115 92 -115q48 0 86 32t53 85h25q-43 -135 -162 -135q-106 0 -123 131z" />
    <glyph glyph-name="ring" unicode="&#x2da;" horiz-adv-x="348" 
d="M102 1200q3 49 43 85q42 36 97 36t91 -32.5t36 -82.5q0 -52 -41 -90q-41 -37 -99 -37q-57 0 -92 34t-35 87zM119 1200q0 -46 30.5 -76t79.5 -30q47 0 85 30q38 32 38 76q0 46 -30 75.5t-80 29.5q-49 0 -84.5 -30.5t-38.5 -74.5z" />
    <glyph glyph-name="ogonek" unicode="&#x2db;" horiz-adv-x="319" 
d="M268 72l13 -19q-57 -20 -105 -20q-58 0 -92.5 25.5t-34.5 68.5q0 58 64 119l18 -21q-51 -51 -51 -92q0 -37 27 -58.5t75 -21.5q37 0 86 19z" />
    <glyph glyph-name="tilde" unicode="&#x2dc;" horiz-adv-x="309" 
d="M328 1167v-6q-14 -8 -41 -8q-59 0 -87 18q-60 38 -100 -2l2 7q18 18 39 18q18 0 72 -18q57 -19 68 -19q13 0 47 10z" />
    <glyph glyph-name="hungarumlaut" unicode="&#x2dd;" horiz-adv-x="278" 
d="M113 885l-27 4q13 39 40 76t60 59l15 -29q-48 -28 -88 -110zM193 866l-27 8q15 35 46 70.5t64 56.5l11 -30q-44 -27 -94 -105z" />
    <glyph glyph-name="uni1EA0" unicode="&#x1ea0;" horiz-adv-x="1785" 
d="M894 -431q0 -15 -20 -15q-10 0 -13 7q0 7 6 12t14 5q10 0 13 -9zM1616 905q68 6 250 23q100 110 231 110q37 0 86 -10q-92 86 -196 86q-157 0 -371 -209zM330 -80h6q1 -52 38.5 -78t96.5 -26q92 0 211 81q51 35 112 91q50 46 105 105q42 45 105 122q64 78 93 118l87 116
q19 25 42.5 56t28.5 38q-547 -97 -604 -422h-8q28 152 153 252q56 45 135 82q131 61 331 96q181 232 286 342q-449 -45 -668 -93q-544 -119 -741 -391q-123 -171 -123 -407q0 -90 23 -211h-6q-23 121 -23 211q0 500 557 716q295 113 824 166l163 15q119 119 215 177.5
t187 58.5q65 0 133 -32q72 -33 104 -77q2 -6 2 -8q0 -60 -325 -96q-98 -110 -176 -324q21 0 61 4v-8q-25 0 -65 -4q-25 -67 -61 -180q-25 -78 -56 -187q-18 -65 -52 -175q-53 -171 -126 -286q-72 -116 -181 -116q-44 0 -81 30q-37 28 -37 80q0 48 32 92l7 -4
q-31 -48 -31 -86q0 -49 35 -77q37 -29 75 -29q138 -7 240 238q30 69 58 158q42 131 54 174q38 130 56 187q35 110 61 181q-214 -15 -366 -37l-86 -114q-69 -91 -107 -139q-70 -88 -113 -141q-74 -90 -126 -141q-44 -43 -125 -111q-132 -112 -250 -112q-70 0 -124.5 32
t-55.5 93zM1608 897q-117 -117 -285 -336q119 17 363 35q78 215 174 324q-84 -9 -126 -12q-66 -5 -126 -11zM1876 928q272 30 315 92q-50 12 -90 12q-127 0 -225 -104z" />
    <glyph glyph-name="uni1EA1" unicode="&#x1ea1;" horiz-adv-x="563" 
d="M-47 -103q0 -16 -20 -16q-9 0 -13 7q0 7 6 12.5t14 5.5q10 0 13 -9zM184 264l37 -4q-38 -76 -47 -98q-16 -35 -34 -91q-19 -58 -19 -102q0 -32 26 -32q33 0 133 79q129 102 287 260l6 -4q-75 -75 -139 -135q-77 -72 -167 -140q-97 -75 -132 -75q-49 0 -49 62q0 27 23 110
q12 39 27 70l20 45q-162 -219 -236 -219q-23 0 -36 19.5t-13 45.5q0 89 79 173q78 83 144 83q31 0 50.5 -14.5t19.5 -38.5q0 -16 -10 -37l-7 -4q11 17 11 35q0 19 -10.5 32t-28.5 13q-47 0 -97 -49t-79 -109q-31 -62 -31 -100q0 -39 22 -39q43 0 143 117q99 117 107 147z
" />
    <glyph glyph-name="uni1EA2" unicode="&#x1ea2;" horiz-adv-x="1785" 
d="M1973 1318l7 -4l-7 4q31 29 59 33q26 4 45.5 -6.5t20.5 -33.5q4 -53 -105 -118l-4 6q103 59 99 112q-1 20 -18.5 28t-38.5 3q-30 -7 -51 -28zM1616 905q68 6 250 23q100 110 231 110q37 0 86 -10q-92 86 -196 86q-157 0 -371 -209zM330 -80h6q1 -52 38.5 -78t96.5 -26
q92 0 211 81q51 35 112 91q50 46 105 105q42 45 105 122q64 78 93 118l87 116q19 25 42.5 56t28.5 38q-547 -97 -604 -422h-8q28 152 153 252q56 45 135 82q131 61 331 96q181 232 286 342q-449 -45 -668 -93q-544 -119 -741 -391q-123 -171 -123 -407q0 -90 23 -211h-6
q-23 121 -23 211q0 500 557 716q295 113 824 166l163 15q119 119 215 177.5t187 58.5q65 0 133 -32q72 -33 104 -77q2 -6 2 -8q0 -60 -325 -96q-98 -110 -176 -324q21 0 61 4v-8q-25 0 -65 -4q-25 -67 -61 -180q-25 -78 -56 -187q-18 -65 -52 -175q-53 -171 -126 -286
q-72 -116 -181 -116q-44 0 -81 30q-37 28 -37 80q0 48 32 92l7 -4q-31 -48 -31 -86q0 -49 35 -77q37 -29 75 -29q138 -7 240 238q30 69 58 158q42 131 54 174q38 130 56 187q35 110 61 181q-214 -15 -366 -37l-86 -114q-69 -91 -107 -139q-70 -88 -113 -141
q-74 -90 -126 -141q-44 -43 -125 -111q-132 -112 -250 -112q-70 0 -124.5 32t-55.5 93zM1608 897q-117 -117 -285 -336q119 17 363 35q78 215 174 324q-84 -9 -126 -12q-66 -5 -126 -11zM1876 928q272 30 315 92q-50 12 -90 12q-127 0 -225 -104z" />
    <glyph glyph-name="uni1EA3" unicode="&#x1ea3;" horiz-adv-x="563" 
d="M110 490l7 -4l-7 4q31 29 58 33q26 4 45.5 -6.5t20.5 -33.5q4 -52 -105 -117l-4 6q103 59 99 111q-1 20 -18.5 28.5t-38.5 3.5q-27 -6 -50 -29zM184 264l37 -4q-38 -76 -47 -98q-16 -35 -34 -91q-19 -58 -19 -102q0 -32 26 -32q33 0 133 79q129 102 287 260l6 -4
q-75 -75 -139 -135q-77 -72 -167 -140q-97 -75 -132 -75q-49 0 -49 62q0 27 23 110q12 39 27 70l20 45q-162 -219 -236 -219q-23 0 -36 19.5t-13 45.5q0 89 79 173q78 83 144 83q31 0 50.5 -14.5t19.5 -38.5q0 -16 -10 -37l-7 -4q11 17 11 35q0 19 -10.5 32t-28.5 13
q-47 0 -97 -49t-79 -109q-31 -62 -31 -100q0 -39 22 -39q43 0 143 117q99 117 107 147z" />
    <glyph glyph-name="uni1EA4" unicode="&#x1ea4;" horiz-adv-x="1785" 
d="M2051 1298l-10 5q77 29 112 108l10 -1q-30 -78 -112 -112zM1616 905q68 6 250 23q100 110 231 110q37 0 86 -10q-92 86 -196 86q-157 0 -371 -209zM330 -80h6q1 -52 38.5 -78t96.5 -26q92 0 211 81q51 35 112 91q50 46 105 105q42 45 105 122q64 78 93 118l87 116
q19 25 42.5 56t28.5 38q-547 -97 -604 -422h-8q28 152 153 252q56 45 135 82q131 61 331 96q181 232 286 342q-449 -45 -668 -93q-544 -119 -741 -391q-123 -171 -123 -407q0 -90 23 -211h-6q-23 121 -23 211q0 500 557 716q295 113 824 166l163 15q119 119 215 177.5
t187 58.5q65 0 133 -32q72 -33 104 -77q2 -6 2 -8q0 -60 -325 -96q-98 -110 -176 -324q21 0 61 4v-8q-25 0 -65 -4q-25 -67 -61 -180q-25 -78 -56 -187q-18 -65 -52 -175q-53 -171 -126 -286q-72 -116 -181 -116q-44 0 -81 30q-37 28 -37 80q0 48 32 92l7 -4
q-31 -48 -31 -86q0 -49 35 -77q37 -29 75 -29q138 -7 240 238q30 69 58 158q42 131 54 174q38 130 56 187q35 110 61 181q-214 -15 -366 -37l-86 -114q-69 -91 -107 -139q-70 -88 -113 -141q-74 -90 -126 -141q-44 -43 -125 -111q-132 -112 -250 -112q-70 0 -124.5 32
t-55.5 93zM1608 897q-117 -117 -285 -336q119 17 363 35q78 215 174 324q-84 -9 -126 -12q-66 -5 -126 -11zM1876 928q272 30 315 92q-50 12 -90 12q-127 0 -225 -104zM1855 1193h-13q81 60 135 123q3 -6 9.5 -19.5t8 -17t6.5 -13t6.5 -12t6 -10.5t7 -11.5t7.5 -11
t9.5 -14.5t11.5 -16h-10q-45 63 -64 108q-56 -60 -120 -106z" />
    <glyph glyph-name="uni1EA5" unicode="&#x1ea5;" horiz-adv-x="563" 
d="M220 471l-10 4q77 30 113 109l9 -1q-30 -78 -112 -112zM184 264l37 -4q-38 -76 -47 -98q-16 -35 -34 -91q-19 -58 -19 -102q0 -32 26 -32q33 0 133 79q129 102 287 260l6 -4q-75 -75 -139 -135q-77 -72 -167 -140q-97 -75 -132 -75q-49 0 -49 62q0 27 23 110q12 39 27 70
l20 45q-162 -219 -236 -219q-23 0 -36 19.5t-13 45.5q0 89 79 173q78 83 144 83q31 0 50.5 -14.5t19.5 -38.5q0 -16 -10 -37l-7 -4q11 17 11 35q0 19 -10.5 32t-28.5 13q-47 0 -97 -49t-79 -109q-31 -62 -31 -100q0 -39 22 -39q43 0 143 117q99 117 107 147zM25 366h-14
q83 62 135 122q26 -53 35 -69.5t37 -54.5h-10q-45 63 -64 108q-58 -62 -119 -106z" />
    <glyph glyph-name="uni1EA6" unicode="&#x1ea6;" horiz-adv-x="1785" 
d="M2098 1302l-9 -5q-76 31 -91 114l9 1q17 -82 91 -110zM1616 905q68 6 250 23q100 110 231 110q37 0 86 -10q-92 86 -196 86q-157 0 -371 -209zM330 -80h6q1 -52 38.5 -78t96.5 -26q92 0 211 81q51 35 112 91q50 46 105 105q42 45 105 122q64 78 93 118l87 116
q19 25 42.5 56t28.5 38q-547 -97 -604 -422h-8q28 152 153 252q56 45 135 82q131 61 331 96q181 232 286 342q-449 -45 -668 -93q-544 -119 -741 -391q-123 -171 -123 -407q0 -90 23 -211h-6q-23 121 -23 211q0 500 557 716q295 113 824 166l163 15q119 119 215 177.5
t187 58.5q65 0 133 -32q72 -33 104 -77q2 -6 2 -8q0 -60 -325 -96q-98 -110 -176 -324q21 0 61 4v-8q-25 0 -65 -4q-25 -67 -61 -180q-25 -78 -56 -187q-18 -65 -52 -175q-53 -171 -126 -286q-72 -116 -181 -116q-44 0 -81 30q-37 28 -37 80q0 48 32 92l7 -4
q-31 -48 -31 -86q0 -49 35 -77q37 -29 75 -29q138 -7 240 238q30 69 58 158q42 131 54 174q38 130 56 187q35 110 61 181q-214 -15 -366 -37l-86 -114q-69 -91 -107 -139q-70 -88 -113 -141q-74 -90 -126 -141q-44 -43 -125 -111q-132 -112 -250 -112q-70 0 -124.5 32
t-55.5 93zM1608 897q-117 -117 -285 -336q119 17 363 35q78 215 174 324q-84 -9 -126 -12q-66 -5 -126 -11zM1876 928q272 30 315 92q-50 12 -90 12q-127 0 -225 -104zM1855 1193h-13q81 60 135 123q3 -6 9.5 -19.5t8 -17t6.5 -13t6.5 -12t6 -10.5t7 -11.5t7.5 -11
t9.5 -14.5t11.5 -16h-10q-45 63 -64 108q-56 -60 -120 -106z" />
    <glyph glyph-name="uni1EA7" unicode="&#x1ea7;" horiz-adv-x="563" 
d="M267 474l-9 -4q-76 31 -91 114l9 1q17 -83 91 -111zM184 264l37 -4q-38 -76 -47 -98q-16 -35 -34 -91q-19 -58 -19 -102q0 -32 26 -32q33 0 133 79q129 102 287 260l6 -4q-75 -75 -139 -135q-77 -72 -167 -140q-97 -75 -132 -75q-49 0 -49 62q0 27 23 110q12 39 27 70
l20 45q-162 -219 -236 -219q-23 0 -36 19.5t-13 45.5q0 89 79 173q78 83 144 83q31 0 50.5 -14.5t19.5 -38.5q0 -16 -10 -37l-7 -4q11 17 11 35q0 19 -10.5 32t-28.5 13q-47 0 -97 -49t-79 -109q-31 -62 -31 -100q0 -39 22 -39q43 0 143 117q99 117 107 147zM25 366h-14
q83 62 135 122q26 -53 35 -69.5t37 -54.5h-10q-45 63 -64 108q-58 -62 -119 -106z" />
    <glyph glyph-name="uni1EA8" unicode="&#x1ea8;" horiz-adv-x="1785" 
d="M1616 905q68 6 250 23q100 110 231 110q37 0 86 -10q-92 86 -196 86q-157 0 -371 -209zM330 -80h6q1 -52 38.5 -78t96.5 -26q92 0 211 81q51 35 112 91q50 46 105 105q42 45 105 122q64 78 93 118l87 116q19 25 42.5 56t28.5 38q-547 -97 -604 -422h-8q28 152 153 252
q56 45 135 82q131 61 331 96q181 232 286 342q-449 -45 -668 -93q-544 -119 -741 -391q-123 -171 -123 -407q0 -90 23 -211h-6q-23 121 -23 211q0 500 557 716q295 113 824 166l163 15q119 119 215 177.5t187 58.5q65 0 133 -32q72 -33 104 -77q2 -6 2 -8q0 -60 -325 -96
q-98 -110 -176 -324q21 0 61 4v-8q-25 0 -65 -4q-25 -67 -61 -180q-25 -78 -56 -187q-18 -65 -52 -175q-53 -171 -126 -286q-72 -116 -181 -116q-44 0 -81 30q-37 28 -37 80q0 48 32 92l7 -4q-31 -48 -31 -86q0 -49 35 -77q37 -29 75 -29q138 -7 240 238q30 69 58 158
q42 131 54 174q38 130 56 187q35 110 61 181q-214 -15 -366 -37l-86 -114q-69 -91 -107 -139q-70 -88 -113 -141q-74 -90 -126 -141q-44 -43 -125 -111q-132 -112 -250 -112q-70 0 -124.5 32t-55.5 93zM1608 897q-117 -117 -285 -336q119 17 363 35q78 215 174 324
q-84 -9 -126 -12q-66 -5 -126 -11zM1876 928q272 30 315 92q-50 12 -90 12q-127 0 -225 -104zM1855 1193h-13q81 60 135 123q3 -6 9.5 -19.5t8 -17t6.5 -13t6.5 -12t6 -10.5t7 -11.5t7.5 -11t9.5 -14.5t11.5 -16h-10q-45 63 -64 108q-56 -60 -120 -106zM2057 1297l-6 5
q75 52 72 94q-1 19 -19 28t-39 3q-29 -7 -50 -28l-7 4l7 -4l-7 4q31 29 58 33q26 4 46 -6.5t21 -33.5q4 -43 -76 -99z" />
    <glyph glyph-name="uni1EA9" unicode="&#x1ea9;" horiz-adv-x="563" 
d="M226 470l-6 4q75 52 72 94q-1 20 -19 28.5t-39 3.5q-27 -6 -50 -29l-7 4l7 -4l-7 4q31 29 59 33q26 4 45.5 -6.5t20.5 -33.5q3 -42 -76 -98zM184 264l37 -4q-38 -76 -47 -98q-16 -35 -34 -91q-19 -58 -19 -102q0 -32 26 -32q33 0 133 79q129 102 287 260l6 -4
q-75 -75 -139 -135q-77 -72 -167 -140q-97 -75 -132 -75q-49 0 -49 62q0 27 23 110q12 39 27 70l20 45q-162 -219 -236 -219q-23 0 -36 19.5t-13 45.5q0 89 79 173q78 83 144 83q31 0 50.5 -14.5t19.5 -38.5q0 -16 -10 -37l-7 -4q11 17 11 35q0 19 -10.5 32t-28.5 13
q-47 0 -97 -49t-79 -109q-31 -62 -31 -100q0 -39 22 -39q43 0 143 117q99 117 107 147zM25 366h-14q83 62 135 122q26 -53 35 -69.5t37 -54.5h-10q-45 63 -64 108q-58 -62 -119 -106z" />
    <glyph glyph-name="uni1EAA" unicode="&#x1eaa;" horiz-adv-x="1785" 
d="M2156 1394l3 -5q-1 -1 -10.5 -8t-17.5 -12.5t-21 -12.5t-28.5 -10.5t-31.5 -3.5q-26 0 -45.5 10.5t-30 23.5t-28.5 23.5t-40 10.5q-31 0 -65 -34l-8 4q36 38 73 38q36 0 70 -33.5t70 -34.5q12 0 23 1.5t21 5t18 6.5t16.5 8.5t13 8.5t11 8t7.5 6zM1616 905q68 6 250 23
q100 110 231 110q37 0 86 -10q-92 86 -196 86q-157 0 -371 -209zM330 -80h6q1 -52 38.5 -78t96.5 -26q92 0 211 81q51 35 112 91q50 46 105 105q42 45 105 122q64 78 93 118l87 116q19 25 42.5 56t28.5 38q-547 -97 -604 -422h-8q28 152 153 252q56 45 135 82q131 61 331 96
q181 232 286 342q-449 -45 -668 -93q-544 -119 -741 -391q-123 -171 -123 -407q0 -90 23 -211h-6q-23 121 -23 211q0 500 557 716q295 113 824 166l163 15q119 119 215 177.5t187 58.5q65 0 133 -32q72 -33 104 -77q2 -6 2 -8q0 -60 -325 -96q-98 -110 -176 -324q21 0 61 4
v-8q-25 0 -65 -4q-25 -67 -61 -180q-25 -78 -56 -187q-18 -65 -52 -175q-53 -171 -126 -286q-72 -116 -181 -116q-44 0 -81 30q-37 28 -37 80q0 48 32 92l7 -4q-31 -48 -31 -86q0 -49 35 -77q37 -29 75 -29q138 -7 240 238q30 69 58 158q42 131 54 174q38 130 56 187
q35 110 61 181q-214 -15 -366 -37l-86 -114q-69 -91 -107 -139q-70 -88 -113 -141q-74 -90 -126 -141q-44 -43 -125 -111q-132 -112 -250 -112q-70 0 -124.5 32t-55.5 93zM1608 897q-117 -117 -285 -336q119 17 363 35q78 215 174 324q-84 -9 -126 -12q-66 -5 -126 -11z
M1876 928q272 30 315 92q-50 12 -90 12q-127 0 -225 -104zM1855 1193h-13q81 60 135 123q3 -6 9.5 -19.5t8 -17t6.5 -13t6.5 -12t6 -10.5t7 -11.5t7.5 -11t9.5 -14.5t11.5 -16h-10q-45 63 -64 108q-56 -60 -120 -106z" />
    <glyph glyph-name="uni1EAB" unicode="&#x1eab;" horiz-adv-x="563" 
d="M325 566l3 -5q-1 0 -10.5 -7.5t-17.5 -12.5t-21 -12t-28.5 -10.5t-31.5 -3.5q-26 0 -45.5 10.5t-30 23.5t-28.5 23.5t-40 10.5q-31 0 -65 -34l-8 4q36 38 73 38q36 0 70 -34t70 -35q12 0 23 1.5t21 5t18 6.5t16.5 8.5t13 8.5t11 8t7.5 6zM184 264l37 -4q-38 -76 -47 -98
q-16 -35 -34 -91q-19 -58 -19 -102q0 -32 26 -32q33 0 133 79q129 102 287 260l6 -4q-75 -75 -139 -135q-77 -72 -167 -140q-97 -75 -132 -75q-49 0 -49 62q0 27 23 110q12 39 27 70l20 45q-162 -219 -236 -219q-23 0 -36 19.5t-13 45.5q0 89 79 173q78 83 144 83
q31 0 50.5 -14.5t19.5 -38.5q0 -16 -10 -37l-7 -4q11 17 11 35q0 19 -10.5 32t-28.5 13q-47 0 -97 -49t-79 -109q-31 -62 -31 -100q0 -39 22 -39q43 0 143 117q99 117 107 147zM25 366h-14q83 62 135 122q26 -53 35 -69.5t37 -54.5h-10q-45 63 -64 108q-58 -62 -119 -106z
" />
    <glyph glyph-name="uni1EAC" unicode="&#x1eac;" horiz-adv-x="1785" 
d="M894 -431q0 -15 -20 -15q-10 0 -13 7q0 7 6 12t14 5q10 0 13 -9zM1616 905q68 6 250 23q100 110 231 110q37 0 86 -10q-92 86 -196 86q-157 0 -371 -209zM330 -80h6q1 -52 38.5 -78t96.5 -26q92 0 211 81q51 35 112 91q50 46 105 105q42 45 105 122q64 78 93 118l87 116
q19 25 42.5 56t28.5 38q-547 -97 -604 -422h-8q28 152 153 252q56 45 135 82q131 61 331 96q181 232 286 342q-449 -45 -668 -93q-544 -119 -741 -391q-123 -171 -123 -407q0 -90 23 -211h-6q-23 121 -23 211q0 500 557 716q295 113 824 166l163 15q119 119 215 177.5
t187 58.5q65 0 133 -32q72 -33 104 -77q2 -6 2 -8q0 -60 -325 -96q-98 -110 -176 -324q21 0 61 4v-8q-25 0 -65 -4q-25 -67 -61 -180q-25 -78 -56 -187q-18 -65 -52 -175q-53 -171 -126 -286q-72 -116 -181 -116q-44 0 -81 30q-37 28 -37 80q0 48 32 92l7 -4
q-31 -48 -31 -86q0 -49 35 -77q37 -29 75 -29q138 -7 240 238q30 69 58 158q42 131 54 174q38 130 56 187q35 110 61 181q-214 -15 -366 -37l-86 -114q-69 -91 -107 -139q-70 -88 -113 -141q-74 -90 -126 -141q-44 -43 -125 -111q-132 -112 -250 -112q-70 0 -124.5 32
t-55.5 93zM1608 897q-117 -117 -285 -336q119 17 363 35q78 215 174 324q-84 -9 -126 -12q-66 -5 -126 -11zM1876 928q272 30 315 92q-50 12 -90 12q-127 0 -225 -104zM1855 1193h-13q81 60 135 123q3 -6 9.5 -19.5t8 -17t6.5 -13t6.5 -12t6 -10.5t7 -11.5t7.5 -11
t9.5 -14.5t11.5 -16h-10q-45 63 -64 108q-56 -60 -120 -106z" />
    <glyph glyph-name="uni1EAD" unicode="&#x1ead;" horiz-adv-x="563" 
d="M-47 -103q0 -16 -20 -16q-9 0 -13 7q0 7 6 12.5t14 5.5q10 0 13 -9zM184 264l37 -4q-38 -76 -47 -98q-16 -35 -34 -91q-19 -58 -19 -102q0 -32 26 -32q33 0 133 79q129 102 287 260l6 -4q-75 -75 -139 -135q-77 -72 -167 -140q-97 -75 -132 -75q-49 0 -49 62q0 27 23 110
q12 39 27 70l20 45q-162 -219 -236 -219q-23 0 -36 19.5t-13 45.5q0 89 79 173q78 83 144 83q31 0 50.5 -14.5t19.5 -38.5q0 -16 -10 -37l-7 -4q11 17 11 35q0 19 -10.5 32t-28.5 13q-47 0 -97 -49t-79 -109q-31 -62 -31 -100q0 -39 22 -39q43 0 143 117q99 117 107 147z
M25 366h-14q83 62 135 122q26 -53 35 -69.5t37 -54.5h-10q-45 63 -64 108q-58 -62 -119 -106z" />
    <glyph glyph-name="uni1EAE" unicode="&#x1eae;" horiz-adv-x="1785" 
d="M1998 1335l-10 4q76 29 112 109l9 -1q-30 -79 -111 -112zM1616 905q68 6 250 23q100 110 231 110q37 0 86 -10q-92 86 -196 86q-157 0 -371 -209zM330 -80h6q1 -52 38.5 -78t96.5 -26q92 0 211 81q51 35 112 91q50 46 105 105q42 45 105 122q64 78 93 118l87 116
q19 25 42.5 56t28.5 38q-547 -97 -604 -422h-8q28 152 153 252q56 45 135 82q131 61 331 96q181 232 286 342q-449 -45 -668 -93q-544 -119 -741 -391q-123 -171 -123 -407q0 -90 23 -211h-6q-23 121 -23 211q0 500 557 716q295 113 824 166l163 15q119 119 215 177.5
t187 58.5q65 0 133 -32q72 -33 104 -77q2 -6 2 -8q0 -60 -325 -96q-98 -110 -176 -324q21 0 61 4v-8q-25 0 -65 -4q-25 -67 -61 -180q-25 -78 -56 -187q-18 -65 -52 -175q-53 -171 -126 -286q-72 -116 -181 -116q-44 0 -81 30q-37 28 -37 80q0 48 32 92l7 -4
q-31 -48 -31 -86q0 -49 35 -77q37 -29 75 -29q138 -7 240 238q30 69 58 158q42 131 54 174q38 130 56 187q35 110 61 181q-214 -15 -366 -37l-86 -114q-69 -91 -107 -139q-70 -88 -113 -141q-74 -90 -126 -141q-44 -43 -125 -111q-132 -112 -250 -112q-70 0 -124.5 32
t-55.5 93zM1608 897q-117 -117 -285 -336q119 17 363 35q78 215 174 324q-84 -9 -126 -12q-66 -5 -126 -11zM1876 928q272 30 315 92q-50 12 -90 12q-127 0 -225 -104zM1902 1322l10 -1q-9 -46 8.5 -72t56.5 -26q95 0 150 102h9q-63 -111 -161 -111q-85 0 -73 108z" />
    <glyph glyph-name="uni1EAF" unicode="&#x1eaf;" horiz-adv-x="563" 
d="M164 498l-10 4q77 29 112 108l9 -1q-30 -77 -111 -111zM62 484l11 -1q-9 -46 8.5 -72t56.5 -26q95 0 150 102h9q-62 -110 -161 -110q-86 0 -74 107zM184 264l37 -4q-38 -76 -47 -98q-16 -35 -34 -91q-19 -58 -19 -102q0 -32 26 -32q33 0 133 79q129 102 287 260l6 -4
q-75 -75 -139 -135q-77 -72 -167 -140q-97 -75 -132 -75q-49 0 -49 62q0 27 23 110q12 39 27 70l20 45q-162 -219 -236 -219q-23 0 -36 19.5t-13 45.5q0 89 79 173q78 83 144 83q31 0 50.5 -14.5t19.5 -38.5q0 -16 -10 -37l-7 -4q11 17 11 35q0 19 -10.5 32t-28.5 13
q-47 0 -97 -49t-79 -109q-31 -62 -31 -100q0 -39 22 -39q43 0 143 117q99 117 107 147z" />
    <glyph glyph-name="uni1EB0" unicode="&#x1eb0;" horiz-adv-x="1785" 
d="M2043 1339l-9 -4q-76 31 -91 114l9 1q17 -83 91 -111zM1616 905q68 6 250 23q100 110 231 110q37 0 86 -10q-92 86 -196 86q-157 0 -371 -209zM330 -80h6q1 -52 38.5 -78t96.5 -26q92 0 211 81q51 35 112 91q50 46 105 105q42 45 105 122q64 78 93 118l87 116
q19 25 42.5 56t28.5 38q-547 -97 -604 -422h-8q28 152 153 252q56 45 135 82q131 61 331 96q181 232 286 342q-449 -45 -668 -93q-544 -119 -741 -391q-123 -171 -123 -407q0 -90 23 -211h-6q-23 121 -23 211q0 500 557 716q295 113 824 166l163 15q119 119 215 177.5
t187 58.5q65 0 133 -32q72 -33 104 -77q2 -6 2 -8q0 -60 -325 -96q-98 -110 -176 -324q21 0 61 4v-8q-25 0 -65 -4q-25 -67 -61 -180q-25 -78 -56 -187q-18 -65 -52 -175q-53 -171 -126 -286q-72 -116 -181 -116q-44 0 -81 30q-37 28 -37 80q0 48 32 92l7 -4
q-31 -48 -31 -86q0 -49 35 -77q37 -29 75 -29q138 -7 240 238q30 69 58 158q42 131 54 174q38 130 56 187q35 110 61 181q-214 -15 -366 -37l-86 -114q-69 -91 -107 -139q-70 -88 -113 -141q-74 -90 -126 -141q-44 -43 -125 -111q-132 -112 -250 -112q-70 0 -124.5 32
t-55.5 93zM1608 897q-117 -117 -285 -336q119 17 363 35q78 215 174 324q-84 -9 -126 -12q-66 -5 -126 -11zM1876 928q272 30 315 92q-50 12 -90 12q-127 0 -225 -104zM1902 1322l10 -1q-9 -46 8.5 -72t56.5 -26q95 0 150 102h9q-63 -111 -161 -111q-85 0 -73 108z" />
    <glyph glyph-name="uni1EB1" unicode="&#x1eb1;" horiz-adv-x="563" 
d="M202 502l-9 -4q-37 15 -61 44.5t-31 68.5l10 1q17 -82 91 -110zM62 484l11 -1q-9 -46 8.5 -72t56.5 -26q95 0 150 102h9q-62 -110 -161 -110q-86 0 -74 107zM184 264l37 -4q-38 -76 -47 -98q-16 -35 -34 -91q-19 -58 -19 -102q0 -32 26 -32q33 0 133 79q129 102 287 260
l6 -4q-75 -75 -139 -135q-77 -72 -167 -140q-97 -75 -132 -75q-49 0 -49 62q0 27 23 110q12 39 27 70l20 45q-162 -219 -236 -219q-23 0 -36 19.5t-13 45.5q0 89 79 173q78 83 144 83q31 0 50.5 -14.5t19.5 -38.5q0 -16 -10 -37l-7 -4q11 17 11 35q0 19 -10.5 32t-28.5 13
q-47 0 -97 -49t-79 -109q-31 -62 -31 -100q0 -39 22 -39q43 0 143 117q99 117 107 147z" />
    <glyph glyph-name="uni1EB2" unicode="&#x1eb2;" horiz-adv-x="1785" 
d="M2010 1325l-6 4q75 52 72 94q-1 20 -19 28.5t-39 3.5q-27 -6 -50 -29l-7 5l7 -5l-7 5q30 28 58 32q26 4 46 -6.5t21 -33.5q3 -42 -76 -98zM1616 905q68 6 250 23q100 110 231 110q37 0 86 -10q-92 86 -196 86q-157 0 -371 -209zM330 -80h6q1 -52 38.5 -78t96.5 -26
q92 0 211 81q51 35 112 91q50 46 105 105q42 45 105 122q64 78 93 118l87 116q19 25 42.5 56t28.5 38q-547 -97 -604 -422h-8q28 152 153 252q56 45 135 82q131 61 331 96q181 232 286 342q-449 -45 -668 -93q-544 -119 -741 -391q-123 -171 -123 -407q0 -90 23 -211h-6
q-23 121 -23 211q0 500 557 716q295 113 824 166l163 15q119 119 215 177.5t187 58.5q65 0 133 -32q72 -33 104 -77q2 -6 2 -8q0 -60 -325 -96q-98 -110 -176 -324q21 0 61 4v-8q-25 0 -65 -4q-25 -67 -61 -180q-25 -78 -56 -187q-18 -65 -52 -175q-53 -171 -126 -286
q-72 -116 -181 -116q-44 0 -81 30q-37 28 -37 80q0 48 32 92l7 -4q-31 -48 -31 -86q0 -49 35 -77q37 -29 75 -29q138 -7 240 238q30 69 58 158q42 131 54 174q38 130 56 187q35 110 61 181q-214 -15 -366 -37l-86 -114q-69 -91 -107 -139q-70 -88 -113 -141
q-74 -90 -126 -141q-44 -43 -125 -111q-132 -112 -250 -112q-70 0 -124.5 32t-55.5 93zM1608 897q-117 -117 -285 -336q119 17 363 35q78 215 174 324q-84 -9 -126 -12q-66 -5 -126 -11zM1876 928q272 30 315 92q-50 12 -90 12q-127 0 -225 -104zM1902 1322l10 -1
q-9 -46 8.5 -72t56.5 -26q95 0 150 102h9q-63 -111 -161 -111q-85 0 -73 108z" />
    <glyph glyph-name="uni1EB3" unicode="&#x1eb3;" horiz-adv-x="563" 
d="M174 487l-6 5q75 52 72 94q-1 19 -19 28t-39 3q-29 -7 -50 -28l-7 4l7 -4l-7 4q31 29 58 33q26 4 46 -6.5t21 -33.5q4 -43 -76 -99zM62 484l11 -1q-9 -46 8.5 -72t56.5 -26q95 0 150 102h9q-62 -110 -161 -110q-86 0 -74 107zM184 264l37 -4q-38 -76 -47 -98
q-16 -35 -34 -91q-19 -58 -19 -102q0 -32 26 -32q33 0 133 79q129 102 287 260l6 -4q-75 -75 -139 -135q-77 -72 -167 -140q-97 -75 -132 -75q-49 0 -49 62q0 27 23 110q12 39 27 70l20 45q-162 -219 -236 -219q-23 0 -36 19.5t-13 45.5q0 89 79 173q78 83 144 83
q31 0 50.5 -14.5t19.5 -38.5q0 -16 -10 -37l-7 -4q11 17 11 35q0 19 -10.5 32t-28.5 13q-47 0 -97 -49t-79 -109q-31 -62 -31 -100q0 -39 22 -39q43 0 143 117q99 117 107 147z" />
    <glyph glyph-name="uni1EB4" unicode="&#x1eb4;" horiz-adv-x="1785" 
d="M2176 1397l3 -5q-1 -1 -10.5 -8t-17.5 -12t-20.5 -12t-28 -10.5t-31.5 -3.5q-26 0 -46 10.5t-30.5 23t-28.5 23t-40 10.5q-30 0 -64 -34l-9 4q36 38 73 38q36 0 70 -33.5t70 -34.5q12 0 23 1.5t21 5t18 6.5t16.5 8.5t13 8.5t11 8t7.5 6zM1616 905q68 6 250 23
q100 110 231 110q37 0 86 -10q-92 86 -196 86q-157 0 -371 -209zM330 -80h6q1 -52 38.5 -78t96.5 -26q92 0 211 81q51 35 112 91q50 46 105 105q42 45 105 122q64 78 93 118l87 116q19 25 42.5 56t28.5 38q-547 -97 -604 -422h-8q28 152 153 252q56 45 135 82q131 61 331 96
q181 232 286 342q-449 -45 -668 -93q-544 -119 -741 -391q-123 -171 -123 -407q0 -90 23 -211h-6q-23 121 -23 211q0 500 557 716q295 113 824 166l163 15q119 119 215 177.5t187 58.5q65 0 133 -32q72 -33 104 -77q2 -6 2 -8q0 -60 -325 -96q-98 -110 -176 -324q21 0 61 4
v-8q-25 0 -65 -4q-25 -67 -61 -180q-25 -78 -56 -187q-18 -65 -52 -175q-53 -171 -126 -286q-72 -116 -181 -116q-44 0 -81 30q-37 28 -37 80q0 48 32 92l7 -4q-31 -48 -31 -86q0 -49 35 -77q37 -29 75 -29q138 -7 240 238q30 69 58 158q42 131 54 174q38 130 56 187
q35 110 61 181q-214 -15 -366 -37l-86 -114q-69 -91 -107 -139q-70 -88 -113 -141q-74 -90 -126 -141q-44 -43 -125 -111q-132 -112 -250 -112q-70 0 -124.5 32t-55.5 93zM1608 897q-117 -117 -285 -336q119 17 363 35q78 215 174 324q-84 -9 -126 -12q-66 -5 -126 -11z
M1876 928q272 30 315 92q-50 12 -90 12q-127 0 -225 -104zM1902 1322l10 -1q-9 -46 8.5 -72t56.5 -26q95 0 150 102h9q-63 -111 -161 -111q-85 0 -73 108z" />
    <glyph glyph-name="uni1EB5" unicode="&#x1eb5;" horiz-adv-x="563" 
d="M335 569l3 -5q-1 0 -10.5 -7.5t-17.5 -12.5t-21 -12t-28.5 -10.5t-31.5 -3.5q-26 0 -45.5 10.5t-30 23.5t-28.5 23.5t-40 10.5q-31 0 -65 -34l-8 4q36 38 73 38q36 0 70 -34t70 -35q12 0 23 1.5t21 5t18 6.5t16.5 8.5t13 8.5t11 8t7.5 6zM62 484l11 -1q-9 -46 8.5 -72
t56.5 -26q95 0 150 102h9q-62 -110 -161 -110q-86 0 -74 107zM184 264l37 -4q-38 -76 -47 -98q-16 -35 -34 -91q-19 -58 -19 -102q0 -32 26 -32q33 0 133 79q129 102 287 260l6 -4q-75 -75 -139 -135q-77 -72 -167 -140q-97 -75 -132 -75q-49 0 -49 62q0 27 23 110
q12 39 27 70l20 45q-162 -219 -236 -219q-23 0 -36 19.5t-13 45.5q0 89 79 173q78 83 144 83q31 0 50.5 -14.5t19.5 -38.5q0 -16 -10 -37l-7 -4q11 17 11 35q0 19 -10.5 32t-28.5 13q-47 0 -97 -49t-79 -109q-31 -62 -31 -100q0 -39 22 -39q43 0 143 117q99 117 107 147z
" />
    <glyph glyph-name="uni1EB6" unicode="&#x1eb6;" horiz-adv-x="1785" 
d="M894 -431q0 -15 -20 -15q-10 0 -13 7q0 7 6 12t14 5q10 0 13 -9zM1616 905q68 6 250 23q100 110 231 110q37 0 86 -10q-92 86 -196 86q-157 0 -371 -209zM330 -80h6q1 -52 38.5 -78t96.5 -26q92 0 211 81q51 35 112 91q50 46 105 105q42 45 105 122q64 78 93 118l87 116
q19 25 42.5 56t28.5 38q-547 -97 -604 -422h-8q28 152 153 252q56 45 135 82q131 61 331 96q181 232 286 342q-449 -45 -668 -93q-544 -119 -741 -391q-123 -171 -123 -407q0 -90 23 -211h-6q-23 121 -23 211q0 500 557 716q295 113 824 166l163 15q119 119 215 177.5
t187 58.5q65 0 133 -32q72 -33 104 -77q2 -6 2 -8q0 -60 -325 -96q-98 -110 -176 -324q21 0 61 4v-8q-25 0 -65 -4q-25 -67 -61 -180q-25 -78 -56 -187q-18 -65 -52 -175q-53 -171 -126 -286q-72 -116 -181 -116q-44 0 -81 30q-37 28 -37 80q0 48 32 92l7 -4
q-31 -48 -31 -86q0 -49 35 -77q37 -29 75 -29q138 -7 240 238q30 69 58 158q42 131 54 174q38 130 56 187q35 110 61 181q-214 -15 -366 -37l-86 -114q-69 -91 -107 -139q-70 -88 -113 -141q-74 -90 -126 -141q-44 -43 -125 -111q-132 -112 -250 -112q-70 0 -124.5 32
t-55.5 93zM1608 897q-117 -117 -285 -336q119 17 363 35q78 215 174 324q-84 -9 -126 -12q-66 -5 -126 -11zM1876 928q272 30 315 92q-50 12 -90 12q-127 0 -225 -104zM1902 1322l10 -1q-9 -46 8.5 -72t56.5 -26q95 0 150 102h9q-63 -111 -161 -111q-85 0 -73 108z" />
    <glyph glyph-name="uni1EB7" unicode="&#x1eb7;" horiz-adv-x="563" 
d="M-47 -103q0 -16 -20 -16q-9 0 -13 7q0 7 6 12.5t14 5.5q10 0 13 -9zM62 484l11 -1q-9 -46 8.5 -72t56.5 -26q95 0 150 102h9q-62 -110 -161 -110q-86 0 -74 107zM184 264l37 -4q-38 -76 -47 -98q-16 -35 -34 -91q-19 -58 -19 -102q0 -32 26 -32q33 0 133 79
q129 102 287 260l6 -4q-75 -75 -139 -135q-77 -72 -167 -140q-97 -75 -132 -75q-49 0 -49 62q0 27 23 110q12 39 27 70l20 45q-162 -219 -236 -219q-23 0 -36 19.5t-13 45.5q0 89 79 173q78 83 144 83q31 0 50.5 -14.5t19.5 -38.5q0 -16 -10 -37l-7 -4q11 17 11 35
q0 19 -10.5 32t-28.5 13q-47 0 -97 -49t-79 -109q-31 -62 -31 -100q0 -39 22 -39q43 0 143 117q99 117 107 147z" />
    <glyph glyph-name="uni1EB8" unicode="&#x1eb8;" horiz-adv-x="1785" 
d="M833 -472q0 -15 -20 -15q-9 0 -13 7q0 7 5.5 12t13.5 5q11 0 14 -9zM1233 952q186 -32 317 -32q73 0 145 11q70 12 70 42q-5 32 -76 51q-74 20 -155 20q-82 0 -164 -25q-83 -25 -137 -67zM1225 944q-54 -45 -95 -121q-38 -73 -38 -143q0 -52 26 -92q143 16 156 16
q59 0 59 -18q0 -13 -37 -25q-36 -12 -82 -12q-59 0 -98 33q-176 -44 -326 -153q-80 -59 -138 -125q-60 -69 -95 -156.5t-35 -178.5q0 -89 27 -154t75.5 -100.5t105.5 -52t126 -16.5q111 0 213 35q140 49 272 158q69 57 125 122q57 66 91 141t34 144q0 105 -58 154
q-59 51 -147 51q-98 0 -206 -51q-111 -51 -190 -121q-82 -73 -142 -154q-61 -81 -80 -145q-12 -36 -12 -86q0 -69 40 -119q40 -51 119 -51q91 0 186 48q97 49 152 110q58 63 58 108q0 51 -62 51q-44 0 -96 -29q-52 -28 -68 -61l-8 2q18 35 72 65q52 29 98 29q72 0 72 -59
q0 -53 -64 -117q-63 -65 -159 -109q-98 -45 -185 -45q-90 0 -143 50t-53 133q0 123 126 284q66 84 155 147q98 69 210 109q73 25 150 25q103 0 172 -54t69 -165q0 -91 -53 -184q-58 -99 -134 -170q-79 -75 -168.5 -133t-168.5 -85q-96 -34 -219 -34q-77 0 -142 18.5t-119 58
t-84 108t-30 159.5q0 93 37 180.5t102 156.5q94 100 225.5 170t264.5 97q-47 41 -47 121q0 64 34 129t89 112q-169 23 -303 23q-122 0 -250 -15q-189 -24 -346 -118q-83 -49 -145 -111q-64 -64 -101 -147.5t-37 -173.5q0 -60 23 -144l-5 -2q-24 68 -24 146q0 91 37 175.5
t102 147.5q94 94 227 155t271 79q117 14 239 14q140 0 318 -23q59 50 145 75q92 28 178 28q94 0 178 -25q81 -22 81 -63q0 -24 -40 -37q-63 -23 -169 -23q-109 0 -338 33zM1124 584q34 -29 88 -29q30 0 57.5 6t42.5 13.5t15 13.5q0 10 -55 10q-18 0 -68 -7t-80 -7z" />
    <glyph glyph-name="uni1EB9" unicode="&#x1eb9;" horiz-adv-x="485" 
d="M15 -185q0 -16 -19 -16q-10 0 -13 7q0 7 6 12.5t13 5.5q10 0 13 -9zM-70 -6q3 -36 24.5 -58t57.5 -22q34 0 87 29q51 26 97 60q42 32 110 94q73 68 97 92l89 90l4 -7l-22 -21q-85 -85 -115 -113q-43 -40 -116 -104q-144 -126 -231 -126q-60 0 -89 42q-29 43 -29 99
q0 68 31 131q30 68 89 116q60 48 127 48q29 0 49.5 -16t20.5 -41q0 -45 -78 -84q-75 -37 -139 -37q-13 0 -21 2q-45 -87 -45 -154q0 -12 2 -20zM201 274v9q0 14 -13.5 23t-35.5 9q-45 0 -95 -42q-47 -41 -80 -97q2 0 9.5 -1t9.5 -1q65 0 129 34q67 36 76 66z" />
    <glyph glyph-name="uni1EBA" unicode="&#x1eba;" horiz-adv-x="1785" 
d="M1565 1256l7 -4l-7 4q31 29 58 33q26 4 46 -6.5t21 -33.5q4 -51 -106 -117l-4 6q103 59 99 111q-1 20 -18.5 28.5t-38.5 3.5q-27 -6 -50 -29zM1233 952q186 -32 317 -32q73 0 145 11q70 12 70 42q-5 32 -76 51q-74 20 -155 20q-82 0 -164 -25q-83 -25 -137 -67zM1225 944
q-54 -45 -95 -121q-38 -73 -38 -143q0 -52 26 -92q143 16 156 16q59 0 59 -18q0 -13 -37 -25q-36 -12 -82 -12q-59 0 -98 33q-176 -44 -326 -153q-80 -59 -138 -125q-60 -69 -95 -156.5t-35 -178.5q0 -89 27 -154t75.5 -100.5t105.5 -52t126 -16.5q111 0 213 35
q140 49 272 158q69 57 125 122q57 66 91 141t34 144q0 105 -58 154q-59 51 -147 51q-98 0 -206 -51q-111 -51 -190 -121q-82 -73 -142 -154q-61 -81 -80 -145q-12 -36 -12 -86q0 -69 40 -119q40 -51 119 -51q91 0 186 48q97 49 152 110q58 63 58 108q0 51 -62 51
q-44 0 -96 -29q-52 -28 -68 -61l-8 2q18 35 72 65q52 29 98 29q72 0 72 -59q0 -53 -64 -117q-63 -65 -159 -109q-98 -45 -185 -45q-90 0 -143 50t-53 133q0 123 126 284q66 84 155 147q98 69 210 109q73 25 150 25q103 0 172 -54t69 -165q0 -91 -53 -184q-58 -99 -134 -170
q-79 -75 -168.5 -133t-168.5 -85q-96 -34 -219 -34q-77 0 -142 18.5t-119 58t-84 108t-30 159.5q0 93 37 180.5t102 156.5q94 100 225.5 170t264.5 97q-47 41 -47 121q0 64 34 129t89 112q-169 23 -303 23q-122 0 -250 -15q-189 -24 -346 -118q-83 -49 -145 -111
q-64 -64 -101 -147.5t-37 -173.5q0 -60 23 -144l-5 -2q-24 68 -24 146q0 91 37 175.5t102 147.5q94 94 227 155t271 79q117 14 239 14q140 0 318 -23q59 50 145 75q92 28 178 28q94 0 178 -25q81 -22 81 -63q0 -24 -40 -37q-63 -23 -169 -23q-109 0 -338 33zM1124 584
q34 -29 88 -29q30 0 57.5 6t42.5 13.5t15 13.5q0 10 -55 10q-18 0 -68 -7t-80 -7z" />
    <glyph glyph-name="uni1EBB" unicode="&#x1ebb;" horiz-adv-x="485" 
d="M108 519l7 -4l-7 4q31 29 58 33q26 4 45.5 -6.5t20.5 -33.5q4 -53 -105 -118l-4 6q103 59 99 112q-1 20 -18.5 28.5t-38.5 3.5q-27 -6 -50 -29zM-70 -6q3 -36 24.5 -58t57.5 -22q34 0 87 29q51 26 97 60q42 32 110 94q73 68 97 92l89 90l4 -7l-22 -21q-85 -85 -115 -113
q-43 -40 -116 -104q-144 -126 -231 -126q-60 0 -89 42q-29 43 -29 99q0 68 31 131q30 68 89 116q60 48 127 48q29 0 49.5 -16t20.5 -41q0 -45 -78 -84q-75 -37 -139 -37q-13 0 -21 2q-45 -87 -45 -154q0 -12 2 -20zM201 274v9q0 14 -13.5 23t-35.5 9q-45 0 -95 -42
q-47 -41 -80 -97q2 0 9.5 -1t9.5 -1q65 0 129 34q67 36 76 66z" />
    <glyph glyph-name="uni1EBC" unicode="&#x1ebc;" horiz-adv-x="1785" 
d="M1775 1183l3 -5q-1 0 -10.5 -7.5t-17.5 -12.5t-21 -12t-28.5 -10.5t-31.5 -3.5q-26 0 -45.5 10.5t-30 23t-28.5 23t-40 10.5q-31 0 -65 -34l-8 4q36 38 73 38q36 0 70 -33.5t70 -34.5q12 0 23 1.5t21 5t18 6.5t16.5 8.5t13 8.5t11 8t7.5 6zM1233 952q186 -32 317 -32
q73 0 145 11q70 12 70 42q-5 32 -76 51q-74 20 -155 20q-82 0 -164 -25q-83 -25 -137 -67zM1225 944q-54 -45 -95 -121q-38 -73 -38 -143q0 -52 26 -92q143 16 156 16q59 0 59 -18q0 -13 -37 -25q-36 -12 -82 -12q-59 0 -98 33q-176 -44 -326 -153q-80 -59 -138 -125
q-60 -69 -95 -156.5t-35 -178.5q0 -89 27 -154t75.5 -100.5t105.5 -52t126 -16.5q111 0 213 35q140 49 272 158q69 57 125 122q57 66 91 141t34 144q0 105 -58 154q-59 51 -147 51q-98 0 -206 -51q-111 -51 -190 -121q-82 -73 -142 -154q-61 -81 -80 -145q-12 -36 -12 -86
q0 -69 40 -119q40 -51 119 -51q91 0 186 48q97 49 152 110q58 63 58 108q0 51 -62 51q-44 0 -96 -29q-52 -28 -68 -61l-8 2q18 35 72 65q52 29 98 29q72 0 72 -59q0 -53 -64 -117q-63 -65 -159 -109q-98 -45 -185 -45q-90 0 -143 50t-53 133q0 123 126 284q66 84 155 147
q98 69 210 109q73 25 150 25q103 0 172 -54t69 -165q0 -91 -53 -184q-58 -99 -134 -170q-79 -75 -168.5 -133t-168.5 -85q-96 -34 -219 -34q-77 0 -142 18.5t-119 58t-84 108t-30 159.5q0 93 37 180.5t102 156.5q94 100 225.5 170t264.5 97q-47 41 -47 121q0 64 34 129
t89 112q-169 23 -303 23q-122 0 -250 -15q-189 -24 -346 -118q-83 -49 -145 -111q-64 -64 -101 -147.5t-37 -173.5q0 -60 23 -144l-5 -2q-24 68 -24 146q0 91 37 175.5t102 147.5q94 94 227 155t271 79q117 14 239 14q140 0 318 -23q59 50 145 75q92 28 178 28q94 0 178 -25
q81 -22 81 -63q0 -24 -40 -37q-63 -23 -169 -23q-109 0 -338 33zM1124 584q34 -29 88 -29q30 0 57.5 6t42.5 13.5t15 13.5q0 10 -55 10q-18 0 -68 -7t-80 -7z" />
    <glyph glyph-name="uni1EBD" unicode="&#x1ebd;" horiz-adv-x="485" 
d="M311 445l3 -5q-1 -1 -10.5 -8t-17.5 -12t-20.5 -12t-28 -10.5t-31.5 -3.5q-32 0 -54.5 17t-42.5 34t-48 17q-30 0 -64 -34l-8 4q36 38 72 38t70.5 -34t70.5 -35q14 0 27.5 2.5t22.5 5.5t20.5 9.5t16 9.5t13 10t9.5 7zM-70 -6q3 -36 24.5 -58t57.5 -22q34 0 87 29
q51 26 97 60q42 32 110 94q73 68 97 92l89 90l4 -7l-22 -21q-85 -85 -115 -113q-43 -40 -116 -104q-144 -126 -231 -126q-60 0 -89 42q-29 43 -29 99q0 68 31 131q30 68 89 116q60 48 127 48q29 0 49.5 -16t20.5 -41q0 -45 -78 -84q-75 -37 -139 -37q-13 0 -21 2
q-45 -87 -45 -154q0 -12 2 -20zM201 274v9q0 14 -13.5 23t-35.5 9q-45 0 -95 -42q-47 -41 -80 -97q2 0 9.5 -1t9.5 -1q65 0 129 34q67 36 76 66z" />
    <glyph glyph-name="uni1EBE" unicode="&#x1ebe;" horiz-adv-x="1785" 
d="M1629 1239l-10 4q77 30 113 109l9 -1q-30 -78 -112 -112zM1233 952q186 -32 317 -32q73 0 145 11q70 12 70 42q-5 32 -76 51q-74 20 -155 20q-82 0 -164 -25q-83 -25 -137 -67zM1225 944q-54 -45 -95 -121q-38 -73 -38 -143q0 -52 26 -92q143 16 156 16q59 0 59 -18
q0 -13 -37 -25q-36 -12 -82 -12q-59 0 -98 33q-176 -44 -326 -153q-80 -59 -138 -125q-60 -69 -95 -156.5t-35 -178.5q0 -89 27 -154t75.5 -100.5t105.5 -52t126 -16.5q111 0 213 35q140 49 272 158q69 57 125 122q57 66 91 141t34 144q0 105 -58 154q-59 51 -147 51
q-98 0 -206 -51q-111 -51 -190 -121q-82 -73 -142 -154q-61 -81 -80 -145q-12 -36 -12 -86q0 -69 40 -119q40 -51 119 -51q91 0 186 48q97 49 152 110q58 63 58 108q0 51 -62 51q-44 0 -96 -29q-52 -28 -68 -61l-8 2q18 35 72 65q52 29 98 29q72 0 72 -59q0 -53 -64 -117
q-63 -65 -159 -109q-98 -45 -185 -45q-90 0 -143 50t-53 133q0 123 126 284q66 84 155 147q98 69 210 109q73 25 150 25q103 0 172 -54t69 -165q0 -91 -53 -184q-58 -99 -134 -170q-79 -75 -168.5 -133t-168.5 -85q-96 -34 -219 -34q-77 0 -142 18.5t-119 58t-84 108
t-30 159.5q0 93 37 180.5t102 156.5q94 100 225.5 170t264.5 97q-47 41 -47 121q0 64 34 129t89 112q-169 23 -303 23q-122 0 -250 -15q-189 -24 -346 -118q-83 -49 -145 -111q-64 -64 -101 -147.5t-37 -173.5q0 -60 23 -144l-5 -2q-24 68 -24 146q0 91 37 175.5t102 147.5
q94 94 227 155t271 79q117 14 239 14q140 0 318 -23q59 50 145 75q92 28 178 28q94 0 178 -25q81 -22 81 -63q0 -24 -40 -37q-63 -23 -169 -23q-109 0 -338 33zM1124 584q34 -29 88 -29q30 0 57.5 6t42.5 13.5t15 13.5q0 10 -55 10q-18 0 -68 -7t-80 -7zM1434 1134h-14
q83 62 135 122q26 -53 35 -69.5t37 -54.5h-10q-45 63 -64 108q-58 -62 -119 -106z" />
    <glyph glyph-name="uni1EBF" unicode="&#x1ebf;" horiz-adv-x="485" 
d="M232 502l-10 4q78 30 113 108l9 -1q-30 -77 -112 -111zM-70 -6q3 -36 24.5 -58t57.5 -22q34 0 87 29q51 26 97 60q42 32 110 94q73 68 97 92l89 90l4 -7l-22 -21q-85 -85 -115 -113q-43 -40 -116 -104q-144 -126 -231 -126q-60 0 -89 42q-29 43 -29 99q0 68 31 131
q30 68 89 116q60 48 127 48q29 0 49.5 -16t20.5 -41q0 -45 -78 -84q-75 -37 -139 -37q-13 0 -21 2q-45 -87 -45 -154q0 -12 2 -20zM201 274v9q0 14 -13.5 23t-35.5 9q-45 0 -95 -42q-47 -41 -80 -97q2 0 9.5 -1t9.5 -1q65 0 129 34q67 36 76 66zM37 396h-13q81 60 135 123
q5 -10 13.5 -28t11 -22.5t8 -15.5t10 -18t11.5 -17t17 -24h-10q-42 59 -63 109q-21 -22 -59 -56t-61 -51z" />
    <glyph glyph-name="uni1EC0" unicode="&#x1ec0;" horiz-adv-x="1785" 
d="M1676 1242l-9 -4q-76 31 -91 114l9 1q17 -83 91 -111zM1233 952q186 -32 317 -32q73 0 145 11q70 12 70 42q-5 32 -76 51q-74 20 -155 20q-82 0 -164 -25q-83 -25 -137 -67zM1225 944q-54 -45 -95 -121q-38 -73 -38 -143q0 -52 26 -92q143 16 156 16q59 0 59 -18
q0 -13 -37 -25q-36 -12 -82 -12q-59 0 -98 33q-176 -44 -326 -153q-80 -59 -138 -125q-60 -69 -95 -156.5t-35 -178.5q0 -89 27 -154t75.5 -100.5t105.5 -52t126 -16.5q111 0 213 35q140 49 272 158q69 57 125 122q57 66 91 141t34 144q0 105 -58 154q-59 51 -147 51
q-98 0 -206 -51q-111 -51 -190 -121q-82 -73 -142 -154q-61 -81 -80 -145q-12 -36 -12 -86q0 -69 40 -119q40 -51 119 -51q91 0 186 48q97 49 152 110q58 63 58 108q0 51 -62 51q-44 0 -96 -29q-52 -28 -68 -61l-8 2q18 35 72 65q52 29 98 29q72 0 72 -59q0 -53 -64 -117
q-63 -65 -159 -109q-98 -45 -185 -45q-90 0 -143 50t-53 133q0 123 126 284q66 84 155 147q98 69 210 109q73 25 150 25q103 0 172 -54t69 -165q0 -91 -53 -184q-58 -99 -134 -170q-79 -75 -168.5 -133t-168.5 -85q-96 -34 -219 -34q-77 0 -142 18.5t-119 58t-84 108
t-30 159.5q0 93 37 180.5t102 156.5q94 100 225.5 170t264.5 97q-47 41 -47 121q0 64 34 129t89 112q-169 23 -303 23q-122 0 -250 -15q-189 -24 -346 -118q-83 -49 -145 -111q-64 -64 -101 -147.5t-37 -173.5q0 -60 23 -144l-5 -2q-24 68 -24 146q0 91 37 175.5t102 147.5
q94 94 227 155t271 79q117 14 239 14q140 0 318 -23q59 50 145 75q92 28 178 28q94 0 178 -25q81 -22 81 -63q0 -24 -40 -37q-63 -23 -169 -23q-109 0 -338 33zM1124 584q34 -29 88 -29q30 0 57.5 6t42.5 13.5t15 13.5q0 10 -55 10q-18 0 -68 -7t-80 -7zM1434 1134h-14
q83 62 135 122q26 -53 35 -69.5t37 -54.5h-10q-45 63 -64 108q-58 -62 -119 -106z" />
    <glyph glyph-name="uni1EC1" unicode="&#x1ec1;" horiz-adv-x="485" 
d="M280 505l-10 -4q-76 31 -91 113l9 1q17 -81 92 -110zM-70 -6q3 -36 24.5 -58t57.5 -22q34 0 87 29q51 26 97 60q42 32 110 94q73 68 97 92l89 90l4 -7l-22 -21q-85 -85 -115 -113q-43 -40 -116 -104q-144 -126 -231 -126q-60 0 -89 42q-29 43 -29 99q0 68 31 131
q30 68 89 116q60 48 127 48q29 0 49.5 -16t20.5 -41q0 -45 -78 -84q-75 -37 -139 -37q-13 0 -21 2q-45 -87 -45 -154q0 -12 2 -20zM201 274v9q0 14 -13.5 23t-35.5 9q-45 0 -95 -42q-47 -41 -80 -97q2 0 9.5 -1t9.5 -1q65 0 129 34q67 36 76 66zM37 396h-13q81 60 135 123
q5 -10 13.5 -28t11 -22.5t8 -15.5t10 -18t11.5 -17t17 -24h-10q-42 59 -63 109q-21 -22 -59 -56t-61 -51z" />
    <glyph glyph-name="uni1EC2" unicode="&#x1ec2;" horiz-adv-x="1785" 
d="M1635 1238l-6 4q75 52 72 94q-1 20 -18.5 28.5t-38.5 3.5q-29 -7 -51 -29l-7 4l7 -4l-7 4q31 29 59 33q26 4 45.5 -6.5t20.5 -33.5q3 -42 -76 -98zM1233 952q186 -32 317 -32q73 0 145 11q70 12 70 42q-5 32 -76 51q-74 20 -155 20q-82 0 -164 -25q-83 -25 -137 -67z
M1225 944q-54 -45 -95 -121q-38 -73 -38 -143q0 -52 26 -92q143 16 156 16q59 0 59 -18q0 -13 -37 -25q-36 -12 -82 -12q-59 0 -98 33q-176 -44 -326 -153q-80 -59 -138 -125q-60 -69 -95 -156.5t-35 -178.5q0 -89 27 -154t75.5 -100.5t105.5 -52t126 -16.5q111 0 213 35
q140 49 272 158q69 57 125 122q57 66 91 141t34 144q0 105 -58 154q-59 51 -147 51q-98 0 -206 -51q-111 -51 -190 -121q-82 -73 -142 -154q-61 -81 -80 -145q-12 -36 -12 -86q0 -69 40 -119q40 -51 119 -51q91 0 186 48q97 49 152 110q58 63 58 108q0 51 -62 51
q-44 0 -96 -29q-52 -28 -68 -61l-8 2q18 35 72 65q52 29 98 29q72 0 72 -59q0 -53 -64 -117q-63 -65 -159 -109q-98 -45 -185 -45q-90 0 -143 50t-53 133q0 123 126 284q66 84 155 147q98 69 210 109q73 25 150 25q103 0 172 -54t69 -165q0 -91 -53 -184q-58 -99 -134 -170
q-79 -75 -168.5 -133t-168.5 -85q-96 -34 -219 -34q-77 0 -142 18.5t-119 58t-84 108t-30 159.5q0 93 37 180.5t102 156.5q94 100 225.5 170t264.5 97q-47 41 -47 121q0 64 34 129t89 112q-169 23 -303 23q-122 0 -250 -15q-189 -24 -346 -118q-83 -49 -145 -111
q-64 -64 -101 -147.5t-37 -173.5q0 -60 23 -144l-5 -2q-24 68 -24 146q0 91 37 175.5t102 147.5q94 94 227 155t271 79q117 14 239 14q140 0 318 -23q59 50 145 75q92 28 178 28q94 0 178 -25q81 -22 81 -63q0 -24 -40 -37q-63 -23 -169 -23q-109 0 -338 33zM1124 584
q34 -29 88 -29q30 0 57.5 6t42.5 13.5t15 13.5q0 10 -55 10q-18 0 -68 -7t-80 -7zM1434 1134h-14q83 62 135 122q26 -53 35 -69.5t37 -54.5h-10q-45 63 -64 108q-58 -62 -119 -106z" />
    <glyph glyph-name="uni1EC3" unicode="&#x1ec3;" horiz-adv-x="485" 
d="M239 501l-7 4q75 52 72 94q-1 20 -18.5 28.5t-38.5 3.5q-27 -6 -50 -29l-8 4l8 -4l-8 4q31 29 59 33q26 4 45.5 -6.5t20.5 -33.5q4 -42 -75 -98zM-70 -6q3 -36 24.5 -58t57.5 -22q34 0 87 29q51 26 97 60q42 32 110 94q73 68 97 92l89 90l4 -7l-22 -21q-85 -85 -115 -113
q-43 -40 -116 -104q-144 -126 -231 -126q-60 0 -89 42q-29 43 -29 99q0 68 31 131q30 68 89 116q60 48 127 48q29 0 49.5 -16t20.5 -41q0 -45 -78 -84q-75 -37 -139 -37q-13 0 -21 2q-45 -87 -45 -154q0 -12 2 -20zM201 274v9q0 14 -13.5 23t-35.5 9q-45 0 -95 -42
q-47 -41 -80 -97q2 0 9.5 -1t9.5 -1q65 0 129 34q67 36 76 66zM37 396h-13q81 60 135 123q5 -10 13.5 -28t11 -22.5t8 -15.5t10 -18t11.5 -17t17 -24h-10q-42 59 -63 109q-21 -22 -59 -56t-61 -51z" />
    <glyph glyph-name="uni1EC4" unicode="&#x1ec4;" horiz-adv-x="1785" 
d="M1734 1334l3 -5q-1 0 -10.5 -7.5t-17.5 -12.5t-21 -12t-28.5 -10.5t-31.5 -3.5q-26 0 -45.5 10.5t-30 23.5t-28.5 23.5t-40 10.5q-31 0 -65 -34l-8 4q36 38 73 38q36 0 70 -34t70 -35q12 0 23 1.5t21 5t18 6.5t16.5 8.5t13 8.5t11 8t7.5 6zM1233 952q186 -32 317 -32
q73 0 145 11q70 12 70 42q-5 32 -76 51q-74 20 -155 20q-82 0 -164 -25q-83 -25 -137 -67zM1225 944q-54 -45 -95 -121q-38 -73 -38 -143q0 -52 26 -92q143 16 156 16q59 0 59 -18q0 -13 -37 -25q-36 -12 -82 -12q-59 0 -98 33q-176 -44 -326 -153q-80 -59 -138 -125
q-60 -69 -95 -156.5t-35 -178.5q0 -89 27 -154t75.5 -100.5t105.5 -52t126 -16.5q111 0 213 35q140 49 272 158q69 57 125 122q57 66 91 141t34 144q0 105 -58 154q-59 51 -147 51q-98 0 -206 -51q-111 -51 -190 -121q-82 -73 -142 -154q-61 -81 -80 -145q-12 -36 -12 -86
q0 -69 40 -119q40 -51 119 -51q91 0 186 48q97 49 152 110q58 63 58 108q0 51 -62 51q-44 0 -96 -29q-52 -28 -68 -61l-8 2q18 35 72 65q52 29 98 29q72 0 72 -59q0 -53 -64 -117q-63 -65 -159 -109q-98 -45 -185 -45q-90 0 -143 50t-53 133q0 123 126 284q66 84 155 147
q98 69 210 109q73 25 150 25q103 0 172 -54t69 -165q0 -91 -53 -184q-58 -99 -134 -170q-79 -75 -168.5 -133t-168.5 -85q-96 -34 -219 -34q-77 0 -142 18.5t-119 58t-84 108t-30 159.5q0 93 37 180.5t102 156.5q94 100 225.5 170t264.5 97q-47 41 -47 121q0 64 34 129
t89 112q-169 23 -303 23q-122 0 -250 -15q-189 -24 -346 -118q-83 -49 -145 -111q-64 -64 -101 -147.5t-37 -173.5q0 -60 23 -144l-5 -2q-24 68 -24 146q0 91 37 175.5t102 147.5q94 94 227 155t271 79q117 14 239 14q140 0 318 -23q59 50 145 75q92 28 178 28q94 0 178 -25
q81 -22 81 -63q0 -24 -40 -37q-63 -23 -169 -23q-109 0 -338 33zM1124 584q34 -29 88 -29q30 0 57.5 6t42.5 13.5t15 13.5q0 10 -55 10q-18 0 -68 -7t-80 -7zM1434 1134h-14q83 62 135 122q26 -53 35 -69.5t37 -54.5h-10q-45 63 -64 108q-58 -62 -119 -106z" />
    <glyph glyph-name="uni1EC5" unicode="&#x1ec5;" horiz-adv-x="485" 
d="M337 597l3 -5q-1 0 -10.5 -7.5t-17.5 -12.5t-21 -12t-28.5 -10.5t-31.5 -3.5q-26 0 -45.5 10.5t-30 23t-28.5 23t-40 10.5q-31 0 -64 -33l-9 4q36 38 73 38q36 0 70 -34t70 -35q12 0 23 1.5t21 5t18 6.5t16.5 8.5t13 8.5t11 8t7.5 6zM-70 -6q3 -36 24.5 -58t57.5 -22
q34 0 87 29q51 26 97 60q42 32 110 94q73 68 97 92l89 90l4 -7l-22 -21q-85 -85 -115 -113q-43 -40 -116 -104q-144 -126 -231 -126q-60 0 -89 42q-29 43 -29 99q0 68 31 131q30 68 89 116q60 48 127 48q29 0 49.5 -16t20.5 -41q0 -45 -78 -84q-75 -37 -139 -37q-13 0 -21 2
q-45 -87 -45 -154q0 -12 2 -20zM201 274v9q0 14 -13.5 23t-35.5 9q-45 0 -95 -42q-47 -41 -80 -97q2 0 9.5 -1t9.5 -1q65 0 129 34q67 36 76 66zM37 396h-13q81 60 135 123q5 -10 13.5 -28t11 -22.5t8 -15.5t10 -18t11.5 -17t17 -24h-10q-42 59 -63 109q-21 -22 -59 -56
t-61 -51z" />
    <glyph glyph-name="uni1EC6" unicode="&#x1ec6;" horiz-adv-x="1785" 
d="M833 -472q0 -15 -20 -15q-9 0 -13 7q0 7 5.5 12t13.5 5q11 0 14 -9zM1233 952q186 -32 317 -32q73 0 145 11q70 12 70 42q-5 32 -76 51q-74 20 -155 20q-82 0 -164 -25q-83 -25 -137 -67zM1225 944q-54 -45 -95 -121q-38 -73 -38 -143q0 -52 26 -92q143 16 156 16
q59 0 59 -18q0 -13 -37 -25q-36 -12 -82 -12q-59 0 -98 33q-176 -44 -326 -153q-80 -59 -138 -125q-60 -69 -95 -156.5t-35 -178.5q0 -89 27 -154t75.5 -100.5t105.5 -52t126 -16.5q111 0 213 35q140 49 272 158q69 57 125 122q57 66 91 141t34 144q0 105 -58 154
q-59 51 -147 51q-98 0 -206 -51q-111 -51 -190 -121q-82 -73 -142 -154q-61 -81 -80 -145q-12 -36 -12 -86q0 -69 40 -119q40 -51 119 -51q91 0 186 48q97 49 152 110q58 63 58 108q0 51 -62 51q-44 0 -96 -29q-52 -28 -68 -61l-8 2q18 35 72 65q52 29 98 29q72 0 72 -59
q0 -53 -64 -117q-63 -65 -159 -109q-98 -45 -185 -45q-90 0 -143 50t-53 133q0 123 126 284q66 84 155 147q98 69 210 109q73 25 150 25q103 0 172 -54t69 -165q0 -91 -53 -184q-58 -99 -134 -170q-79 -75 -168.5 -133t-168.5 -85q-96 -34 -219 -34q-77 0 -142 18.5t-119 58
t-84 108t-30 159.5q0 93 37 180.5t102 156.5q94 100 225.5 170t264.5 97q-47 41 -47 121q0 64 34 129t89 112q-169 23 -303 23q-122 0 -250 -15q-189 -24 -346 -118q-83 -49 -145 -111q-64 -64 -101 -147.5t-37 -173.5q0 -60 23 -144l-5 -2q-24 68 -24 146q0 91 37 175.5
t102 147.5q94 94 227 155t271 79q117 14 239 14q140 0 318 -23q59 50 145 75q92 28 178 28q94 0 178 -25q81 -22 81 -63q0 -24 -40 -37q-63 -23 -169 -23q-109 0 -338 33zM1124 584q34 -29 88 -29q30 0 57.5 6t42.5 13.5t15 13.5q0 10 -55 10q-18 0 -68 -7t-80 -7z
M1434 1134h-14q83 62 135 122q26 -53 35 -69.5t37 -54.5h-10q-45 63 -64 108q-58 -62 -119 -106z" />
    <glyph glyph-name="uni1EC7" unicode="&#x1ec7;" horiz-adv-x="485" 
d="M15 -185q0 -16 -19 -16q-10 0 -13 7q0 7 6 12.5t13 5.5q10 0 13 -9zM-70 -6q3 -36 24.5 -58t57.5 -22q34 0 87 29q51 26 97 60q42 32 110 94q73 68 97 92l89 90l4 -7l-22 -21q-85 -85 -115 -113q-43 -40 -116 -104q-144 -126 -231 -126q-60 0 -89 42q-29 43 -29 99
q0 68 31 131q30 68 89 116q60 48 127 48q29 0 49.5 -16t20.5 -41q0 -45 -78 -84q-75 -37 -139 -37q-13 0 -21 2q-45 -87 -45 -154q0 -12 2 -20zM201 274v9q0 14 -13.5 23t-35.5 9q-45 0 -95 -42q-47 -41 -80 -97q2 0 9.5 -1t9.5 -1q65 0 129 34q67 36 76 66zM37 396h-13
q81 60 135 123q5 -10 13.5 -28t11 -22.5t8 -15.5t10 -18t11.5 -17t17 -24h-10q-42 59 -63 109q-21 -22 -59 -56t-61 -51z" />
    <glyph glyph-name="uni1EC8" unicode="&#x1ec8;" horiz-adv-x="1701" 
d="M2028 1420l7 -4l-7 4q31 29 58 33q26 4 45.5 -6.5t20.5 -33.5q4 -53 -105 -118l-4 7q103 59 99 111q-1 20 -18.5 28.5t-38.5 3.5q-27 -6 -50 -29zM557 -129l4 -6q-49 -25 -49 -80q0 -59 34 -99q60 -69 163 -69q20 0 53 4q227 25 376 169q136 130 231 334q45 97 170 411
q38 96 88 204q104 222 237 355q-98 -22 -443 -87q-333 -61 -528 -118q-291 -86 -493 -213q-109 -70 -187 -157t-123 -202t-45 -245q0 -134 45 -287h-6q-47 156 -47 289q0 129 45.5 244t124.5 204q79 86 189 157q204 130 495 216q188 56 532 120q330 63 449 89q35 30 47 41
q23 21 56 49q62 49 118 49q37 0 37 -20q0 -31 -54 -59q-60 -32 -139 -50q-78 -70 -142 -166q-68 -100 -115 -199q-23 -48 -49.5 -109t-45 -107t-48 -119t-44.5 -109q-106 -266 -208 -408q-206 -297 -546 -296q-30 0 -60.5 5.5t-62 19.5t-56 34t-39.5 52.5t-15 72.5
q0 57 51 86zM2081 1214q-52 -21 -131 -92q80 23 126 49t46 50q0 4 -4 4q-17 0 -37 -11z" />
    <glyph glyph-name="uni1EC9" unicode="&#x1ec9;" horiz-adv-x="374" 
d="M97 499l7 -4l-7 4q30 28 59 32q26 4 45.5 -6t20.5 -33q4 -53 -105 -118l-4 6q103 59 99 112q-1 20 -18.5 28t-38.5 3q-30 -7 -51 -28zM0 276h41q-36 -80 -67 -165q-37 -97 -37 -142q0 -32 22 -32q34 0 115 65q74 58 192 168q32 30 60 56t42 38l13 12l4 -4
q-110 -110 -253 -233q-139 -119 -179 -119q-24 0 -37.5 18t-13.5 46q0 56 35 143q35 94 63 149zM80 348q0 -31 -39 -31q-20 0 -27 15q0 14 12 24.5t27 10.5q21 0 27 -19z" />
    <glyph glyph-name="uni1ECA" unicode="&#x1eca;" horiz-adv-x="1701" 
d="M1182 -421q0 -15 -20 -15q-10 0 -13 7q0 7 5.5 12t13.5 5q11 0 14 -9zM557 -129l4 -6q-49 -25 -49 -80q0 -59 34 -99q60 -69 163 -69q20 0 53 4q227 25 376 169q136 130 231 334q45 97 170 411q38 96 88 204q104 222 237 355q-98 -22 -443 -87q-333 -61 -528 -118
q-291 -86 -493 -213q-109 -70 -187 -157t-123 -202t-45 -245q0 -134 45 -287h-6q-47 156 -47 289q0 129 45.5 244t124.5 204q79 86 189 157q204 130 495 216q188 56 532 120q330 63 449 89q35 30 47 41q23 21 56 49q62 49 118 49q37 0 37 -20q0 -31 -54 -59
q-60 -32 -139 -50q-78 -70 -142 -166q-68 -100 -115 -199q-23 -48 -49.5 -109t-45 -107t-48 -119t-44.5 -109q-106 -266 -208 -408q-206 -297 -546 -296q-30 0 -60.5 5.5t-62 19.5t-56 34t-39.5 52.5t-15 72.5q0 57 51 86zM2081 1214q-52 -21 -131 -92q80 23 126 49t46 50
q0 4 -4 4q-17 0 -37 -11z" />
    <glyph glyph-name="uni1ECB" unicode="&#x1ecb;" horiz-adv-x="374" 
d="M-56 -124q0 -15 -20 -15q-10 0 -13 7q0 7 5.5 12t13.5 5q11 0 14 -9zM0 276h41q-36 -80 -67 -165q-37 -97 -37 -142q0 -32 22 -32q34 0 115 65q74 58 192 168q32 30 60 56t42 38l13 12l4 -4q-110 -110 -253 -233q-139 -119 -179 -119q-24 0 -37.5 18t-13.5 46
q0 56 35 143q35 94 63 149zM80 348q0 -31 -39 -31q-20 0 -27 15q0 14 12 24.5t27 10.5q21 0 27 -19z" />
    <glyph glyph-name="uni1ECC" unicode="&#x1ecc;" horiz-adv-x="1314" 
d="M341 -421q0 -15 -19 -15q-10 0 -14 7q0 7 6 12t14 5q10 0 13 -9zM956 446q-37 -4 -61 -4q-59 0 -127 17l-2 -8q63 -15 127 -15q22 0 59 4zM1130 713l5 8q32 -42 41 -111q16 48 16 92q0 134 -105 218t-239 84q-205 0 -416 -175q-157 -132 -269 -334q-112 -203 -112 -401
q-3 -171 89 -289.5t243 -117.5q89 0 181 41q177 75 345 267q80 91 137 185q125 206 125 377v29q-60 -125 -219 -146l4 6q158 21 215 152q-11 69 -41 115zM1178 598q2 -16 2 -39q0 -101 -48 -224q-48 -121 -131 -236q-81 -114 -182 -209q-102 -96 -216 -152
q-115 -57 -218 -57q-167 0 -271 119q-104 121 -104 306q0 118 35 230q67 218 235 402q120 130 262.5 206t272.5 76q135 0 255 -80q58 -39 93 -101t35 -134q0 -55 -20 -107z" />
    <glyph glyph-name="uni1ECD" unicode="&#x1ecd;" horiz-adv-x="569" 
d="M57 -124q0 -15 -19 -15q-10 0 -13 7q0 7 5.5 12t13.5 5q10 0 13 -9zM102 299q-48 -38 -69 -84q75 -97 246 -82q20 55 20 111q0 75 -36 129q-35 53 -103 53q-58 0 -106 -39q-46 -39 -46 -96v-10q15 19 42 37q30 22 38 22t14.5 -9t6.5 -18q0 -11 -7 -14zM578 279l6 -7
q-67 -51 -153 -94q-80 -41 -148 -53q-33 -76 -86 -116t-111 -40q-61 0 -102 40q-43 42 -43 106q0 75 57 155v13q0 65 50 106q50 43 114 43q73 0 109 -54t36 -132q0 -64 -18 -111q57 9 141 51q88 45 148 93zM31 205q-33 -69 -33 -117q0 -49 27.5 -76.5t70.5 -27.5
q53 0 101 37t75 104q-74 -9 -139.5 12t-101.5 68z" />
    <glyph glyph-name="uni1ECE" unicode="&#x1ece;" horiz-adv-x="1314" 
d="M930 1236l7 -4l-7 4q31 29 58 33q26 4 46 -6.5t21 -33.5q4 -52 -106 -118l-4 6q103 59 99 112q-1 20 -18.5 28.5t-38.5 3.5q-27 -6 -50 -29zM956 446q-37 -4 -61 -4q-59 0 -127 17l-2 -8q63 -15 127 -15q22 0 59 4zM1130 713l5 8q32 -42 41 -111q16 48 16 92
q0 134 -105 218t-239 84q-205 0 -416 -175q-157 -132 -269 -334q-112 -203 -112 -401q-3 -171 89 -289.5t243 -117.5q89 0 181 41q177 75 345 267q80 91 137 185q125 206 125 377v29q-60 -125 -219 -146l4 6q158 21 215 152q-11 69 -41 115zM1178 598q2 -16 2 -39
q0 -101 -48 -224q-48 -121 -131 -236q-81 -114 -182 -209q-102 -96 -216 -152q-115 -57 -218 -57q-167 0 -271 119q-104 121 -104 306q0 118 35 230q67 218 235 402q120 130 262.5 206t272.5 76q135 0 255 -80q58 -39 93 -101t35 -134q0 -55 -20 -107z" />
    <glyph glyph-name="uni1ECF" unicode="&#x1ecf;" horiz-adv-x="569" 
d="M173 603l7 -4l-7 4q31 29 58 33q26 4 46 -6.5t21 -33.5q4 -53 -105 -118l-5 6q104 60 100 112q-1 20 -19 28.5t-39 3.5q-27 -6 -50 -29zM102 299q-48 -38 -69 -84q75 -97 246 -82q20 55 20 111q0 75 -36 129q-35 53 -103 53q-58 0 -106 -39q-46 -39 -46 -96v-10
q15 19 42 37q30 22 38 22t14.5 -9t6.5 -18q0 -11 -7 -14zM578 279l6 -7q-67 -51 -153 -94q-80 -41 -148 -53q-33 -76 -86 -116t-111 -40q-61 0 -102 40q-43 42 -43 106q0 75 57 155v13q0 65 50 106q50 43 114 43q73 0 109 -54t36 -132q0 -64 -18 -111q57 9 141 51
q88 45 148 93zM31 205q-33 -69 -33 -117q0 -49 27.5 -76.5t70.5 -27.5q53 0 101 37t75 104q-74 -9 -139.5 12t-101.5 68z" />
    <glyph glyph-name="uni1ED0" unicode="&#x1ed0;" horiz-adv-x="1314" 
d="M986 1217l-10 4q78 30 113 108l9 -1q-30 -77 -112 -111zM956 446q-37 -4 -61 -4q-59 0 -127 17l-2 -8q63 -15 127 -15q22 0 59 4zM1130 713l5 8q32 -42 41 -111q16 48 16 92q0 134 -105 218t-239 84q-205 0 -416 -175q-157 -132 -269 -334q-112 -203 -112 -401
q-3 -171 89 -289.5t243 -117.5q89 0 181 41q177 75 345 267q80 91 137 185q125 206 125 377v29q-60 -125 -219 -146l4 6q158 21 215 152q-11 69 -41 115zM1178 598q2 -16 2 -39q0 -101 -48 -224q-48 -121 -131 -236q-81 -114 -182 -209q-102 -96 -216 -152
q-115 -57 -218 -57q-167 0 -271 119q-104 121 -104 306q0 118 35 230q67 218 235 402q120 130 262.5 206t272.5 76q135 0 255 -80q58 -39 93 -101t35 -134q0 -55 -20 -107zM791 1111h-14q81 60 135 123q3 -6 9.5 -19.5t8 -17t6.5 -13t6.5 -12t6 -10.5t7 -11.5t7.5 -11
t9.5 -14.5t11.5 -16h-10q-44 62 -64 109q-21 -23 -58.5 -56.5t-60.5 -50.5z" />
    <glyph glyph-name="uni1ED1" unicode="&#x1ed1;" horiz-adv-x="569" 
d="M286 584l-11 4q78 30 113 108l9 -1q-30 -77 -111 -111zM102 299q-48 -38 -69 -84q75 -97 246 -82q20 55 20 111q0 75 -36 129q-35 53 -103 53q-58 0 -106 -39q-46 -39 -46 -96v-10q15 19 42 37q30 22 38 22t14.5 -9t6.5 -18q0 -11 -7 -14zM578 279l6 -7q-67 -51 -153 -94
q-80 -41 -148 -53q-33 -76 -86 -116t-111 -40q-61 0 -102 40q-43 42 -43 106q0 75 57 155v13q0 65 50 106q50 43 114 43q73 0 109 -54t36 -132q0 -64 -18 -111q57 9 141 51q88 45 148 93zM31 205q-33 -69 -33 -117q0 -49 27.5 -76.5t70.5 -27.5q53 0 101 37t75 104
q-74 -9 -139.5 12t-101.5 68zM90 478h-13q81 60 135 123q3 -6 9.5 -19.5t8 -17t6.5 -13t6.5 -12t6 -10.5t7 -11.5t7.5 -11t9.5 -14.5t11.5 -16h-11q-42 59 -63 109q-21 -22 -59 -56t-61 -51z" />
    <glyph glyph-name="uni1ED2" unicode="&#x1ed2;" horiz-adv-x="1314" 
d="M1033 1220l-9 -5q-76 31 -91 114l9 1q17 -82 91 -110zM956 446q-37 -4 -61 -4q-59 0 -127 17l-2 -8q63 -15 127 -15q22 0 59 4zM1130 713l5 8q32 -42 41 -111q16 48 16 92q0 134 -105 218t-239 84q-205 0 -416 -175q-157 -132 -269 -334q-112 -203 -112 -401
q-3 -171 89 -289.5t243 -117.5q89 0 181 41q177 75 345 267q80 91 137 185q125 206 125 377v29q-60 -125 -219 -146l4 6q158 21 215 152q-11 69 -41 115zM1178 598q2 -16 2 -39q0 -101 -48 -224q-48 -121 -131 -236q-81 -114 -182 -209q-102 -96 -216 -152
q-115 -57 -218 -57q-167 0 -271 119q-104 121 -104 306q0 118 35 230q67 218 235 402q120 130 262.5 206t272.5 76q135 0 255 -80q58 -39 93 -101t35 -134q0 -55 -20 -107zM791 1111h-14q81 60 135 123q3 -6 9.5 -19.5t8 -17t6.5 -13t6.5 -12t6 -10.5t7 -11.5t7.5 -11
t9.5 -14.5t11.5 -16h-10q-44 62 -64 109q-21 -23 -58.5 -56.5t-60.5 -50.5z" />
    <glyph glyph-name="uni1ED3" unicode="&#x1ed3;" horiz-adv-x="569" 
d="M333 587l-9 -4q-37 15 -61 44.5t-31 68.5l10 1q17 -82 91 -110zM102 299q-48 -38 -69 -84q75 -97 246 -82q20 55 20 111q0 75 -36 129q-35 53 -103 53q-58 0 -106 -39q-46 -39 -46 -96v-10q15 19 42 37q30 22 38 22t14.5 -9t6.5 -18q0 -11 -7 -14zM578 279l6 -7
q-67 -51 -153 -94q-80 -41 -148 -53q-33 -76 -86 -116t-111 -40q-61 0 -102 40q-43 42 -43 106q0 75 57 155v13q0 65 50 106q50 43 114 43q73 0 109 -54t36 -132q0 -64 -18 -111q57 9 141 51q88 45 148 93zM31 205q-33 -69 -33 -117q0 -49 27.5 -76.5t70.5 -27.5
q53 0 101 37t75 104q-74 -9 -139.5 12t-101.5 68zM90 478h-13q81 60 135 123q3 -6 9.5 -19.5t8 -17t6.5 -13t6.5 -12t6 -10.5t7 -11.5t7.5 -11t9.5 -14.5t11.5 -16h-11q-42 59 -63 109q-21 -22 -59 -56t-61 -51z" />
    <glyph glyph-name="uni1ED4" unicode="&#x1ed4;" horiz-adv-x="1314" 
d="M992 1215l-6 5q75 52 72 94q-1 20 -19 28.5t-39 3.5q-27 -6 -50 -29l-7 4l7 -4l-7 4q31 29 58 33q26 4 46 -6.5t21 -33.5q4 -43 -76 -99zM956 446q-37 -4 -61 -4q-59 0 -127 17l-2 -8q63 -15 127 -15q22 0 59 4zM1130 713l5 8q32 -42 41 -111q16 48 16 92q0 134 -105 218
t-239 84q-205 0 -416 -175q-157 -132 -269 -334q-112 -203 -112 -401q-3 -171 89 -289.5t243 -117.5q89 0 181 41q177 75 345 267q80 91 137 185q125 206 125 377v29q-60 -125 -219 -146l4 6q158 21 215 152q-11 69 -41 115zM1178 598q2 -16 2 -39q0 -101 -48 -224
q-48 -121 -131 -236q-81 -114 -182 -209q-102 -96 -216 -152q-115 -57 -218 -57q-167 0 -271 119q-104 121 -104 306q0 118 35 230q67 218 235 402q120 130 262.5 206t272.5 76q135 0 255 -80q58 -39 93 -101t35 -134q0 -55 -20 -107zM791 1111h-14q81 60 135 123
q3 -6 9.5 -19.5t8 -17t6.5 -13t6.5 -12t6 -10.5t7 -11.5t7.5 -11t9.5 -14.5t11.5 -16h-10q-44 62 -64 109q-21 -23 -58.5 -56.5t-60.5 -50.5z" />
    <glyph glyph-name="uni1ED5" unicode="&#x1ed5;" horiz-adv-x="569" 
d="M292 583l-6 4q75 52 71 94q-1 20 -18.5 28.5t-38.5 3.5q-27 -6 -50 -29l-7 4l7 -4l-7 4q31 29 58 33q26 4 46 -6.5t21 -33.5q3 -42 -76 -98zM102 299q-48 -38 -69 -84q75 -97 246 -82q20 55 20 111q0 75 -36 129q-35 53 -103 53q-58 0 -106 -39q-46 -39 -46 -96v-10
q15 19 42 37q30 22 38 22t14.5 -9t6.5 -18q0 -11 -7 -14zM578 279l6 -7q-67 -51 -153 -94q-80 -41 -148 -53q-33 -76 -86 -116t-111 -40q-61 0 -102 40q-43 42 -43 106q0 75 57 155v13q0 65 50 106q50 43 114 43q73 0 109 -54t36 -132q0 -64 -18 -111q57 9 141 51
q88 45 148 93zM31 205q-33 -69 -33 -117q0 -49 27.5 -76.5t70.5 -27.5q53 0 101 37t75 104q-74 -9 -139.5 12t-101.5 68zM90 478h-13q81 60 135 123q3 -6 9.5 -19.5t8 -17t6.5 -13t6.5 -12t6 -10.5t7 -11.5t7.5 -11t9.5 -14.5t11.5 -16h-11q-42 59 -63 109q-21 -22 -59 -56
t-61 -51z" />
    <glyph glyph-name="uni1ED6" unicode="&#x1ed6;" horiz-adv-x="1314" 
d="M1091 1312l3 -5q-1 0 -10.5 -7.5t-17.5 -12.5t-21 -12t-28.5 -10.5t-31.5 -3.5q-32 0 -54 16.5t-42 33.5t-48 17q-31 0 -65 -34l-8 4q36 38 73 38q36 0 70 -33.5t70 -34.5q12 0 23 1.5t21 5t18 6.5t16.5 8.5t13 8.5t11 8t7.5 6zM956 446q-37 -4 -61 -4q-59 0 -127 17
l-2 -8q63 -15 127 -15q22 0 59 4zM1130 713l5 8q32 -42 41 -111q16 48 16 92q0 134 -105 218t-239 84q-205 0 -416 -175q-157 -132 -269 -334q-112 -203 -112 -401q-3 -171 89 -289.5t243 -117.5q89 0 181 41q177 75 345 267q80 91 137 185q125 206 125 377v29
q-60 -125 -219 -146l4 6q158 21 215 152q-11 69 -41 115zM1178 598q2 -16 2 -39q0 -101 -48 -224q-48 -121 -131 -236q-81 -114 -182 -209q-102 -96 -216 -152q-115 -57 -218 -57q-167 0 -271 119q-104 121 -104 306q0 118 35 230q67 218 235 402q120 130 262.5 206
t272.5 76q135 0 255 -80q58 -39 93 -101t35 -134q0 -55 -20 -107zM791 1111h-14q81 60 135 123q3 -6 9.5 -19.5t8 -17t6.5 -13t6.5 -12t6 -10.5t7 -11.5t7.5 -11t9.5 -14.5t11.5 -16h-10q-44 62 -64 109q-21 -23 -58.5 -56.5t-60.5 -50.5z" />
    </font>
</defs>
</svg>
