<?xml version="1.0" standalone="no"?>
<!DOCTYPE svg PUBLIC "-//W3C//DTD SVG 1.1//EN" "http://www.w3.org/Graphics/SVG/1.1/DTD/svg11.dtd" >
<svg xmlns="http://www.w3.org/2000/svg" xmlns:xlink="http://www.w3.org/1999/xlink" version="1.1">
<metadata>
Created by FontForge 20201107 at Sat Nov  7 18:41:14 2020
 By 
Typeface (c) (your company). 2020. All Rights Reserved
</metadata>
<defs>
<font id="SVN-Pleasent" horiz-adv-x="1617" >
  <font-face 
    font-family="SVN-Pleasent"
    font-weight="400"
    font-stretch="normal"
    units-per-em="2048"
    panose-1="2 0 6 0 0 0 0 0 0 0"
    ascent="1638"
    descent="-410"
    x-height="681"
    cap-height="2170"
    bbox="-525.007 -1109.58 2872 2772.21"
    underline-thickness="150"
    underline-position="-292"
    unicode-range="U+0020-FB03"
  />
<missing-glyph horiz-adv-x="1024" 
 />
    <glyph glyph-name="uniFB01" unicode="tt" horiz-adv-x="1020" 
d="M167 1502h16q24 -15 23 -37q-110 -330 -133 -1004q-15 -462 81 -559q16 -9 16 -13q40 1 193 390q131 296 167 319l20 3q16 -6 15 -12l-284 -611q-34 -63 -62.5 -94.5t-53.5 -30.5l-4 1q-139 4 -165 465q-4 109 0 240l4 112q56 836 167 831zM435 1239l207 6q602 13 604 -5
l1 -10q-7 -11 -39 -22q-125 4 -356 -2l-39 -2q-769 -19 -1282 -93h-5q-26 -1 -40 16l-1 14q-3 60 950 98zM657 1502h16q24 -15 23 -37q-110 -330 -133 -1004q-15 -462 81 -559q16 -9 16 -13q40 1 193 390q131 296 167 319l20 3q16 -6 15 -12l-284 -611q-34 -63 -62.5 -94.5
t-53.5 -30.5l-4 1q-139 4 -165 465q-4 109 0 240l4 112q56 836 167 831z" />
    <glyph glyph-name="uniFB02" unicode="om" horiz-adv-x="1267" 
d="M656 776h9q39 0 50 -128q3 -32 3 -108v-119h2q114 215 176 215t62 -105q0 -11 -2 -127q3 -80 26 -80q37 0 148 119q38 39 124 136q1 0 19 5q15 0 22 -10v-7q-236 -275 -327 -275h-2q-62 0 -62 112v3q2 98 2 119q0 66 -18 76h-1q-21 0 -103 -154q-57 -114 -68 -114
q-6 -3 -14 -3h-7q-19 0 -25 50q-3 33 -3 72v59q0 186 -11 213q-36 0 -140 -336q-58 -195 -80 -195q-13 -7 -28 -7h-9q-32 0 -32 91l7 207q0 195 -92 195h-4q-55 0 -124 -48q32 -58 32 -149q0 -166 -112 -209q-14 -3 -24 -3h-4q-65 0 -94 83q-7 25 -9 64q0 147 116 227
q26 16 40 16h13q5 0 16 -4q94 60 175 60q110 0 135 -148q7 -49 7 -153v-5h2q126 365 209 365zM25 427q10 -103 49 -103h6q47 0 55 152q0 86 -27 135q-83 -54 -83 -184z" />
    <glyph glyph-name="uniFB03" unicode="on" horiz-adv-x="1018" 
d="M358 788q108 0 108 -193v-9q0 -18 -5 -193v-2h2q143 257 211 257q31 0 46 -37q9 -24 23 -175q13 -55 37 -55q50 0 218 203q11 11 30 11q18 -3 18 -14q-26 -43 -156 -168q-75 -66 -128 -66q-62 0 -74 112q-14 156 -23 156q-17 0 -57 -66q-52 -74 -149 -253
q-19 -15 -39 -15h-9q-16 0 -26 16q19 210 19 284q0 163 -83 163q-66 0 -163 -92l-2 -4q8 0 23 -60q9 -38 9 -83v-11q0 -156 -108 -202q-10 -3 -28 -5q-79 0 -103 110q-2 20 -2 26v20q0 144 119 221q23 14 46 14q4 0 16 -3q66 65 147 96q49 15 83 17zM29 459v-22
q0 -79 49 -97q50 0 59 140v21q0 74 -25 128q-45 -22 -71 -94q-12 -41 -12 -76z" />
    <glyph glyph-name=".notdef" horiz-adv-x="1024" 
 />
    <glyph glyph-name=".null" horiz-adv-x="0" 
 />
    <glyph glyph-name="nonmarkingreturn" horiz-adv-x="682" 
 />
    <glyph glyph-name="space" unicode=" " horiz-adv-x="508" 
 />
    <glyph glyph-name="space" unicode="&#xa0;" horiz-adv-x="508" 
 />
    <glyph glyph-name="exclam" unicode="!" horiz-adv-x="286" 
d="M170 1708h7q20 0 27 -16v-1q-70 -797 -70 -1141v-28q0 -17 -1 -24q1 -4 1 -21v-5q0 -178 22 -314q-8 -26 -26 -26h-6q-18 0 -21 55q-23 173 -23 441v69q0 393 46 987q16 24 44 24zM132 12q62 -9 64 -50v-5q-5 -47 -38 -47q-51 -8 -62 51l1 27q17 24 35 24z" />
    <glyph glyph-name="quotedbl" unicode="&#x22;" horiz-adv-x="433" 
d="M117 2105q25 0 29 -15v-1q-28 -146 -28 -214v-28q0 -25 -27 -32h-5q-21 0 -21 42q0 20 -0.5 40.5t-1 31.5t-0.5 15q0 80 12 143q17 18 42 18zM293 2105q25 0 29 -15v-1q-28 -146 -28 -214v-28q0 -25 -27 -32h-5q-21 0 -21 42q0 20 -0.5 40.5t-1 31.5t-0.5 15q0 80 12 143
q17 18 42 18z" />
    <glyph glyph-name="numbersign" unicode="#" horiz-adv-x="947" 
d="M661 895q30 -3 30 -20q-15 -85 -30 -200l11 -1q154 -5 164 -12q12 -5 12 -14v-4q0 -16 -38 -27q-4 0 -7 -1q-83 9 -147 9q-15 -173 -15 -200q73 -35 137 -84q7 -8 7 -11q0 -32 -69 -41q-12 0 -81 -3q-4 -132 -4 -243q-6 -34 -27 -34h-1q-21 0 -21 42v3q0 17 -0.5 47
t-1 85t-0.5 98h-95q-101 0 -188 4q-2 -86 -2 -93v-33q0 -48 7 -105q0 -30 -28 -36q-18 9 -18 21q-13 55 -13 189v58q-40 1 -96 1h-26q-49 0 -49 14q8 21 39 21h109q13 0 24 1q0 52 9 221q1 1 1 3q-112 44 -150 57l-6 -1q-37 7 -37 25v4q13 19 41 19q86 11 159 13h1v1
q17 203 21 203q9 19 45 22q29 -3 29 -20l-23 -203h1q122 5 226 5h28q0 39 25 193q14 27 47 27zM328 622q-1 -3 -6 -56q112 -44 258 -111v3q0 74 6 168h-1q-133 0 -257 -4zM200 616v-1l56 -21l3 24h-2q-3 0 -10 -0.5t-20.5 -1t-26.5 -0.5zM317 523v-1q-16 -159 -16 -196h20
q126 0 258 5v76q-128 62 -262 116zM639 376q-1 -1 -1 -3q0 -19 -1 -40q51 3 66 3q-24 19 -64 40z" />
    <glyph glyph-name="dollar" unicode="$" horiz-adv-x="1014" 
d="M608 1593q30 -6 30 -23l-12 -163h2q52 12 84 12h5q130 0 174 -134q25 -71 25 -164v-24q0 -4 2 -10q0 -29 -59 -37q-32 5 -32 32v17q0 263 -132 263q-77 -9 -77 -25q-33 -432 -47 -662q174 -26 221 -50q101 -48 101 -133q0 -147 -277 -345q-48 -26 -55 -35q0 -101 22 -268
q0 -23 -22 -39h-7q-29 0 -37 101q-13 123 -13 171l-5 3q-167 -82 -198 -82h-5q-25 0 -25 17q0 18 94 48q51 22 134 64q-1 61 -2.5 128t-2 95t-0.5 35q3 138 3 223l2 17q-121 14 -216 43q-193 79 -193 205v20q0 167 278 377q80 54 166 99q14 183 20 204q23 20 54 20zM179 906
v-18q0 -138 248 -191q47 -11 72 -12q11 277 30 613q-84 -38 -211 -152q-139 -139 -139 -240zM569 618q-10 -177 -10 -382v-72q270 182 270 323q0 96 -166 121q-69 10 -94 10z" />
    <glyph glyph-name="percent" unicode="%" horiz-adv-x="1394" 
d="M1161 1450h15q27 -4 27 -25q-93 -217 -315 -597q-406 -664 -543 -992q-22 -52 -62 -164q-21 -27 -34 -27h-10q-9 0 -13 22q0 25 57 174q101 246 397 768q307 520 437 819q19 22 44 22zM504 1296q66 0 92 -57q5 -12 10 -52q0 -109 -117 -273q-101 -116 -191 -116h-10
q-84 0 -94 99v7q0 103 136 278q-32 0 -32 37v13q14 20 37 20l23 -3q62 47 146 47zM457 1252l5 -8v-5q0 -11 -60 -82q-119 -155 -119 -245q0 -62 45 -62q68 0 166 173q47 103 47 162q-7 69 -49 69h-3h-3q-4 -1 -12 -1.5t-17 -0.5zM1074 339q73 0 100 -57q7 -21 7 -42v-15
q0 -127 -141 -300q-95 -87 -169 -87q-99 12 -99 94v18q0 100 136 275q-35 0 -35 42q9 25 35 25h8l17 -3q29 32 119 48q10 0 22 2zM1052 294l-17 -2l5 -8v-2q0 -14 -75 -99q-104 -146 -104 -233q0 -48 35 -57h12q67 0 169 183q40 92 40 137v27q0 46 -48 54h-17z" />
    <glyph glyph-name="ampersand" unicode="&#x26;" horiz-adv-x="1079" 
d="M637 1396h5q98 0 111 -129v-23q0 -222 -287 -677q59 -150 238 -396h2q176 238 176 240q14 11 30 15q21 0 30 -15q0 -15 -147 -208l-57 -72q51 -71 191 -203q14 -14 55 -20l7 -10v-15q-19 -27 -54 -27q-47 0 -196 146q-55 56 -55 62h-2q-321 -362 -486 -362h-18
q-88 0 -119 102q-10 33 -10 79v20q0 197 256 528l74 107q-87 202 -87 357v37q0 177 137 347q113 117 206 117zM384 927v-15q0 -126 57 -280h2q253 427 253 615q0 85 -54 99h-15q-75 0 -161 -126q-82 -133 -82 -293zM408 481h-2q-263 -391 -263 -586v-24q0 -99 70 -115h19
q128 0 417 348v2q-134 174 -201 295q-15 25 -40 80z" />
    <glyph glyph-name="quotesingle" unicode="'" horiz-adv-x="260" 
d="M143 2105q25 0 29 -15v-1q-28 -146 -28 -214v-28q0 -25 -27 -32h-5q-21 0 -21 42q0 20 -0.5 40.5t-1 31.5t-0.5 15q0 80 12 143q17 18 42 18z" />
    <glyph glyph-name="parenleft" unicode="(" horiz-adv-x="758" 
d="M571 2173q30 0 40 -25q0 -17 -86 -80q-127 -123 -184 -230q-134 -225 -205 -551q-77 -334 -77 -678q0 -695 260 -1171q59 -102 169 -217q3 -6 3 -12v-4q-12 -21 -37 -21h-12q-23 0 -113 113q-205 248 -313 782q-46 270 -46 494v92q0 681 285 1198q60 102 181 227
q89 83 135 83z" />
    <glyph glyph-name="parenright" unicode=")" horiz-adv-x="888" 
d="M384 2191h18q30 0 159 -175q301 -466 301 -1134q0 -711 -319 -1315q-89 -163 -245 -328q-46 -46 -83 -46q-12 0 -21 16v9q161 154 236 285q337 575 337 1336q0 785 -393 1260q-45 43 -45 55q16 37 55 37z" />
    <glyph glyph-name="asterisk" unicode="*" horiz-adv-x="476" 
d="M215 2129l19 6q20 -5 20 -13q-5 -38 -5 -58v-43q74 67 87 67h5q17 0 21 -10v-6q0 -4 -85 -76l-5 -6h5q67 0 95 3q19 -4 19 -10v-7q0 -15 -54 -18q-48 0 -74 -1q83 -89 83 -102q-8 -17 -31 -17h-4q-10 0 -32 34l-30 31l2 -8q0 -1 -2 -59q-9 -17 -27 -17h-4q-12 0 -19 10
q2 30 2 34v54q-70 -81 -83 -81q-5 0 -9 -2q-19 4 -19 11v3q0 8 40 48q44 46 54 61h-4q-128 0 -128 10l-1 4v1q0 12 19 19q32 -1 79 -1h17l-69 76v6q10 16 33 16q12 0 54 -50l15 -14v14q0 91 16 91z" />
    <glyph glyph-name="plus" unicode="+" horiz-adv-x="1014" 
d="M543 1046h12q17 0 25 -15q-12 -339 -12 -396h137q249 0 249 -27v-12q0 -15 -46 -25q-61 15 -343 15v-3q-7 -206 -7 -373q0 -25 -42 -31h-19q-18 9 -18 25l6 382q-77 -3 -123 -3h-183q-129 0 -129 19v12q4 12 37 25q41 -4 67 -4h334l12 380q10 31 43 31z" />
    <glyph glyph-name="comma" unicode="," horiz-adv-x="190" 
d="M77 306h5q49 0 49 -42v-13q0 -51 -60 -73h-7q-14 0 -16 8v5q13 17 13 26q0 3 -26 26v8q4 55 42 55z" />
    <glyph glyph-name="hyphen" unicode="-" horiz-adv-x="788" 
d="M80 568q37 -3 56 -3h95q453 0 453 -21l3 -12q-11 -27 -33 -27q-107 8 -589 12q-20 8 -20 15v3q0 24 35 33z" />
    <glyph glyph-name="hyphen" unicode="&#xad;" horiz-adv-x="788" 
d="M80 568q37 -3 56 -3h95q453 0 453 -21l3 -12q-11 -27 -33 -27q-107 8 -589 12q-20 8 -20 15v3q0 24 35 33z" />
    <glyph glyph-name="period" unicode="." horiz-adv-x="195" 
d="M80 317q62 -9 64 -50v-5q-5 -47 -38 -47q-51 -8 -62 51l1 27q16 24 35 24z" />
    <glyph glyph-name="slash" unicode="/" horiz-adv-x="1058" 
d="M961 1500h15q27 -4 27 -25q-93 -217 -315 -597q-406 -664 -543 -992q-22 -52 -62 -164q-21 -27 -34 -27h-10q-9 0 -13 22q0 25 57 174q101 246 397 768q307 520 437 819q19 22 44 22z" />
    <glyph glyph-name="zero" unicode="0" horiz-adv-x="1153" 
d="M581 1697q18 -8 18 -19q0 -21 -72 -32q0 -3 -22 -13v-2h2q70 18 130 18h22q268 3 379 -307q46 -150 48 -323v-82q2 -445 -183 -834q-65 -123 -148 -216q-155 -165 -295 -167h-24q-162 -1 -271 214q-85 196 -87 467v53q-1 480 185 924q39 87 97 170h-2q-120 -59 -127 -60
h-7q-11 8 -11 15q12 23 187 96q91 96 181 98zM159 457v-58q2 -361 141 -536q74 -83 171 -82q195 1 377 321q184 358 183 869q-1 436 -229 572q-75 34 -143 34l-32 -1q-86 -2 -178 -37q-85 -116 -120 -209q-171 -426 -170 -873z" />
    <glyph glyph-name="one" unicode="1" horiz-adv-x="550" 
d="M397 1696q41 0 60 -43q7 -9 9 -54q0 -133 -125 -1147q-65 -511 -65 -688v-9q0 -34 -49 -38q-24 5 -24 21q0 253 133 1298q35 304 35 487q0 80 -9 80q-90 -123 -152 -273q-49 -126 -57 -140q-21 -21 -40 -21q-43 7 -43 38v9q33 132 173 366q79 114 154 114z" />
    <glyph glyph-name="two" unicode="2" horiz-adv-x="1138" 
d="M655 1695q213 0 326 -156q60 -93 60 -199q0 -345 -485 -1001q-218 -329 -429 -588v-2q397 108 595 108q174 0 214 -91v-10q-14 -24 -48 -24q-20 0 -44 43q-44 34 -146 34q-178 0 -643 -125h-22q-13 0 -21 14v3q0 13 67 81q333 425 612 883q245 416 245 655v5
q0 203 -180 283q-63 22 -125 22q-204 0 -348 -185q-72 -109 -72 -245q0 -43 14 -141q0 -33 -50 -41q-47 0 -58 65q-9 66 -9 110q0 250 240 415q151 87 307 87z" />
    <glyph glyph-name="three" unicode="3" horiz-adv-x="1014" 
d="M549 1676h35q172 0 296 -129q51 -73 51 -150q0 -238 -373 -607h5q163 0 291 -134q117 -142 117 -324v-28q0 -255 -204 -439q-182 -143 -382 -143q-185 0 -300 136q-51 66 -61 115q20 21 35 21h14q23 0 42 -58q98 -167 293 -167q176 0 343 153q141 153 141 356v10
q0 239 -176 380q-86 58 -186 58h-16q-22 0 -42 -4q-18 0 -28 16v9q0 17 68 73q333 334 333 539q0 173 -207 242q-48 12 -89 12h-14q-178 0 -265 -146q-28 -93 -68 -93h-5q-36 0 -42 46q36 105 89 141q64 59 132 82q86 33 173 33z" />
    <glyph glyph-name="four" unicode="4" horiz-adv-x="1130" 
d="M1024 1704q40 -10 40 -36q-61 -316 -145 -1143q0 -13 -4 -29q126 -26 126 -50q-12 -26 -43 -26q-2 0 -86 23q-3 -7 -3 -10q-37 -419 -37 -588q0 -43 10 -99q0 -18 -39 -23h-7q-30 0 -30 69q-3 42 -3 47q7 240 33 617q3 0 3 3q-89 14 -221 17q-129 0 -515 -43h-7
q-19 0 -26 16v7q0 9 66 102q261 468 413 852q59 157 59 195q26 23 50 23h10q26 0 36 -19q0 -157 -429 -978l-86 -142q3 0 3 -3q268 36 449 36q134 -3 202 -13q50 649 112 1106q14 89 69 89z" />
    <glyph glyph-name="five" unicode="5" horiz-adv-x="1269" 
d="M869 1692h128q188 0 225 -35v-10q0 -21 -55 -25q-93 18 -191 18q-417 0 -868 -70q-23 0 -35 25q0 51 204 62q282 35 592 35zM281 1498q34 0 34 -28v-28q0 -260 -69 -508h7q193 90 363 90h21q299 0 450 -301q45 -112 45 -229q0 -400 -332 -681q-164 -118 -339 -118
q-210 0 -419 176l-3 7v7q16 24 38 24h10q11 0 114 -76q143 -86 263 -86h38q224 0 412 273q121 212 121 412v35q0 280 -232 439q-97 52 -204 52q-163 0 -408 -128l-21 -4h-3q-27 0 -38 39q83 303 83 570v11q0 52 69 52z" />
    <glyph glyph-name="six" unicode="6" horiz-adv-x="1086" 
d="M665 1708l23 3h3q30 0 30 -36q-9 -23 -132 -198q-257 -386 -373 -846q177 188 419 188q184 0 327 -152q73 -107 73 -221v-43q0 -238 -225 -512q-180 -181 -340 -181h-40q-152 0 -277 188q-79 157 -79 357v16q0 556 439 1242q102 151 152 195zM173 271q0 -346 208 -479
q55 -23 92 -23h27q193 0 386 337q79 174 79 310q0 277 -287 351q-60 6 -73 6q-165 0 -310 -139q-112 -115 -112 -188q-10 -86 -10 -175z" />
    <glyph glyph-name="seven" unicode="7" horiz-adv-x="1365" 
d="M878 1707h52q282 0 344 -77q11 -18 12 -37q0 -37 -70 -116q-199 -317 -446 -834q-187 -399 -290 -681q-54 -157 -54 -236q-6 -24 -23 -35q-4 -2 -8 -2h-5q-24 6 -24 33v14q15 248 474 1222q170 350 299 548q48 58 48 74q0 52 -230 63q-28 2 -75 2q-326 0 -711 -60
q-11 -7 -30 -7h-4q-37 0 -37 23v4q0 33 116 44q391 58 662 58z" />
    <glyph glyph-name="eight" unicode="8" horiz-adv-x="1182" 
d="M900 1702q147 0 179 -140q3 -10 6 -60q0 -160 -202 -639l-111 -327q185 -167 185 -334v-21q0 -173 -185 -338q-161 -113 -324 -113h-16q-219 0 -309 183q-25 66 -25 138v11q0 254 169 556q39 62 99 124q20 17 20 18q-154 199 -154 373v15q0 222 222 373q256 181 446 181z
M304 1170v-31q0 -159 142 -346q15 4 21 4q36 0 41 -24q-10 -21 -23 -21v-2q61 -65 101 -87l116 -76q2 0 37 107q136 347 200 540q47 159 47 245v17q0 136 -119 136h-13q-144 0 -379 -159q-103 -80 -121 -128q-50 -86 -50 -175zM413 729q-91 -109 -165 -294
q-80 -222 -80 -351q0 -217 155 -280q54 -20 101 -20h28q150 0 287 127q95 107 111 192q8 43 8 58v10q0 2 2 2l-2 4v13q0 180 -251 366q-108 87 -194 173z" />
    <glyph glyph-name="nine" unicode="9" horiz-adv-x="1262" 
d="M594 1686h13q187 0 362 -265v-4q-17 -36 -55 -36h-9q-30 0 -54 48q-144 195 -269 195q-154 0 -293 -322q-97 -257 -97 -520v-6q0 -161 56 -199q20 -7 27 -7q132 0 377 455q228 377 365 377q111 0 133 -232q4 -17 4 -71v-48q0 -259 -114 -661q-224 -672 -566 -672h-19
q-219 0 -290 161q-25 69 -25 137q9 34 31 34q27 0 27 -71q13 -64 33 -100q71 -114 232 -114h4q5 0 9 -2l12 2h9q253 0 446 544q136 409 136 734v46q0 193 -72 230l-17 2q-111 0 -342 -429q-236 -386 -411 -386q-93 0 -128 149q-13 56 -13 131q0 362 174 672q148 228 324 228
z" />
    <glyph glyph-name="colon" unicode=":" horiz-adv-x="210" 
d="M80 547q62 -9 64 -50v-5q-5 -47 -38 -47q-51 -8 -62 51l1 27q16 24 35 24zM80 917q62 -9 64 -50v-5q-5 -47 -38 -47q-51 -8 -62 51l1 27q17 24 35 24z" />
    <glyph glyph-name="semicolon" unicode=";" horiz-adv-x="213" 
d="M80 907q62 -9 64 -50v-5q-5 -47 -38 -47q-51 -8 -62 51l1 27q17 24 35 24zM97 536h5q49 0 49 -42v-13q0 -51 -60 -73h-7q-14 0 -16 8v5q13 17 13 26q0 3 -26 26v8q4 55 42 55z" />
    <glyph glyph-name="less" unicode="&#x3c;" horiz-adv-x="662" 
d="M503 962q16 0 17 -19q0 -17 -40 -50q-99 -88 -217 -177q-17 -13 -77.5 -57.5t-100.5 -74.5q109 -50 300 -150q72 -37 143 -69q14 -11 14 -20q0 -14 -18 -17h-7q-8 0 -86 35q-281 126 -417 184q-14 11 -14 23v3q0 21 31 43q77 61 272 201q119 85 185 142q9 3 15 3z" />
    <glyph glyph-name="equal" unicode="=" horiz-adv-x="659" 
d="M74 770q31 -3 47 -3h81q386 0 386 -19l2 -11q-9 -24 -28 -24q-97 8 -501 11q-17 8 -17 13v3q0 22 30 30zM71 540q32 -3 47 -3h81q386 0 386 -19l2 -11q-9 -24 -28 -24q-97 8 -501 11q-17 8 -17 13v3q0 22 30 30z" />
    <glyph glyph-name="greater" unicode="&#x3e;" horiz-adv-x="605" 
d="M98 954h5q11 0 36 -22q73 -46 265 -154q79 -46 151 -98q31 -25 31 -47v-6q0 -19 -42 -38q-278 -165 -414 -254q-14 -12 -26 -12h-1q-18 5 -18 19v4q0 18 48 49q108 77 264 171q112 66 119 71q-100 68 -271 165q-82 49 -145 101q-19 16 -19 29v6q0 11 17 16z" />
    <glyph glyph-name="question" unicode="?" horiz-adv-x="1013" 
d="M568 1717h34q177 0 296 -134q52 -76 52 -168q0 -211 -256 -653q-155 -295 -199 -427q-28 -75 -40 -187q-16 -16 -40 -16q-21 4 -21 14q0 156 204 548q230 443 252 595q12 43 12 111q0 191 -206 250q-33 10 -75 10q-2 0 -2 2l-5 -2h-23q-185 0 -327 -142q-78 -98 -78 -223
q0 -116 84 -275v-15q0 -24 -40 -33q-47 0 -94 134q-36 88 -36 174v21q0 199 208 332q153 84 300 84zM411 1q62 -9 64 -50v-5q-5 -47 -38 -47q-51 -8 -62 51l1 27q16 24 35 24z" />
    <glyph glyph-name="at" unicode="@" horiz-adv-x="1163" 
d="M590 1131h26q150 0 263 -122q107 -134 107 -275q0 -168 -148 -265q-45 -22 -81 -22h-8q-74 0 -104 92q-11 49 -11 118q0 21 3 77l-81 -153q-65 -128 -118 -128h-4q-63 23 -63 101q0 89 73 178q53 53 102 53h12q18 0 40 -13q30 44 62 44h3q26 0 26 -69q-5 -130 -5 -172
q0 -66 49 -88q8 -5 24 -5q80 0 152 123q28 63 28 129q0 108 -81 230q-99 128 -253 128t-300 -127q-82 -85 -95 -123q-60 -112 -60 -228v-38q0 -137 94 -267q128 -146 329 -146q210 0 374 164q46 54 71 103q10 10 26 10q14 0 18 -10v-3q-65 -137 -225 -227q-151 -76 -284 -76
h-31q-194 0 -330 148q-111 138 -111 306v26q0 168 114 319q93 102 131 118q138 90 266 90zM439 568v-6q0 -2 -1 -2l1 -3v-7q0 -10 8 -34h2q45 67 109 193q6 7 6 15q-21 18 -29 18q-48 -20 -86 -117q-10 -31 -10 -57z" />
    <glyph glyph-name="A" unicode="A" 
d="M1050 2189h8q169 0 272 -1762h222q30 0 31 -12v-11q0 -21 -58 -24q-70 0 -179 4q-7 -4 -12 -4q45 -664 82 -999q-10 -24 -35 -24q-31 0 -31 59q-32 329 -78 964q-256 0 -860 -39q-16 -32 -179 -669q-101 -437 -116 -463l-28 -19h-19q-35 6 -35 35q75 343 272 1105h-4
l-280 -20q-16 0 -23 16v4q0 50 159 50q158 14 172 20q487 1789 719 1789zM424 400q410 27 848 27v4q-122 1692 -226 1692q-93 -59 -280 -591q-172 -503 -342 -1132z" />
    <glyph glyph-name="B" unicode="B" horiz-adv-x="2211" 
d="M1140 2168h55q210 0 397 -142q170 -146 170 -378q0 -345 -368 -833q-6 -2 -56 -65h3q66 6 115 6h31q381 0 532 -319q44 -111 44 -226v-34q0 -290 -248 -586q-150 -155 -232 -195q-319 -195 -707 -195h-43q-390 0 -604 214q-13 13 -18 28q12 28 43 28h3q20 0 71 -62
q208 -161 530 -161h15q480 0 799 281q285 281 285 623v12q0 300 -244 456q-132 65 -279 65q-192 -12 -192 -38q-198 -189 -313 -189h-9q-50 0 -50 56q0 77 217 174q92 31 161 46q276 316 378 629q40 132 40 226v37q0 317 -356 446q-61 19 -164 25q-370 0 -725 -332
q-186 -209 -232 -346q-46 -96 -74 -230q0 -43 -62 -52h-19q-34 7 -34 18v6q27 223 198 477q130 180 325 319q331 211 617 211zM743 1663h10q37 -7 37 -28q-189 -882 -189 -1598v-121q0 -182 15 -433q0 -58 -40 -74q-43 0 -43 195q-16 208 -16 467v103q0 728 161 1461
q27 28 65 28zM985 527q3 -6 3 -13q55 27 145 109v3h-3q-145 -64 -145 -99z" />
    <glyph glyph-name="C" unicode="C" horiz-adv-x="1725" 
d="M999 2177h42q205 0 339 -188q59 -129 59 -230v-51q0 -233 -134 -506q-35 -33 -67 -33h-13q-4 0 -21 20v17q0 16 67 184q55 186 55 314q0 278 -197 373q-75 25 -130 25q-331 0 -694 -632q-112 -212 -222 -515q-159 -504 -159 -849v-71q0 -500 259 -716q102 -63 201 -63h9
q511 0 1221 1172q83 166 101 176l21 4q21 0 29 -17v-4q-186 -403 -603 -900q-430 -481 -757 -481h-46q-280 0 -439 368q-84 238 -84 465v79q0 673 406 1436q115 197 293 384q247 239 464 239z" />
    <glyph glyph-name="D" unicode="D" horiz-adv-x="2472" 
d="M1295 2158l62 5q373 30 674 -211q294 -265 325 -647l5 -65q36 -432 -259 -982q-76 -151 -346 -468q-551 -541 -1114 -586l-81 -6q-198 -11 -200 12l-1 9q9 25 39 26q119 -4 203 2l36 3q629 50 1174 688q177 253 182 265q302 559 266 1006l-4 46q-39 471 -436 727
q-242 125 -474 106l-18 -1q-11 -2 -19 3q-8 -5 -17 -6l-18 -2q-403 -32 -793 -434q-266 -344 -329 -565q-50 -139 -70 -140l-26 -7l-18 -1q-24 -2 -33 16l-1 9q32 136 163 389q283 511 804 732q186 67 324 77zM802 1593q51 -7 51 -50q-49 -160 -91 -664q-36 -557 -32 -1031
v-32q2 -163 12 -290q0 -33 -32 -56h-9q-55 0 -60 561v33q-9 1020 102 1478q27 49 59 51z" />
    <glyph glyph-name="E" unicode="E" horiz-adv-x="1364" 
d="M341 2130l13 1q34 1 36 -31q458 49 933 65l497 18q24 -5 24 -12l1 -11q-15 -26 -50 -28q-908 -33 -1427 -96q-82 -388 -147 -1383q-5 -88 -4 -104q441 68 720 79l93 4q143 5 145 -33q-17 -29 -55 -31q-63 10 -136 9q-283 -11 -770 -91l-3 -6q-11 -373 -4 -569l3 -58
q15 -444 116 -578q49 -33 131 -30q160 4 616 171q363 130 503 134q68 3 70 -26q1 -9 -11 -16.5t-36 -14.5l-26 1l-45 -1q-180 -8 -684 -211q-259 -93 -374 -98l-32 -1q-162 -6 -215 128q-83 197 -100 653q-7 177 -2 502h-2q-59 -18 -72 -18l-10 -1q-17 0 -30 18v8
q-1 33 117 60q31 677 89 1151q21 146 52 335h-2q-77 -10 -262 -50h-2q-37 -1 -39 25q-1 20 37.5 35.5t117.5 26.5q70 17 172 30q-2 32 54 44z" />
    <glyph glyph-name="F" unicode="F" horiz-adv-x="1787" 
d="M901 2182h32q31 -19 31 -48l-26 -143q766 143 1420 143h58q387 -11 424 -42q9 0 16 -16v-11q0 -8 -16 -15h-11q-268 26 -434 26h-74q-609 0 -1399 -159q-142 -926 -143 -1409q530 74 758 74l10 -16v-11q0 -33 -297 -47l-476 -69q-6 -282 -6 -376q0 -371 21 -811
q-9 -53 -47 -53h-6q-42 0 -42 387q-16 257 -16 636v164l5 37q-292 -53 -328 -53q-22 7 -32 26v11q0 38 260 74q52 0 100 16q0 643 122 1399q-391 -86 -625 -186q-92 -48 -132 -58q-33 0 -48 27v16q49 58 344 153q97 35 477 127q21 207 80 207z" />
    <glyph glyph-name="G" unicode="G" horiz-adv-x="1688" 
d="M1094 2184h62q176 0 319 -176q114 -164 114 -395q0 -280 -167 -471q-20 -14 -38 -14q-28 12 -28 33q0 9 71 143q62 150 62 309q0 364 -247 476q-65 28 -143 28q-463 0 -833 -837q-171 -434 -171 -837q0 -610 309 -899q112 -76 205 -76h24q298 0 590 580q73 160 161 438
q19 14 34 14q14 0 33 -14q-95 -801 -95 -990v-66q0 -103 9 -190q-9 -29 -24 -34h-14q-33 0 -33 252q0 225 47 690v5h-4q0 -52 -205 -390q-256 -343 -490 -343h-52q-210 0 -404 281q-186 309 -186 728v76q0 521 338 1113q365 566 756 566zM1346 167h-5v-9h5v9z" />
    <glyph glyph-name="H" unicode="H" horiz-adv-x="1861" 
d="M642 2174h15q34 0 34 -24q-63 -228 -117 -794q-24 -382 -33 -828h4q441 131 882 131h19v92q0 859 131 1365q28 34 68 34q21 -7 33 -29v-15q-155 -516 -155 -1447h5q213 -11 213 -30v-14q-7 -19 -34 -19q-41 0 -184 14v-150q0 -427 30 -1085q-19 -14 -34 -14h-25
q-24 0 -24 266q-24 362 -24 877v106h-5q-462 0 -900 -131v-329q0 -259 29 -319q63 -236 63 -601q-20 -19 -39 -19h-20q-28 0 -62 285q-16 68 -44 422q-52 139 -150 232q-94 78 -262 78q-29 18 -29 24v9q0 89 431 238q0 1067 136 1651q28 24 48 24zM100 271h10
q228 0 353 -179v39q0 79 -5 314h-5q-282 -91 -353 -174z" />
    <glyph glyph-name="I" unicode="I" horiz-adv-x="792" 
d="M890 2170h208q26 0 34 -20v-14q-22 -34 -58 -34q-14 0 -136 5q-765 -11 -765 -63q-38 -20 -48 -20h-29q-8 0 -19 20v14q0 42 242 83q247 29 571 29zM648 2068q34 -4 34 -24q-136 -831 -136 -1879q0 -138 20 -716l4 -10q0 -24 -29 -44h-19q-29 0 -29 281q-24 406 -24 852
q0 869 116 1511q31 29 63 29zM752 -658h94q132 0 132 -21v-13q-18 -25 -43 -25h-349q-412 0 -472 -64h-25q-30 0 -30 30q32 42 178 68q212 25 515 25z" />
    <glyph glyph-name="J" unicode="J" horiz-adv-x="1755" 
d="M808 2173q466 0 621 -456q59 -186 59 -380v-66q0 -310 -109 -697h2q281 74 319 74h13q4 0 13 -13v-10q0 -20 -160 -48q-147 -36 -203 -56q-109 -361 -243 -621q-94 -185 -220 -345q-159 -194 -266 -255q-164 -112 -312 -112h-18q-197 0 -284 193q-20 57 -20 114v30
q0 175 180 398q156 165 228 208q159 119 367 220q215 103 479 185q31 6 31 51q104 366 104 671v59q0 427 -223 656q-154 137 -383 137q-292 0 -492 -299q-159 -261 -159 -639q1 -108 5 -119q-10 -58 -53 -58h-11q-38 0 -38 96q0 18 -0.5 34.5t-1 24.5t-0.5 10q0 497 266 790
q217 223 509 223zM63 -498q0 -196 175 -256q34 -7 51 -7h28q254 0 547 392q165 247 274 520q55 132 119 340h-3q-331 -110 -570 -241q-180 -100 -352 -254q-198 -200 -236 -337q-33 -89 -33 -157z" />
    <glyph glyph-name="K" unicode="K" horiz-adv-x="1099" 
d="M373 2189h13q34 -7 34 -33q-54 -248 -100 -878q-26 -525 -26 -719q526 507 970 880l455 396q29 18 46 18h3q25 -4 25 -23v-11q0 -23 -90 -92q-136 -122 -744 -650q-250 -212 -665 -629q-3 -93 -3 -141v-36q0 -31 3 -95q371 -120 1117 -239q67 -4 67 -28q-17 -23 -39 -23
q-84 0 -814 154q-230 56 -331 85v-3q0 -291 26 -863q0 -30 -29 -51h-10q-36 0 -36 149q-28 547 -28 765q-3 22 -3 28q-119 39 -174 77q-10 13 -18 24v15q49 56 190 208v100q0 996 110 1579q22 36 51 36zM112 251q80 -44 102 -44q0 7 -0.5 26t-1 55t-0.5 70
q-26 -22 -100 -107z" />
    <glyph glyph-name="L" unicode="L" horiz-adv-x="932" 
d="M295 2107h12q34 -6 34 -29v-11q-27 -75 -55 -207q-76 -399 -152 -1117q-48 -484 -48 -830v-10q0 -488 102 -602q29 -29 71 -29q151 0 573 177q537 230 756 230q77 0 77 -27v-2q0 -32 -58 -44q-60 2 -63 2q-201 0 -729 -238q-383 -165 -554 -165h-17q-113 0 -146 67
q-98 167 -98 645v103q0 599 132 1577q59 397 108 479q31 31 55 31z" />
    <glyph glyph-name="M" unicode="M" horiz-adv-x="1962" 
d="M1570 2184l22 4h14q134 0 156 -834q10 -1401 36 -1613q18 -197 54 -361q3 0 25 -76q0 -21 -47 -29q-35 0 -54 115q-83 211 -83 1755q0 337 -40 747q-32 179 -65 235l-7 3h-4q-23 0 -101 -267q-225 -865 -375 -1187q-89 -170 -159 -170q-192 0 -397 996q-83 354 -126 354
q-67 0 -174 -1141q-113 -1155 -148 -1451q-20 -47 -46 -47h-11q-32 0 -40 47q184 1809 285 2462q57 271 119 271q104 0 282 -729q106 -406 195 -603q36 -69 76 -69q99 0 379 1051q154 537 234 537z" />
    <glyph glyph-name="N" unicode="N" horiz-adv-x="1688" 
d="M244 2163q100 0 245 -538q374 -1233 625 -1765q100 -181 148 -181h18q52 32 79 101q105 280 105 1080q0 473 -40 1166q8 17 26 28q39 0 39 -130q44 -645 44 -1104q0 -1188 -264 -1188q-169 0 -408 618q-160 384 -480 1397q-107 315 -126 335h-4q-91 0 -137 -2173v-112
q5 -340 14 -440q-18 -47 -50 -47h-7q-47 0 -47 76q-6 0 -11 390q0 1047 83 2043q58 444 148 444z" />
    <glyph glyph-name="O" unicode="O" horiz-adv-x="1740" 
d="M762 2175q28 -11 30 -27q1 -16 -27.5 -29t-85.5 -23q0 -4 -36 -19v-4h4q110 29 208 34l36 1q432 18 629 -440q85 -224 95 -481l5 -122q27 -665 -249 -1257q-96 -182 -229 -330q-241 -256 -466 -265l-40 -2q-261 -10 -449 307q-150 293 -166 695l-3 79q-29 719 247 1390
q60 133 149 259h-4q-192 -95 -202 -95l-11 -1q-18 11 -18 21q18 36 297 153q142 151 286 156zM119 303l3 -90q22 -555 265 -820q127 -125 290 -118q328 14 611 516q288 560 256 1350q-27 675 -414 872q-130 49 -240 45l-54 -3q-142 -5 -294 -66q-136 -185 -189 -329
q-262 -666 -234 -1357z" />
    <glyph glyph-name="P" unicode="P" horiz-adv-x="2145" 
d="M1439 2167h38q305 0 501 -205q162 -191 162 -461v-37q0 -316 -210 -636q-63 -88 -195 -226q-13 -9 -105 -92q-158 -117 -278 -183q-139 -70 -281 -118q-244 -70 -403 -70q-10 -170 -10 -360v-5q0 -214 15 -531q-12 -50 -45 -50h-2q-40 0 -40 125q-18 342 -18 553l5 268
h-2q-108 0 -108 18v10q12 22 40 22q20 0 73 -5q0 191 67 714q51 309 88 458q27 45 63 45h2q40 -4 40 -40v-5l-77 -421q-41 -209 -81 -641l-7 -110q235 0 551 131q248 112 460 312q175 179 228 281q155 269 155 543q0 395 -308 571q-159 75 -325 75q-394 0 -776 -358
q-169 -179 -228 -283q-128 -198 -213 -438q-51 -143 -110 -441q-21 -42 -55 -42h-2q-48 11 -48 40v5q3 115 115 463q83 217 180 381q78 134 246 317q185 182 320 253q301 173 578 173z" />
    <glyph glyph-name="Q" unicode="Q" horiz-adv-x="1708" 
d="M839 2153h24q265 0 479 -213q150 -162 220 -477q39 -192 39 -382v-77q0 -391 -145 -859q-79 -232 -180 -415q-63 -112 -169 -244q234 -219 404 -219h38q26 0 26 -20q-11 -26 -51 -26h-22q-187 0 -434 224q-225 -231 -418 -231h-22q-250 0 -439 371q-189 438 -189 973v44
q0 581 217 993q34 192 126 314q199 244 496 244zM327 1758h2q225 257 530 257h37q96 0 222 -33q15 -10 15 -22q0 -30 -63 -38q-112 27 -205 27q-372 0 -584 -426q-4 -56 -4 -106q0 -500 331 -1204q110 -223 275 -461q66 -91 160 -198q0 -4 27 -26q124 166 178 281
q74 145 147 367q136 445 136 863q0 540 -226 839q-198 224 -483 224q-271 0 -431 -217q-46 -73 -64 -127zM206 1336h-2q-105 -344 -105 -736q0 -555 187 -986q164 -338 388 -338q169 0 356 208q-113 115 -182 209q-193 264 -281 450q-134 240 -264 655q-41 136 -79 356
q-13 113 -18 182z" />
    <glyph glyph-name="R" unicode="R" horiz-adv-x="2005" 
d="M1398 2187h21q425 0 668 -400q86 -184 86 -350v-41q0 -359 -313 -709q-230 -221 -441 -309q-291 -119 -466 -119v-4q109 -141 301 -293q364 -277 631 -428q88 -40 115 -66v-9q-16 -24 -41 -24q-21 0 -260 140q-307 199 -597 441q-216 208 -235 259v13q0 24 189 32
q236 48 338 99q197 83 416 297q281 322 281 643v57q0 314 -260 557q-196 152 -428 152q-400 0 -796 -412q-328 -359 -469 -1001q-20 -128 -42 -128l-41 -4h-8q-33 4 -33 25q46 270 111 453q109 288 247 494q85 132 277 318q380 317 749 317zM793 1388h20q23 0 37 -29
q-177 -824 -177 -1529v-148q0 -213 17 -429q-10 -45 -25 -45h-16q-33 0 -33 260q-8 0 -17 498q0 714 148 1397q26 25 46 25z" />
    <glyph glyph-name="S" unicode="S" horiz-adv-x="1838" 
d="M1199 2179h34q271 0 361 -348q26 -116 26 -224v-17q0 -13 4 -13l-4 -22v-34q0 -246 -34 -301q-19 -17 -35 -17h-13q-23 0 -38 25v5q17 221 17 301v43q0 386 -189 503q-72 34 -134 34q-295 0 -727 -443q-339 -384 -339 -666q0 -176 184 -237q0 -24 585 -47
q223 -25 358 -78q132 -55 193 -154q276 156 392 180q19 -7 21 -17v-9q-3 -17 -172 -81l-224 -121q22 -66 22 -129q0 -339 -486 -817q-332 -284 -504 -284h-38q-115 0 -142 129v52q0 297 727 838q220 158 318 207q-37 91 -194 159q-203 73 -683 73q-310 0 -422 172
q-43 73 -43 159q0 303 409 749q448 430 770 430zM390 -613q0 -129 99 -129q219 12 611 413q292 331 292 615q0 51 -13 104q-334 -194 -705 -538q-284 -292 -284 -465z" />
    <glyph glyph-name="T" unicode="T" horiz-adv-x="1801" 
d="M2697 2172h144q22 0 31 -16q0 -32 -92 -32h-3q-1092 0 -2414 -172q-297 -45 -326 -45q-23 0 -37 21v11q0 44 172 56q1274 177 2525 177zM1524 1936q37 -7 37 -29q-67 -898 -67 -1667v-23q0 -439 27 -946q-7 -51 -34 -51h-8q-28 0 -32 175q-37 659 -37 1243v106
q0 603 37 1158q22 34 77 34z" />
    <glyph glyph-name="U" unicode="U" horiz-adv-x="1982" 
d="M144 2200h13q31 0 40 -48q-78 -712 -78 -1239v-105q0 -960 248 -1331q90 -113 183 -113q323 0 706 1172q100 286 277 910q64 172 138 172h10q71 0 89 -339q17 -206 17 -442v-83q0 -444 -76 -1530q-19 -19 -46 -19q-17 0 -27 19l3 11q62 1051 62 1435v30q0 28 3 43
q-3 15 -3 43v27q0 417 -43 676l-14 19q-34 0 -110 -307q-161 -569 -355 -1080q-183 -459 -340 -639q-161 -183 -301 -183h-22q-165 0 -312 267q-189 398 -189 1225v105q0 556 81 1258q21 46 46 46z" />
    <glyph glyph-name="V" unicode="V" horiz-adv-x="1504" 
d="M1587 2173h3q27 -1 27 -17q0 -215 -211 -1219q-243 -1095 -488 -1558q-108 -184 -194 -184q-229 0 -442 1346q-150 929 -229 1305l-54 203q23 35 59 35q49 0 49 -46q97 -320 232 -1219q159 -999 280 -1365q69 -194 138 -194q71 0 183 270q262 674 523 2055q49 253 84 569
q19 19 40 19z" />
    <glyph glyph-name="W" unicode="W" horiz-adv-x="2446" 
d="M1977 2203h24q21 0 133 -636q95 -644 95 -1042v-127q0 -643 -228 -982q-114 -136 -261 -136q-420 0 -609 1305q-9 0 -114 -346q-335 -1032 -646 -1032h-34q-227 0 -304 473q-33 207 -33 436v128q0 644 157 1268q75 250 161 250q29 -9 29 -18q0 -12 -52 -82
q-66 -149 -119 -432q-90 -550 -90 -1027q0 -747 204 -919q45 -22 71 -22h29q226 0 523 872q135 463 209 637q19 14 43 14h4q31 0 53 -237q206 -1209 532 -1209h5q218 0 332 432q67 287 67 700q0 691 -219 1705q10 27 38 27z" />
    <glyph glyph-name="X" unicode="X" horiz-adv-x="1191" 
d="M1517 2180q19 -7 34 -30v-29q-238 -472 -643 -1150q-143 -239 -232 -402q262 -517 537 -917q54 -83 160 -169v-17q0 -6 -12 -13h-9q-109 35 -317 342q-249 389 -410 685h-4q-295 -532 -448 -917q-42 -109 -110 -326l-26 -25h-12q-17 6 -17 34q75 295 275 727
q176 357 300 584q-398 728 -546 1141q-29 90 -29 114q13 43 55 43q66 0 84 -136q172 -448 436 -972q5 -1 46 -93h9q540 957 786 1433q28 93 93 93z" />
    <glyph glyph-name="Y" unicode="Y" horiz-adv-x="1601" 
d="M167 2188q37 0 48 -53q-114 -461 -114 -914q13 -742 268 -932q54 -26 93 -26q265 0 606 962q139 379 229 379h9q92 0 92 -330v-40q0 -587 -224 -2026q-12 -18 -31 -18h-4q-18 8 -18 31q211 1547 211 2035v84q-6 162 -40 162q-54 0 -219 -461q-319 -844 -647 -844
q-307 0 -408 668q-18 165 -18 286v132q0 407 119 866q23 39 48 39z" />
    <glyph glyph-name="Z" unicode="Z" horiz-adv-x="1284" 
d="M1704 2197h75q193 0 193 -75v-13q0 -25 -171 -224q-385 -485 -831 -1178q-479 -743 -818 -1407q215 136 642 286q350 105 554 105q279 0 325 -184q0 -6 4 -14q0 -25 -48 -30q-32 0 -44 70q-65 110 -250 110h-5q-348 0 -1002 -299q-124 -68 -238 -150h-22q-5 0 -13 14v22
q0 84 664 1222q447 755 998 1464q104 119 154 184q0 31 -136 31h-22q-445 0 -1478 -233q-165 -53 -193 -53q-18 0 -31 22v13q0 49 761 198q655 119 932 119z" />
    <glyph glyph-name="bracketleft" unicode="[" horiz-adv-x="758" 
d="M442 2199q121 -3 162 -2q24 -9 26 -20l1 -21q-7 -20 -36 -22l-94 -1q-366 -7 -366 -28q17 -126 22 -298l6 -350q4 -1998 -62 -2211v-11h5q129 18 308 27q157 -1 157 -23v-5q0 -12 -36 -22q-49 10 -79 9l-115 -2q-108 -2 -307 -27q-6 10 -6 16q64 115 64 1574l-5 303
q-17 819 -41 1023q-1 42 98 64.5t298 26.5z" />
    <glyph glyph-name="backslash" unicode="\" horiz-adv-x="1071" 
d="M84 1500h14q26 0 45 -22q130 -299 437 -819q292 -516 396 -768q57 -149 57 -174q-4 -22 -12 -22h-10q-12 0 -35 27q-40 112 -62 164q-135 328 -543 992q-221 380 -315 597q0 21 28 25z" />
    <glyph glyph-name="bracketright" unicode="]" horiz-adv-x="758" 
d="M409 2191l93 3q166 4 168 -63q-70 -1 -93 -2147l9 -316q7 -242 49 -435q-24 -15 -41 -17l-31 -1q-39 -1 -353 5q-28 0 -93 -18q-26 6 -26 15q4 30 149 41l327 -6v5q-42 192 -54 616q-33 1108 41 2136l23 109q-37 15 -141 12q-91 -3 -321 -25l-16 25q-1 26 76.5 41
t233.5 20z" />
    <glyph glyph-name="asciicircum" unicode="^" horiz-adv-x="431" 
d="M205 2087h10q41 0 64 -90q7 -17 39 -156v-2q-6 -17 -23 -17h-10q-14 0 -41 111q-28 88 -37 90q-28 -46 -76 -187q-17 -14 -29 -14h-14q-18 0 -18 14q66 251 135 251z" />
    <glyph glyph-name="underscore" unicode="_" horiz-adv-x="957" 
d="M74 280q53 -3 77 -3h133q632 0 632 -21l4 -12q-15 -27 -46 -27q-149 8 -821 12q-28 7 -28 15v3q0 24 49 33z" />
    <glyph glyph-name="grave" unicode="`" horiz-adv-x="452" 
d="M134 2041q22 21 36 13v-1q70 -128 118 -182l19 -21q17 -18 -3 -45l-4 -4q-19 -16 -47 15q-49 51 -60 63q-52 58 -84 116q2 26 25 46z" />
    <glyph glyph-name="a" unicode="a" horiz-adv-x="513" 
d="M279 735h15q2 0 10 -11v-2q-27 -213 -27 -290q5 -147 40 -147h9q33 36 68 107q99 188 102 188q20 17 28 12q14 -2 14 -11l-1 -10q-1 -3 -35 -62q-66 -140 -147 -245q-19 -15 -40 -15h-15q-57 0 -75 98q-4 25 -4 62v23q0 54 11 156v2h-2q-142 -273 -224 -273q-36 0 -56 47
q-6 16 -6 43v21q0 111 68 215q52 64 109 64q46 0 96 -40q36 68 62 68zM19 417q0 -49 20 -49q30 0 106 154l51 106h-15q-8 0 -36 17h-10q-55 0 -104 -151q-12 -45 -12 -77z" />
    <glyph glyph-name="b" unicode="b" horiz-adv-x="742" 
d="M141 1452h8q19 -1 19 -19v-8q0 -7 -32 -114q-73 -356 -73 -665v-17q0 -110 15 -170q204 336 340 336q87 0 125 -101q10 -41 10 -84q0 -17 -4 -58h2q164 51 194 51h8q3 0 11 -11v-6q0 -13 -112 -37q-86 -25 -109 -38q-1 -48 -74 -222q-119 -219 -236 -219h-17
q-63 0 -93 75q-4 20 -4 35q0 116 198 258q76 49 146 79q6 37 6 69v17q0 2 3 2l-3 5v6q0 99 -66 129l-15 2q-81 0 -278 -320q-26 -39 -51 -39q-69 0 -69 226v52q0 311 73 670q19 81 54 108q21 8 24 8zM168 184v-13q0 -45 43 -54h7q81 0 176 185q33 70 60 172h-2
q-104 -45 -206 -144q-78 -89 -78 -146z" />
    <glyph glyph-name="c" unicode="c" horiz-adv-x="384" 
d="M124 722h13q40 0 56 -58q-13 -27 -50 -27q-21 0 -35 27h-5q-48 -29 -77 -252q-2 -24 -2 -28q0 -100 42 -100q87 0 299 299q16 12 23 9q12 1 16 -9l2 -16q-91 -117 -182 -222q-101 -104 -171 -104h-14q-73 0 -94 110v50q0 102 75 246q51 75 104 75z" />
    <glyph glyph-name="d" unicode="d" horiz-adv-x="700" 
d="M535 1608h9q3 0 11 -11v-14q0 -21 -70 -581q-38 -342 -38 -536q12 -408 72 -573q12 -29 -15 -38l-21 23q-60 193 -74 462q-4 47 -4 149v24q0 254 62 729v5h-2q-170 -607 -336 -904q-47 -86 -117 -86h-4q-50 0 -68 81q-2 26 -2 34v31q0 138 87 294q71 101 158 101
q27 0 78 -20h2q67 214 227 765q26 65 45 65zM470 1256h-3v-7h3v7zM15 354q0 -40 19 -40q60 43 209 408v2l-4 -2h-26l-39 11q-66 0 -126 -177q-33 -130 -33 -202z" />
    <glyph glyph-name="e" unicode="e" horiz-adv-x="415" 
d="M137 732h20q41 0 58 -75q0 -95 -188 -163q-8 -39 -13 -90q0 -98 62 -98q94 0 320 289q14 9 29 9q23 -8 23 -12v-3q0 -24 -155 -194q-142 -134 -230 -134h-13q-72 0 -100 75q-10 23 -10 50v27q0 126 110 271q51 48 87 48zM50 556q3 0 3 -3q81 43 81 87v12q0 6 -6 26
q-52 -54 -78 -122z" />
    <glyph glyph-name="f" unicode="f" horiz-adv-x="402" 
d="M202 1199l13 1q13 1 22 -8t13 -27q2 -29 -45 -38q-120 -94 -168 -688q-5 -67 -1 -172q172 95 309 246q47 77 60 78h7q12 -4 14 -9q-17 -71 -166 -198q-203 -150 -226 -150l1 -40q1 -25 8 -122q115 -72 174 -239q2 -9 4 -30l1 -16q2 -47 -80 -86l-27 -1q-52 -2 -86.5 91.5
t-51.5 281.5q-83 50 -161 47l-33 -1q-7 0 -7 6q2 15 94 50q98 50 98 60q-16 460 113 821q73 141 121 143zM-125 149v-4q26 1 97 -29l-3 79q-88 -46 -94 -46zM48 19q27 -221 65 -259q2 -11 21 -23h6q34 1 31 71q-3 97 -123 211z" />
    <glyph glyph-name="g" unicode="g" horiz-adv-x="602" 
d="M337 719h8q37 0 54 -95q7 -49 7 -155q123 91 174 117q17 9 35 5q7 -7 2 -20l-6 -5q-15 -5 -44 -21q-112 -78 -163 -119q0 -272 -81 -600q-42 -140 -90 -213q-88 -127 -189 -127h-10q-98 0 -149 125q-12 47 -12 79v29q0 165 171 401q125 158 282 284q5 140 5 205v10
q0 54 -18 54q-21 0 -80 -93q-84 -133 -138 -211q-76 -93 -115 -93h-12q-41 0 -51 73v16q0 110 81 239q69 83 132 83h7q46 0 95 -41q66 73 105 73zM-15 343q1 -18 8 -18q28 9 77 79q59 86 124 188v4q-10 0 -42 21q-10 6 -19 6h-3q-71 0 -124 -153q-21 -74 -21 -127zM-83 -291
q0 -131 79 -176q18 -7 34 -7h2q100 0 186 213q38 102 73 291q34 234 34 330q-110 -88 -224 -225q-184 -239 -184 -426z" />
    <glyph glyph-name="h" unicode="h" horiz-adv-x="669" 
d="M188 1648l10 -1q23 -2 26 -35q-52 -120 -53 -166q-81 -357 -114 -904l-5 -92q-13 -207 -6 -313h2q236 653 342 647h3q58 -4 43 -262q-13 -238 54 -296q11 -2 22 -17v-7q-9 -15 -34 -14q-39 3 -77 87q-31 76 -12 409l-7 44h-8q-37 -25 -152 -301q-107 -262 -146 -387
q-26 -29 -45 -28l-10 1q-68 5 -59 352l10 164q27 463 127 963q38 159 89 156z" />
    <glyph glyph-name="i" unicode="i" horiz-adv-x="252" 
d="M32 688l17 1q4 0 21 -20v-7q-25 -218 -23 -291l1 -68q2 -38 -32 -44l-7 -1q-22 0 -26 84l-2 78q-5 173 21 251q14 17 30 17zM41 892q64 -16 64 -50v-5q-5 -47 -38 -47q-43 0 -62 51l1 27q17 24 35 24z" />
    <glyph glyph-name="j" unicode="j" horiz-adv-x="335" 
d="M22 705h8q30 0 30 -83q12 -117 12 -205v-2q1 -2 1.5 -5.5t0.5 -7.5q236 187 255 187l1 1q2 0 4.5 0.5t5.5 0.5q12 0 20 -12v-1q0 -15 -58 -49q-96 -67 -228 -177v-25q0 -670 -263 -823q-36 -17 -61 -17h-16q-71 0 -106 98q-11 42 -11 85q0 288 364 649q20 14 20 19
q0 117 -16 328q7 39 37 39zM-331 -339q0 -96 48 -126q13 -6 25 -6q79 0 164 174q95 228 95 577q-332 -329 -332 -619zM-19 912q64 -16 64 -50v-5q-5 -47 -38 -47q-43 0 -62 51l1 27q17 24 35 24z" />
    <glyph glyph-name="k" unicode="k" horiz-adv-x="539" 
d="M98 1463h13q5 0 20 -21q-78 -634 -78 -821q278 253 319 253h16q17 -8 17 -20q0 -9 -120 -96q-193 -172 -237 -220v-58q128 0 452 92q0 7 42 16h8q6 0 12 -12v-4q0 -27 -248 -83q-89 -24 -266 -46v-99q0 -98 13 -212q0 -21 -21 -33h-16q-34 22 -34 290v50q-20 -4 -33 -4
q-33 7 -33 16v13q0 22 66 95q0 365 75 887q17 17 33 17z" />
    <glyph glyph-name="l" unicode="l" horiz-adv-x="530" 
d="M167 1512h16q24 -15 23 -37q-110 -330 -133 -1004q-15 -462 82 -559q15 -9 15 -13q40 1 193 390q131 296 167 319l20 3q16 -6 15 -12l-284 -611q-34 -63 -62.5 -94.5t-53.5 -30.5l-4 1q-139 4 -165 465q-4 109 0 240l4 112q56 836 167 831z" />
    <glyph glyph-name="m" unicode="m" horiz-adv-x="791" 
d="M251 776h8q30 0 43 -79q4 -29 4 -75v-133q0 -3 2 -37h1q102 196 162 196q54 0 54 -94q0 -67 -1 -117q0 -74 25 -74q47 0 240 225q11 12 30 12q8 0 14 -9v-7q-214 -250 -300 -250q-46 0 -54 65l-2 46q1 7 1 19q0 48 1 77q-2 71 -16 76h-3q-18 0 -89 -134q-47 -89 -57 -105
q-10 -9 -26 -9q-19 0 -22 30q-7 27 -7 158v30q0 133 -22 133v2q-32 0 -120 -319q-46 -141 -61 -154q-14 -10 -34 -10h-10q-30 17 -30 138v52q0 155 19 186q16 16 31 16q33 -5 33 -29q-7 -66 -7 -163v-12h1q91 289 157 336q19 13 35 13z" />
    <glyph glyph-name="n" unicode="n" horiz-adv-x="644" 
d="M22 731l29 7q30 -14 28 -46q-4 -14 -11 -53q-3 -14 -5 -75v-27q-2 -90 8 -136h2q77 129 131.5 193.5t87.5 63.5h4q47 -2 54 -77q9 -181 35 -196q4 -4 13 -4q55 -1 231 205q12 11 23 9h10q9 0 15 -9v-8q-199 -232 -294 -231h-2q-44 0 -64 56q-12 30 -21 181q-4 19 -12 19
q-18 1 -56 -54t-98 -166q-43 -84 -52 -85q-14 -9 -32 -8h-12q-37 2 -47 150q-2 38 0 64l1 44q1 132 8 140q5 35 26 43z" />
    <glyph glyph-name="o" unicode="o" horiz-adv-x="417" 
d="M124 681h13q61 -13 61 -36q11 -38 36 -38q32 -13 76 -13h20q31 0 103 9q8 -3 13 -12v-6q-16 -27 -134 -27q-39 0 -94 11l4 -65q0 -170 -118 -222q-16 -2 -21 -2h-17q-57 0 -92 96q-7 29 -7 56v34q0 114 94 190q46 25 63 25zM122 627q-70 -57 -70 -152v-23q0 -90 45 -118
l13 -2q47 0 56 141v42q0 88 -22 88q-19 24 -22 24z" />
    <glyph glyph-name="p" unicode="p" horiz-adv-x="666" 
d="M35 699h31q10 0 10 -15q-46 -300 -46 -521v-15h5q61 236 124 355q109 181 195 181q79 0 109 -140l5 -20q158 93 211 93q21 -7 21 -16v-5q-2 -14 -109 -46q-123 -64 -123 -93q0 -169 -108 -299q-37 -26 -67 -26q-84 -1 -88 67v21q0 81 201 263v31q-7 118 -57 118
q-75 0 -201 -324q-103 -316 -103 -670q6 -132 6 -150q-11 -30 -42 -30h-10q-36 0 -36 515v165q13 561 72 561zM262 210q2 -38 36 -36q65 0 108 247q-144 -127 -144 -211z" />
    <glyph glyph-name="q" unicode="q" horiz-adv-x="526" 
d="M231 704l11 1q10 1 15 -7t6 -25q4 -46 -16 -328q90 61 259 244q8 12 19 13l11 -1q11 -3 5 -17q4 -16 -171 -185l-128 -109q-7 -126 -10 -148q70 -25 109 -104q13 -25 20 -78q13 -183 -65 -287q-19 -15 -32 -15l-9 -1q-48 -3 -71 111q-9 53 -10 83q-7 85 -2 272
q-39 10 -90 7q-17 -1 -124 -20l-2 4q16 34 50 37q92 65 177 135q-1 5 22 313v2h-2q-135 -298 -216 -302l-13 -1q-34 -3 -44 54l-1 21q-6 83 53 210q50 86 115 90q35 2 77 -37q27 67 57 68zM-13 364q5 -28 12 -27h5q45 44 91 140q40 80 48 100q-28 43 -58 42q-54 -4 -91 -175
q-7 -24 -7 -80zM180 237l-96 -74l24 1q31 2 66 -4zM231 94q-7 -145 -1 -235l-1 -13q3 -7 3 -17l2 -20q6 -91 33 -94q37 19 45 159q2 7 1 57q-8 113 -82 163z" />
    <glyph glyph-name="r" unicode="r" horiz-adv-x="506" 
d="M236 717q80 0 166 -70v-6q-9 -20 -40 -20q-74 50 -120 50h-10q-142 0 -179 -409q-13 -27 -36 -27h-7q-30 0 -30 206v87q0 166 56 166h4q17 0 26 -17q-20 -49 -20 -136v-7h4q70 183 186 183z" />
    <glyph glyph-name="s" unicode="s" horiz-adv-x="493" 
d="M171 786h21q53 -14 53 -43v-5q-14 -29 -48 -29h-5q-13 0 -32 16q-47 0 -98 -86q-11 -33 -11 -58q0 -92 141 -179q126 120 296 214l15 2q10 0 16 -25l-4 -8q-16 -5 -53 -24q-166 -101 -233 -180q62 -54 62 -142v-8q0 -93 -104 -221q-59 -56 -108 -56h-19q-64 0 -76 67v8
q0 113 159 317q-173 104 -173 219v18q0 94 116 174q49 29 85 29zM37 42v-8q0 -43 42 -43q76 0 150 176q9 39 9 59v8q0 64 -48 93h-5q-148 -185 -148 -285z" />
    <glyph glyph-name="t" unicode="t" horiz-adv-x="527" 
d="M170 1239l152 6q439 13 441 -5v-10q-4 -12 -28 -22q-92 4 -260 -2l-29 -2q-177 -7 -308 -16q-52 -296 -65 -727q-15 -462 82 -559q15 -9 15 -13q40 1 193 390q131 296 167 319l20 3q16 -6 15 -12l-284 -611q-34 -63 -62.5 -94.5t-53.5 -30.5l-4 1q-139 4 -165 465
q-4 109 0 240l4 112q21 309 50 510q-311 -26 -541 -70h-4q-18 -1 -29 16l-1 14q-2 57 583 91q23 136 50 203.5t59 66.5h16q24 -15 23 -37q-34 -103 -59 -228q4 1 11.5 1.5t11.5 0.5z" />
    <glyph glyph-name="u" unicode="u" horiz-adv-x="545" 
d="M63 751h25q18 -9 18 -20q-50 -101 -46 -232v-14q9 -81 31 -88h4q48 1 144 260q31 67 69 69q5 0 18 -13q-23 -191 -20 -270l1 -43q2 -62 14.5 -92.5t35.5 -29.5q22 6 124 245q44 81 68 83l14 1q5 0 11 -11q0 -8 -47 -90q-109 -250 -141 -252q0 -8 -31 -12h-22
q-81 -3 -86 171q1 73 6 138v4l-4 -1q-94 -211 -174 -214q-38 -1 -61.5 28.5t-30.5 89.5l-2 60q20 232 82 233z" />
    <glyph glyph-name="v" unicode="v" horiz-adv-x="466" 
d="M6 760q30 -4 31 -34q7 -204 77 -426l8 -4h2q22 1 74 296q9 34 21.5 50t29.5 14q9 5 68 -45q59 -49 145 -11q17 5 20 -5v-7q-1 -24 -76 -35q-73 -10 -155 60q-51 -300 -96 -347q-21 -22 -36 -22l-12 -1q-35 -1 -63 49t-48.5 151.5t-33.5 255.5v24q-1 14 10 23.5t34 13.5z
" />
    <glyph glyph-name="w" unicode="w" horiz-adv-x="668" 
d="M40 735q31 -4 31 -26q-19 -60 -19 -151v-29q2 -154 36 -182q26 0 64 126q30 90 56 90h5q37 0 43 -62q30 -180 66 -203q51 0 61 373q11 26 29 26q13 0 64 -52q80 -68 149 -68l47 7h2q13 0 17 -10v-7q0 -20 -90 -26q-81 0 -168 69v-12q0 -350 -125 -350q-74 0 -112 161
q-2 18 -2 19h-5q-37 -126 -116 -126q-52 0 -78 74q-18 51 -18 139q7 213 42 213q0 6 21 7z" />
    <glyph glyph-name="x" unicode="x" horiz-adv-x="484" 
d="M260 787h7q31 -3 31 -28q-72 -169 -154 -298v-3q70 -111 130 -111h10q49 0 139 163q33 56 38 59q10 18 19 22l11 2q13 -7 15 -13l-10 -21q-72 -128 -129.5 -191.5t-111.5 -63.5q-70 0 -154 95q-78 -119 -153 -154l-12 -2q-12 5 -12 12q0 5 66 68q44 53 83 119
q-69 96 -111 236q-7 18 -7 33q12 24 38 24h14q25 0 35 -66q32 -79 69 -156h2l123 262q16 12 24 12z" />
    <glyph glyph-name="y" unicode="y" horiz-adv-x="625" 
d="M338 748h7q54 0 70 -112q18 -102 18 -168l3 -1q83 66 172 126q9 6 22 6q10 0 17 -10v-4q0 -10 -59 -48l-152 -116v-45q0 -13 2 -21q-2 -14 -2 -24v-6q0 -302 -81 -545q-36 -104 -103 -180q-70 -70 -146 -70h-7q-100 0 -148 109q-15 42 -15 80v21q0 186 204 443
q83 100 223 225q-8 260 -24 260q0 2 -7 3q-20 0 -84 -168q-84 -198 -173 -198q-54 0 -79 69q-19 50 -19 132q0 126 46 217q17 18 34 18q29 -5 29 -23v-5q-12 -37 -24 -77q-12 -60 -12 -123q0 -117 41 -158l1 -1q1 0 3 -0.5t4 -0.5q27 0 91 136q54 135 92 210q33 49 56 49z
M-12 -258v-6q4 -136 77 -160q9 -4 31 -4q100 0 169 149q100 246 100 636q-110 -101 -154 -154q-223 -262 -223 -461z" />
    <glyph glyph-name="z" unicode="z" horiz-adv-x="580" 
d="M290 744h27q86 -5 86 -33v-3q0 -20 -86 -109q-141 -167 -183 -265l-15 -34h1q142 84 216 84h18q27 0 46 -17v-3q-3 -20 -36 -21q-24 8 -33 8h-2q-69 0 -229 -106l-11 -3h-6q-20 5 -20 19v9q12 82 179 331q22 32 70 90l-15 2q-113 0 -217 -36q-13 -10 -34 -10
q-20 0 -30 16v8q0 40 220 70q20 3 54 3z" />
    <glyph glyph-name="braceleft" unicode="{" horiz-adv-x="751" 
d="M478 2120q16 0 37 -25v-6q0 -44 -97 -44q-62 -27 -87 -103q-47 -133 -47 -319q-6 0 -7 -382v-106q0 -511 -162 -638q141 -77 141 -472q-7 -202 -7 -413v-22q0 -261 97 -325q28 -16 47 -16h47q24 0 28 -13v-12q-12 -22 -53 -22h-34q-123 0 -172 147q-32 107 -32 235v28
q0 143 7 419q0 337 -100 410q-57 13 -57 47q0 18 78 90q76 122 76 466v394q0 493 121 604q66 78 176 78z" />
    <glyph glyph-name="bar" unicode="|" horiz-adv-x="334" 
d="M187 2125h7q19 0 27 -29v-3q-70 -1488 -70 -2127v-53q0 -31 -1 -44q1 -8 1 -40v-9q0 -329 22 -586q-7 -48 -26 -48h-6q-18 0 -21 103q-23 322 -23 822v128q0 735 46 1842q17 44 44 44z" />
    <glyph glyph-name="braceright" unicode="}" horiz-adv-x="703" 
d="M284 2136q241 0 284 -319q10 -64 13 -188q-28 -589 -28 -654v-62q0 -300 115 -385q7 0 13 -22q0 -28 -66 -50q-100 -82 -100 -381v-16q0 -142 6 -410q0 -360 -128 -425q-44 -22 -78 -22h-53q-35 0 -35 22q10 25 41 25h44q104 0 128 225q10 70 10 160q-7 281 -7 409
q0 348 157 454q-141 147 -141 550q22 506 22 588q0 356 -141 416q-43 13 -100 19l-9 13v15q29 38 53 38z" />
    <glyph glyph-name="asciitilde" unicode="~" horiz-adv-x="605" 
d="M210 631h7q50 0 157 -74l2 -1q2 0 5.5 -0.5t7.5 -0.5q16 0 40 57q20 19 36 19h7q21 0 29 -14v-7q-41 -108 -110 -108h-7q-51 0 -148 67q-16 10 -24 10q-14 -1 -40 -62q-23 -15 -41 -15q-29 0 -29 22q39 107 108 107z" />
    <glyph glyph-name="exclamdown" unicode="&#xa1;" horiz-adv-x="334" 
d="M124 -91h-7q-20 0 -27 16v1q70 798 70 1141v28q0 17 1 24q-1 4 -1 22v4q0 175 -21 314q6 26 26 26h5q18 0 22 -55q22 -166 22 -441v-69q0 -393 -46 -987q-16 -24 -44 -24zM162 1605q-63 11 -64 51v4q5 47 39 47q50 8 61 -51l-1 -27q-17 -24 -35 -24z" />
    <glyph glyph-name="cent" unicode="&#xa2;" horiz-adv-x="598" 
d="M503 1034h28q8 0 17 -16v-6q-7 -27 -340 -636h39q100 0 178 162q20 16 39 16q23 -8 23 -16q-87 -207 -252 -207h-50q-91 -151 -128 -151h-11q-11 0 -11 12v16q83 122 83 151q-78 53 -78 167v6q0 234 201 385q39 17 61 17h17q41 0 78 -39q61 139 106 139zM113 515
q0 -63 39 -106h5q106 211 179 369q-14 0 -28 83q-6 0 -6 11h-11q-101 -56 -167 -256q-11 -58 -11 -101z" />
    <glyph glyph-name="sterling" unicode="&#xa3;" horiz-adv-x="1014" 
d="M491 1609h39q228 0 290 -396q8 -96 12 -106q0 -31 -62 -39q-39 0 -39 72q0 234 -134 368q-55 39 -106 39q-188 0 -318 -295q-39 -94 -39 -201v-17q0 -103 112 -536v-11l39 6h161q26 0 79 5q39 -10 39 -22v-11q0 -28 -84 -34h-218l-11 -5l6 -11v-67q0 -244 -162 -503
q517 123 737 123h16q8 0 17 -17q-13 -28 -45 -28h-5q-232 0 -793 -145q-22 9 -22 17q0 9 89 167q95 193 95 358v22q0 22 -5 84l-12 -6q-115 -5 -150 -5q-11 14 -11 16v11q0 31 161 45q-128 435 -128 474q-6 29 -6 73v6q0 323 319 530q88 39 139 39z" />
    <glyph glyph-name="currency" unicode="&#xa4;" horiz-adv-x="654" 
d="M523 791q35 0 46 -23q0 -26 -96 -110q9 -19 9 -64q0 -82 -37 -152q101 -86 101 -114q-25 -23 -46 -23q-22 0 -92 78q-59 -65 -124 -65q-16 0 -64 23q-70 -87 -92 -87q-46 13 -46 28v9q4 16 97 101q-29 49 -32 124q0 50 23 133q-20 14 -101 105v5q18 28 46 28
q20 0 100 -83q55 12 69 27q41 10 69 10h19q26 0 64 -23q61 73 87 73zM225 539q19 -175 82 -175q84 0 120 221v4q-13 115 -74 115h-9q-47 0 -60 -37q-44 0 -55 -78q0 -27 -4 -50z" />
    <glyph glyph-name="yen" unicode="&#xa5;" horiz-adv-x="1050" 
d="M118 1565l38 11h21q7 0 21 -21q-64 -246 -64 -446v-111q15 -395 170 -461h42q137 0 371 604q55 112 96 112h10q69 0 69 -250v-16q0 -174 -37 -482h16q41 0 96 5q42 -6 42 -21v-10q0 -32 -106 -32h-48q-11 0 -21 -96h106l32 6q37 -10 37 -22v-10q0 -27 -80 -32h-100
q-58 -404 -74 -461q-14 -11 -16 -11h-11q-13 0 -16 22q0 18 53 450q-215 -16 -275 -16q-11 14 -11 16v11q0 38 291 47q11 74 11 96l-281 -16q-21 7 -21 16v10q0 41 297 48q10 0 10 5q16 134 22 371q-6 181 -16 276h-6q-256 -678 -461 -678h-26q-155 0 -223 254
q-32 133 -32 276v74q0 260 74 482z" />
    <glyph glyph-name="brokenbar" unicode="&#xa6;" horiz-adv-x="308" 
d="M187 2125h7q20 0 27 -12v-1q-70 -608 -70 -869v-21q0 -13 -1 -18q1 -3 1 -17v-3q0 -135 22 -239q-8 -20 -26 -20h-6q-18 0 -21 42q-23 132 -23 336v52q0 299 46 752q17 18 44 18zM187 390h7q20 0 27 -12v-1q-70 -609 -70 -872v-21q0 -13 -1 -18q1 -3 1 -17v-3
q0 -136 22 -240q-8 -20 -26 -20h-6q-18 0 -21 42q-23 132 -23 337v53q0 300 46 754q17 18 44 18z" />
    <glyph glyph-name="section" unicode="&#xa7;" horiz-adv-x="791" 
d="M527 1504h13q109 0 146 -130q9 -59 9 -89v-22q0 -115 -22 -115q-19 -9 -35 -9h-9q-27 6 -27 20q7 55 7 100v28q0 100 -44 144q-23 18 -49 18h-2q-88 0 -234 -155q-104 -122 -104 -212q0 -52 55 -71q24 -6 221 -17q64 -10 108 -31q82 -48 82 -164q0 -111 -119 -242
q-131 -128 -250 -128l-33 4q0 -21 53 -62q91 -35 170 -35q139 -18 164 -49q42 -30 42 -84v-24q0 -75 -82 -185q-146 -173 -281 -173q-59 0 -97 53v7q14 20 33 20h9q12 0 38 -29q13 -9 33 -9h4q90 0 219 157q62 98 62 157v9q0 66 -71 90q-44 15 -243 33q-148 25 -148 139
q0 159 210 345q111 84 174 84l3 4q-19 31 -78 49q-44 11 -247 22q-117 27 -117 115v19q0 104 157 270q160 148 280 148zM236 495q21 -25 51 -25h4q89 0 201 148q60 86 66 148v18q-6 40 -37 40q-77 -14 -197 -155q-82 -109 -88 -174z" />
    <glyph glyph-name="dieresis" unicode="&#xa8;" horiz-adv-x="487" 
d="M115 2007q62 -9 64 -50v-5q-5 -47 -38 -47q-51 -8 -62 51l1 27q17 24 35 24zM345 2007q62 -9 64 -50v-5q-5 -47 -38 -47q-51 -8 -62 51l1 27q17 24 35 24z" />
    <glyph glyph-name="copyright" unicode="&#xa9;" horiz-adv-x="1516" 
d="M830 1549h27q230 0 410 -221q126 -186 126 -466q0 -373 -210 -718q-259 -360 -567 -360q-268 0 -420 303q-88 204 -88 477v4q0 656 448 908q140 73 274 73zM194 575q0 -426 208 -638q115 -97 238 -97h22q172 0 354 174q141 147 220 353q93 251 93 482v26q0 298 -161 479
q-145 151 -327 151q-262 0 -475 -279q-172 -247 -172 -651zM806 1081h9q77 0 108 -84q11 -36 11 -64v-25q-10 -33 -53 -33q-33 5 -33 25v13q0 99 -58 112q-52 0 -143 -114q-146 -230 -146 -413q0 -169 130 -223q25 -11 58 -11h13q134 0 243 172q34 79 44 82q21 8 29 8h17
q15 0 25 -15v-7q-72 -185 -223 -258q-80 -40 -166 -40q-136 0 -219 122q-37 68 -37 154v11q0 189 150 424q122 164 241 164z" />
    <glyph glyph-name="ordfeminine" unicode="&#xaa;" horiz-adv-x="501" 
d="M279 2005h15q2 0 10 -11v-2q-27 -213 -27 -290q5 -147 40 -147h9q33 36 68 107q99 188 102 188q20 17 28 12q14 -2 14 -11l-1 -10q-1 -3 -35 -62q-66 -140 -147 -245q-19 -15 -40 -15h-15q-57 0 -75 98q-4 25 -4 62v23q0 54 11 156v2h-2q-143 -273 -224 -273
q-36 0 -56 47q-6 17 -6 43v21q0 111 68 215q52 64 109 64q46 0 96 -40q36 68 62 68zM19 1687q0 -49 20 -49q30 0 106 154l51 106h-15q-8 0 -36 17h-10q-55 0 -104 -151q-12 -45 -12 -77z" />
    <glyph glyph-name="guillemotleft" unicode="&#xab;" horiz-adv-x="543" 
d="M457 890l25 14q14 0 22 -14v-2q0 -18 -50 -83q-105 -171 -149 -249q93 -133 191 -264q0 -6 2 -12q0 -18 -24 -22q-16 0 -138 144q-108 128 -108 157q26 68 229 331zM256 896q22 -7 22 -25q0 -13 -67 -110l-124 -210q140 -212 174 -259q8 -21 8 -23q-5 -24 -24 -24
q-24 3 -114 124q-121 157 -121 182q40 95 201 315q23 30 45 30z" />
    <glyph glyph-name="logicalnot" unicode="&#xac;" horiz-adv-x="791" 
d="M631 720h3q29 0 43 -26v-9q-6 -115 -6 -128v-13q0 -48 3 -128q-12 -15 -49 -23q-28 0 -28 39l-6 105q9 102 9 135h-3q-139 -13 -229 -13h-80q-209 0 -209 19v10q0 14 40 26q137 -7 217 -7h40q66 0 255 13z" />
    <glyph glyph-name="registered" unicode="&#xae;" horiz-adv-x="1558" 
d="M841 1561h28q257 0 435 -232q117 -181 117 -435v-26q0 -276 -121 -548q-48 -100 -146 -232q-128 -140 -176 -167q-176 -126 -327 -126h-18q-287 0 -450 373q-82 200 -82 448q0 650 492 890q137 55 248 55zM869 1515l-4 -2h-13q-203 0 -400 -173q-263 -245 -263 -697v-31
q0 -408 230 -658q87 -75 150 -91q47 -15 106 -15q198 0 409 232q101 127 152 234q124 273 124 558q0 447 -312 603q-94 38 -168 38h-8q-3 0 -3 2zM892 1186q175 0 238 -186q11 -42 11 -79v-13q0 -163 -181 -296q-131 -75 -188 -75q97 -97 199 -159q58 -40 115 -71l2 -11v-2
q-9 -31 -51 -31h-4q-39 0 -256 163q-63 50 -108 106v-2q0 -36 -3 -86q3 -120 9 -219q0 -22 -55 -31q-33 0 -33 42q-7 109 -7 188q0 237 53 479q22 25 53 25t31 -25q-44 -242 -46 -333q11 13 90 20q77 6 177 81q117 103 117 237q0 100 -77 185q-53 38 -111 38
q-130 0 -256 -153q-46 -59 -79 -139q-28 -71 -51 -183q-17 -24 -51 -24h-4q-29 5 -29 17q13 148 117 316q161 221 378 221z" />
    <glyph glyph-name="overscore" unicode="&#xaf;" horiz-adv-x="1024" 
d="M116 1998q52 -3 77 -3h133q632 0 632 -21l4 -12q-15 -27 -46 -27q-149 8 -821 12q-28 7 -28 15v3q0 24 49 33z" />
    <glyph glyph-name="degree" unicode="&#xb0;" horiz-adv-x="470" 
d="M266 2086q45 9 71 -21q6 -7 15 -30q17 -65 -36 -179q-50 -84 -111 -96l-7 -2q-57 -11 -79 46l-1 5q-16 61 48 185q-22 -4 -28 17l-2 8q6 13 22 17l16 1q34 37 92 49zM241 2053l4 -4l1 -3q2 -8 -27 -57q-56 -110 -42 -163q10 -37 40 -31q46 9 85 127q16 68 6 102
q-15 41 -44 35h-2q-2 -1 -21 -6z" />
    <glyph glyph-name="plusminus" unicode="&#xb1;" horiz-adv-x="1014" 
d="M537 1097h11q13 0 21 -14q-10 -284 -10 -350h122q219 0 219 -24v-11q0 -12 -40 -22q-58 14 -304 14v-3q-6 -195 -6 -331q0 -21 -38 -27h-16q-16 7 -16 22l5 339q-67 -3 -108 -3h-163q-114 0 -114 17v10q4 11 33 22q40 -3 59 -3h296l11 337q11 27 38 27zM192 207
q40 -3 60 -3h103q491 0 491 -19l3 -11q-12 -24 -35 -24q-124 8 -638 11q-22 7 -22 13v3q0 22 38 30z" />
    <glyph glyph-name="uni00B2" unicode="&#xb2;" horiz-adv-x="419" 
d="M255 2082q120 -14 120 -112v-4q0 -107 -233 -421v-4h4q41 11 131 19q57 0 71 -41q-9 -23 -33 -23h-19l-23 19h-34q-22 0 -180 -34h-4q-15 7 -15 19q252 329 267 440v33q-11 68 -75 68q-94 -19 -94 -94v-56q-7 -19 -38 -19h-11q-16 0 -19 56q0 101 124 147q15 7 61 7z" />
    <glyph glyph-name="uni00B3" unicode="&#xb3;" horiz-adv-x="496" 
d="M255 2077q120 -17 120 -101q0 -60 -98 -166q64 0 102 -101q7 -24 7 -45v-8q0 -131 -161 -176l-34 -4q-86 0 -124 83v7q18 19 41 19q18 0 53 -53q20 -11 37 -11h15q70 0 106 98q3 19 3 34q0 102 -86 120h-8l-45 -4l-7 11q131 123 131 184v15q0 38 -56 53h-19
q-38 0 -67 -53q-13 -7 -23 -7h-7q-20 0 -23 11v4q0 70 143 90z" />
    <glyph glyph-name="acute" unicode="&#xb4;" horiz-adv-x="452" 
d="M289 2041q24 -20 26 -46q-31 -55 -85 -116q-10 -12 -60 -63q-28 -31 -47 -15l-4 4q-19 27 -3 45l19 21q48 54 118 182v1q14 8 36 -13z" />
    <glyph glyph-name="mu" unicode="&#xb5;" horiz-adv-x="506" 
d="M92 1208q19 -7 21 -16q-8 -331 -8 -420q25 -115 85 -173q24 -13 45 -19q109 0 153 345q8 103 36 93q29 -11 23 -58q4 -156 4 -263q0 -53 -4 -216q-17 -15 -34 -15h-17q-10 0 -17 28q5 80 5 121v78h-5q-55 -136 -134 -136h-27q-64 0 -109 85h-4v-345q0 -11 -38 -19
q-30 0 -30 27v318q0 243 8 557q12 28 47 28z" />
    <glyph glyph-name="paragraph" unicode="&#xb6;" horiz-adv-x="640" 
d="M417 1102q83 0 153 -22l3 -5v-794q-3 -23 -32 -23h-6q-13 0 -18 8v794q-25 7 -86 13q4 -539 4 -705q-2 -84 -2 -105q-13 -13 -34 -13h-7q-11 0 -15 10q0 4 2 154q-2 284 -2 290h-30q-242 0 -309 100q-15 26 -15 44v19q0 73 121 160q130 75 273 75z" />
    <glyph glyph-name="middot" unicode="&#xb7;" horiz-adv-x="231" 
d="M97 676q62 -9 64 -50v-5q-5 -47 -38 -47q-51 -8 -62 51l1 27q17 24 35 24z" />
    <glyph glyph-name="middot" unicode="&#x2219;" horiz-adv-x="231" 
d="M97 676q62 -9 64 -50v-5q-5 -47 -38 -47q-51 -8 -62 51l1 27q17 24 35 24z" />
    <glyph glyph-name="cedilla" unicode="&#xb8;" horiz-adv-x="493" 
d="M280 355h6q30 -2 28 -19l-1 -16q-4 -73 24 -91q93 -27 91 -62l-1 -14q-1 -34 -85 -75q-59 -22 -108 -19l-22 1q-92 5 -112 91q-3 15 -2 27l1 16q11 17 32 15q14 0 13 -37q-1 -31 39 -67q27 -11 54 -13q102 1 105 43v6q2 35 -64 48q-45 29 -44 54q-10 20 -7 84
q13 31 53 28z" />
    <glyph glyph-name="uni00B9" unicode="&#xb9;" horiz-adv-x="338" 
d="M226 2085q31 -9 31 -46q-53 -401 -53 -543q-20 -19 -46 -19q-17 8 -19 16v11q0 163 46 463v4h-4q-14 -57 -46 -57h-19q-5 0 -11 11q46 160 121 160z" />
    <glyph glyph-name="ordmasculine" unicode="&#xba;" horiz-adv-x="453" 
d="M223 2082h7q6 0 16 -10q89 0 124 -104q12 -40 12 -86v-28q0 -154 -83 -303q-51 -72 -96 -72h-10q-63 0 -107 92q-19 61 -19 124v28q0 139 60 273q-25 6 -25 14v6q0 10 71 42q22 24 50 24zM128 1715q0 -127 60 -167q4 -4 24 -9q44 0 93 169q19 76 19 140q0 121 -62 151
q-13 4 -23 4h-2q-41 0 -49 -18q-60 -126 -60 -270z" />
    <glyph glyph-name="guillemotright" unicode="&#xbb;" horiz-adv-x="543" 
d="M32 904l25 -14q203 -263 229 -331q0 -29 -108 -157q-122 -144 -138 -144q-24 4 -24 22q2 6 2 12q98 131 191 264q-44 78 -149 249q-50 65 -50 83v2q8 14 22 14zM258 896q22 0 45 -30q161 -220 201 -315q0 -25 -121 -182q-90 -121 -114 -124q-19 0 -24 24q0 2 8 23
q34 47 174 259l-124 210q-67 97 -67 110q0 18 22 25z" />
    <glyph glyph-name="onequarter" unicode="&#xbc;" horiz-adv-x="1058" 
d="M951 1500h15q27 -4 27 -25q-93 -217 -315 -597q-406 -664 -543 -992q-22 -52 -62 -164q-21 -27 -34 -27h-10q-9 0 -13 22q0 25 57 174q101 246 397 768q307 520 437 819q19 22 44 22zM862 365l19 4h19q11 0 11 -15q-30 -236 -30 -341q20 0 30 -19q-11 -26 -41 -26
q-8 -118 -8 -172v-15q-9 -19 -30 -19h-11q-19 0 -22 11v30q0 63 7 176q4 0 4 4h-53q-41 0 -153 -11q-15 4 -23 19q114 185 165 348q15 15 41 15q19 -6 19 -19q0 -45 -139 -314h4l116 7q13 -4 27 -4q24 341 48 341zM235 1426q31 -9 31 -46q-53 -401 -53 -543q-20 -19 -46 -19
q-17 8 -19 16v11q0 163 46 463v4h-4q-14 -57 -46 -57h-19q-5 0 -11 11q46 160 121 160z" />
    <glyph glyph-name="onehalf" unicode="&#xbd;" horiz-adv-x="1058" 
d="M951 1500h15q27 -4 27 -25q-93 -217 -315 -597q-406 -664 -543 -992q-22 -52 -62 -164q-21 -27 -34 -27h-10q-9 0 -13 22q0 25 57 174q101 246 397 768q307 520 437 819q19 22 44 22zM235 1426q31 -9 31 -46q-53 -401 -53 -543q-20 -19 -46 -19q-17 8 -19 16v11
q0 163 46 463v4h-4q-14 -57 -46 -57h-19q-5 0 -11 11q46 160 121 160zM815 392q120 -13 120 -112v-4q0 -107 -233 -421v-4h4q41 11 131 19q57 0 71 -41q-9 -23 -33 -23h-19l-23 19h-34q-22 0 -180 -34h-4q-15 7 -15 19q252 329 267 440v33q-11 68 -75 68q-94 -19 -94 -94
v-56q-7 -19 -38 -19h-11q-16 0 -19 56q0 101 124 147q15 7 61 7z" />
    <glyph glyph-name="threequarters" unicode="&#xbe;" horiz-adv-x="1058" 
d="M971 1500h15q27 -4 27 -25q-93 -217 -315 -597q-406 -664 -543 -992q-22 -52 -62 -164q-21 -27 -34 -27h-10q-9 0 -13 22q0 25 57 174q101 246 397 768q307 520 437 819q19 22 44 22zM862 365l19 4h19q11 0 11 -15q-30 -236 -30 -341q20 0 30 -19q-11 -26 -41 -26
q-8 -118 -8 -172v-15q-9 -19 -30 -19h-11q-19 0 -22 11v30q0 63 7 176q4 0 4 4h-53q-41 0 -153 -11q-15 4 -23 19q114 185 165 348q15 15 41 15q19 -6 19 -19q0 -45 -139 -314h4l116 7q13 -4 27 -4q24 341 48 341zM234 1437q120 -17 120 -101q0 -60 -98 -166q64 0 102 -101
q7 -24 7 -45v-8q0 -131 -161 -176l-34 -4q-86 0 -124 83v7q18 19 41 19q18 0 53 -53q20 -11 37 -11h15q70 0 106 98q3 19 3 34q0 102 -86 120h-8l-45 -4l-7 11q131 123 131 184v15q0 38 -56 53h-19q-38 0 -67 -53q-13 -7 -23 -7h-7q-20 0 -23 11v4q0 70 143 90z" />
    <glyph glyph-name="questiondown" unicode="&#xbf;" horiz-adv-x="1009" 
d="M442 -102h-33q-179 0 -297 135q-52 76 -52 168q0 210 256 653q155 290 200 426q26 75 40 187q17 17 39 17q21 -4 21 -15q0 -156 -203 -548q-229 -443 -252 -594q-13 -42 -13 -112q0 -191 206 -250q33 -10 76 -10q2 0 2 -2l4 2h23q183 0 328 143q77 98 77 222
q0 116 -84 275v15q0 24 40 34q48 0 95 -135q35 -90 35 -174v-21q0 -199 -208 -332q-153 -84 -300 -84zM599 1614q-63 11 -64 51v4q5 47 39 47q50 8 61 -51l-1 -27q-16 -24 -35 -24z" />
    <glyph glyph-name="Agrave" unicode="&#xc0;" 
d="M1050 2189h8q169 0 272 -1762h222q30 0 31 -12v-11q0 -21 -58 -24q-70 0 -179 4q-7 -4 -12 -4q45 -664 82 -999q-10 -24 -35 -24q-31 0 -31 59q-32 329 -78 964q-256 0 -860 -39q-16 -32 -179 -669q-101 -437 -116 -463l-28 -19h-19q-35 6 -35 35q75 343 272 1105h-4
l-280 -20q-16 0 -23 16v4q0 50 159 50q158 14 172 20q487 1789 719 1789zM424 400q410 27 848 27v4q-122 1692 -226 1692q-93 -59 -280 -591q-172 -503 -342 -1132zM962 2535q22 21 36 13v-1q70 -128 118 -182l19 -21q17 -18 -3 -45l-4 -4q-19 -16 -47 15q-49 51 -60 63
q-52 58 -84 116q2 26 25 46z" />
    <glyph glyph-name="Aacute" unicode="&#xc1;" 
d="M1050 2189h8q169 0 272 -1762h222q30 0 31 -12v-11q0 -21 -58 -24q-70 0 -179 4q-7 -4 -12 -4q45 -664 82 -999q-10 -24 -35 -24q-31 0 -31 59q-32 329 -78 964q-256 0 -860 -39q-16 -32 -179 -669q-101 -437 -116 -463l-28 -19h-19q-35 6 -35 35q75 343 272 1105h-4
l-280 -20q-16 0 -23 16v4q0 50 159 50q158 14 172 20q487 1789 719 1789zM424 400q410 27 848 27v4q-122 1692 -226 1692q-93 -59 -280 -591q-172 -503 -342 -1132zM1137 2535q24 -20 26 -46q-31 -55 -85 -116q-10 -12 -60 -63q-28 -31 -47 -15l-4 4q-19 27 -3 45l19 21
q48 54 118 182v1q14 8 36 -13z" />
    <glyph glyph-name="Acircumflex" unicode="&#xc2;" 
d="M1050 2189h8q169 0 272 -1762h222q30 0 31 -12v-11q0 -21 -58 -24q-70 0 -179 4q-7 -4 -12 -4q45 -664 82 -999q-10 -24 -35 -24q-31 0 -31 59q-32 329 -78 964q-256 0 -860 -39q-16 -32 -179 -669q-101 -437 -116 -463l-28 -19h-19q-35 6 -35 35q75 343 272 1105h-4
l-280 -20q-16 0 -23 16v4q0 50 159 50q158 14 172 20q487 1789 719 1789zM424 400q410 27 848 27v4q-122 1692 -226 1692q-93 -59 -280 -591q-172 -503 -342 -1132zM1070 2543l11 -1q41 -2 59 -92q7 -18 33 -158v-2q-6 -18 -23 -16h-11q-14 2 -36 113q-25 89 -33 91
q-32 -48 -84 -183q-17 -14 -29 -13h-14q-19 2 -18 15q38 124 74.5 185.5t70.5 60.5z" />
    <glyph glyph-name="Atilde" unicode="&#xc3;" 
d="M1050 2189h8q169 0 272 -1762h222q30 0 31 -12v-11q0 -21 -58 -24q-70 0 -179 4q-7 -4 -12 -4q45 -664 82 -999q-10 -24 -35 -24q-31 0 -31 59q-32 329 -78 964q-256 0 -860 -39q-16 -32 -179 -669q-101 -437 -116 -463l-28 -19h-19q-35 6 -35 35q75 343 272 1105h-4
l-280 -20q-16 0 -23 16v4q0 50 159 50q158 14 172 20q487 1789 719 1789zM424 400q410 27 848 27v4q-122 1692 -226 1692q-93 -59 -280 -591q-172 -503 -342 -1132zM958 2495h7q50 0 157 -74l2 -1q2 0 5.5 -0.5t7.5 -0.5q16 0 40 57q20 19 36 19h7q21 0 29 -14v-7
q-41 -108 -110 -108h-7q-51 0 -148 67q-16 10 -24 10q-14 -1 -40 -62q-23 -15 -41 -15q-29 0 -29 22q39 107 108 107z" />
    <glyph glyph-name="Adieresis" unicode="&#xc4;" 
d="M1050 2189h8q169 0 272 -1762h222q30 0 31 -12v-11q0 -21 -58 -24q-70 0 -179 4q-7 -4 -12 -4q45 -664 82 -999q-10 -24 -35 -24q-31 0 -31 59q-32 329 -78 964q-256 0 -860 -39q-16 -32 -179 -669q-101 -437 -116 -463l-28 -19h-19q-35 6 -35 35q75 343 272 1105h-4
l-280 -20q-16 0 -23 16v4q0 50 159 50q158 14 172 20q487 1789 719 1789zM424 400q410 27 848 27v4q-122 1692 -226 1692q-93 -59 -280 -591q-172 -503 -342 -1132zM928 2444q63 -11 64 -55v-5q-4 -52 -38 -52q-52 -8 -62 56l1 30q17 26 35 26zM1158 2444q63 -11 64 -55v-5
q-4 -52 -38 -52q-52 -8 -62 56l1 30q17 26 35 26z" />
    <glyph glyph-name="Aring" unicode="&#xc5;" 
d="M1050 2189h8q169 0 272 -1762h222q30 0 31 -12v-11q0 -21 -58 -24q-70 0 -179 4q-7 -4 -12 -4q45 -664 82 -999q-10 -24 -35 -24q-31 0 -31 59q-32 329 -78 964q-256 0 -860 -39q-16 -32 -179 -669q-101 -437 -116 -463l-28 -19h-19q-35 6 -35 35q75 343 272 1105h-4
l-280 -20q-16 0 -23 16v4q0 50 159 50q158 14 172 20q487 1789 719 1789zM424 400q410 27 848 27v4q-122 1692 -226 1692q-93 -59 -280 -591q-172 -503 -342 -1132zM1066 2556h5q5 0 13 -5q68 0 94 -50q10 -19 10 -42v-14q0 -75 -64 -148q-38 -35 -73 -35h-8q-48 0 -81 45
q-15 31 -15 60v14q0 69 46 133q-19 3 -19 7v3q0 4 54 21q19 11 38 11zM1013 2382q0 -54 39 -70q10 -3 16 -4q28 0 61 71q13 32 13 59q0 50 -41 64q-6 1 -15 1h-1q-29 0 -33 -7q-39 -52 -39 -114z" />
    <glyph glyph-name="AE" unicode="&#xc6;" 
d="M1050 2189h8q169 0 272 -1762h222q30 0 31 -12v-11q0 -21 -58 -24q-70 0 -179 4q-7 -4 -12 -4q45 -664 82 -999q-10 -24 -35 -24q-31 0 -31 59q-32 329 -78 964q-256 0 -860 -39q-16 -32 -179 -669q-101 -437 -116 -463l-28 -19h-19q-35 6 -35 35q75 343 272 1105h-4
l-280 -20q-16 0 -23 16v4q0 50 159 50q158 14 172 20q487 1789 719 1789zM424 400q410 27 848 27v4q-122 1692 -226 1692q-93 -59 -280 -591q-172 -503 -342 -1132z" />
    <glyph glyph-name="Ccedilla" unicode="&#xc7;" horiz-adv-x="1733" 
d="M999 2177h42q205 0 339 -188q59 -129 59 -230v-51q0 -233 -134 -506q-35 -33 -67 -33h-13q-4 0 -21 20v17q0 16 67 184q55 186 55 314q0 278 -197 373q-75 25 -130 25q-331 0 -694 -632q-112 -212 -222 -515q-159 -504 -159 -849v-71q0 -500 259 -716q102 -63 201 -63h9
q511 0 1221 1172q83 166 101 176l21 4q21 0 29 -17v-4q-186 -403 -603 -900q-430 -481 -757 -481h-46q-280 0 -439 368q-84 238 -84 465v79q0 673 406 1436q115 197 293 384q247 239 464 239zM619 -713h6q30 -2 28 -19l-1 -16q-4 -73 24 -91q93 -27 91 -62l-1 -14
q-1 -34 -85 -75q-59 -22 -108 -19l-22 1q-92 5 -112 91q-3 15 -2 27l1 16q11 17 32 15q14 0 13 -37q-1 -31 39 -67q27 -11 54 -13q102 1 105 43v6q2 35 -64 48q-45 29 -44 54q-10 20 -7 84q13 31 53 28z" />
    <glyph glyph-name="Egrave" unicode="&#xc8;" horiz-adv-x="1310" 
d="M341 2130l13 1q34 1 36 -31q458 49 933 65l497 18q24 -5 24 -12l1 -11q-15 -26 -50 -28q-908 -33 -1427 -96q-82 -388 -147 -1383q-5 -88 -4 -104q441 68 720 79l93 4q143 5 145 -33q-17 -29 -55 -31q-63 10 -136 9q-283 -11 -770 -91l-3 -6q-11 -373 -4 -569l3 -58
q15 -444 116 -578q49 -33 131 -30q160 4 616 171q363 130 503 134q68 3 70 -26q1 -9 -11 -16.5t-36 -14.5l-26 1l-45 -1q-180 -8 -684 -211q-259 -93 -374 -98l-32 -1q-162 -6 -215 128q-83 197 -100 653q-7 177 -2 502h-2q-59 -18 -72 -18l-10 -1q-17 0 -30 18v8
q-1 33 117 60q31 677 89 1151q21 146 52 335h-2q-77 -10 -262 -50h-2q-37 -1 -39 25q-1 20 37.5 35.5t117.5 26.5q70 17 172 30q-2 32 54 44zM792 2535q22 21 36 13v-1q70 -128 118 -182l19 -21q17 -18 -3 -45l-4 -4q-19 -16 -47 15q-49 51 -60 63q-52 58 -84 116
q2 26 25 46z" />
    <glyph glyph-name="Eacute" unicode="&#xc9;" horiz-adv-x="1310" 
d="M341 2130l13 1q34 1 36 -31q458 49 933 65l497 18q24 -5 24 -12l1 -11q-15 -26 -50 -28q-908 -33 -1427 -96q-82 -388 -147 -1383q-5 -88 -4 -104q441 68 720 79l93 4q143 5 145 -33q-17 -29 -55 -31q-63 10 -136 9q-283 -11 -770 -91l-3 -6q-11 -373 -4 -569l3 -58
q15 -444 116 -578q49 -33 131 -30q160 4 616 171q363 130 503 134q68 3 70 -26q1 -9 -11 -16.5t-36 -14.5l-26 1l-45 -1q-180 -8 -684 -211q-259 -93 -374 -98l-32 -1q-162 -6 -215 128q-83 197 -100 653q-7 177 -2 502h-2q-59 -18 -72 -18l-10 -1q-17 0 -30 18v8
q-1 33 117 60q31 677 89 1151q21 146 52 335h-2q-77 -10 -262 -50h-2q-37 -1 -39 25q-1 20 37.5 35.5t117.5 26.5q70 17 172 30q-2 32 54 44zM1037 2535q24 -20 26 -46q-31 -55 -85 -116q-10 -12 -60 -63q-28 -31 -47 -15l-4 4q-19 27 -3 45l19 21q48 54 118 182v1
q14 8 36 -13z" />
    <glyph glyph-name="Ecircumflex" unicode="&#xca;" horiz-adv-x="1310" 
d="M341 2130l13 1q34 1 36 -31q458 49 933 65l497 18q24 -5 24 -12l1 -11q-15 -26 -50 -28q-908 -33 -1427 -96q-82 -388 -147 -1383q-5 -88 -4 -104q441 68 720 79l93 4q143 5 145 -33q-17 -29 -55 -31q-63 10 -136 9q-283 -11 -770 -91l-3 -6q-11 -373 -4 -569l3 -58
q15 -444 116 -578q49 -33 131 -30q160 4 616 171q363 130 503 134q68 3 70 -26q1 -9 -11 -16.5t-36 -14.5l-26 1l-45 -1q-180 -8 -684 -211q-259 -93 -374 -98l-32 -1q-162 -6 -215 128q-83 197 -100 653q-7 177 -2 502h-2q-59 -18 -72 -18l-10 -1q-17 0 -30 18v8
q-1 33 117 60q31 677 89 1151q21 146 52 335h-2q-77 -10 -262 -50h-2q-37 -1 -39 25q-1 20 37.5 35.5t117.5 26.5q70 17 172 30q-2 32 54 44zM882 2553l11 -1q41 -2 59 -92q7 -18 33 -158v-2q-6 -18 -23 -16h-11q-14 2 -36 113q-25 89 -33 91q-32 -48 -84 -183
q-17 -14 -29 -13h-14q-19 2 -18 15q38 124 74.5 185.5t70.5 60.5z" />
    <glyph glyph-name="Edieresis" unicode="&#xcb;" horiz-adv-x="1310" 
d="M341 2130l13 1q34 1 36 -31q458 49 933 65l497 18q24 -5 24 -12l1 -11q-15 -26 -50 -28q-908 -33 -1427 -96q-82 -388 -147 -1383q-5 -88 -4 -104q441 68 720 79l93 4q143 5 145 -33q-17 -29 -55 -31q-63 10 -136 9q-283 -11 -770 -91l-3 -6q-11 -373 -4 -569l3 -58
q15 -444 116 -578q49 -33 131 -30q160 4 616 171q363 130 503 134q68 3 70 -26q1 -9 -11 -16.5t-36 -14.5l-26 1l-45 -1q-180 -8 -684 -211q-259 -93 -374 -98l-32 -1q-162 -6 -215 128q-83 197 -100 653q-7 177 -2 502h-2q-59 -18 -72 -18l-10 -1q-17 0 -30 18v8
q-1 33 117 60q31 677 89 1151q21 146 52 335h-2q-77 -10 -262 -50h-2q-37 -1 -39 25q-1 20 37.5 35.5t117.5 26.5q70 17 172 30q-2 32 54 44zM748 2444q63 -11 64 -55v-5q-4 -52 -38 -52q-52 -8 -62 56l1 30q17 26 35 26zM978 2444q63 -11 64 -55v-5q-4 -52 -38 -52
q-52 -8 -62 56l1 30q17 26 35 26z" />
    <glyph glyph-name="Igrave" unicode="&#xcc;" horiz-adv-x="792" 
d="M890 2170h208q26 0 34 -20v-14q-22 -34 -58 -34q-14 0 -136 5q-765 -11 -765 -63q-38 -20 -48 -20h-29q-8 0 -19 20v14q0 42 242 83q247 29 571 29zM648 2068q34 -4 34 -24q-136 -831 -136 -1879q0 -138 20 -716l4 -10q0 -24 -29 -44h-19q-29 0 -29 281q-24 406 -24 852
q0 869 116 1511q31 29 63 29zM752 -658h94q132 0 132 -21v-13q-18 -25 -43 -25h-349q-412 0 -472 -64h-25q-30 0 -30 30q32 42 178 68q212 25 515 25zM552 2545q22 21 36 13v-1q70 -128 118 -182l19 -21q17 -18 -3 -45l-4 -4q-19 -16 -47 15q-49 51 -60 63q-52 58 -84 116
q2 26 25 46z" />
    <glyph glyph-name="Iacute" unicode="&#xcd;" horiz-adv-x="792" 
d="M890 2170h208q26 0 34 -20v-14q-22 -34 -58 -34q-14 0 -136 5q-765 -11 -765 -63q-38 -20 -48 -20h-29q-8 0 -19 20v14q0 42 242 83q247 29 571 29zM648 2068q34 -4 34 -24q-136 -831 -136 -1879q0 -138 20 -716l4 -10q0 -24 -29 -44h-19q-29 0 -29 281q-24 406 -24 852
q0 869 116 1511q31 29 63 29zM752 -658h94q132 0 132 -21v-13q-18 -25 -43 -25h-349q-412 0 -472 -64h-25q-30 0 -30 30q32 42 178 68q212 25 515 25zM747 2535q24 -20 26 -46q-31 -55 -85 -116q-10 -12 -60 -63q-28 -31 -47 -15l-4 4q-19 27 -3 45l19 21q48 54 118 182v1
q14 8 36 -13z" />
    <glyph glyph-name="Icircumflex" unicode="&#xce;" horiz-adv-x="792" 
d="M890 2170h208q26 0 34 -20v-14q-22 -34 -58 -34q-14 0 -136 5q-765 -11 -765 -63q-38 -20 -48 -20h-29q-8 0 -19 20v14q0 42 242 83q247 29 571 29zM648 2068q34 -4 34 -24q-136 -831 -136 -1879q0 -138 20 -716l4 -10q0 -24 -29 -44h-19q-29 0 -29 281q-24 406 -24 852
q0 869 116 1511q31 29 63 29zM752 -658h94q132 0 132 -21v-13q-18 -25 -43 -25h-349q-412 0 -472 -64h-25q-30 0 -30 30q32 42 178 68q212 25 515 25zM628 2574l10 1q41 2 68 -87q9 -17 47 -154v-2q-5 -18 -22 -18l-10 -1q-14 -2 -46 109q-34 86 -42 88q-27 -50 -66 -191
q-17 -14 -28 -15l-15 -1q-17 -1 -19 13q54 255 123 258z" />
    <glyph glyph-name="Idieresis" unicode="&#xcf;" horiz-adv-x="792" 
d="M890 2170h208q26 0 34 -20v-14q-22 -34 -58 -34q-14 0 -136 5q-765 -11 -765 -63q-38 -20 -48 -20h-29q-8 0 -19 20v14q0 42 242 83q247 29 571 29zM648 2068q34 -4 34 -24q-136 -831 -136 -1879q0 -138 20 -716l4 -10q0 -24 -29 -44h-19q-29 0 -29 281q-24 406 -24 852
q0 869 116 1511q31 29 63 29zM752 -658h94q132 0 132 -21v-13q-18 -25 -43 -25h-349q-412 0 -472 -64h-25q-30 0 -30 30q32 42 178 68q212 25 515 25zM498 2464q63 -11 64 -55v-5q-4 -52 -38 -52q-52 -8 -62 56l1 30q17 26 35 26zM728 2464q63 -11 64 -55v-5q-4 -52 -38 -52
q-52 -8 -62 56l1 30q17 26 35 26z" />
    <glyph glyph-name="Eth" unicode="&#xd0;" horiz-adv-x="2472" 
d="M1295 2158l62 5q373 30 674 -211q294 -265 325 -647l5 -65q36 -432 -259 -982q-76 -151 -346 -468q-551 -541 -1114 -586l-81 -6q-198 -11 -200 12l-1 9q9 25 39 26q119 -4 203 2l36 3q629 50 1174 688q177 253 182 265q302 559 266 1006l-4 46q-39 471 -436 727
q-242 125 -474 106l-18 -1q-11 -2 -19 3q-8 -5 -17 -6l-18 -2q-403 -32 -793 -434q-266 -344 -329 -565q-50 -139 -70 -140l-26 -7l-18 -1q-24 -2 -33 16l-1 9q32 136 163 389q283 511 804 732q186 67 324 77zM802 1593q51 -7 51 -50q-49 -160 -91 -664q-36 -557 -32 -1031
v-32q2 -163 12 -290q0 -33 -32 -56h-9q-55 0 -60 561v33q-9 1020 102 1478q27 49 59 51zM407 554q44 0 55 1l95 8q452 37 454 10l4 -15q-9 -36 -31 -37q-119 2 -589 -32q-19 7 -21 17v4q-2 30 33 44z" />
    <glyph glyph-name="Ntilde" unicode="&#xd1;" horiz-adv-x="1688" 
d="M244 2163q100 0 245 -538q374 -1233 625 -1765q100 -181 148 -181h18q52 32 79 101q105 280 105 1080q0 473 -40 1166q8 17 26 28q39 0 39 -130q44 -645 44 -1104q0 -1188 -264 -1188q-169 0 -408 618q-160 384 -480 1397q-107 315 -126 335h-4q-91 0 -137 -2173v-112
q5 -340 14 -440q-18 -47 -50 -47h-7q-47 0 -47 76q-6 0 -11 390q0 1047 83 2043q58 444 148 444zM760 2495h7q50 0 157 -74l2 -1q2 0 5.5 -0.5t7.5 -0.5q16 0 40 57q20 19 36 19h7q21 0 29 -14v-7q-41 -108 -110 -108h-7q-51 0 -148 67q-16 10 -24 10q-14 -1 -40 -62
q-23 -15 -41 -15q-29 0 -29 22q39 107 108 107z" />
    <glyph glyph-name="Ograve" unicode="&#xd2;" horiz-adv-x="1740" 
d="M762 2175q28 -11 30 -27q1 -16 -27.5 -29t-85.5 -23q0 -4 -36 -19v-4h4q110 29 208 34l36 1q432 18 629 -440q85 -224 95 -481l5 -122q27 -665 -249 -1257q-96 -182 -229 -330q-241 -256 -466 -265l-40 -2q-261 -10 -449 307q-150 293 -166 695l-3 79q-29 719 247 1390
q60 133 149 259h-4q-192 -95 -202 -95l-11 -1q-18 11 -18 21q18 36 297 153q142 151 286 156zM119 303l3 -90q22 -555 265 -820q127 -125 290 -118q328 14 611 516q288 560 256 1350q-27 675 -414 872q-130 49 -240 45l-54 -3q-142 -5 -294 -66q-136 -185 -189 -329
q-262 -666 -234 -1357zM812 2535q22 21 36 13v-1q70 -128 118 -182l19 -21q17 -18 -3 -45l-4 -4q-19 -16 -47 15q-49 51 -60 63q-52 58 -84 116q2 26 25 46z" />
    <glyph glyph-name="Oacute" unicode="&#xd3;" horiz-adv-x="1740" 
d="M762 2175q28 -11 30 -27q1 -16 -27.5 -29t-85.5 -23q0 -4 -36 -19v-4h4q110 29 208 34l36 1q432 18 629 -440q85 -224 95 -481l5 -122q27 -665 -249 -1257q-96 -182 -229 -330q-241 -256 -466 -265l-40 -2q-261 -10 -449 307q-150 293 -166 695l-3 79q-29 719 247 1390
q60 133 149 259h-4q-192 -95 -202 -95l-11 -1q-18 11 -18 21q18 36 297 153q142 151 286 156zM119 303l3 -90q22 -555 265 -820q127 -125 290 -118q328 14 611 516q288 560 256 1350q-27 675 -414 872q-130 49 -240 45l-54 -3q-142 -5 -294 -66q-136 -185 -189 -329
q-262 -666 -234 -1357zM967 2535q24 -20 26 -46q-31 -55 -85 -116q-10 -12 -60 -63q-28 -31 -47 -15l-4 4q-19 27 -3 45l19 21q48 54 118 182v1q14 8 36 -13z" />
    <glyph glyph-name="Ocircumflex" unicode="&#xd4;" horiz-adv-x="1740" 
d="M762 2175q28 -11 30 -27q1 -16 -27.5 -29t-85.5 -23q0 -4 -36 -19v-4h4q110 29 208 34l36 1q432 18 629 -440q85 -224 95 -481l5 -122q27 -665 -249 -1257q-96 -182 -229 -330q-241 -256 -466 -265l-40 -2q-261 -10 -449 307q-150 293 -166 695l-3 79q-29 719 247 1390
q60 133 149 259h-4q-192 -95 -202 -95l-11 -1q-18 11 -18 21q18 36 297 153q142 151 286 156zM119 303l3 -90q22 -555 265 -820q127 -125 290 -118q328 14 611 516q288 560 256 1350q-27 675 -414 872q-130 49 -240 45l-54 -3q-142 -5 -294 -66q-136 -185 -189 -329
q-262 -666 -234 -1357zM897 2543l11 -1q41 -2 59 -92q7 -18 33 -158v-2q-6 -18 -23 -16h-11q-14 2 -36 113q-25 89 -33 91q-31 -48 -84 -183q-17 -14 -29 -13h-14q-20 2 -18 15q38 124 74.5 185.5t70.5 60.5z" />
    <glyph glyph-name="Otilde" unicode="&#xd5;" horiz-adv-x="1740" 
d="M762 2175q28 -11 30 -27q1 -16 -27.5 -29t-85.5 -23q0 -4 -36 -19v-4h4q110 29 208 34l36 1q432 18 629 -440q85 -224 95 -481l5 -122q27 -665 -249 -1257q-96 -182 -229 -330q-241 -256 -466 -265l-40 -2q-261 -10 -449 307q-150 293 -166 695l-3 79q-29 719 247 1390
q60 133 149 259h-4q-192 -95 -202 -95l-11 -1q-18 11 -18 21q18 36 297 153q142 151 286 156zM119 303l3 -90q22 -555 265 -820q127 -125 290 -118q328 14 611 516q288 560 256 1350q-27 675 -414 872q-130 49 -240 45l-54 -3q-142 -5 -294 -66q-136 -185 -189 -329
q-262 -666 -234 -1357zM780 2495h7q50 0 157 -74l2 -1q2 0 5.5 -0.5t7.5 -0.5q16 0 40 57q20 19 36 19h7q21 0 29 -14v-7q-41 -108 -110 -108h-7q-51 0 -148 67q-16 10 -24 10q-14 -1 -40 -62q-23 -15 -41 -15q-29 0 -29 22q39 107 108 107z" />
    <glyph glyph-name="Odieresis" unicode="&#xd6;" horiz-adv-x="1740" 
d="M762 2175q28 -11 30 -27q1 -16 -27.5 -29t-85.5 -23q0 -4 -36 -19v-4h4q110 29 208 34l36 1q432 18 629 -440q85 -224 95 -481l5 -122q27 -665 -249 -1257q-96 -182 -229 -330q-241 -256 -466 -265l-40 -2q-261 -10 -449 307q-150 293 -166 695l-3 79q-29 719 247 1390
q60 133 149 259h-4q-192 -95 -202 -95l-11 -1q-18 11 -18 21q18 36 297 153q142 151 286 156zM119 303l3 -90q22 -555 265 -820q127 -125 290 -118q328 14 611 516q288 560 256 1350q-27 675 -414 872q-130 49 -240 45l-54 -3q-142 -5 -294 -66q-136 -185 -189 -329
q-262 -666 -234 -1357zM818 2454q63 -11 64 -55v-5q-4 -52 -38 -52q-52 -8 -62 56l1 30q17 26 35 26zM1048 2454q63 -11 64 -55v-5q-4 -52 -38 -52q-52 -8 -62 56l1 30q17 26 35 26z" />
    <glyph glyph-name="multiply" unicode="&#xd7;" horiz-adv-x="595" 
d="M477 837q14 9 29 5l1 -2q32 -26 -3 -67q-94 -114 -408 -495q-16 -6 -29 4q-17 16 -1 53q395 484 411 502zM74 792q-6 15 2 29l2 1q30 24 62 -17q231 -294 383 -485q2 -17 -10 -26q-19 -13 -50 9q-106 133 -201.5 253t-139 174.5t-48.5 61.5z" />
    <glyph glyph-name="Oslash" unicode="&#xd8;" horiz-adv-x="1740" 
d="M762 2175q28 -11 30 -27q1 -16 -27.5 -29t-85.5 -23q0 -4 -36 -19v-4h4q110 29 208 34l36 1q432 18 629 -440q85 -224 95 -481l5 -122q27 -665 -249 -1257q-96 -182 -229 -330q-241 -256 -466 -265l-40 -2q-261 -10 -449 307q-150 293 -166 695l-3 79q-29 719 247 1390
q60 133 149 259h-4q-192 -95 -202 -95l-11 -1q-18 11 -18 21q18 36 297 153q142 151 286 156zM119 303l3 -90q22 -555 265 -820q127 -125 290 -118q328 14 611 516q288 560 256 1350q-27 675 -414 872q-130 49 -240 45l-54 -3q-142 -5 -294 -66q-136 -185 -189 -329
q-262 -666 -234 -1357zM1599 2377l8 -2q25 -6 18 -43l-1 -2q-868 -1762 -1197 -2513l-27 -62q-2 -4 -11 -24t-14 -29q-6 -18 -19 -48l-4 -10q-170 -387 -279 -703q-35 -56 -58 -50l-7 2q-22 5 27 129q141 392 401 984l67 153q367 839 1018 2178q43 48 78 40z" />
    <glyph glyph-name="Ugrave" unicode="&#xd9;" horiz-adv-x="1982" 
d="M144 2200h13q31 0 40 -48q-78 -712 -78 -1239v-105q0 -960 248 -1331q90 -113 183 -113q323 0 706 1172q100 286 277 910q64 172 138 172h10q71 0 89 -339q17 -206 17 -442v-83q0 -444 -76 -1530q-19 -19 -46 -19q-17 0 -27 19l3 11q62 1051 62 1435v30q0 28 3 43
q-3 15 -3 43v27q0 417 -43 676l-14 19q-34 0 -110 -307q-161 -569 -355 -1080q-183 -459 -340 -639q-161 -183 -301 -183h-22q-165 0 -312 267q-189 398 -189 1225v105q0 556 81 1258q21 46 46 46zM912 2535q22 21 36 13v-1q70 -128 118 -182l19 -21q17 -18 -3 -45l-4 -4
q-19 -16 -47 15q-49 51 -60 63q-52 58 -84 116q2 26 25 46z" />
    <glyph glyph-name="Uacute" unicode="&#xda;" horiz-adv-x="1982" 
d="M144 2200h13q31 0 40 -48q-78 -712 -78 -1239v-105q0 -960 248 -1331q90 -113 183 -113q323 0 706 1172q100 286 277 910q64 172 138 172h10q71 0 89 -339q17 -206 17 -442v-83q0 -444 -76 -1530q-19 -19 -46 -19q-17 0 -27 19l3 11q62 1051 62 1435v30q0 28 3 43
q-3 15 -3 43v27q0 417 -43 676l-14 19q-34 0 -110 -307q-161 -569 -355 -1080q-183 -459 -340 -639q-161 -183 -301 -183h-22q-165 0 -312 267q-189 398 -189 1225v105q0 556 81 1258q21 46 46 46zM1047 2535q24 -20 26 -46q-31 -55 -85 -116q-10 -12 -60 -63
q-28 -31 -47 -15l-4 4q-19 27 -3 45l19 21q48 54 118 182v1q14 8 36 -13z" />
    <glyph glyph-name="Ucircumflex" unicode="&#xdb;" horiz-adv-x="1982" 
d="M144 2200h13q31 0 40 -48q-78 -712 -78 -1239v-105q0 -960 248 -1331q90 -113 183 -113q323 0 706 1172q100 286 277 910q64 172 138 172h10q71 0 89 -339q17 -206 17 -442v-83q0 -444 -76 -1530q-19 -19 -46 -19q-17 0 -27 19l3 11q62 1051 62 1435v30q0 28 3 43
q-3 15 -3 43v27q0 417 -43 676l-14 19q-34 0 -110 -307q-161 -569 -355 -1080q-183 -459 -340 -639q-161 -183 -301 -183h-22q-165 0 -312 267q-189 398 -189 1225v105q0 556 81 1258q21 46 46 46zM948 2564l10 1q41 2 68 -87q9 -17 47 -154v-2q-5 -18 -22 -18l-10 -1
q-14 -2 -46 109q-34 86 -42 88q-27 -50 -66 -191q-17 -14 -28 -15l-15 -1q-17 -1 -19 13q54 255 123 258z" />
    <glyph glyph-name="Udieresis" unicode="&#xdc;" horiz-adv-x="1982" 
d="M144 2200h13q31 0 40 -48q-78 -712 -78 -1239v-105q0 -960 248 -1331q90 -113 183 -113q323 0 706 1172q100 286 277 910q64 172 138 172h10q71 0 89 -339q17 -206 17 -442v-83q0 -444 -76 -1530q-19 -19 -46 -19q-17 0 -27 19l3 11q62 1051 62 1435v30q0 28 3 43
q-3 15 -3 43v27q0 417 -43 676l-14 19q-34 0 -110 -307q-161 -569 -355 -1080q-183 -459 -340 -639q-161 -183 -301 -183h-22q-165 0 -312 267q-189 398 -189 1225v105q0 556 81 1258q21 46 46 46zM878 2444q63 -11 64 -55v-5q-4 -52 -38 -52q-52 -8 -62 56l1 30
q17 26 35 26zM1108 2444q63 -11 64 -55v-5q-4 -52 -38 -52q-52 -8 -62 56l1 30q17 26 35 26z" />
    <glyph glyph-name="Yacute" unicode="&#xdd;" horiz-adv-x="1601" 
d="M167 2188q37 0 48 -53q-114 -461 -114 -914q13 -742 268 -932q54 -26 93 -26q265 0 606 962q139 379 229 379h9q92 0 92 -330v-40q0 -587 -224 -2026q-12 -18 -31 -18h-4q-18 8 -18 31q211 1547 211 2035v84q-6 162 -40 162q-54 0 -219 -461q-319 -844 -647 -844
q-307 0 -408 668q-18 165 -18 286v132q0 407 119 866q23 39 48 39zM907 2535q24 -20 26 -46q-31 -55 -85 -116q-10 -12 -60 -63q-28 -31 -47 -15l-4 4q-19 27 -3 45l19 21q48 54 118 182v1q14 8 36 -13z" />
    <glyph glyph-name="Thorn" unicode="&#xde;" horiz-adv-x="1835" 
d="M358 2123h12q20 0 29 -22q-41 -231 -74 -632q-6 -104 -10 -149q401 245 728 245q431 0 640 -341q74 -151 74 -296q0 -301 -283 -562q-258 -213 -625 -298q-256 -61 -347 -61q-31 -7 -189 -16q29 -504 62 -772v-2q-17 -20 -36 -20h-12q-26 0 -26 58q-65 600 -65 733h-15
q-14 0 -96 -2q-26 0 -29 21q0 27 99 27h36v2q-22 389 -22 724v147q0 86 5 259q-65 -48 -142 -110q-24 -8 -29 -8h-2q-41 0 -41 24v3q0 16 91 86l128 97q0 227 67 747q16 106 29 106q26 12 43 12zM310 1234q-12 -296 -12 -501v-151q0 -238 12 -546q132 0 438 53
q280 69 423 144q121 59 255 174q119 116 149 177q98 167 98 325q0 322 -295 502q-158 82 -339 82q-326 0 -693 -233q-36 -22 -36 -26z" />
    <glyph glyph-name="germandbls" unicode="&#xdf;" horiz-adv-x="1718" 
d="M709 2134q229 0 374 -249q59 -126 59 -258q0 -183 -170 -631q-61 -167 -61 -256v-7q0 -116 128 -145q32 0 197 -81q103 -52 214 -183q130 -176 130 -362v-29q0 -308 -266 -547q-233 -179 -492 -179h-12q-335 0 -473 332q-22 72 -22 91q16 22 39 22h8q26 0 34 -56
q50 -155 131 -224q122 -119 300 -119h15q225 0 440 173q116 114 158 206q69 156 69 289q0 307 -261 504q-101 75 -251 121q-77 19 -121 59q-49 52 -49 138q0 115 128 463q91 255 91 406v25q0 245 -177 386q-74 44 -143 44h-2q-270 0 -446 -480q-153 -447 -153 -1204
q0 -399 49 -1103q-17 -32 -59 -32h-7q-37 0 -37 55q-47 696 -47 1063q0 1331 446 1682q113 86 239 86z" />
    <glyph glyph-name="agrave" unicode="&#xe0;" horiz-adv-x="513" 
d="M279 735h15q2 0 10 -11v-2q-27 -213 -27 -290q5 -147 40 -147h9q33 36 68 107q99 188 102 188q20 17 28 12q14 -2 14 -11l-1 -10q-1 -3 -35 -62q-66 -140 -147 -245q-19 -15 -40 -15h-15q-57 0 -75 98q-4 25 -4 62v23q0 54 11 156v2h-2q-142 -273 -224 -273q-36 0 -56 47
q-6 16 -6 43v21q0 111 68 215q52 64 109 64q46 0 96 -40q36 68 62 68zM19 417q0 -49 20 -49q30 0 106 154l51 106h-15q-8 0 -36 17h-10q-55 0 -104 -151q-12 -45 -12 -77zM47 999q17 20 29 15l1 -1q83 -109 126 -145l18 -15q17 -14 4 -41l-4 -4q-14 -18 -43 8q-56 44 -60 47
q-55 47 -88 92q-1 22 17 44z" />
    <glyph glyph-name="aacute" unicode="&#xe1;" horiz-adv-x="513" 
d="M279 735h15q2 0 10 -11v-2q-27 -213 -27 -290q5 -147 40 -147h9q33 36 68 107q99 188 102 188q20 17 28 12q14 -2 14 -11l-1 -10q-1 -3 -35 -62q-66 -140 -147 -245q-19 -15 -40 -15h-15q-57 0 -75 98q-4 25 -4 62v23q0 54 11 156v2h-2q-142 -273 -224 -273q-36 0 -56 47
q-6 16 -6 43v21q0 111 68 215q52 64 109 64q46 0 96 -40q36 68 62 68zM19 417q0 -49 20 -49q30 0 106 154l51 106h-15q-8 0 -36 17h-10q-55 0 -104 -151q-12 -45 -12 -77zM254 999q18 -22 17 -44q-32 -43 -89 -92q-4 -3 -60 -47q-28 -25 -43 -8l-3 4q-14 27 3 41l19 15
q43 37 125 145l1 1q14 4 30 -15z" />
    <glyph glyph-name="acircumflex" unicode="&#xe2;" horiz-adv-x="513" 
d="M279 735h15q2 0 10 -11v-2q-27 -213 -27 -290q5 -147 40 -147h9q33 36 68 107q99 188 102 188q20 17 28 12q14 -2 14 -11l-1 -10q-1 -3 -35 -62q-66 -140 -147 -245q-19 -15 -40 -15h-15q-57 0 -75 98q-4 25 -4 62v23q0 54 11 156v2h-2q-142 -273 -224 -273q-36 0 -56 47
q-6 16 -6 43v21q0 111 68 215q52 64 109 64q46 0 96 -40q36 68 62 68zM19 417q0 -49 20 -49q30 0 106 154l51 106h-15q-8 0 -36 17h-10q-55 0 -104 -151q-12 -45 -12 -77zM164 989h8q31 0 48 -68q6 -12 30 -118v-1q-4 -13 -17 -13h-8q-10 0 -31 84q-22 67 -28 68
q-22 -36 -57 -142q-13 -11 -22 -11h-11q-14 0 -14 10q50 191 102 191z" />
    <glyph glyph-name="atilde" unicode="&#xe3;" horiz-adv-x="513" 
d="M279 735h15q2 0 10 -11v-2q-27 -213 -27 -290q5 -147 40 -147h9q33 36 68 107q99 188 102 188q20 17 28 12q14 -2 14 -11l-1 -10q-1 -3 -35 -62q-66 -140 -147 -245q-19 -15 -40 -15h-15q-57 0 -75 98q-4 25 -4 62v23q0 54 11 156v2h-2q-142 -273 -224 -273q-36 0 -56 47
q-6 16 -6 43v21q0 111 68 215q52 64 109 64q46 0 96 -40q36 68 62 68zM19 417q0 -49 20 -49q30 0 106 154l51 106h-15q-8 0 -36 17h-10q-55 0 -104 -151q-12 -45 -12 -77zM259 937l9 6h12q16 0 21 -12v-6q-33 -83 -78 -83h-6q-9 0 -77 30h-12q-6 0 -32 -36q-12 -9 -27 -9h-9
q-16 0 -21 12v6q35 92 83 92q12 0 92 -45h3q19 0 42 45z" />
    <glyph glyph-name="adieresis" unicode="&#xe4;" horiz-adv-x="513" 
d="M279 735h15q2 0 10 -11v-2q-27 -213 -27 -290q5 -147 40 -147h9q33 36 68 107q99 188 102 188q20 17 28 12q14 -2 14 -11l-1 -10q-1 -3 -35 -62q-66 -140 -147 -245q-19 -15 -40 -15h-15q-57 0 -75 98q-4 25 -4 62v23q0 54 11 156v2h-2q-142 -273 -224 -273q-36 0 -56 47
q-6 16 -6 43v21q0 111 68 215q52 64 109 64q46 0 96 -40q36 68 62 68zM19 417q0 -49 20 -49q30 0 106 154l51 106h-15q-8 0 -36 17h-10q-55 0 -104 -151q-12 -45 -12 -77zM45 906q49 -8 51 -45v-4q-3 -42 -31 -42q-41 -6 -50 46l1 24q14 21 29 21zM199 906q50 -7 52 -45v-4
q-3 -42 -31 -42q-41 -6 -50 46l1 24q13 21 28 21z" />
    <glyph glyph-name="aring" unicode="&#xe5;" horiz-adv-x="513" 
d="M279 735h15q2 0 10 -11v-2q-27 -213 -27 -290q5 -147 40 -147h9q33 36 68 107q99 188 102 188q20 17 28 12q14 -2 14 -11l-1 -10q-1 -3 -35 -62q-66 -140 -147 -245q-19 -15 -40 -15h-15q-57 0 -75 98q-4 25 -4 62v23q0 54 11 156v2h-2q-142 -273 -224 -273q-36 0 -56 47
q-6 16 -6 43v21q0 111 68 215q52 64 109 64q46 0 96 -40q36 68 62 68zM19 417q0 -49 20 -49q30 0 106 154l51 106h-15q-8 0 -36 17h-10q-55 0 -104 -151q-12 -45 -12 -77zM95 967h4q3 0 8 -3q45 0 62 -33q6 -13 6 -28v-9q0 -49 -42 -97q-26 -23 -48 -23h-5q-30 0 -53 30
q-10 19 -10 39v9q0 44 30 88q-12 2 -12 4v2q0 3 35 14q11 7 25 7zM62 853q0 -31 23 -42q3 -2 10 -3q18 0 37 43q7 18 7 36q0 31 -24 38q-4 1 -10 1q-17 0 -20 -4q-23 -32 -23 -69z" />
    <glyph glyph-name="ae" unicode="&#xe6;" horiz-adv-x="513" 
d="M279 735h15q2 0 10 -11v-2q-27 -213 -27 -290q5 -147 40 -147h9q33 36 68 107q99 188 102 188q20 17 28 12q14 -2 14 -11l-1 -10q-1 -3 -35 -62q-66 -140 -147 -245q-19 -15 -40 -15h-15q-57 0 -75 98q-4 25 -4 62v23q0 54 11 156v2h-2q-142 -273 -224 -273q-36 0 -56 47
q-6 16 -6 43v21q0 111 68 215q52 64 109 64q46 0 96 -40q36 68 62 68zM19 417q0 -49 20 -49q30 0 106 154l51 106h-15q-8 0 -36 17h-10q-55 0 -104 -151q-12 -45 -12 -77z" />
    <glyph glyph-name="ccedilla" unicode="&#xe7;" horiz-adv-x="384" 
d="M124 722h13q40 0 56 -58q-13 -27 -50 -27q-21 0 -35 27h-5q-48 -29 -77 -252q-2 -24 -2 -28q0 -100 42 -100q87 0 299 299q16 12 23 9q12 1 16 -9l2 -16q-91 -117 -182 -222q-101 -104 -171 -104h-14q-73 0 -94 110v50q0 102 75 246q51 75 104 75zM149 296h4
q19 -2 18 -12v-11q-3 -48 16 -60q61 -18 59 -41v-9q-2 -23 -56 -50q-40 -13 -72 -12l-14 1q-60 3 -74 59q-2 13 -1 18v11q8 11 21 10q10 0 9 -25q-2 -20 26 -44q16 -6 36 -8q68 2 69 28v4q1 11 -9.5 19t-32.5 13q-30 20 -29 35q-7 12 -5 56q8 20 35 18z" />
    <glyph glyph-name="egrave" unicode="&#xe8;" horiz-adv-x="415" 
d="M137 732h20q41 0 58 -75q0 -95 -188 -163q-8 -39 -13 -90q0 -98 62 -98q94 0 320 289q14 9 29 9q23 -8 23 -12v-3q0 -24 -155 -194q-142 -134 -230 -134h-13q-72 0 -100 75q-10 23 -10 50v27q0 126 110 271q51 48 87 48zM50 556q3 0 3 -3q81 43 81 87v12q0 6 -6 26
q-52 -54 -78 -122zM47 999q17 20 29 15l1 -1q83 -109 126 -145l18 -15q17 -14 4 -41l-4 -4q-14 -18 -43 8q-56 44 -60 47q-55 47 -88 92q-1 22 17 44z" />
    <glyph glyph-name="eacute" unicode="&#xe9;" horiz-adv-x="415" 
d="M137 732h20q41 0 58 -75q0 -95 -188 -163q-8 -39 -13 -90q0 -98 62 -98q94 0 320 289q14 9 29 9q23 -8 23 -12v-3q0 -24 -155 -194q-142 -134 -230 -134h-13q-72 0 -100 75q-10 23 -10 50v27q0 126 110 271q51 48 87 48zM50 556q3 0 3 -3q81 43 81 87v12q0 6 -6 26
q-52 -54 -78 -122zM264 999q18 -22 17 -44q-32 -43 -89 -92q-4 -3 -60 -47q-28 -25 -43 -8l-3 4q-14 27 3 41l19 15q43 37 125 145l1 1q14 4 30 -15z" />
    <glyph glyph-name="ecircumflex" unicode="&#xea;" horiz-adv-x="415" 
d="M137 732h20q41 0 58 -75q0 -95 -188 -163q-8 -39 -13 -90q0 -98 62 -98q94 0 320 289q14 9 29 9q23 -8 23 -12v-3q0 -24 -155 -194q-142 -134 -230 -134h-13q-72 0 -100 75q-10 23 -10 50v27q0 126 110 271q51 48 87 48zM50 556q3 0 3 -3q81 43 81 87v12q0 6 -6 26
q-52 -54 -78 -122zM134 989h8q31 0 48 -68q6 -12 30 -118v-1q-4 -13 -17 -13h-8q-10 0 -31 84q-22 67 -28 68q-22 -36 -57 -142q-13 -11 -22 -11h-11q-14 0 -14 10q50 191 102 191z" />
    <glyph glyph-name="edieresis" unicode="&#xeb;" horiz-adv-x="415" 
d="M137 732h20q41 0 58 -75q0 -95 -188 -163q-8 -39 -13 -90q0 -98 62 -98q94 0 320 289q14 9 29 9q23 -8 23 -12v-3q0 -24 -155 -194q-142 -134 -230 -134h-13q-72 0 -100 75q-10 23 -10 50v27q0 126 110 271q51 48 87 48zM50 556q3 0 3 -3q81 43 81 87v12q0 6 -6 26
q-52 -54 -78 -122zM45 906q49 -8 51 -45v-4q-3 -42 -31 -42q-41 -6 -50 46l1 24q14 21 29 21zM199 906q50 -7 52 -45v-4q-3 -42 -31 -42q-41 -6 -50 46l1 24q13 21 28 21z" />
    <glyph glyph-name="igrave" unicode="&#xec;" horiz-adv-x="252" 
d="M32 688l17 1q4 0 21 -20v-7q-25 -218 -23 -291l1 -68q2 -38 -32 -44l-7 -1q-22 0 -26 84l-2 78q-5 173 21 251q14 17 30 17zM41 892q64 -16 64 -50v-5q-5 -47 -38 -47q-43 0 -62 51l1 27q17 24 35 24zM27 1079q17 20 29 15l1 -1q83 -109 126 -145l18 -15q17 -14 4 -41
l-4 -4q-14 -18 -43 8q-56 44 -60 47q-55 47 -88 92q-1 22 17 44z" />
    <glyph glyph-name="iacute" unicode="&#xed;" horiz-adv-x="252" 
d="M32 688l17 1q4 0 21 -20v-7q-25 -218 -23 -291l1 -68q2 -38 -32 -44l-7 -1q-22 0 -26 84l-2 78q-5 173 21 251q14 17 30 17zM41 892q64 -16 64 -50v-5q-5 -47 -38 -47q-43 0 -62 51l1 27q17 24 35 24zM313 1079q18 -22 17 -44q-32 -43 -89 -92q-4 -3 -60 -47
q-28 -25 -43 -8l-3 4q-14 27 3 41l19 15q43 37 125 145l1 1q13 4 30 -15z" />
    <glyph glyph-name="icircumflex" unicode="&#xee;" horiz-adv-x="252" 
d="M42 688l17 1q4 0 21 -20v-7q-25 -218 -23 -291l1 -68q2 -38 -32 -44l-7 -1q-22 0 -26 84l-2 78q-5 173 21 251q14 17 30 17zM64 989h8q31 0 48 -68q6 -12 30 -118v-1q-4 -13 -17 -13h-8q-10 0 -31 84q-22 67 -28 68q-22 -36 -57 -142q-13 -11 -22 -11h-11q-14 0 -14 10
q50 191 102 191z" />
    <glyph glyph-name="idieresis" unicode="&#xef;" horiz-adv-x="252" 
d="M42 688l17 1q4 0 21 -20v-7q-25 -218 -23 -291l1 -68q2 -38 -32 -44l-7 -1q-22 0 -26 84l-2 78q-5 173 21 251q14 17 30 17zM-35 896q49 -8 51 -45v-4q-3 -42 -31 -42q-41 -6 -50 46l1 24q14 21 29 21zM119 896q50 -7 52 -45v-4q-3 -42 -31 -42q-41 -6 -50 46l1 24
q13 21 28 21z" />
    <glyph glyph-name="eth" unicode="&#xf0;" horiz-adv-x="700" 
d="M535 1608h9q3 0 11 -11v-14q0 -21 -70 -581q-38 -342 -38 -536q12 -408 72 -573q12 -29 -15 -38l-21 23q-60 193 -74 462q-4 47 -4 149v24q0 254 62 729v5h-2q-170 -607 -336 -904q-47 -86 -117 -86h-4q-50 0 -68 81q-2 26 -2 34v31q0 138 87 294q71 101 158 101
q27 0 78 -20h2q67 214 227 765q26 65 45 65zM470 1256h-3v-7h3v7zM15 354q0 -40 19 -40q60 43 209 408v2l-4 -2h-26l-39 11q-66 0 -126 -177q-33 -130 -33 -202z" />
    <glyph glyph-name="ntilde" unicode="&#xf1;" horiz-adv-x="644" 
d="M22 731l29 7q30 -14 28 -46q-4 -14 -11 -53q-3 -14 -5 -75v-27q-2 -90 8 -136h2q77 129 131.5 193.5t87.5 63.5h4q47 -2 54 -77q9 -181 35 -196q4 -4 13 -4q55 -1 231 205q12 11 23 9h10q9 0 15 -9v-8q-199 -232 -294 -231h-2q-44 0 -64 56q-12 30 -21 181q-4 19 -12 19
q-18 1 -56 -54t-98 -166q-43 -84 -52 -85q-14 -9 -32 -8h-12q-37 2 -47 150q-2 38 0 64l1 44q1 132 8 140q5 35 26 43zM319 917l9 6h12q16 0 21 -12v-6q-33 -83 -78 -83h-6q-9 0 -77 30h-12q-6 0 -32 -36q-12 -9 -27 -9h-9q-16 0 -21 12v6q35 92 83 92q12 0 92 -45h3
q19 0 42 45z" />
    <glyph glyph-name="ograve" unicode="&#xf2;" horiz-adv-x="417" 
d="M124 681h13q61 -13 61 -36q11 -38 36 -38q32 -13 76 -13h20q31 0 103 9q8 -3 13 -12v-6q-16 -27 -134 -27q-39 0 -94 11l4 -65q0 -170 -118 -222q-16 -2 -21 -2h-17q-57 0 -92 96q-7 29 -7 56v34q0 114 94 190q46 25 63 25zM122 627q-70 -57 -70 -152v-23q0 -90 45 -118
l13 -2q47 0 56 141v42q0 88 -22 88q-19 24 -22 24zM-5 999q17 20 29 15l1 -1q83 -109 126 -145l18 -15q17 -14 4 -41l-4 -4q-14 -18 -43 8q-56 44 -60 47q-55 47 -88 92q-1 22 17 44z" />
    <glyph glyph-name="oacute" unicode="&#xf3;" horiz-adv-x="417" 
d="M124 681h13q61 -13 61 -36q11 -38 36 -38q32 -13 76 -13h20q31 0 103 9q8 -3 13 -12v-6q-16 -27 -134 -27q-39 0 -94 11l4 -65q0 -170 -118 -222q-16 -2 -21 -2h-17q-57 0 -92 96q-7 29 -7 56v34q0 114 94 190q46 25 63 25zM122 627q-70 -57 -70 -152v-23q0 -90 45 -118
l13 -2q47 0 56 141v42q0 88 -22 88q-19 24 -22 24zM254 999q18 -22 17 -44q-32 -43 -89 -92q-4 -3 -60 -47q-28 -25 -43 -8l-3 4q-14 27 3 41l19 15q43 37 125 145l1 1q14 4 30 -15z" />
    <glyph glyph-name="ocircumflex" unicode="&#xf4;" horiz-adv-x="417" 
d="M124 681h13q61 -13 61 -36q11 -38 36 -38q32 -13 76 -13h20q31 0 103 9q8 -3 13 -12v-6q-16 -27 -134 -27q-39 0 -94 11l4 -65q0 -170 -118 -222q-16 -2 -21 -2h-17q-57 0 -92 96q-7 29 -7 56v34q0 114 94 190q46 25 63 25zM122 627q-70 -57 -70 -152v-23q0 -90 45 -118
l13 -2q47 0 56 141v42q0 88 -22 88q-19 24 -22 24zM125 989h8q31 0 48 -68q6 -12 30 -118v-1q-4 -13 -17 -13h-8q-10 0 -31 84q-22 67 -28 68q-22 -36 -57 -142q-13 -11 -22 -11h-11q-14 0 -14 10q50 191 102 191z" />
    <glyph glyph-name="otilde" unicode="&#xf5;" horiz-adv-x="417" 
d="M124 681h13q61 -13 61 -36q11 -38 36 -38q32 -13 76 -13h20q31 0 103 9q8 -3 13 -12v-6q-16 -27 -134 -27q-39 0 -94 11l4 -65q0 -170 -118 -222q-16 -2 -21 -2h-17q-57 0 -92 96q-7 29 -7 56v34q0 114 94 190q46 25 63 25zM122 627q-70 -57 -70 -152v-23q0 -90 45 -118
l13 -2q47 0 56 141v42q0 88 -22 88q-19 24 -22 24zM239 937l9 6h12q16 0 21 -12v-6q-33 -83 -78 -83h-6q-9 0 -77 30h-12q-6 0 -32 -36q-12 -9 -27 -9h-9q-16 0 -21 12v6q35 92 83 92q12 0 92 -45h3q19 0 42 45z" />
    <glyph glyph-name="odieresis" unicode="&#xf6;" horiz-adv-x="417" 
d="M124 711h13q61 -13 61 -36q11 -38 36 -38q32 -13 76 -13h20q31 0 103 9q8 -3 13 -12v-6q-16 -27 -134 -27q-39 0 -94 11l4 -65q0 -170 -118 -222q-16 -2 -21 -2h-17q-57 0 -92 96q-7 29 -7 56v34q0 114 94 190q46 25 63 25zM122 657q-70 -57 -70 -152v-23q0 -90 45 -118
l13 -2q47 0 56 141v42q0 88 -22 88q-19 24 -22 24zM45 906q49 -8 51 -45v-4q-3 -42 -31 -42q-41 -6 -50 46l1 24q14 21 29 21zM199 906q50 -7 52 -45v-4q-3 -42 -31 -42q-41 -6 -50 46l1 24q13 21 28 21z" />
    <glyph glyph-name="divide" unicode="&#xf7;" horiz-adv-x="718" 
d="M86 589q32 -4 53 -4h91q434 0 434 -26l2 -15q-10 -34 -31 -34q-102 10 -564 15q-19 10 -19 19v4q0 31 34 41zM352 845q64 -11 66 -57v-5q-4 -55 -40 -55q-52 -7 -64 59l1 31q17 27 37 27zM346 378q64 -10 66 -57v-5q-4 -55 -40 -55q-52 -7 -64 59l1 31q17 27 37 27z" />
    <glyph glyph-name="oslash" unicode="&#xf8;" horiz-adv-x="417" 
d="M124 711h13q61 -13 61 -36q11 -38 36 -38q32 -13 76 -13h20q31 0 103 9q8 -3 13 -12v-6q-16 -27 -134 -27q-39 0 -94 11l4 -65q0 -170 -118 -222q-16 -2 -21 -2h-17q-57 0 -92 96q-7 29 -7 56v34q0 114 94 190q46 25 63 25zM122 657q-70 -57 -70 -152v-23q0 -90 45 -118
l13 -2q47 0 56 141v42q0 88 -22 88q-19 24 -22 24zM230 788l5 -3q18 -15 22 -27q-84 -213 -158 -341l-13 -22q-51 -88 -97 -133q-12 -16 -23 -8l-4 3q-13 8 -11 20q39 34 73 92v1q4 6 5 7q0 1 1.5 4t2.5 4l5 9q64 109 172 401h1q8 2 19 -7z" />
    <glyph glyph-name="ugrave" unicode="&#xf9;" horiz-adv-x="545" 
d="M63 751h25q18 -9 18 -20q-50 -101 -46 -232v-14q9 -81 31 -88h4q48 1 144 260q31 67 69 69q5 0 18 -13q-23 -191 -20 -270l1 -43q2 -62 14.5 -92.5t35.5 -29.5q22 6 124 245q44 81 68 83l14 1q5 0 11 -11q0 -8 -47 -90q-109 -250 -141 -252q0 -8 -31 -12h-22
q-81 -3 -86 171q1 73 6 138v4l-4 -1q-94 -211 -174 -214q-38 -1 -61.5 28.5t-30.5 89.5l-2 60q20 232 82 233zM111 1017q17 20 29 15l1 -1q83 -109 126 -145l18 -15q17 -14 4 -41l-4 -4q-14 -18 -43 8q-56 44 -60 47q-55 47 -88 92q-1 22 17 44z" />
    <glyph glyph-name="uacute" unicode="&#xfa;" horiz-adv-x="545" 
d="M63 751h25q18 -9 18 -20q-50 -101 -46 -232v-14q9 -81 31 -88h4q48 1 144 260q31 67 69 69q5 0 18 -13q-23 -191 -20 -270l1 -43q2 -62 14.5 -92.5t35.5 -29.5q22 6 124 245q44 81 68 83l14 1q5 0 11 -11q0 -8 -47 -90q-109 -250 -141 -252q0 -8 -31 -12h-22
q-81 -3 -86 171q1 73 6 138v4l-4 -1q-94 -211 -174 -214q-38 -1 -61.5 28.5t-30.5 89.5l-2 60q20 232 82 233zM324 999q18 -22 17 -44q-32 -43 -89 -92q-4 -3 -60 -47q-28 -25 -43 -8l-3 4q-14 27 3 41l19 15q43 37 125 145l1 1q14 4 30 -15z" />
    <glyph glyph-name="ucircumflex" unicode="&#xfb;" horiz-adv-x="545" 
d="M63 751h25q18 -9 18 -20q-50 -101 -46 -232v-14q9 -81 31 -88h4q48 1 144 260q31 67 69 69q5 0 18 -13q-23 -191 -20 -270l1 -43q2 -62 14.5 -92.5t35.5 -29.5q22 6 124 245q44 81 68 83l14 1q5 0 11 -11q0 -8 -47 -90q-109 -250 -141 -252q0 -8 -31 -12h-22
q-81 -3 -86 171q1 73 6 138v4l-4 -1q-94 -211 -174 -214q-38 -1 -61.5 28.5t-30.5 89.5l-2 60q20 232 82 233zM184 1009h8q31 0 48 -68q6 -12 30 -118v-1q-4 -13 -17 -13h-8q-10 0 -31 84q-22 67 -28 68q-22 -36 -57 -142q-13 -11 -22 -11h-11q-14 0 -14 10q50 191 102 191z
" />
    <glyph glyph-name="udieresis" unicode="&#xfc;" horiz-adv-x="545" 
d="M63 751h25q18 -9 18 -20q-50 -101 -46 -232v-14q9 -81 31 -88h4q48 1 144 260q31 67 69 69q5 0 18 -13q-23 -191 -20 -270l1 -43q2 -62 14.5 -92.5t35.5 -29.5q22 6 124 245q44 81 68 83l14 1q5 0 11 -11q0 -8 -47 -90q-109 -250 -141 -252q0 -8 -31 -12h-22
q-81 -3 -86 171q1 73 6 138v4l-4 -1q-94 -211 -174 -214q-38 -1 -61.5 28.5t-30.5 89.5l-2 60q20 232 82 233zM95 906q49 -8 51 -45v-4q-3 -42 -31 -42q-41 -6 -50 46l1 24q13 21 29 21zM249 906q50 -7 52 -45v-4q-3 -42 -31 -42q-41 -6 -50 46l1 24q14 21 28 21z" />
    <glyph glyph-name="yacute" unicode="&#xfd;" horiz-adv-x="625" 
d="M338 748h7q54 0 70 -112q18 -102 18 -168l3 -1q83 66 172 126q9 6 22 6q10 0 17 -10v-4q0 -10 -59 -48l-152 -116v-45q0 -13 2 -21q-2 -14 -2 -24v-6q0 -302 -81 -545q-36 -104 -103 -180q-70 -70 -146 -70h-7q-100 0 -148 109q-15 42 -15 80v21q0 186 204 443
q83 100 223 225q-8 260 -24 260q0 2 -7 3q-20 0 -84 -168q-84 -198 -173 -198q-54 0 -79 69q-19 50 -19 132q0 126 46 217q17 18 34 18q29 -5 29 -23v-5q-12 -37 -24 -77q-12 -60 -12 -123q0 -117 41 -158l1 -1q1 0 3 -0.5t4 -0.5q27 0 91 136q54 135 92 210q33 49 56 49z
M-12 -258v-6q4 -136 77 -160q9 -4 31 -4q100 0 169 149q100 246 100 636q-110 -101 -154 -154q-223 -262 -223 -461zM324 1029q18 -22 17 -44q-32 -43 -89 -92q-4 -3 -60 -47q-28 -25 -43 -8l-3 4q-14 27 3 41l19 15q43 37 125 145l1 1q14 4 30 -15z" />
    <glyph glyph-name="thorn" unicode="&#xfe;" horiz-adv-x="651" 
d="M147 1046h17q25 -4 25 -23q-5 -28 -34 -62q-29 -125 -54 -415v-2h3q111 198 296 198q153 -20 153 -142v-17q0 -134 -145 -258q-124 -77 -258 -77h-14q-14 0 -49 3q0 -16 -3 -31q0 -238 43 -400q-8 -20 -26 -20q-45 0 -62 462v80q0 10 -3 26q16 453 46 570q19 82 28 94
q20 14 37 14zM87 282q47 -5 80 -5q190 0 289 156q40 70 40 130q0 111 -108 139h-25q-131 0 -247 -275q-29 -95 -29 -145z" />
    <glyph glyph-name="ydieresis" unicode="&#xff;" horiz-adv-x="625" 
d="M338 748h7q54 0 70 -112q18 -102 18 -168l3 -1q83 66 172 126q9 6 22 6q10 0 17 -10v-4q0 -10 -59 -48l-152 -116v-45q0 -13 2 -21q-2 -14 -2 -24v-6q0 -302 -81 -545q-36 -104 -103 -180q-70 -70 -146 -70h-7q-100 0 -148 109q-15 42 -15 80v21q0 186 204 443
q83 100 223 225q-8 260 -24 260q0 2 -7 3q-20 0 -84 -168q-84 -198 -173 -198q-54 0 -79 69q-19 50 -19 132q0 126 46 217q17 18 34 18q29 -5 29 -23v-5q-12 -37 -24 -77q-12 -60 -12 -123q0 -117 41 -158l1 -1q1 0 3 -0.5t4 -0.5q27 0 91 136q54 135 92 210q33 49 56 49z
M-12 -258v-6q4 -136 77 -160q9 -4 31 -4q100 0 169 149q100 246 100 636q-110 -101 -154 -154q-223 -262 -223 -461zM105 916q49 -8 51 -45v-4q-3 -42 -31 -42q-41 -6 -50 46l1 24q13 21 29 21zM259 916q50 -7 52 -45v-4q-3 -42 -31 -42q-41 -6 -50 46l1 24q13 21 28 21z
" />
    <glyph glyph-name="Abreve" unicode="&#x102;" 
d="M885 2436q3 22 38 22.5t38 -20.5q5 -58 34.5 -85.5t67.5 -25t79 26.5q48 29 77 86q13 21 34.5 12t11.5 -32q-42 -75 -90 -110q-42 -31 -93 -38.5t-94 8t-72.5 57t-30.5 99.5zM1050 2189q-232 0 -719 -1789q-14 -6 -172 -20q-159 0 -159 -50v-4q7 -16 23 -16l280 20h4
q-197 -762 -272 -1105q0 -29 35 -35h19l28 19q15 26 116 463q163 637 179 669q604 39 860 39q46 -635 78 -964q0 -59 31 -59q25 0 35 24q-37 335 -82 999q5 0 12 4q109 -4 179 -4q58 3 58 24v11q-1 12 -31 12h-222q-103 1762 -272 1762h-8zM424 400q170 629 342 1132
q187 532 280 591q104 0 226 -1692v-4q-438 0 -848 -27z" />
    <glyph glyph-name="abreve" unicode="&#x103;" horiz-adv-x="513" 
d="M47 922q2 18 31.5 18.5t32.5 -17.5q4 -48 28.5 -71t56.5 -21t66 22q39 23 65 72q11 17 28.5 9.5t9.5 -26.5q-35 -62 -75 -92q-35 -26 -77.5 -32t-79 7t-61 47.5t-25.5 83.5zM279 735h15q2 0 10 -11v-2q-27 -213 -27 -290q5 -147 40 -147h9q33 36 68 107q99 188 102 188
q20 17 28 12q14 -2 14 -11l-1 -10q-1 -3 -35 -62q-66 -140 -147 -245q-19 -15 -40 -15h-15q-57 0 -75 98q-4 25 -4 62v23q0 54 11 156v2h-2q-142 -273 -224 -273q-36 0 -56 47q-6 16 -6 43v21q0 111 68 215q52 64 109 64q46 0 96 -40q36 68 62 68zM19 417q0 -49 20 -49
q30 0 106 154l51 106h-15q-8 0 -36 17h-10q-55 0 -104 -151q-12 -45 -12 -77z" />
    <glyph glyph-name="Dcroat" unicode="&#x110;" horiz-adv-x="2472" 
d="M1295 2158l62 5q373 30 674 -211q294 -265 325 -647l5 -65q36 -432 -259 -982q-76 -151 -346 -468q-551 -541 -1114 -586l-81 -6q-198 -11 -200 12l-1 9q9 25 39 26q119 -4 203 2l36 3q629 50 1174 688q177 253 182 265q302 559 266 1006l-4 46q-39 471 -436 727
q-242 125 -474 106l-18 -1q-11 -2 -19 3q-8 -5 -17 -6l-18 -2q-403 -32 -793 -434q-266 -344 -329 -565q-50 -139 -70 -140l-26 -7l-18 -1q-24 -2 -33 16l-1 9q32 136 163 389q283 511 804 732q186 67 324 77zM802 1593q51 -7 51 -50q-49 -160 -91 -664q-10 -165 -14 -236
q607 -3 607 -33l4 -18q-17 -42 -51 -42q-129 10 -564 14q-17 -385 -14 -716v-32q2 -163 12 -290q0 -33 -32 -56h-9q-55 0 -60 561v33q-3 271 3 502q-39 1 -121.5 1.5t-124.5 0.5q-31 13 -31 24v4q0 38 54 51q52 -4 86 -4h140q19 582 96 899q27 49 59 51z" />
    <glyph glyph-name="dcroat" unicode="&#x111;" horiz-adv-x="700" 
d="M535 1608h9q3 0 11 -11v-14q0 -15 -63 -521q208 -4 208 -19l3 -12q-11 -27 -33 -27q-49 4 -184 6q-1 -3 -1 -8q-38 -342 -38 -536q12 -408 72 -573q12 -29 -15 -38l-21 23q-60 193 -74 462q-4 47 -4 149v24q0 195 34 498q-14 1 -44 1q-133 -428 -266 -669
q-47 -86 -117 -86h-4q-50 0 -68 81q-2 26 -2 34v31q0 138 87 294q71 101 158 101q27 0 78 -20h2q9 29 33 107.5t39 127.5q-108 1 -254 3q-20 8 -20 15v3q0 24 35 33q38 -3 56 -3h95h103q69 231 140 479q26 65 45 65zM15 354q0 -40 19 -40q60 43 209 408v2l-4 -2h-26l-39 11
q-66 0 -126 -177q-33 -130 -33 -202zM411 1063h33q16 128 23 179v5h-2q-25 -90 -54 -184zM470 1256h-3v-7h3v7z" />
    <glyph glyph-name="Itilde" unicode="&#x128;" horiz-adv-x="792" 
d="M564 2447h7q50 0 157 -74l2 -1q2 0 5.5 -0.5t7.5 -0.5q16 0 40 57q20 19 36 19h7q21 0 29 -14v-7q-41 -108 -110 -108h-7q-51 0 -148 67q-16 10 -24 10q-14 -1 -40 -62q-23 -15 -41 -15q-29 0 -29 22q39 107 108 107zM890 2170h208q26 0 34 -20v-14q-22 -34 -58 -34
q-14 0 -136 5q-765 -11 -765 -63q-38 -20 -48 -20h-29q-8 0 -19 20v14q0 42 242 83q247 29 571 29zM648 2068q34 -4 34 -24q-136 -831 -136 -1879q0 -138 20 -716l4 -10q0 -24 -29 -44h-19q-29 0 -29 281q-24 406 -24 852q0 869 116 1511q31 29 63 29zM752 -658h94
q132 0 132 -21v-13q-18 -25 -43 -25h-349q-412 0 -472 -64h-25q-30 0 -30 30q32 42 178 68q212 25 515 25z" />
    <glyph glyph-name="itilde" unicode="&#x129;" horiz-adv-x="252" 
d="M32 688l17 1q4 0 21 -20v-7q-25 -218 -23 -291l1 -68q2 -38 -32 -44l-7 -1q-22 0 -26 84l-2 78q-5 173 21 251q14 17 30 17zM41 892q64 -16 64 -50v-5q-5 -47 -38 -47q-43 0 -62 51l1 27q17 24 35 24zM189 1057l9 6h12q16 0 21 -12v-6q-33 -83 -78 -83h-6q-9 0 -77 30
h-12q-6 0 -32 -36q-12 -9 -27 -9h-9q-16 0 -21 12v6q35 92 83 92q13 0 92 -45h3q19 0 42 45z" />
    <glyph glyph-name="dotlessi" unicode="&#x131;" horiz-adv-x="376" 
d="M226 895q31 -9 31 -46q-53 -401 -53 -543q-20 -19 -46 -19q-17 8 -19 16v11q0 163 46 463v4h-4q-13 -57 -46 -57h-19q-5 0 -11 11q46 160 121 160z" />
    <glyph glyph-name="Utilde" unicode="&#x168;" horiz-adv-x="1982" 
d="M793 2425h7q50 0 157 -74l2 -1q2 0 5.5 -0.5t7.5 -0.5q16 0 40 57q20 19 36 19h7q21 0 29 -14v-7q-40 -108 -110 -108h-7q-51 0 -148 67q-16 10 -24 10q-14 -1 -40 -62q-23 -15 -41 -15q-29 0 -29 22q39 107 108 107zM144 2200h13q31 0 40 -48q-78 -712 -78 -1239v-105
q0 -960 248 -1331q90 -113 183 -113q323 0 706 1172q100 286 277 910q64 172 138 172h10q71 0 89 -339q17 -206 17 -442v-83q0 -444 -76 -1530q-19 -19 -46 -19q-17 0 -27 19l3 11q62 1051 62 1435v30q0 28 3 43q-3 15 -3 43v27q0 417 -43 676l-14 19q-34 0 -110 -307
q-161 -569 -355 -1080q-183 -459 -340 -639q-161 -183 -301 -183h-22q-165 0 -312 267q-189 398 -189 1225v105q0 556 81 1258q21 46 46 46z" />
    <glyph glyph-name="utilde" unicode="&#x169;" horiz-adv-x="545" 
d="M279 937l9 6h12q16 0 21 -12v-6q-33 -83 -78 -83h-6q-9 0 -77 30h-12q-6 0 -32 -36q-12 -9 -27 -9h-9q-16 0 -21 12v6q35 92 83 92q12 0 92 -45h3q19 0 42 45zM63 751h25q18 -9 18 -20q-50 -101 -46 -232v-14q9 -81 31 -88h4q48 1 144 260q31 67 69 69q5 0 18 -13
q-23 -191 -20 -270l1 -43q2 -62 14.5 -92.5t35.5 -29.5q22 6 124 245q44 81 68 83l14 1q5 0 11 -11q0 -8 -47 -90q-109 -250 -141 -252q0 -8 -31 -12h-22q-81 -3 -86 171q1 73 6 138v4l-4 -1q-94 -211 -174 -214q-38 -1 -61.5 28.5t-30.5 89.5l-2 60q20 232 82 233z" />
    <glyph glyph-name="Ohorn" unicode="&#x1a0;" horiz-adv-x="1740" 
d="M762 2175q28 -11 30 -27q1 -16 -27.5 -29t-85.5 -23q0 -4 -36 -19v-4h4q110 29 208 34l36 1q350 14 545 -283q18 15 50.5 36.5t50.5 35.5t32 34t5.5 45.5t-38.5 57.5q-24 6 -30 25.5t7 36.5t34 16q41 -1 75 -38t40.5 -83.5t-17.5 -90.5q-16 -28 -45.5 -49t-71.5 -42.5
t-61 -34.5q21 -37 53 -106q85 -224 95 -481l5 -122q27 -665 -249 -1257q-96 -182 -229 -330q-241 -256 -466 -265l-40 -2q-261 -10 -449 307q-150 293 -166 695l-3 79q-29 719 247 1390q60 133 149 259h-4q-192 -95 -202 -95l-11 -1q-18 11 -18 21q18 36 297 153
q142 151 286 156zM119 303l3 -90q22 -555 265 -820q127 -125 290 -118q328 14 611 516q288 560 256 1350q-27 675 -414 872q-130 49 -240 45l-54 -3q-142 -5 -294 -66q-136 -185 -189 -329q-262 -666 -234 -1357z" />
    <glyph glyph-name="ohorn" unicode="&#x1a1;" horiz-adv-x="417" 
d="M124 681h13q61 -13 61 -36q0 -1 1 -4t1 -4q9 8 35 25.5t34.5 26t8 27t-22.5 41.5q-22 5 -17.5 26t24.5 20q37 -2 58.5 -45.5t-1.5 -78.5q-9 -16 -24.5 -27.5t-40 -24t-33.5 -18.5q8 -2 13 -2q32 -13 76 -13h20q31 0 103 9q8 -3 13 -12v-6q-16 -27 -134 -27q-39 0 -94 11
l4 -65q0 -170 -118 -222q-16 -2 -21 -2h-17q-57 0 -92 96q-7 29 -7 56v34q0 114 94 190q46 25 63 25zM122 627q-70 -57 -70 -152v-23q0 -90 45 -118l13 -2q47 0 56 141v42q0 88 -22 88q-19 24 -22 24z" />
    <glyph glyph-name="Uhorn" unicode="&#x1af;" horiz-adv-x="1982" 
d="M144 2200h13q31 0 40 -48q-78 -712 -78 -1239v-105q0 -960 248 -1331q90 -113 183 -113q323 0 706 1172q100 286 277 910q64 172 138 172h10q23 0 43 -41q14 11 40 28t40 27t29 26.5t16.5 31.5t-7.5 36.5t-33 47.5q-24 6 -30 25.5t7 36.5t34 16q41 -1 75 -38t40.5 -83.5
t-17.5 -90.5q-16 -28 -45 -48.5t-70 -42t-60 -34.5q19 -84 27 -236q17 -206 17 -442v-83q0 -444 -76 -1530q-19 -19 -46 -19q-17 0 -27 19l3 11q62 1051 62 1435v30q0 28 3 43q-3 15 -3 43v27q0 417 -43 676l-14 19q-34 0 -110 -307q-161 -569 -355 -1080
q-183 -459 -340 -639q-161 -183 -301 -183h-22q-165 0 -312 267q-189 398 -189 1225v105q0 556 81 1258q21 46 46 46z" />
    <glyph glyph-name="uhorn" unicode="&#x1b0;" horiz-adv-x="545" 
d="M63 751h25q18 -9 18 -20q-50 -101 -46 -232v-14q9 -81 31 -88h4q48 1 144 260q31 67 69 69q5 0 18 -13q0 -4 -1 -11t-2 -11q2 1 13.5 9t13.5 9.5t11 8.5t10 10t5.5 10t2.5 12t-3 12.5t-7 15t-14 16.5q-22 5 -17.5 26t24.5 20q37 -2 58.5 -45.5t-1.5 -78.5
q-9 -16 -25.5 -28t-41 -24.5t-34.5 -19.5q-15 -134 -12 -201l1 -43q2 -62 14.5 -92.5t35.5 -29.5q22 6 124 245q44 81 68 83l14 1q5 0 11 -11q0 -8 -47 -90q-109 -250 -141 -252q0 -8 -31 -12h-22q-81 -3 -86 171q1 73 6 138v4l-4 -1q-94 -211 -174 -214q-38 -1 -61.5 28.5
t-30.5 89.5l-2 60q20 232 82 233z" />
    <glyph glyph-name="gravecomb" unicode="&#x300;" horiz-adv-x="452" 
d="M134 2041q22 21 36 13v-1q70 -128 118 -182l19 -21q17 -18 -3 -45l-4 -4q-19 -16 -47 15q-49 51 -60 63q-52 58 -84 116q2 26 25 46z" />
    <glyph glyph-name="acutecomb" unicode="&#x301;" horiz-adv-x="452" 
d="M289 2041q24 -20 26 -46q-31 -55 -85 -116q-10 -12 -60 -63q-28 -31 -47 -15l-4 4q-19 27 -3 45l19 21q48 54 118 182v1q14 8 36 -13z" />
    <glyph glyph-name="uni0302" unicode="&#x302;" horiz-adv-x="431" 
d="M205 2087h10q41 0 64 -90q7 -17 39 -156v-2q-6 -17 -23 -17h-10q-14 0 -41 111q-28 88 -37 90q-28 -46 -76 -187q-17 -14 -29 -14h-14q-18 0 -18 14q66 251 135 251z" />
    <glyph glyph-name="tildecomb" unicode="&#x303;" horiz-adv-x="605" 
d="M200 2024h8q54 0 172 -81l2 -1q2 0 5.5 -0.5t7.5 -0.5q18 0 45 62q22 21 39 21h8q22 0 31 -16v-7q-43 -118 -120 -118h-8q-56 0 -162 73q-19 11 -26 11q-17 -2 -44 -68q-23 -16 -44 -16q-32 0 -32 24q44 117 118 117z" />
    <glyph glyph-name="uni0304" unicode="&#x304;" horiz-adv-x="718" 
d="M93 2050q32 -4 53 -4h91q434 0 434 -26l2 -15q-10 -34 -31 -34q-102 11 -564 15q-19 10 -19 19v4q0 31 34 41z" />
    <glyph glyph-name="uni0307" unicode="&#x307;" horiz-adv-x="231" 
d="M97 1998q62 -9 64 -50v-5q-5 -47 -38 -47q-51 -8 -62 51l1 27q17 24 35 24z" />
    <glyph glyph-name="uni0308" unicode="&#x308;" horiz-adv-x="445" 
d="M97 1998q62 -9 64 -50v-5q-5 -47 -38 -47q-51 -8 -62 51l1 27q17 24 35 24zM297 1998q62 -9 64 -50v-5q-5 -47 -38 -47q-51 -8 -62 51l1 27q16 24 35 24z" />
    <glyph glyph-name="uni030A" unicode="&#x30a;" horiz-adv-x="276" 
d="M144 2093h4q4 0 8 -3q46 0 62 -33q6 -13 6 -28v-9q0 -49 -42 -97q-26 -23 -48 -23h-5q-31 0 -53 30q-10 19 -10 39v9q0 45 30 88q-12 2 -12 4v2q0 3 35 14q11 7 25 7zM111 1979q0 -31 23 -42q3 -2 10 -3q18 0 37 43q7 18 7 36q0 31 -24 38q-4 1 -10 1q-17 0 -20 -4
q-23 -32 -23 -69z" />
    <glyph glyph-name="uni030C" unicode="&#x30c;" horiz-adv-x="431" 
d="M182 1822h-10q-40 0 -63 90q-9 16 -39 156v2q5 17 22 17h10q14 0 41 -111q28 -88 37 -90q29 48 76 187q17 14 29 14h14q19 0 19 -14q-68 -251 -136 -251z" />
    <glyph glyph-name="uni0327" unicode="&#x327;" horiz-adv-x="493" 
d="M280 355h6q30 -2 28 -19l-1 -16q-4 -73 24 -91q93 -27 91 -62l-1 -14q-1 -34 -85 -75q-59 -22 -108 -19l-22 1q-92 5 -112 91q-3 15 -2 27l1 16q11 17 32 15q14 0 13 -37q-1 -31 39 -67q27 -11 54 -13q102 1 105 43v6q2 35 -64 48q-45 29 -44 54q-10 20 -7 84
q13 31 53 28z" />
    <glyph glyph-name="uni1EA0" unicode="&#x1ea0;" 
d="M698 -949q78 -19 78 -61v-6q-4 -58 -46 -58q-52 0 -76 63l1 33q20 29 43 29zM1050 2189h8q169 0 272 -1762h222q30 0 31 -12v-11q0 -21 -58 -24q-70 0 -179 4q-7 -4 -12 -4q45 -664 82 -999q-10 -24 -35 -24q-31 0 -31 59q-32 329 -78 964q-256 0 -860 -39
q-16 -32 -179 -669q-101 -437 -116 -463l-28 -19h-19q-35 6 -35 35q75 343 272 1105h-4l-280 -20q-16 0 -23 16v4q0 50 159 50q158 14 172 20q487 1789 719 1789zM424 400q410 27 848 27v4q-122 1692 -226 1692q-93 -59 -280 -591q-172 -503 -342 -1132z" />
    <glyph glyph-name="uni1EA1" unicode="&#x1ea1;" horiz-adv-x="513" 
d="M51 191q64 -16 64 -50v-5q-5 -47 -38 -47q-43 0 -62 51l1 27q17 24 35 24zM279 735h15q2 0 10 -11v-2q-27 -213 -27 -290q5 -147 40 -147h9q33 36 68 107q99 188 102 188q20 17 28 12q14 -2 14 -11l-1 -10q-1 -3 -35 -62q-66 -140 -147 -245q-19 -15 -40 -15h-15
q-57 0 -75 98q-4 25 -4 62v23q0 54 11 156v2h-2q-142 -273 -224 -273q-36 0 -56 47q-6 16 -6 43v21q0 111 68 215q52 64 109 64q46 0 96 -40q36 68 62 68zM19 417q0 -49 20 -49q30 0 106 154l51 106h-15q-8 0 -36 17h-10q-55 0 -104 -151q-12 -45 -12 -77z" />
    <glyph glyph-name="uni1EA2" unicode="&#x1ea2;" 
d="M1097 2521h7q62 0 64 -62q9 -71 -91 -180h-10q-17 0 -20 10v6q64 98 28 106t-38 44q1 73 60 76zM1050 2189h8q169 0 272 -1762h222q30 0 31 -12v-11q0 -21 -58 -24q-70 0 -179 4q-7 -4 -12 -4q45 -664 82 -999q-10 -24 -35 -24q-31 0 -31 59q-32 329 -78 964
q-256 0 -860 -39q-16 -32 -179 -669q-101 -437 -116 -463l-28 -19h-19q-35 6 -35 35q75 343 272 1105h-4l-280 -20q-16 0 -23 16v4q0 50 159 50q158 14 172 20q487 1789 719 1789zM424 400q410 27 848 27v4q-122 1692 -226 1692q-93 -59 -280 -591q-172 -503 -342 -1132z
" />
    <glyph glyph-name="uni1EA3" unicode="&#x1ea3;" horiz-adv-x="513" 
d="M205 1013h5q50 0 51 -49q7 -56 -72 -141h-7q-14 0 -16 8v5q50 77 22 83q-29 6 -30 34q1 58 47 60zM279 735h15q2 0 10 -11v-2q-27 -213 -27 -290q5 -147 40 -147h9q33 36 68 107q99 188 102 188q20 17 28 12q14 -2 14 -11l-1 -10q-1 -3 -35 -62q-66 -140 -147 -245
q-19 -15 -40 -15h-15q-57 0 -75 98q-4 25 -4 62v23q0 54 11 156v2h-2q-142 -273 -224 -273q-36 0 -56 47q-6 16 -6 43v21q0 111 68 215q52 64 109 64q46 0 96 -40q36 68 62 68zM19 417q0 -49 20 -49q30 0 106 154l51 106h-15q-8 0 -36 17h-10q-55 0 -104 -151
q-12 -45 -12 -77z" />
    <glyph glyph-name="uni1EA4" unicode="&#x1ea4;" 
d="M1395 2712q24 -20 26 -46q-31 -55 -85 -116q-10 -12 -60 -63q-28 -31 -47 -15l-4 4q-19 27 -3 45l19 21q48 54 118 182v1q14 8 36 -13zM1050 2189h8q169 0 272 -1762h222q30 0 31 -12v-11q0 -21 -58 -24q-70 0 -179 4q-7 -4 -12 -4q45 -664 82 -999q-10 -24 -35 -24
q-31 0 -31 59q-32 329 -78 964q-256 0 -860 -39q-16 -32 -179 -669q-101 -437 -116 -463l-28 -19h-19q-35 6 -35 35q75 343 272 1105h-4l-280 -20q-16 0 -23 16v4q0 50 159 50q158 14 172 20q487 1789 719 1789zM424 400q410 27 848 27v4q-122 1692 -226 1692
q-93 -59 -280 -591q-172 -503 -342 -1132zM1070 2543l11 -1q41 -2 59 -92q7 -18 33 -158v-2q-6 -18 -23 -16h-11q-14 2 -36 113q-25 89 -33 91q-32 -48 -84 -183q-17 -14 -29 -13h-14q-19 2 -18 15q38 124 74.5 185.5t70.5 60.5z" />
    <glyph glyph-name="uni1EA5" unicode="&#x1ea5;" horiz-adv-x="513" 
d="M470 1106q18 -22 17 -44q-32 -43 -89 -92q-4 -3 -60 -47q-28 -25 -43 -8l-3 4q-14 27 3 41l19 15q43 37 125 145l1 1q14 5 30 -15zM279 735h15q2 0 10 -11v-2q-27 -213 -27 -290q5 -147 40 -147h9q33 36 68 107q99 188 102 188q20 17 28 12q14 -2 14 -11l-1 -10
q-1 -3 -35 -62q-66 -140 -147 -245q-19 -15 -40 -15h-15q-57 0 -75 98q-4 25 -4 62v23q0 54 11 156v2h-2q-142 -273 -224 -273q-36 0 -56 47q-6 16 -6 43v21q0 111 68 215q52 64 109 64q46 0 96 -40q36 68 62 68zM19 417q0 -49 20 -49q30 0 106 154l51 106h-15q-8 0 -36 17
h-10q-55 0 -104 -151q-12 -45 -12 -77zM164 989h8q31 0 48 -68q6 -12 30 -118v-1q-4 -13 -17 -13h-8q-10 0 -31 84q-22 67 -28 68q-22 -36 -57 -142q-13 -11 -22 -11h-11q-14 0 -14 10q50 191 102 191z" />
    <glyph glyph-name="uni1EA6" unicode="&#x1ea6;" 
d="M1050 2189h8q169 0 272 -1762h222q30 0 31 -12v-11q0 -21 -58 -24q-70 0 -179 4q-7 -4 -12 -4q45 -664 82 -999q-10 -24 -35 -24q-31 0 -31 59q-32 329 -78 964q-256 0 -860 -39q-16 -32 -179 -669q-101 -437 -116 -463l-28 -19h-19q-35 6 -35 35q75 343 272 1105h-4
l-280 -20q-16 0 -23 16v4q0 50 159 50q158 14 172 20q487 1789 719 1789zM424 400q410 27 848 27v4q-122 1692 -226 1692q-93 -59 -280 -591q-172 -503 -342 -1132zM1070 2543l11 -1q41 -2 59 -92q7 -18 33 -158v-2q-6 -18 -23 -16h-11q-14 2 -36 113q-25 89 -33 91
q-32 -48 -84 -183q-17 -14 -29 -13h-14q-19 2 -18 15q38 124 74.5 185.5t70.5 60.5zM1138 2712q22 21 36 13v-1q70 -128 118 -182l19 -21q17 -18 -3 -45l-4 -4q-19 -16 -47 15q-49 51 -60 63q-52 58 -84 116q2 26 25 46z" />
    <glyph glyph-name="uni1EA7" unicode="&#x1ea7;" horiz-adv-x="513" 
d="M217 1106q17 20 29 15l1 -1q83 -109 126 -145l18 -15q17 -14 4 -41l-4 -4q-14 -18 -43 8q-56 44 -60 47q-55 47 -88 92q-1 22 17 44zM279 735h15q2 0 10 -11v-2q-27 -213 -27 -290q5 -147 40 -147h9q33 36 68 107q99 188 102 188q20 17 28 12q14 -2 14 -11l-1 -10
q-1 -3 -35 -62q-66 -140 -147 -245q-19 -15 -40 -15h-15q-57 0 -75 98q-4 25 -4 62v23q0 54 11 156v2h-2q-142 -273 -224 -273q-36 0 -56 47q-6 16 -6 43v21q0 111 68 215q52 64 109 64q46 0 96 -40q36 68 62 68zM19 417q0 -49 20 -49q30 0 106 154l51 106h-15q-8 0 -36 17
h-10q-55 0 -104 -151q-12 -45 -12 -77zM164 989h8q31 0 48 -68q6 -12 30 -118v-1q-4 -13 -17 -13h-8q-10 0 -31 84q-22 67 -28 68q-22 -36 -57 -142q-13 -11 -22 -11h-11q-14 0 -14 10q50 191 102 191z" />
    <glyph glyph-name="uni1EA8" unicode="&#x1ea8;" 
d="M1274 2703h7q62 0 64 -62q9 -71 -91 -180h-10q-17 0 -20 10v6q64 98 28 106t-38 44q1 73 60 76zM1050 2189h8q169 0 272 -1762h222q30 0 31 -12v-11q0 -21 -58 -24q-70 0 -179 4q-7 -4 -12 -4q45 -664 82 -999q-10 -24 -35 -24q-31 0 -31 59q-32 329 -78 964
q-256 0 -860 -39q-16 -32 -179 -669q-101 -437 -116 -463l-28 -19h-19q-35 6 -35 35q75 343 272 1105h-4l-280 -20q-16 0 -23 16v4q0 50 159 50q158 14 172 20q487 1789 719 1789zM424 400q410 27 848 27v4q-122 1692 -226 1692q-93 -59 -280 -591q-172 -503 -342 -1132z
M1070 2543l11 -1q41 -2 59 -92q7 -18 33 -158v-2q-6 -18 -23 -16h-11q-14 2 -36 113q-25 89 -33 91q-32 -48 -84 -183q-17 -14 -29 -13h-14q-19 2 -18 15q38 124 74.5 185.5t70.5 60.5z" />
    <glyph glyph-name="uni1EA9" unicode="&#x1ea9;" horiz-adv-x="513" 
d="M352 1123h5q50 0 51 -49q8 -56 -72 -141h-7q-14 0 -16 8v5q50 77 22 83q-29 6 -30 34q1 58 47 60zM279 735h15q2 0 10 -11v-2q-27 -213 -27 -290q5 -147 40 -147h9q33 36 68 107q99 188 102 188q20 17 28 12q14 -2 14 -11l-1 -10q-1 -3 -35 -62q-66 -140 -147 -245
q-19 -15 -40 -15h-15q-57 0 -75 98q-4 25 -4 62v23q0 54 11 156v2h-2q-142 -273 -224 -273q-36 0 -56 47q-6 16 -6 43v21q0 111 68 215q52 64 109 64q46 0 96 -40q36 68 62 68zM19 417q0 -49 20 -49q30 0 106 154l51 106h-15q-8 0 -36 17h-10q-55 0 -104 -151
q-12 -45 -12 -77zM164 989h8q31 0 48 -68q6 -12 30 -118v-1q-4 -13 -17 -13h-8q-10 0 -31 84q-22 67 -28 68q-22 -36 -57 -142q-13 -11 -22 -11h-11q-14 0 -14 10q50 191 102 191z" />
    <glyph glyph-name="uni1EAA" unicode="&#x1eaa;" 
d="M1015 2742h7q50 0 157 -74h2q2 -1 5.5 -1.5t7.5 -0.5q16 0 40 57q20 19 36 19h7q21 0 29 -14v-7q-40 -108 -110 -108h-7q-51 0 -148 67q-16 10 -24 10q-14 -1 -40 -62q-23 -15 -41 -15q-29 0 -29 22q39 107 108 107zM1050 2189h8q169 0 272 -1762h222q30 0 31 -12v-11
q0 -21 -58 -24q-70 0 -179 4q-7 -4 -12 -4q45 -664 82 -999q-10 -24 -35 -24q-31 0 -31 59q-32 329 -78 964q-256 0 -860 -39q-16 -32 -179 -669q-101 -437 -116 -463l-28 -19h-19q-35 6 -35 35q75 343 272 1105h-4l-280 -20q-16 0 -23 16v4q0 50 159 50q158 14 172 20
q487 1789 719 1789zM424 400q410 27 848 27v4q-122 1692 -226 1692q-93 -59 -280 -591q-172 -503 -342 -1132zM1070 2543l11 -1q41 -2 59 -92q7 -18 33 -158v-2q-6 -18 -23 -16h-11q-14 2 -36 113q-25 89 -33 91q-32 -48 -84 -183q-17 -14 -29 -13h-14q-19 2 -18 15
q38 124 74.5 185.5t70.5 60.5z" />
    <glyph glyph-name="uni1EAB" unicode="&#x1eab;" horiz-adv-x="513" 
d="M279 1163l9 6h12q16 0 21 -12v-6q-33 -83 -78 -83h-6q-9 0 -77 30h-12q-6 0 -32 -36q-12 -9 -27 -9h-9q-16 0 -21 12v6q35 92 83 92q12 0 92 -45h3q19 0 42 45zM279 735h15q2 0 10 -11v-2q-27 -213 -27 -290q5 -147 40 -147h9q33 36 68 107q99 188 102 188q20 17 28 12
q14 -2 14 -11l-1 -10q-1 -3 -35 -62q-66 -140 -147 -245q-19 -15 -40 -15h-15q-57 0 -75 98q-4 25 -4 62v23q0 54 11 156v2h-2q-142 -273 -224 -273q-36 0 -56 47q-6 16 -6 43v21q0 111 68 215q52 64 109 64q46 0 96 -40q36 68 62 68zM19 417q0 -49 20 -49q30 0 106 154
l51 106h-15q-8 0 -36 17h-10q-55 0 -104 -151q-12 -45 -12 -77zM164 989h8q31 0 48 -68q6 -12 30 -118v-1q-4 -13 -17 -13h-8q-10 0 -31 84q-22 67 -28 68q-22 -36 -57 -142q-13 -11 -22 -11h-11q-14 0 -14 10q50 191 102 191z" />
    <glyph glyph-name="uni1EAC" unicode="&#x1eac;" 
d="M698 -949q78 -19 78 -61v-6q-4 -58 -46 -58q-52 0 -76 63l1 33q20 29 43 29zM1050 2189h8q169 0 272 -1762h222q30 0 31 -12v-11q0 -21 -58 -24q-70 0 -179 4q-7 -4 -12 -4q45 -664 82 -999q-10 -24 -35 -24q-31 0 -31 59q-32 329 -78 964q-256 0 -860 -39
q-16 -32 -179 -669q-101 -437 -116 -463l-28 -19h-19q-35 6 -35 35q75 343 272 1105h-4l-280 -20q-16 0 -23 16v4q0 50 159 50q158 14 172 20q487 1789 719 1789zM424 400q410 27 848 27v4q-122 1692 -226 1692q-93 -59 -280 -591q-172 -503 -342 -1132zM1070 2543l11 -1
q41 -2 59 -92q7 -18 33 -158v-2q-6 -18 -23 -16h-11q-14 2 -36 113q-25 89 -33 91q-32 -48 -84 -183q-17 -14 -29 -13h-14q-19 2 -18 15q38 124 74.5 185.5t70.5 60.5z" />
    <glyph glyph-name="uni1EAD" unicode="&#x1ead;" horiz-adv-x="513" 
d="M51 191q64 -16 64 -50v-5q-5 -47 -38 -47q-43 0 -62 51l1 27q17 24 35 24zM279 735h15q2 0 10 -11v-2q-27 -213 -27 -290q5 -147 40 -147h9q33 36 68 107q99 188 102 188q20 17 28 12q14 -2 14 -11l-1 -10q-1 -3 -35 -62q-66 -140 -147 -245q-19 -15 -40 -15h-15
q-57 0 -75 98q-4 25 -4 62v23q0 54 11 156v2h-2q-142 -273 -224 -273q-36 0 -56 47q-6 16 -6 43v21q0 111 68 215q52 64 109 64q46 0 96 -40q36 68 62 68zM19 417q0 -49 20 -49q30 0 106 154l51 106h-15q-8 0 -36 17h-10q-55 0 -104 -151q-12 -45 -12 -77zM164 989h8
q31 0 48 -68q6 -12 30 -118v-1q-4 -13 -17 -13h-8q-10 0 -31 84q-22 67 -28 68q-22 -36 -57 -142q-13 -11 -22 -11h-11q-14 0 -14 10q50 191 102 191z" />
    <glyph glyph-name="uni1EAE" unicode="&#x1eae;" 
d="M1227 2757q24 -20 26 -46q-31 -55 -85 -116q-10 -12 -60 -63q-28 -31 -47 -15l-4 4q-19 27 -3 45l19 21q48 54 118 182v1q14 8 36 -13zM885 2436q3 22 38 22.5t38 -20.5q5 -58 34.5 -85.5t67.5 -25t79 26.5q48 29 77 86q13 21 34.5 12t11.5 -32q-42 -75 -90 -110
q-42 -31 -93 -38.5t-94 8t-72.5 57t-30.5 99.5zM1050 2189h8q169 0 272 -1762h222q30 0 31 -12v-11q0 -21 -58 -24q-70 0 -179 4q-7 -4 -12 -4q45 -664 82 -999q-10 -24 -35 -24q-31 0 -31 59q-32 329 -78 964q-256 0 -860 -39q-16 -32 -179 -669q-101 -437 -116 -463
l-28 -19h-19q-35 6 -35 35q75 343 272 1105h-4l-280 -20q-16 0 -23 16v4q0 50 159 50q158 14 172 20q487 1789 719 1789zM424 400q410 27 848 27v4q-122 1692 -226 1692q-93 -59 -280 -591q-172 -503 -342 -1132z" />
    <glyph glyph-name="uni1EAF" unicode="&#x1eaf;" horiz-adv-x="513" 
d="M362 1190q18 -22 17 -44q-32 -43 -89 -92q-4 -3 -60 -47q-28 -25 -43 -8l-3 4q-14 27 3 41l19 15q43 37 125 145l1 1q14 5 30 -15zM47 922q2 18 31.5 18.5t32.5 -17.5q4 -48 28.5 -71t56.5 -21t66 22q39 23 65 72q11 17 28.5 9.5t9.5 -26.5q-35 -62 -75 -92
q-35 -26 -77.5 -32t-79 7t-61 47.5t-25.5 83.5zM279 735h15q2 0 10 -11v-2q-27 -213 -27 -290q5 -147 40 -147h9q33 36 68 107q99 188 102 188q20 17 28 12q14 -2 14 -11l-1 -10q-1 -3 -35 -62q-66 -140 -147 -245q-19 -15 -40 -15h-15q-57 0 -75 98q-4 25 -4 62v23
q0 54 11 156v2h-2q-142 -273 -224 -273q-36 0 -56 47q-6 16 -6 43v21q0 111 68 215q52 64 109 64q46 0 96 -40q36 68 62 68zM19 417q0 -49 20 -49q30 0 106 154l51 106h-15q-8 0 -36 17h-10q-55 0 -104 -151q-12 -45 -12 -77z" />
    <glyph glyph-name="uni1EB0" unicode="&#x1eb0;" 
d="M974 2756q22 21 36 13v-1q70 -128 118 -182l19 -21q17 -18 -3 -45l-4 -4q-19 -16 -47 15q-49 51 -60 63q-52 58 -84 116q2 26 25 46zM885 2436q3 22 38 22.5t38 -20.5q5 -58 34.5 -85.5t67.5 -25t79 26.5q48 29 77 86q13 21 34.5 12t11.5 -32q-42 -75 -90 -110
q-42 -31 -93 -38.5t-94 8t-72.5 57t-30.5 99.5zM1050 2189h8q169 0 272 -1762h222q30 0 31 -12v-11q0 -21 -58 -24q-70 0 -179 4q-7 -4 -12 -4q45 -664 82 -999q-10 -24 -35 -24q-31 0 -31 59q-32 329 -78 964q-256 0 -860 -39q-16 -32 -179 -669q-101 -437 -116 -463
l-28 -19h-19q-35 6 -35 35q75 343 272 1105h-4l-280 -20q-16 0 -23 16v4q0 50 159 50q158 14 172 20q487 1789 719 1789zM424 400q410 27 848 27v4q-122 1692 -226 1692q-93 -59 -280 -591q-172 -503 -342 -1132z" />
    <glyph glyph-name="uni1EB1" unicode="&#x1eb1;" horiz-adv-x="513" 
d="M111 1189q17 20 29 15l1 -1q83 -109 126 -145l18 -15q17 -14 4 -41l-4 -4q-14 -18 -43 8q-56 44 -60 47q-55 47 -88 92q-1 22 17 44zM47 922q2 18 31.5 18.5t32.5 -17.5q4 -48 28.5 -71t56.5 -21t66 22q39 23 65 72q11 17 28.5 9.5t9.5 -26.5q-35 -62 -75 -92
q-35 -26 -77.5 -32t-79 7t-61 47.5t-25.5 83.5zM279 735h15q2 0 10 -11v-2q-27 -213 -27 -290q5 -147 40 -147h9q33 36 68 107q99 188 102 188q20 17 28 12q14 -2 14 -11l-1 -10q-1 -3 -35 -62q-66 -140 -147 -245q-19 -15 -40 -15h-15q-57 0 -75 98q-4 25 -4 62v23
q0 54 11 156v2h-2q-142 -273 -224 -273q-36 0 -56 47q-6 16 -6 43v21q0 111 68 215q52 64 109 64q46 0 96 -40q36 68 62 68zM19 417q0 -49 20 -49q30 0 106 154l51 106h-15q-8 0 -36 17h-10q-55 0 -104 -151q-12 -45 -12 -77z" />
    <glyph glyph-name="uni1EB2" unicode="&#x1eb2;" 
d="M1117 2753h7q62 0 64 -62q9 -71 -91 -180h-10q-17 0 -20 10v6q64 98 28 106t-38 44q1 73 60 76zM885 2436q3 22 38 22.5t38 -20.5q5 -58 34.5 -85.5t67.5 -25t79 26.5q48 29 77 86q13 21 34.5 12t11.5 -32q-42 -75 -90 -110q-42 -31 -93 -38.5t-94 8t-72.5 57t-30.5 99.5
zM1050 2189h8q169 0 272 -1762h222q30 0 31 -12v-11q0 -21 -58 -24q-70 0 -179 4q-7 -4 -12 -4q45 -664 82 -999q-10 -24 -35 -24q-31 0 -31 59q-32 329 -78 964q-256 0 -860 -39q-16 -32 -179 -669q-101 -437 -116 -463l-28 -19h-19q-35 6 -35 35q75 343 272 1105h-4
l-280 -20q-16 0 -23 16v4q0 50 159 50q158 14 172 20q487 1789 719 1789zM424 400q410 27 848 27v4q-122 1692 -226 1692q-93 -59 -280 -591q-172 -503 -342 -1132z" />
    <glyph glyph-name="uni1EB3" unicode="&#x1eb3;" horiz-adv-x="513" 
d="M255 1183h5q50 0 51 -49q7 -56 -72 -141h-7q-14 0 -16 8v5q50 77 22 83q-29 6 -30 34q1 58 47 60zM47 922q2 18 31.5 18.5t32.5 -17.5q4 -48 28.5 -71t56.5 -21t66 22q39 23 65 72q11 17 28.5 9.5t9.5 -26.5q-35 -62 -75 -92q-35 -26 -77.5 -32t-79 7t-61 47.5
t-25.5 83.5zM279 735h15q2 0 10 -11v-2q-27 -213 -27 -290q5 -147 40 -147h9q33 36 68 107q99 188 102 188q20 17 28 12q14 -2 14 -11l-1 -10q-1 -3 -35 -62q-66 -140 -147 -245q-19 -15 -40 -15h-15q-57 0 -75 98q-4 25 -4 62v23q0 54 11 156v2h-2q-142 -273 -224 -273
q-36 0 -56 47q-6 16 -6 43v21q0 111 68 215q52 64 109 64q46 0 96 -40q36 68 62 68zM19 417q0 -49 20 -49q30 0 106 154l51 106h-15q-8 0 -36 17h-10q-55 0 -104 -151q-12 -45 -12 -77z" />
    <glyph glyph-name="uni1EB4" unicode="&#x1eb4;" 
d="M1091 2644h7q50 0 157 -74h2q2 -1 5.5 -1.5t7.5 -0.5q16 0 40 57q20 19 36 19h7q21 0 29 -14v-7q-40 -108 -110 -108h-7q-51 0 -148 67q-16 10 -24 10q-14 -1 -40 -62q-23 -15 -41 -15q-29 0 -29 22q39 107 108 107zM885 2436q3 22 38 22.5t38 -20.5q5 -58 34.5 -85.5
t67.5 -25t79 26.5q48 29 77 86q13 21 34.5 12t11.5 -32q-42 -75 -90 -110q-42 -31 -93 -38.5t-94 8t-72.5 57t-30.5 99.5zM1050 2189h8q169 0 272 -1762h222q30 0 31 -12v-11q0 -21 -58 -24q-70 0 -179 4q-7 -4 -12 -4q45 -664 82 -999q-10 -24 -35 -24q-31 0 -31 59
q-32 329 -78 964q-256 0 -860 -39q-16 -32 -179 -669q-101 -437 -116 -463l-28 -19h-19q-35 6 -35 35q75 343 272 1105h-4l-280 -20q-16 0 -23 16v4q0 50 159 50q158 14 172 20q487 1789 719 1789zM424 400q410 27 848 27v4q-122 1692 -226 1692q-93 -59 -280 -591
q-172 -503 -342 -1132z" />
    <glyph glyph-name="uni1EB5" unicode="&#x1eb5;" horiz-adv-x="513" 
d="M383 1093l9 6h12q16 0 21 -12v-6q-33 -83 -78 -83h-6q-9 0 -77 30h-12q-6 0 -32 -36q-12 -9 -27 -9h-9q-16 0 -21 12v6q35 92 83 92q12 0 92 -45h3q19 0 42 45zM47 922q2 18 31.5 18.5t32.5 -17.5q4 -48 28.5 -71t56.5 -21t66 22q39 23 65 72q11 17 28.5 9.5t9.5 -26.5
q-35 -62 -75 -92q-35 -26 -77.5 -32t-79 7t-61 47.5t-25.5 83.5zM279 735h15q2 0 10 -11v-2q-27 -213 -27 -290q5 -147 40 -147h9q33 36 68 107q99 188 102 188q20 17 28 12q14 -2 14 -11l-1 -10q-1 -3 -35 -62q-66 -140 -147 -245q-19 -15 -40 -15h-15q-57 0 -75 98
q-4 25 -4 62v23q0 54 11 156v2h-2q-142 -273 -224 -273q-36 0 -56 47q-6 16 -6 43v21q0 111 68 215q52 64 109 64q46 0 96 -40q36 68 62 68zM19 417q0 -49 20 -49q30 0 106 154l51 106h-15q-8 0 -36 17h-10q-55 0 -104 -151q-12 -45 -12 -77z" />
    <glyph glyph-name="uni1EB6" unicode="&#x1eb6;" 
d="M698 -949q-23 0 -43 -29l-1 -33q24 -63 76 -63q42 0 46 58v6q0 42 -78 61zM885 2436q3 22 38 22.5t38 -20.5q5 -58 34.5 -85.5t67.5 -25t79 26.5q48 29 77 86q13 21 34.5 12t11.5 -32q-42 -75 -90 -110q-42 -31 -93 -38.5t-94 8t-72.5 57t-30.5 99.5zM1050 2189
q-232 0 -719 -1789q-14 -6 -172 -20q-159 0 -159 -50v-4q7 -16 23 -16l280 20h4q-197 -762 -272 -1105q0 -29 35 -35h19l28 19q15 26 116 463q163 637 179 669q604 39 860 39q46 -635 78 -964q0 -59 31 -59q25 0 35 24q-37 335 -82 999q5 0 12 4q109 -4 179 -4q58 3 58 24
v11q-1 12 -31 12h-222q-103 1762 -272 1762h-8zM424 400q170 629 342 1132q187 532 280 591q104 0 226 -1692v-4q-438 0 -848 -27z" />
    <glyph glyph-name="uni1EB7" unicode="&#x1eb7;" horiz-adv-x="513" 
d="M51 191q64 -16 64 -50v-5q-5 -47 -38 -47q-43 0 -62 51l1 27q17 24 35 24zM47 922q2 18 31.5 18.5t32.5 -17.5q4 -48 28.5 -71t56.5 -21t66 22q39 23 65 72q11 17 28.5 9.5t9.5 -26.5q-35 -62 -75 -92q-35 -26 -77.5 -32t-79 7t-61 47.5t-25.5 83.5zM279 735h15
q2 0 10 -11v-2q-27 -213 -27 -290q5 -147 40 -147h9q33 36 68 107q99 188 102 188q20 17 28 12q14 -2 14 -11l-1 -10q-1 -3 -35 -62q-66 -140 -147 -245q-19 -15 -40 -15h-15q-57 0 -75 98q-4 25 -4 62v23q0 54 11 156v2h-2q-142 -273 -224 -273q-36 0 -56 47q-6 16 -6 43
v21q0 111 68 215q52 64 109 64q46 0 96 -40q36 68 62 68zM19 417q0 -49 20 -49q30 0 106 154l51 106h-15q-8 0 -36 17h-10q-55 0 -104 -151q-12 -45 -12 -77z" />
    <glyph glyph-name="uni1EB8" unicode="&#x1eb8;" horiz-adv-x="1364" 
d="M765 -949q78 -19 78 -61v-6q-4 -58 -46 -58q-52 0 -76 63l1 33q20 29 43 29zM341 2130l13 1q34 1 36 -31q458 49 933 65l497 18q24 -5 24 -12l1 -11q-15 -26 -50 -28q-908 -33 -1427 -96q-82 -388 -147 -1383q-5 -88 -4 -104q441 68 720 79l93 4q143 5 145 -33
q-17 -29 -55 -31q-63 10 -136 9q-283 -11 -770 -91l-3 -6q-11 -373 -4 -569l3 -58q15 -444 116 -578q49 -33 131 -30q160 4 616 171q363 130 503 134q68 3 70 -26q1 -9 -11 -16.5t-36 -14.5l-26 1l-45 -1q-180 -8 -684 -211q-259 -93 -374 -98l-32 -1q-162 -6 -215 128
q-83 197 -100 653q-7 177 -2 502h-2q-59 -18 -72 -18l-10 -1q-17 0 -30 18v8q-1 33 117 60q31 677 89 1151q21 146 52 335h-2q-77 -10 -262 -50h-2q-37 -1 -39 25q-1 20 37.5 35.5t117.5 26.5q70 17 172 30q-2 32 54 44z" />
    <glyph glyph-name="uni1EB9" unicode="&#x1eb9;" horiz-adv-x="415" 
d="M51 151q64 -16 64 -50v-5q-5 -47 -38 -47q-43 0 -62 51l1 27q17 24 35 24zM137 732h20q41 0 58 -75q0 -95 -188 -163q-8 -39 -13 -90q0 -98 62 -98q94 0 320 289q14 9 29 9q23 -8 23 -12v-3q0 -24 -155 -194q-142 -134 -230 -134h-13q-72 0 -100 75q-10 23 -10 50v27
q0 126 110 271q51 48 87 48zM50 556q3 0 3 -3q81 43 81 87v12q0 6 -6 26q-52 -54 -78 -122z" />
    <glyph glyph-name="uni1EBA" unicode="&#x1eba;" horiz-adv-x="1364" 
d="M1007 2531h7q62 0 64 -62q9 -71 -91 -180h-10q-17 0 -20 10v6q64 98 28 106t-38 44q1 73 60 76zM341 2130l13 1q34 1 36 -31q458 49 933 65l497 18q24 -5 24 -12l1 -11q-15 -26 -50 -28q-908 -33 -1427 -96q-82 -388 -147 -1383q-5 -88 -4 -104q441 68 720 79l93 4
q143 5 145 -33q-17 -29 -55 -31q-63 10 -136 9q-283 -11 -770 -91l-3 -6q-11 -373 -4 -569l3 -58q15 -444 116 -578q49 -33 131 -30q160 4 616 171q363 130 503 134q68 3 70 -26q1 -9 -11 -16.5t-36 -14.5l-26 1l-45 -1q-180 -8 -684 -211q-259 -93 -374 -98l-32 -1
q-162 -6 -215 128q-83 197 -100 653q-7 177 -2 502h-2q-59 -18 -72 -18l-10 -1q-17 0 -30 18v8q-1 33 117 60q31 677 89 1151q21 146 52 335h-2q-77 -10 -262 -50h-2q-37 -1 -39 25q-1 20 37.5 35.5t117.5 26.5q70 17 172 30q-2 32 54 44z" />
    <glyph glyph-name="uni1EBB" unicode="&#x1ebb;" horiz-adv-x="415" 
d="M185 1013h5q50 0 51 -49q7 -56 -72 -141h-7q-14 0 -16 8v5q50 77 22 83q-29 6 -30 34q1 58 47 60zM137 732h20q41 0 58 -75q0 -95 -188 -163q-8 -39 -13 -90q0 -98 62 -98q94 0 320 289q14 9 29 9q23 -8 23 -12v-3q0 -24 -155 -194q-142 -134 -230 -134h-13
q-72 0 -100 75q-10 23 -10 50v27q0 126 110 271q51 48 87 48zM50 556q3 0 3 -3q81 43 81 87v12q0 6 -6 26q-52 -54 -78 -122z" />
    <glyph glyph-name="uni1EBC" unicode="&#x1ebc;" horiz-adv-x="1364" 
d="M873 2495h7q50 0 157 -74l2 -1q2 0 5.5 -0.5t7.5 -0.5q16 0 40 57q20 19 36 19h7q21 0 29 -14v-7q-40 -108 -110 -108h-7q-51 0 -148 67q-16 10 -24 10q-14 -1 -40 -62q-23 -15 -41 -15q-29 0 -29 22q39 107 108 107zM341 2130l13 1q34 1 36 -31q458 49 933 65l497 18
q24 -5 24 -12l1 -11q-15 -26 -50 -28q-908 -33 -1427 -96q-82 -388 -147 -1383q-5 -88 -4 -104q441 68 720 79l93 4q143 5 145 -33q-17 -29 -55 -31q-63 10 -136 9q-283 -11 -770 -91l-3 -6q-11 -373 -4 -569l3 -58q15 -444 116 -578q49 -33 131 -30q160 4 616 171
q363 130 503 134q68 3 70 -26q1 -9 -11 -16.5t-36 -14.5l-26 1l-45 -1q-180 -8 -684 -211q-259 -93 -374 -98l-32 -1q-162 -6 -215 128q-83 197 -100 653q-7 177 -2 502h-2q-59 -18 -72 -18l-10 -1q-17 0 -30 18v8q-1 33 117 60q31 677 89 1151q21 146 52 335h-2
q-77 -10 -262 -50h-2q-37 -1 -39 25q-1 20 37.5 35.5t117.5 26.5q70 17 172 30q-2 32 54 44z" />
    <glyph glyph-name="uni1EBD" unicode="&#x1ebd;" horiz-adv-x="415" 
d="M239 947l9 6h12q16 0 21 -12v-6q-33 -83 -78 -83h-6q-9 0 -77 30h-12q-6 0 -32 -36q-12 -9 -27 -9h-9q-16 0 -21 12v6q35 92 83 92q12 0 92 -45h3q19 0 42 45zM137 732h20q41 0 58 -75q0 -95 -188 -163q-8 -39 -13 -90q0 -98 62 -98q94 0 320 289q14 9 29 9q23 -8 23 -12
v-3q0 -24 -155 -194q-142 -134 -230 -134h-13q-72 0 -100 75q-10 23 -10 50v27q0 126 110 271q51 48 87 48zM50 556q3 0 3 -3q81 43 81 87v12q0 6 -6 26q-52 -54 -78 -122z" />
    <glyph glyph-name="uni1EBE" unicode="&#x1ebe;" horiz-adv-x="1310" 
d="M1207 2722q24 -20 26 -46q-31 -55 -85 -116q-10 -12 -60 -63q-28 -31 -47 -15l-4 4q-19 27 -3 45l19 21q48 54 118 182v1q14 8 36 -13zM341 2130l13 1q34 1 36 -31q458 49 933 65l497 18q24 -5 24 -12l1 -11q-15 -26 -50 -28q-908 -33 -1427 -96q-82 -388 -147 -1383
q-5 -88 -4 -104q441 68 720 79l93 4q143 5 145 -33q-17 -29 -55 -31q-63 10 -136 9q-283 -11 -770 -91l-3 -6q-11 -373 -4 -569l3 -58q15 -444 116 -578q49 -33 131 -30q160 4 616 171q363 130 503 134q68 3 70 -26q1 -9 -11 -16.5t-36 -14.5l-26 1l-45 -1
q-180 -8 -684 -211q-259 -93 -374 -98l-32 -1q-162 -6 -215 128q-83 197 -100 653q-7 177 -2 502h-2q-59 -18 -72 -18l-10 -1q-17 0 -30 18v8q-1 33 117 60q31 677 89 1151q21 146 52 335h-2q-77 -10 -262 -50h-2q-37 -1 -39 25q-1 20 37.5 35.5t117.5 26.5q70 17 172 30
q-2 32 54 44zM882 2553l11 -1q41 -2 59 -92q7 -18 33 -158v-2q-6 -18 -23 -16h-11q-14 2 -36 113q-25 89 -33 91q-32 -48 -84 -183q-17 -14 -29 -13h-14q-19 2 -18 15q38 124 74.5 185.5t70.5 60.5z" />
    <glyph glyph-name="uni1EBF" unicode="&#x1ebf;" horiz-adv-x="415" 
d="M440 1106q18 -22 17 -44q-32 -43 -89 -92q-4 -3 -60 -47q-28 -25 -43 -8l-3 4q-14 27 3 41l19 15q43 37 125 145l1 1q14 5 30 -15zM137 732h20q41 0 58 -75q0 -95 -188 -163q-8 -39 -13 -90q0 -98 62 -98q94 0 320 289q14 9 29 9q23 -8 23 -12v-3q0 -24 -155 -194
q-142 -134 -230 -134h-13q-72 0 -100 75q-10 23 -10 50v27q0 126 110 271q51 48 87 48zM50 556q3 0 3 -3q81 43 81 87v12q0 6 -6 26q-52 -54 -78 -122zM134 989h8q31 0 48 -68q6 -12 30 -118v-1q-4 -13 -17 -13h-8q-10 0 -31 84q-22 67 -28 68q-22 -36 -57 -142
q-13 -11 -22 -11h-11q-14 0 -14 10q50 191 102 191z" />
    <glyph glyph-name="uni1EC0" unicode="&#x1ec0;" horiz-adv-x="1310" 
d="M950 2722q22 21 36 13v-1q70 -128 118 -182l19 -21q17 -18 -3 -45l-4 -4q-19 -16 -47 15q-49 51 -60 63q-52 58 -84 116q2 26 25 46zM341 2130l13 1q34 1 36 -31q458 49 933 65l497 18q24 -5 24 -12l1 -11q-15 -26 -50 -28q-908 -33 -1427 -96q-82 -388 -147 -1383
q-5 -88 -4 -104q441 68 720 79l93 4q143 5 145 -33q-17 -29 -55 -31q-63 10 -136 9q-283 -11 -770 -91l-3 -6q-11 -373 -4 -569l3 -58q15 -444 116 -578q49 -33 131 -30q160 4 616 171q363 130 503 134q68 3 70 -26q1 -9 -11 -16.5t-36 -14.5l-26 1l-45 -1
q-180 -8 -684 -211q-259 -93 -374 -98l-32 -1q-162 -6 -215 128q-83 197 -100 653q-7 177 -2 502h-2q-59 -18 -72 -18l-10 -1q-17 0 -30 18v8q-1 33 117 60q31 677 89 1151q21 146 52 335h-2q-77 -10 -262 -50h-2q-37 -1 -39 25q-1 20 37.5 35.5t117.5 26.5q70 17 172 30
q-2 32 54 44zM882 2553l11 -1q41 -2 59 -92q7 -18 33 -158v-2q-6 -18 -23 -16h-11q-14 2 -36 113q-25 89 -33 91q-32 -48 -84 -183q-17 -14 -29 -13h-14q-19 2 -18 15q38 124 74.5 185.5t70.5 60.5z" />
    <glyph glyph-name="uni1EC1" unicode="&#x1ec1;" horiz-adv-x="415" 
d="M187 1106q17 20 29 15l1 -1q83 -109 126 -145l18 -15q17 -14 4 -41l-4 -4q-14 -18 -43 8q-56 44 -60 47q-55 47 -88 92q-1 22 17 44zM137 732h20q41 0 58 -75q0 -95 -188 -163q-8 -39 -13 -90q0 -98 62 -98q94 0 320 289q14 9 29 9q23 -8 23 -12v-3q0 -24 -155 -194
q-142 -134 -230 -134h-13q-72 0 -100 75q-10 23 -10 50v27q0 126 110 271q51 48 87 48zM50 556q3 0 3 -3q81 43 81 87v12q0 6 -6 26q-52 -54 -78 -122zM134 989h8q31 0 48 -68q6 -12 30 -118v-1q-4 -13 -17 -13h-8q-10 0 -31 84q-22 67 -28 68q-22 -36 -57 -142
q-13 -11 -22 -11h-11q-14 0 -14 10q50 191 102 191z" />
    <glyph glyph-name="uni1EC2" unicode="&#x1ec2;" horiz-adv-x="1310" 
d="M1086 2713h7q62 0 64 -62q9 -71 -91 -180h-10q-17 0 -20 10v6q64 98 28 106t-38 44q1 73 60 76zM341 2130l13 1q34 1 36 -31q458 49 933 65l497 18q24 -5 24 -12l1 -11q-15 -26 -50 -28q-908 -33 -1427 -96q-82 -388 -147 -1383q-5 -88 -4 -104q441 68 720 79l93 4
q143 5 145 -33q-17 -29 -55 -31q-63 10 -136 9q-283 -11 -770 -91l-3 -6q-11 -373 -4 -569l3 -58q15 -444 116 -578q49 -33 131 -30q160 4 616 171q363 130 503 134q68 3 70 -26q1 -9 -11 -16.5t-36 -14.5l-26 1l-45 -1q-180 -8 -684 -211q-259 -93 -374 -98l-32 -1
q-162 -6 -215 128q-83 197 -100 653q-7 177 -2 502h-2q-59 -18 -72 -18l-10 -1q-17 0 -30 18v8q-1 33 117 60q31 677 89 1151q21 146 52 335h-2q-77 -10 -262 -50h-2q-37 -1 -39 25q-1 20 37.5 35.5t117.5 26.5q70 17 172 30q-2 32 54 44zM882 2553l11 -1q41 -2 59 -92
q7 -18 33 -158v-2q-6 -18 -23 -16h-11q-14 2 -36 113q-25 89 -33 91q-32 -48 -84 -183q-17 -14 -29 -13h-14q-19 2 -18 15q38 124 74.5 185.5t70.5 60.5z" />
    <glyph glyph-name="uni1EC3" unicode="&#x1ec3;" horiz-adv-x="415" 
d="M322 1123h5q50 0 51 -49q8 -56 -72 -141h-7q-14 0 -16 8v5q50 77 22 83q-29 6 -30 34q1 58 47 60zM137 732h20q41 0 58 -75q0 -95 -188 -163q-8 -39 -13 -90q0 -98 62 -98q94 0 320 289q14 9 29 9q23 -8 23 -12v-3q0 -24 -155 -194q-142 -134 -230 -134h-13
q-72 0 -100 75q-10 23 -10 50v27q0 126 110 271q51 48 87 48zM50 556q3 0 3 -3q81 43 81 87v12q0 6 -6 26q-52 -54 -78 -122zM134 989h8q31 0 48 -68q6 -12 30 -118v-1q-4 -13 -17 -13h-8q-10 0 -31 84q-22 67 -28 68q-22 -36 -57 -142q-13 -11 -22 -11h-11q-14 0 -14 10
q50 191 102 191z" />
    <glyph glyph-name="uni1EC4" unicode="&#x1ec4;" horiz-adv-x="1310" 
d="M827 2752h7q50 0 157 -74h2q2 -1 5.5 -1.5t7.5 -0.5q16 0 40 57q20 19 36 19h7q21 0 29 -14v-7q-40 -108 -110 -108h-7q-51 0 -148 67q-16 10 -24 10q-14 -1 -40 -62q-23 -15 -41 -15q-29 0 -29 22q39 107 108 107zM341 2130l13 1q34 1 36 -31q458 49 933 65l497 18
q24 -5 24 -12l1 -11q-15 -26 -50 -28q-908 -33 -1427 -96q-82 -388 -147 -1383q-5 -88 -4 -104q441 68 720 79l93 4q143 5 145 -33q-17 -29 -55 -31q-63 10 -136 9q-283 -11 -770 -91l-3 -6q-11 -373 -4 -569l3 -58q15 -444 116 -578q49 -33 131 -30q160 4 616 171
q363 130 503 134q68 3 70 -26q1 -9 -11 -16.5t-36 -14.5l-26 1l-45 -1q-180 -8 -684 -211q-259 -93 -374 -98l-32 -1q-162 -6 -215 128q-83 197 -100 653q-7 177 -2 502h-2q-59 -18 -72 -18l-10 -1q-17 0 -30 18v8q-1 33 117 60q31 677 89 1151q21 146 52 335h-2
q-77 -10 -262 -50h-2q-37 -1 -39 25q-1 20 37.5 35.5t117.5 26.5q70 17 172 30q-2 32 54 44zM882 2553l11 -1q41 -2 59 -92q7 -18 33 -158v-2q-6 -18 -23 -16h-11q-14 2 -36 113q-25 89 -33 91q-32 -48 -84 -183q-17 -14 -29 -13h-14q-19 2 -18 15q38 124 74.5 185.5
t70.5 60.5z" />
    <glyph glyph-name="uni1EC5" unicode="&#x1ec5;" horiz-adv-x="415" 
d="M249 1163l9 6h12q16 0 21 -12v-6q-33 -83 -78 -83h-6q-9 0 -77 30h-12q-6 0 -32 -36q-12 -9 -27 -9h-9q-16 0 -21 12v6q35 92 83 92q12 0 92 -45h3q19 0 42 45zM137 732h20q41 0 58 -75q0 -95 -188 -163q-8 -39 -13 -90q0 -98 62 -98q94 0 320 289q14 9 29 9
q23 -8 23 -12v-3q0 -24 -155 -194q-142 -134 -230 -134h-13q-72 0 -100 75q-10 23 -10 50v27q0 126 110 271q51 48 87 48zM50 556q3 0 3 -3q81 43 81 87v12q0 6 -6 26q-52 -54 -78 -122zM134 989h8q31 0 48 -68q6 -12 30 -118v-1q-4 -13 -17 -13h-8q-10 0 -31 84
q-22 67 -28 68q-22 -36 -57 -142q-13 -11 -22 -11h-11q-14 0 -14 10q50 191 102 191z" />
    <glyph glyph-name="uni1EC6" unicode="&#x1ec6;" horiz-adv-x="1310" 
d="M765 -949q78 -19 78 -61v-6q-4 -58 -46 -58q-52 0 -76 63l1 33q20 29 43 29zM341 2130l13 1q34 1 36 -31q458 49 933 65l497 18q24 -5 24 -12l1 -11q-15 -26 -50 -28q-908 -33 -1427 -96q-82 -388 -147 -1383q-5 -88 -4 -104q441 68 720 79l93 4q143 5 145 -33
q-17 -29 -55 -31q-63 10 -136 9q-283 -11 -770 -91l-3 -6q-11 -373 -4 -569l3 -58q15 -444 116 -578q49 -33 131 -30q160 4 616 171q363 130 503 134q68 3 70 -26q1 -9 -11 -16.5t-36 -14.5l-26 1l-45 -1q-180 -8 -684 -211q-259 -93 -374 -98l-32 -1q-162 -6 -215 128
q-83 197 -100 653q-7 177 -2 502h-2q-59 -18 -72 -18l-10 -1q-17 0 -30 18v8q-1 33 117 60q31 677 89 1151q21 146 52 335h-2q-77 -10 -262 -50h-2q-37 -1 -39 25q-1 20 37.5 35.5t117.5 26.5q70 17 172 30q-2 32 54 44zM882 2553l11 -1q41 -2 59 -92q7 -18 33 -158v-2
q-6 -18 -23 -16h-11q-14 2 -36 113q-25 89 -33 91q-32 -48 -84 -183q-17 -14 -29 -13h-14q-19 2 -18 15q38 124 74.5 185.5t70.5 60.5z" />
    <glyph glyph-name="uni1EC7" unicode="&#x1ec7;" horiz-adv-x="415" 
d="M51 151q64 -16 64 -50v-5q-5 -47 -38 -47q-43 0 -62 51l1 27q17 24 35 24zM137 732h20q41 0 58 -75q0 -95 -188 -163q-8 -39 -13 -90q0 -98 62 -98q94 0 320 289q14 9 29 9q23 -8 23 -12v-3q0 -24 -155 -194q-142 -134 -230 -134h-13q-72 0 -100 75q-10 23 -10 50v27
q0 126 110 271q51 48 87 48zM50 556q3 0 3 -3q81 43 81 87v12q0 6 -6 26q-52 -54 -78 -122zM134 989h8q31 0 48 -68q6 -12 30 -118v-1q-4 -13 -17 -13h-8q-10 0 -31 84q-22 67 -28 68q-22 -36 -57 -142q-13 -11 -22 -11h-11q-14 0 -14 10q50 191 102 191z" />
    <glyph glyph-name="uni1EC8" unicode="&#x1ec8;" horiz-adv-x="792" 
d="M695 2527h7q62 0 64 -62q9 -71 -91 -180h-10q-17 0 -20 10v6q64 98 28 106t-38 44q1 73 60 76zM890 2170h208q26 0 34 -20v-14q-22 -34 -58 -34q-14 0 -136 5q-765 -11 -765 -63q-38 -20 -48 -20h-29q-8 0 -19 20v14q0 42 242 83q247 29 571 29zM648 2068q34 -4 34 -24
q-136 -831 -136 -1879q0 -138 20 -716l4 -10q0 -24 -29 -44h-19q-29 0 -29 281q-24 406 -24 852q0 869 116 1511q31 29 63 29zM752 -658h94q132 0 132 -21v-13q-18 -25 -43 -25h-349q-412 0 -472 -64h-25q-30 0 -30 30q32 42 178 68q212 25 515 25z" />
    <glyph glyph-name="uni1EC9" unicode="&#x1ec9;" horiz-adv-x="252" 
d="M32 688l17 1q4 0 21 -20v-7q-25 -218 -23 -291l1 -68q2 -38 -32 -44l-7 -1q-22 0 -26 84l-2 78q-5 173 21 251q14 17 30 17zM41 892q64 -16 64 -50v-5q-5 -47 -38 -47q-43 0 -62 51l1 27q17 24 35 24zM189 1043h5q50 0 51 -49q7 -56 -72 -141h-7q-14 0 -16 8v5
q50 77 22 83q-29 6 -30 34q1 58 47 60z" />
    <glyph glyph-name="uni1ECA" unicode="&#x1eca;" horiz-adv-x="792" 
d="M545 -889q78 -19 78 -61v-6q-4 -58 -46 -58q-52 0 -76 63l1 33q20 29 43 29zM890 2170h208q26 0 34 -20v-14q-22 -34 -58 -34q-14 0 -136 5q-765 -11 -765 -63q-38 -20 -48 -20h-29q-8 0 -19 20v14q0 42 242 83q247 29 571 29zM648 2068q34 -4 34 -24
q-136 -831 -136 -1879q0 -138 20 -716l4 -10q0 -24 -29 -44h-19q-29 0 -29 281q-24 406 -24 852q0 869 116 1511q31 29 63 29zM752 -658h94q132 0 132 -21v-13q-18 -25 -43 -25h-349q-412 0 -472 -64h-25q-30 0 -30 30q32 42 178 68q212 25 515 25z" />
    <glyph glyph-name="uni1ECB" unicode="&#x1ecb;" horiz-adv-x="252" 
d="M11 163q64 -16 64 -50v-5q-5 -47 -38 -47q-43 0 -62 51l1 27q17 24 35 24zM32 688l17 1q4 0 21 -20v-7q-25 -218 -23 -291l1 -68q2 -38 -32 -44l-7 -1q-22 0 -26 84l-2 78q-5 173 21 251q14 17 30 17zM41 892q64 -16 64 -50v-5q-5 -47 -38 -47q-43 0 -62 51l1 27
q17 24 35 24z" />
    <glyph glyph-name="uni1ECC" unicode="&#x1ecc;" horiz-adv-x="1740" 
d="M585 -949q78 -19 78 -61v-6q-4 -58 -46 -58q-52 0 -76 63l1 33q20 29 43 29zM762 2175q28 -11 30 -27q1 -16 -27.5 -29t-85.5 -23q0 -4 -36 -19v-4h4q110 29 208 34l36 1q432 18 629 -440q85 -224 95 -481l5 -122q27 -665 -249 -1257q-96 -182 -229 -330
q-241 -256 -466 -265l-40 -2q-261 -10 -449 307q-150 293 -166 695l-3 79q-29 719 247 1390q60 133 149 259h-4q-192 -95 -202 -95l-11 -1q-18 11 -18 21q18 36 297 153q142 151 286 156zM119 303l3 -90q22 -555 265 -820q127 -125 290 -118q328 14 611 516
q288 560 256 1350q-27 675 -414 872q-130 49 -240 45l-54 -3q-142 -5 -294 -66q-136 -185 -189 -329q-262 -666 -234 -1357z" />
    <glyph glyph-name="uni1ECD" unicode="&#x1ecd;" horiz-adv-x="417" 
d="M51 163q64 -16 64 -50v-5q-5 -47 -38 -47q-43 0 -62 51l1 27q17 24 35 24zM124 681h13q61 -13 61 -36q11 -38 36 -38q32 -13 76 -13h20q31 0 103 9q8 -3 13 -12v-6q-16 -27 -134 -27q-39 0 -94 11l4 -65q0 -170 -118 -222q-16 -2 -21 -2h-17q-57 0 -92 96q-7 29 -7 56v34
q0 114 94 190q46 25 63 25zM122 627q-70 -57 -70 -152v-23q0 -90 45 -118l13 -2q47 0 56 141v42q0 88 -22 88q-19 24 -22 24z" />
    <glyph glyph-name="uni1ECE" unicode="&#x1ece;" horiz-adv-x="1740" 
d="M957 2531h7q62 0 64 -62q9 -71 -91 -180h-10q-17 0 -20 10v6q64 98 28 106t-38 44q1 73 60 76zM762 2175q28 -11 30 -27q1 -16 -27.5 -29t-85.5 -23q0 -4 -36 -19v-4h4q110 29 208 34l36 1q432 18 629 -440q85 -224 95 -481l5 -122q27 -665 -249 -1257
q-96 -182 -229 -330q-241 -256 -466 -265l-40 -2q-261 -10 -449 307q-150 293 -166 695l-3 79q-29 719 247 1390q60 133 149 259h-4q-192 -95 -202 -95l-11 -1q-18 11 -18 21q18 36 297 153q142 151 286 156zM119 303l3 -90q22 -555 265 -820q127 -125 290 -118
q328 14 611 516q288 560 256 1350q-27 675 -414 872q-130 49 -240 45l-54 -3q-142 -5 -294 -66q-136 -185 -189 -329q-262 -666 -234 -1357z" />
    <glyph glyph-name="uni1ECF" unicode="&#x1ecf;" horiz-adv-x="417" 
d="M162 973h5q50 0 51 -49q8 -56 -72 -141h-7q-14 0 -16 8v5q50 77 22 83q-29 6 -30 34q1 58 47 60zM124 681h13q61 -13 61 -36q11 -38 36 -38q32 -13 76 -13h20q31 0 103 9q8 -3 13 -12v-6q-16 -27 -134 -27q-39 0 -94 11l4 -65q0 -170 -118 -222q-16 -2 -21 -2h-17
q-57 0 -92 96q-7 29 -7 56v34q0 114 94 190q46 25 63 25zM122 627q-70 -57 -70 -152v-23q0 -90 45 -118l13 -2q47 0 56 141v42q0 88 -22 88q-19 24 -22 24z" />
    <glyph glyph-name="uni1ED0" unicode="&#x1ed0;" horiz-adv-x="1740" 
d="M1222 2712q24 -20 26 -46q-31 -55 -85 -116q-11 -12 -60 -63q-28 -31 -47 -15l-4 4q-20 27 -3 45l19 21q48 54 118 182v1q14 8 36 -13zM762 2175q28 -11 30 -27q1 -16 -27.5 -29t-85.5 -23q0 -4 -36 -19v-4h4q110 29 208 34l36 1q432 18 629 -440q85 -224 95 -481l5 -122
q27 -665 -249 -1257q-96 -182 -229 -330q-241 -256 -466 -265l-40 -2q-261 -10 -449 307q-150 293 -166 695l-3 79q-29 719 247 1390q60 133 149 259h-4q-192 -95 -202 -95l-11 -1q-18 11 -18 21q18 36 297 153q142 151 286 156zM119 303l3 -90q22 -555 265 -820
q127 -125 290 -118q328 14 611 516q288 560 256 1350q-27 675 -414 872q-130 49 -240 45l-54 -3q-142 -5 -294 -66q-136 -185 -189 -329q-262 -666 -234 -1357zM897 2543l11 -1q41 -2 59 -92q7 -18 33 -158v-2q-6 -18 -23 -16h-11q-14 2 -36 113q-25 89 -33 91
q-31 -48 -84 -183q-17 -14 -29 -13h-14q-20 2 -18 15q38 124 74.5 185.5t70.5 60.5z" />
    <glyph glyph-name="uni1ED1" unicode="&#x1ed1;" horiz-adv-x="417" 
d="M431 1106q18 -22 17 -44q-32 -43 -89 -92q-4 -3 -60 -47q-28 -25 -43 -8l-3 4q-14 27 3 41l19 15q43 37 125 145l1 1q13 5 30 -15zM124 681h13q61 -13 61 -36q11 -38 36 -38q32 -13 76 -13h20q31 0 103 9q8 -3 13 -12v-6q-16 -27 -134 -27q-39 0 -94 11l4 -65
q0 -170 -118 -222q-16 -2 -21 -2h-17q-57 0 -92 96q-7 29 -7 56v34q0 114 94 190q46 25 63 25zM122 627q-70 -57 -70 -152v-23q0 -90 45 -118l13 -2q47 0 56 141v42q0 88 -22 88q-19 24 -22 24zM125 989h8q31 0 48 -68q6 -12 30 -118v-1q-4 -13 -17 -13h-8q-10 0 -31 84
q-22 67 -28 68q-22 -36 -57 -142q-13 -11 -22 -11h-11q-14 0 -14 10q50 191 102 191z" />
    <glyph glyph-name="uni1ED2" unicode="&#x1ed2;" horiz-adv-x="1740" 
d="M965 2712q22 21 36 13v-1q70 -128 118 -182l19 -21q16 -18 -3 -45l-4 -4q-19 -16 -47 15q-50 51 -60 63q-52 58 -84 116q2 26 25 46zM762 2175q28 -11 30 -27q1 -16 -27.5 -29t-85.5 -23q0 -4 -36 -19v-4h4q110 29 208 34l36 1q432 18 629 -440q85 -224 95 -481l5 -122
q27 -665 -249 -1257q-96 -182 -229 -330q-241 -256 -466 -265l-40 -2q-261 -10 -449 307q-150 293 -166 695l-3 79q-29 719 247 1390q60 133 149 259h-4q-192 -95 -202 -95l-11 -1q-18 11 -18 21q18 36 297 153q142 151 286 156zM119 303l3 -90q22 -555 265 -820
q127 -125 290 -118q328 14 611 516q288 560 256 1350q-27 675 -414 872q-130 49 -240 45l-54 -3q-142 -5 -294 -66q-136 -185 -189 -329q-262 -666 -234 -1357zM897 2543l11 -1q41 -2 59 -92q7 -18 33 -158v-2q-6 -18 -23 -16h-11q-14 2 -36 113q-25 89 -33 91
q-31 -48 -84 -183q-17 -14 -29 -13h-14q-20 2 -18 15q38 124 74.5 185.5t70.5 60.5z" />
    <glyph glyph-name="uni1ED3" unicode="&#x1ed3;" horiz-adv-x="417" 
d="M178 1106q17 20 29 15l1 -1q83 -109 126 -145l18 -15q17 -14 4 -41l-4 -4q-14 -18 -43 8q-56 44 -60 47q-55 47 -88 92q-1 22 17 44zM124 681h13q61 -13 61 -36q11 -38 36 -38q32 -13 76 -13h20q31 0 103 9q8 -3 13 -12v-6q-16 -27 -134 -27q-39 0 -94 11l4 -65
q0 -170 -118 -222q-16 -2 -21 -2h-17q-57 0 -92 96q-7 29 -7 56v34q0 114 94 190q46 25 63 25zM122 627q-70 -57 -70 -152v-23q0 -90 45 -118l13 -2q47 0 56 141v42q0 88 -22 88q-19 24 -22 24zM125 989h8q31 0 48 -68q6 -12 30 -118v-1q-4 -13 -17 -13h-8q-10 0 -31 84
q-22 67 -28 68q-22 -36 -57 -142q-13 -11 -22 -11h-11q-14 0 -14 10q50 191 102 191z" />
    <glyph glyph-name="uni1ED4" unicode="&#x1ed4;" horiz-adv-x="1740" 
d="M1101 2703h7q62 0 64 -62q9 -71 -91 -180h-10q-17 0 -20 10v6q64 98 28 106t-38 44q1 73 60 76zM762 2175q28 -11 30 -27q1 -16 -27.5 -29t-85.5 -23q0 -4 -36 -19v-4h4q110 29 208 34l36 1q432 18 629 -440q85 -224 95 -481l5 -122q27 -665 -249 -1257
q-96 -182 -229 -330q-241 -256 -466 -265l-40 -2q-261 -10 -449 307q-150 293 -166 695l-3 79q-29 719 247 1390q60 133 149 259h-4q-192 -95 -202 -95l-11 -1q-18 11 -18 21q18 36 297 153q142 151 286 156zM119 303l3 -90q22 -555 265 -820q127 -125 290 -118
q328 14 611 516q288 560 256 1350q-27 675 -414 872q-130 49 -240 45l-54 -3q-142 -5 -294 -66q-136 -185 -189 -329q-262 -666 -234 -1357zM897 2543l11 -1q41 -2 59 -92q7 -18 33 -158v-2q-6 -18 -23 -16h-11q-14 2 -36 113q-25 89 -33 91q-31 -48 -84 -183
q-17 -14 -29 -13h-14q-20 2 -18 15q38 124 74.5 185.5t70.5 60.5z" />
    <glyph glyph-name="uni1ED5" unicode="&#x1ed5;" horiz-adv-x="417" 
d="M313 1123h5q50 0 51 -49q7 -56 -72 -141h-7q-14 0 -16 8v5q50 77 22 83q-29 6 -30 34q1 58 47 60zM124 681h13q61 -13 61 -36q11 -38 36 -38q32 -13 76 -13h20q31 0 103 9q8 -3 13 -12v-6q-16 -27 -134 -27q-39 0 -94 11l4 -65q0 -170 -118 -222q-16 -2 -21 -2h-17
q-57 0 -92 96q-7 29 -7 56v34q0 114 94 190q46 25 63 25zM122 627q-70 -57 -70 -152v-23q0 -90 45 -118l13 -2q47 0 56 141v42q0 88 -22 88q-19 24 -22 24zM125 989h8q31 0 48 -68q6 -12 30 -118v-1q-4 -13 -17 -13h-8q-10 0 -31 84q-22 67 -28 68q-22 -36 -57 -142
q-13 -11 -22 -11h-11q-14 0 -14 10q50 191 102 191z" />
    <glyph glyph-name="uni1ED6" unicode="&#x1ed6;" horiz-adv-x="1740" 
d="M842 2742h7q50 0 157 -74h2q2 -1 5.5 -1.5t7.5 -0.5q16 0 40 57q20 19 36 19h7q21 0 29 -14v-7q-41 -108 -110 -108h-7q-51 0 -148 67q-16 10 -24 10q-14 -1 -40 -62q-22 -15 -41 -15q-29 0 -29 22q39 107 108 107zM762 2175q28 -11 30 -27q1 -16 -27.5 -29t-85.5 -23
q0 -4 -36 -19v-4h4q110 29 208 34l36 1q432 18 629 -440q85 -224 95 -481l5 -122q27 -665 -249 -1257q-96 -182 -229 -330q-241 -256 -466 -265l-40 -2q-261 -10 -449 307q-150 293 -166 695l-3 79q-29 719 247 1390q60 133 149 259h-4q-192 -95 -202 -95l-11 -1
q-18 11 -18 21q18 36 297 153q142 151 286 156zM119 303l3 -90q22 -555 265 -820q127 -125 290 -118q328 14 611 516q288 560 256 1350q-27 675 -414 872q-130 49 -240 45l-54 -3q-142 -5 -294 -66q-136 -185 -189 -329q-262 -666 -234 -1357zM897 2543l11 -1q41 -2 59 -92
q7 -18 33 -158v-2q-6 -18 -23 -16h-11q-14 2 -36 113q-25 89 -33 91q-31 -48 -84 -183q-17 -14 -29 -13h-14q-20 2 -18 15q38 124 74.5 185.5t70.5 60.5z" />
    <glyph glyph-name="uni1ED7" unicode="&#x1ed7;" horiz-adv-x="417" 
d="M240 1163l9 6h12q17 0 21 -12v-6q-33 -83 -78 -83h-6q-10 0 -77 30h-12q-7 0 -32 -36q-12 -9 -27 -9h-9q-17 0 -21 12v6q35 92 83 92q13 0 92 -45h3q20 0 42 45zM124 681h13q61 -13 61 -36q11 -38 36 -38q32 -13 76 -13h20q31 0 103 9q8 -3 13 -12v-6q-16 -27 -134 -27
q-39 0 -94 11l4 -65q0 -170 -118 -222q-16 -2 -21 -2h-17q-57 0 -92 96q-7 29 -7 56v34q0 114 94 190q46 25 63 25zM122 627q-70 -57 -70 -152v-23q0 -90 45 -118l13 -2q47 0 56 141v42q0 88 -22 88q-19 24 -22 24zM125 989h8q31 0 48 -68q6 -12 30 -118v-1q-4 -13 -17 -13
h-8q-10 0 -31 84q-22 67 -28 68q-22 -36 -57 -142q-13 -11 -22 -11h-11q-14 0 -14 10q50 191 102 191z" />
    <glyph glyph-name="uni1ED8" unicode="&#x1ed8;" horiz-adv-x="1740" 
d="M585 -949q78 -19 78 -61v-6q-4 -58 -46 -58q-52 0 -76 63l1 33q20 29 43 29zM762 2175q28 -11 30 -27q1 -16 -27.5 -29t-85.5 -23q0 -4 -36 -19v-4h4q110 29 208 34l36 1q432 18 629 -440q85 -224 95 -481l5 -122q27 -665 -249 -1257q-96 -182 -229 -330
q-241 -256 -466 -265l-40 -2q-261 -10 -449 307q-150 293 -166 695l-3 79q-29 719 247 1390q60 133 149 259h-4q-192 -95 -202 -95l-11 -1q-18 11 -18 21q18 36 297 153q142 151 286 156zM119 303l3 -90q22 -555 265 -820q127 -125 290 -118q328 14 611 516
q288 560 256 1350q-27 675 -414 872q-130 49 -240 45l-54 -3q-142 -5 -294 -66q-136 -185 -189 -329q-262 -666 -234 -1357zM897 2543l11 -1q41 -2 59 -92q7 -18 33 -158v-2q-6 -18 -23 -16h-11q-14 2 -36 113q-25 89 -33 91q-31 -48 -84 -183q-17 -14 -29 -13h-14
q-20 2 -18 15q38 124 74.5 185.5t70.5 60.5z" />
    <glyph glyph-name="uni1ED9" unicode="&#x1ed9;" horiz-adv-x="417" 
d="M51 163q64 -16 64 -50v-5q-5 -47 -38 -47q-43 0 -62 51l1 27q17 24 35 24zM124 681h13q61 -13 61 -36q11 -38 36 -38q32 -13 76 -13h20q31 0 103 9q8 -3 13 -12v-6q-16 -27 -134 -27q-39 0 -94 11l4 -65q0 -170 -118 -222q-16 -2 -21 -2h-17q-57 0 -92 96q-7 29 -7 56v34
q0 114 94 190q46 25 63 25zM122 627q-70 -57 -70 -152v-23q0 -90 45 -118l13 -2q47 0 56 141v42q0 88 -22 88q-19 24 -22 24zM125 989h8q31 0 48 -68q6 -12 30 -118v-1q-4 -13 -17 -13h-8q-10 0 -31 84q-22 67 -28 68q-22 -36 -57 -142q-13 -11 -22 -11h-11q-14 0 -14 10
q50 191 102 191z" />
    <glyph glyph-name="uni1EDA" unicode="&#x1eda;" horiz-adv-x="1740" 
d="M967 2535q24 -20 26 -46q-31 -55 -85 -116q-10 -12 -60 -63q-28 -31 -47 -15l-4 4q-19 27 -3 45l19 21q48 54 118 182v1q14 8 36 -13zM762 2175q28 -11 30 -27q1 -16 -27.5 -29t-85.5 -23q0 -4 -36 -19v-4h4q110 29 208 34l36 1q350 14 545 -283q18 15 50.5 36.5
t50.5 35.5t32 34t5.5 45.5t-38.5 57.5q-24 6 -30 25.5t7 36.5t34 16q41 -1 75 -38t40.5 -83.5t-17.5 -90.5q-16 -28 -45.5 -49t-71.5 -42.5t-61 -34.5q21 -37 53 -106q85 -224 95 -481l5 -122q27 -665 -249 -1257q-96 -182 -229 -330q-241 -256 -466 -265l-40 -2
q-261 -10 -449 307q-150 293 -166 695l-3 79q-29 719 247 1390q60 133 149 259h-4q-192 -95 -202 -95l-11 -1q-18 11 -18 21q18 36 297 153q142 151 286 156zM119 303l3 -90q22 -555 265 -820q127 -125 290 -118q328 14 611 516q288 560 256 1350q-27 675 -414 872
q-130 49 -240 45l-54 -3q-142 -5 -294 -66q-136 -185 -189 -329q-262 -666 -234 -1357z" />
    <glyph glyph-name="uni1EDB" unicode="&#x1edb;" horiz-adv-x="417" 
d="M254 999q18 -22 17 -44q-32 -43 -89 -92q-4 -3 -60 -47q-28 -25 -43 -8l-3 4q-14 27 3 41l19 15q43 37 125 145l1 1q14 4 30 -15zM124 681h13q61 -13 61 -36q0 -1 1 -4t1 -4q9 8 35 25.5t34.5 26t8 27t-22.5 41.5q-22 5 -17.5 26t24.5 20q37 -2 58.5 -45.5t-1.5 -78.5
q-9 -16 -24.5 -27.5t-40 -24t-33.5 -18.5q8 -2 13 -2q32 -13 76 -13h20q31 0 103 9q8 -3 13 -12v-6q-16 -27 -134 -27q-39 0 -94 11l4 -65q0 -170 -118 -222q-16 -2 -21 -2h-17q-57 0 -92 96q-7 29 -7 56v34q0 114 94 190q46 25 63 25zM122 627q-70 -57 -70 -152v-23
q0 -90 45 -118l13 -2q47 0 56 141v42q0 88 -22 88q-19 24 -22 24z" />
    <glyph glyph-name="uni1EDC" unicode="&#x1edc;" horiz-adv-x="1740" 
d="M812 2535q22 21 36 13v-1q70 -128 118 -182l19 -21q17 -18 -3 -45l-4 -4q-19 -16 -47 15q-49 51 -60 63q-52 58 -84 116q2 26 25 46zM762 2175q28 -11 30 -27q1 -16 -27.5 -29t-85.5 -23q0 -4 -36 -19v-4h4q110 29 208 34l36 1q350 14 545 -283q18 15 50.5 36.5
t50.5 35.5t32 34t5.5 45.5t-38.5 57.5q-24 6 -30 25.5t7 36.5t34 16q41 -1 75 -38t40.5 -83.5t-17.5 -90.5q-16 -28 -45.5 -49t-71.5 -42.5t-61 -34.5q21 -37 53 -106q85 -224 95 -481l5 -122q27 -665 -249 -1257q-96 -182 -229 -330q-241 -256 -466 -265l-40 -2
q-261 -10 -449 307q-150 293 -166 695l-3 79q-29 719 247 1390q60 133 149 259h-4q-192 -95 -202 -95l-11 -1q-18 11 -18 21q18 36 297 153q142 151 286 156zM119 303l3 -90q22 -555 265 -820q127 -125 290 -118q328 14 611 516q288 560 256 1350q-27 675 -414 872
q-130 49 -240 45l-54 -3q-142 -5 -294 -66q-136 -185 -189 -329q-262 -666 -234 -1357z" />
    <glyph glyph-name="uni1EDD" unicode="&#x1edd;" horiz-adv-x="417" 
d="M-5 999q17 20 29 15l1 -1q83 -109 126 -145l18 -15q17 -14 4 -41l-4 -4q-14 -18 -43 8q-56 44 -60 47q-55 47 -88 92q-1 22 17 44zM124 681h13q61 -13 61 -36q0 -1 1 -4t1 -4q9 8 35 25.5t34.5 26t8 27t-22.5 41.5q-22 5 -17.5 26t24.5 20q37 -2 58.5 -45.5t-1.5 -78.5
q-9 -16 -24.5 -27.5t-40 -24t-33.5 -18.5q8 -2 13 -2q32 -13 76 -13h20q31 0 103 9q8 -3 13 -12v-6q-16 -27 -134 -27q-39 0 -94 11l4 -65q0 -170 -118 -222q-16 -2 -21 -2h-17q-57 0 -92 96q-7 29 -7 56v34q0 114 94 190q46 25 63 25zM122 627q-70 -57 -70 -152v-23
q0 -90 45 -118l13 -2q47 0 56 141v42q0 88 -22 88q-19 24 -22 24z" />
    <glyph glyph-name="uni1EDE" unicode="&#x1ede;" horiz-adv-x="1740" 
d="M957 2531h7q62 0 64 -62q9 -71 -91 -180h-10q-17 0 -20 10v6q64 98 28 106t-38 44q1 73 60 76zM762 2175q28 -11 30 -27q1 -16 -27.5 -29t-85.5 -23q0 -4 -36 -19v-4h4q110 29 208 34l36 1q350 14 545 -283q18 15 50.5 36.5t50.5 35.5t32 34t5.5 45.5t-38.5 57.5
q-24 6 -30 25.5t7 36.5t34 16q41 -1 75 -38t40.5 -83.5t-17.5 -90.5q-16 -28 -45.5 -49t-71.5 -42.5t-61 -34.5q21 -37 53 -106q85 -224 95 -481l5 -122q27 -665 -249 -1257q-96 -182 -229 -330q-241 -256 -466 -265l-40 -2q-261 -10 -449 307q-150 293 -166 695l-3 79
q-29 719 247 1390q60 133 149 259h-4q-192 -95 -202 -95l-11 -1q-18 11 -18 21q18 36 297 153q142 151 286 156zM119 303l3 -90q22 -555 265 -820q127 -125 290 -118q328 14 611 516q288 560 256 1350q-27 675 -414 872q-130 49 -240 45l-54 -3q-142 -5 -294 -66
q-136 -185 -189 -329q-262 -666 -234 -1357z" />
    <glyph glyph-name="uni1EDF" unicode="&#x1edf;" horiz-adv-x="417" 
d="M162 973h5q50 0 51 -49q8 -56 -72 -141h-7q-14 0 -16 8v5q50 77 22 83q-29 6 -30 34q1 58 47 60zM124 681h13q61 -13 61 -36q0 -1 1 -4t1 -4q9 8 35 25.5t34.5 26t8 27t-22.5 41.5q-22 5 -17.5 26t24.5 20q37 -2 58.5 -45.5t-1.5 -78.5q-9 -16 -24.5 -27.5t-40 -24
t-33.5 -18.5q8 -2 13 -2q32 -13 76 -13h20q31 0 103 9q8 -3 13 -12v-6q-16 -27 -134 -27q-39 0 -94 11l4 -65q0 -170 -118 -222q-16 -2 -21 -2h-17q-57 0 -92 96q-7 29 -7 56v34q0 114 94 190q46 25 63 25zM122 627q-70 -57 -70 -152v-23q0 -90 45 -118l13 -2q47 0 56 141
v42q0 88 -22 88q-19 24 -22 24z" />
    <glyph glyph-name="uni1EE0" unicode="&#x1ee0;" horiz-adv-x="1740" 
d="M780 2495h7q50 0 157 -74l2 -1q2 0 5.5 -0.5t7.5 -0.5q16 0 40 57q20 19 36 19h7q21 0 29 -14v-7q-41 -108 -110 -108h-7q-51 0 -148 67q-16 10 -24 10q-14 -1 -40 -62q-23 -15 -41 -15q-29 0 -29 22q39 107 108 107zM762 2175q28 -11 30 -27q1 -16 -27.5 -29t-85.5 -23
q0 -4 -36 -19v-4h4q110 29 208 34l36 1q350 14 545 -283q18 15 50.5 36.5t50.5 35.5t32 34t5.5 45.5t-38.5 57.5q-24 6 -30 25.5t7 36.5t34 16q41 -1 75 -38t40.5 -83.5t-17.5 -90.5q-16 -28 -45.5 -49t-71.5 -42.5t-61 -34.5q21 -37 53 -106q85 -224 95 -481l5 -122
q27 -665 -249 -1257q-96 -182 -229 -330q-241 -256 -466 -265l-40 -2q-261 -10 -449 307q-150 293 -166 695l-3 79q-29 719 247 1390q60 133 149 259h-4q-192 -95 -202 -95l-11 -1q-18 11 -18 21q18 36 297 153q142 151 286 156zM119 303l3 -90q22 -555 265 -820
q127 -125 290 -118q328 14 611 516q288 560 256 1350q-27 675 -414 872q-130 49 -240 45l-54 -3q-142 -5 -294 -66q-136 -185 -189 -329q-262 -666 -234 -1357z" />
    <glyph glyph-name="uni1EE1" unicode="&#x1ee1;" horiz-adv-x="417" 
d="M239 937l9 6h12q16 0 21 -12v-6q-33 -83 -78 -83h-6q-9 0 -77 30h-12q-6 0 -32 -36q-12 -9 -27 -9h-9q-16 0 -21 12v6q35 92 83 92q12 0 92 -45h3q19 0 42 45zM124 681h13q61 -13 61 -36q0 -1 1 -4t1 -4q9 8 35 25.5t34.5 26t8 27t-22.5 41.5q-22 5 -17.5 26t24.5 20
q37 -2 58.5 -45.5t-1.5 -78.5q-9 -16 -24.5 -27.5t-40 -24t-33.5 -18.5q8 -2 13 -2q32 -13 76 -13h20q31 0 103 9q8 -3 13 -12v-6q-16 -27 -134 -27q-39 0 -94 11l4 -65q0 -170 -118 -222q-16 -2 -21 -2h-17q-57 0 -92 96q-7 29 -7 56v34q0 114 94 190q46 25 63 25zM122 627
q-70 -57 -70 -152v-23q0 -90 45 -118l13 -2q47 0 56 141v42q0 88 -22 88q-19 24 -22 24z" />
    <glyph glyph-name="uni1EE2" unicode="&#x1ee2;" horiz-adv-x="1740" 
d="M585 -949q78 -19 78 -61v-6q-4 -58 -46 -58q-52 0 -76 63l1 33q20 29 43 29zM762 2175q28 -11 30 -27q1 -16 -27.5 -29t-85.5 -23q0 -4 -36 -19v-4h4q110 29 208 34l36 1q350 14 545 -283q18 15 50.5 36.5t50.5 35.5t32 34t5.5 45.5t-38.5 57.5q-24 6 -30 25.5t7 36.5
t34 16q41 -1 75 -38t40.5 -83.5t-17.5 -90.5q-16 -28 -45.5 -49t-71.5 -42.5t-61 -34.5q21 -37 53 -106q85 -224 95 -481l5 -122q27 -665 -249 -1257q-96 -182 -229 -330q-241 -256 -466 -265l-40 -2q-261 -10 -449 307q-150 293 -166 695l-3 79q-29 719 247 1390
q60 133 149 259h-4q-192 -95 -202 -95l-11 -1q-18 11 -18 21q18 36 297 153q142 151 286 156zM119 303l3 -90q22 -555 265 -820q127 -125 290 -118q328 14 611 516q288 560 256 1350q-27 675 -414 872q-130 49 -240 45l-54 -3q-142 -5 -294 -66q-136 -185 -189 -329
q-262 -666 -234 -1357z" />
    <glyph glyph-name="uni1EE3" unicode="&#x1ee3;" horiz-adv-x="417" 
d="M51 163q64 -16 64 -50v-5q-5 -47 -38 -47q-43 0 -62 51l1 27q17 24 35 24zM124 681h13q61 -13 61 -36q0 -1 1 -4t1 -4q9 8 35 25.5t34.5 26t8 27t-22.5 41.5q-22 5 -17.5 26t24.5 20q37 -2 58.5 -45.5t-1.5 -78.5q-9 -16 -24.5 -27.5t-40 -24t-33.5 -18.5q8 -2 13 -2
q32 -13 76 -13h20q31 0 103 9q8 -3 13 -12v-6q-16 -27 -134 -27q-39 0 -94 11l4 -65q0 -170 -118 -222q-16 -2 -21 -2h-17q-57 0 -92 96q-7 29 -7 56v34q0 114 94 190q46 25 63 25zM122 627q-70 -57 -70 -152v-23q0 -90 45 -118l13 -2q47 0 56 141v42q0 88 -22 88
q-19 24 -22 24z" />
    <glyph glyph-name="uni1EE4" unicode="&#x1ee4;" horiz-adv-x="1982" 
d="M805 -889q78 -19 78 -61v-6q-4 -58 -46 -58q-52 0 -76 63l1 33q20 29 43 29zM144 2200h13q31 0 40 -48q-78 -712 -78 -1239v-105q0 -960 248 -1331q90 -113 183 -113q323 0 706 1172q100 286 277 910q64 172 138 172h10q71 0 89 -339q17 -206 17 -442v-83
q0 -444 -76 -1530q-19 -19 -46 -19q-17 0 -27 19l3 11q62 1051 62 1435v30q0 28 3 43q-3 15 -3 43v27q0 417 -43 676l-14 19q-34 0 -110 -307q-161 -569 -355 -1080q-183 -459 -340 -639q-161 -183 -301 -183h-22q-165 0 -312 267q-189 398 -189 1225v105q0 556 81 1258
q21 46 46 46z" />
    <glyph glyph-name="uni1EE5" unicode="&#x1ee5;" horiz-adv-x="545" 
d="M101 201q64 -16 64 -50v-5q-5 -47 -38 -47q-43 0 -62 51l1 27q16 24 35 24zM63 751h25q18 -9 18 -20q-50 -101 -46 -232v-14q9 -81 31 -88h4q48 1 144 260q31 67 69 69q5 0 18 -13q-23 -191 -20 -270l1 -43q2 -62 14.5 -92.5t35.5 -29.5q22 6 124 245q44 81 68 83l14 1
q5 0 11 -11q0 -8 -47 -90q-109 -250 -141 -252q0 -8 -31 -12h-22q-81 -3 -86 171q1 73 6 138v4l-4 -1q-94 -211 -174 -214q-38 -1 -61.5 28.5t-30.5 89.5l-2 60q20 232 82 233z" />
    <glyph glyph-name="uni1EE6" unicode="&#x1ee6;" horiz-adv-x="1982" 
d="M947 2521h7q62 0 64 -62q9 -71 -91 -180h-10q-17 0 -20 10v6q64 98 28 106t-38 44q1 73 60 76zM144 2200h13q31 0 40 -48q-78 -712 -78 -1239v-105q0 -960 248 -1331q90 -113 183 -113q323 0 706 1172q100 286 277 910q64 172 138 172h10q71 0 89 -339q17 -206 17 -442
v-83q0 -444 -76 -1530q-19 -19 -46 -19q-17 0 -27 19l3 11q62 1051 62 1435v30q0 28 3 43q-3 15 -3 43v27q0 417 -43 676l-14 19q-34 0 -110 -307q-161 -569 -355 -1080q-183 -459 -340 -639q-161 -183 -301 -183h-22q-165 0 -312 267q-189 398 -189 1225v105q0 556 81 1258
q21 46 46 46z" />
    <glyph glyph-name="uni1EE7" unicode="&#x1ee7;" horiz-adv-x="545" 
d="M222 1033h5q50 0 51 -49q8 -56 -72 -141h-7q-14 0 -16 8v5q50 77 22 83q-29 6 -30 34q1 58 47 60zM63 751h25q18 -9 18 -20q-50 -101 -46 -232v-14q9 -81 31 -88h4q48 1 144 260q31 67 69 69q5 0 18 -13q-23 -191 -20 -270l1 -43q2 -62 14.5 -92.5t35.5 -29.5
q22 6 124 245q44 81 68 83l14 1q5 0 11 -11q0 -8 -47 -90q-109 -250 -141 -252q0 -8 -31 -12h-22q-81 -3 -86 171q1 73 6 138v4l-4 -1q-94 -211 -174 -214q-38 -1 -61.5 28.5t-30.5 89.5l-2 60q20 232 82 233z" />
    <glyph glyph-name="uni1EE8" unicode="&#x1ee8;" horiz-adv-x="1982" 
d="M1047 2535q24 -20 26 -46q-31 -55 -85 -116q-10 -12 -60 -63q-28 -31 -47 -15l-4 4q-19 27 -3 45l19 21q48 54 118 182v1q14 8 36 -13zM144 2200h13q31 0 40 -48q-78 -712 -78 -1239v-105q0 -960 248 -1331q90 -113 183 -113q323 0 706 1172q100 286 277 910
q64 172 138 172h10q23 0 43 -41q14 11 40 28t40 27t29 26.5t16.5 31.5t-7.5 36.5t-33 47.5q-24 6 -30 25.5t7 36.5t34 16q41 -1 75 -38t40.5 -83.5t-17.5 -90.5q-16 -28 -45 -48.5t-70 -42t-60 -34.5q19 -84 27 -236q17 -206 17 -442v-83q0 -444 -76 -1530q-19 -19 -46 -19
q-17 0 -27 19l3 11q62 1051 62 1435v30q0 28 3 43q-3 15 -3 43v27q0 417 -43 676l-14 19q-34 0 -110 -307q-161 -569 -355 -1080q-183 -459 -340 -639q-161 -183 -301 -183h-22q-165 0 -312 267q-189 398 -189 1225v105q0 556 81 1258q21 46 46 46z" />
    <glyph glyph-name="uni1EE9" unicode="&#x1ee9;" horiz-adv-x="545" 
d="M324 999q18 -22 17 -44q-32 -43 -89 -92q-4 -3 -60 -47q-28 -25 -43 -8l-3 4q-14 27 3 41l19 15q43 37 125 145l1 1q14 4 30 -15zM63 751h25q18 -9 18 -20q-50 -101 -46 -232v-14q9 -81 31 -88h4q48 1 144 260q31 67 69 69q5 0 18 -13q0 -4 -1 -11t-2 -11q2 1 13.5 9
t13.5 9.5t11 8.5t10 10t5.5 10t2.5 12t-3 12.5t-7 15t-14 16.5q-22 5 -17.5 26t24.5 20q37 -2 58.5 -45.5t-1.5 -78.5q-9 -16 -25.5 -28t-41 -24.5t-34.5 -19.5q-15 -134 -12 -201l1 -43q2 -62 14.5 -92.5t35.5 -29.5q22 6 124 245q44 81 68 83l14 1q5 0 11 -11
q0 -8 -47 -90q-109 -250 -141 -252q0 -8 -31 -12h-22q-81 -3 -86 171q1 73 6 138v4l-4 -1q-94 -211 -174 -214q-38 -1 -61.5 28.5t-30.5 89.5l-2 60q20 232 82 233z" />
    <glyph glyph-name="uni1EEA" unicode="&#x1eea;" horiz-adv-x="1982" 
d="M912 2535q22 21 36 13v-1q70 -128 118 -182l19 -21q17 -18 -3 -45l-4 -4q-19 -16 -47 15q-49 51 -60 63q-52 58 -84 116q2 26 25 46zM144 2200h13q31 0 40 -48q-78 -712 -78 -1239v-105q0 -960 248 -1331q90 -113 183 -113q323 0 706 1172q100 286 277 910
q64 172 138 172h10q23 0 43 -41q14 11 40 28t40 27t29 26.5t16.5 31.5t-7.5 36.5t-33 47.5q-24 6 -30 25.5t7 36.5t34 16q41 -1 75 -38t40.5 -83.5t-17.5 -90.5q-16 -28 -45 -48.5t-70 -42t-60 -34.5q19 -84 27 -236q17 -206 17 -442v-83q0 -444 -76 -1530q-19 -19 -46 -19
q-17 0 -27 19l3 11q62 1051 62 1435v30q0 28 3 43q-3 15 -3 43v27q0 417 -43 676l-14 19q-34 0 -110 -307q-161 -569 -355 -1080q-183 -459 -340 -639q-161 -183 -301 -183h-22q-165 0 -312 267q-189 398 -189 1225v105q0 556 81 1258q21 46 46 46z" />
    <glyph glyph-name="uni1EEB" unicode="&#x1eeb;" horiz-adv-x="545" 
d="M111 1017q17 20 29 15l1 -1q83 -109 126 -145l18 -15q17 -14 4 -41l-4 -4q-14 -18 -43 8q-56 44 -60 47q-55 47 -88 92q-1 22 17 44zM63 751h25q18 -9 18 -20q-50 -101 -46 -232v-14q9 -81 31 -88h4q48 1 144 260q31 67 69 69q5 0 18 -13q0 -4 -1 -11t-2 -11q2 1 13.5 9
t13.5 9.5t11 8.5t10 10t5.5 10t2.5 12t-3 12.5t-7 15t-14 16.5q-22 5 -17.5 26t24.5 20q37 -2 58.5 -45.5t-1.5 -78.5q-9 -16 -25.5 -28t-41 -24.5t-34.5 -19.5q-15 -134 -12 -201l1 -43q2 -62 14.5 -92.5t35.5 -29.5q22 6 124 245q44 81 68 83l14 1q5 0 11 -11
q0 -8 -47 -90q-109 -250 -141 -252q0 -8 -31 -12h-22q-81 -3 -86 171q1 73 6 138v4l-4 -1q-94 -211 -174 -214q-38 -1 -61.5 28.5t-30.5 89.5l-2 60q20 232 82 233z" />
    <glyph glyph-name="uni1EEC" unicode="&#x1eec;" horiz-adv-x="1982" 
d="M947 2521h7q62 0 64 -62q9 -71 -91 -180h-10q-17 0 -20 10v6q64 98 28 106t-38 44q1 73 60 76zM144 2200h13q31 0 40 -48q-78 -712 -78 -1239v-105q0 -960 248 -1331q90 -113 183 -113q323 0 706 1172q100 286 277 910q64 172 138 172h10q23 0 43 -41q14 11 40 28t40 27
t29 26.5t16.5 31.5t-7.5 36.5t-33 47.5q-24 6 -30 25.5t7 36.5t34 16q41 -1 75 -38t40.5 -83.5t-17.5 -90.5q-16 -28 -45 -48.5t-70 -42t-60 -34.5q19 -84 27 -236q17 -206 17 -442v-83q0 -444 -76 -1530q-19 -19 -46 -19q-17 0 -27 19l3 11q62 1051 62 1435v30q0 28 3 43
q-3 15 -3 43v27q0 417 -43 676l-14 19q-34 0 -110 -307q-161 -569 -355 -1080q-183 -459 -340 -639q-161 -183 -301 -183h-22q-165 0 -312 267q-189 398 -189 1225v105q0 556 81 1258q21 46 46 46z" />
    <glyph glyph-name="uni1EED" unicode="&#x1eed;" horiz-adv-x="545" 
d="M222 1033h5q50 0 51 -49q8 -56 -72 -141h-7q-14 0 -16 8v5q50 77 22 83q-29 6 -30 34q1 58 47 60zM63 751h25q18 -9 18 -20q-50 -101 -46 -232v-14q9 -81 31 -88h4q48 1 144 260q31 67 69 69q5 0 18 -13q0 -4 -1 -11t-2 -11q2 1 13.5 9t13.5 9.5t11 8.5t10 10t5.5 10
t2.5 12t-3 12.5t-7 15t-14 16.5q-22 5 -17.5 26t24.5 20q37 -2 58.5 -45.5t-1.5 -78.5q-9 -16 -25.5 -28t-41 -24.5t-34.5 -19.5q-15 -134 -12 -201l1 -43q2 -62 14.5 -92.5t35.5 -29.5q22 6 124 245q44 81 68 83l14 1q5 0 11 -11q0 -8 -47 -90q-109 -250 -141 -252
q0 -8 -31 -12h-22q-81 -3 -86 171q1 73 6 138v4l-4 -1q-94 -211 -174 -214q-38 -1 -61.5 28.5t-30.5 89.5l-2 60q20 232 82 233z" />
    <glyph glyph-name="uni1EEE" unicode="&#x1eee;" horiz-adv-x="1982" 
d="M793 2425h7q50 0 157 -74l2 -1q2 0 5.5 -0.5t7.5 -0.5q16 0 40 57q20 19 36 19h7q21 0 29 -14v-7q-40 -108 -110 -108h-7q-51 0 -148 67q-16 10 -24 10q-14 -1 -40 -62q-23 -15 -41 -15q-29 0 -29 22q39 107 108 107zM144 2200h13q31 0 40 -48q-78 -712 -78 -1239v-105
q0 -960 248 -1331q90 -113 183 -113q323 0 706 1172q100 286 277 910q64 172 138 172h10q23 0 43 -41q14 11 40 28t40 27t29 26.5t16.5 31.5t-7.5 36.5t-33 47.5q-24 6 -30 25.5t7 36.5t34 16q41 -1 75 -38t40.5 -83.5t-17.5 -90.5q-16 -28 -45 -48.5t-70 -42t-60 -34.5
q19 -84 27 -236q17 -206 17 -442v-83q0 -444 -76 -1530q-19 -19 -46 -19q-17 0 -27 19l3 11q62 1051 62 1435v30q0 28 3 43q-3 15 -3 43v27q0 417 -43 676l-14 19q-34 0 -110 -307q-161 -569 -355 -1080q-183 -459 -340 -639q-161 -183 -301 -183h-22q-165 0 -312 267
q-189 398 -189 1225v105q0 556 81 1258q21 46 46 46z" />
    <glyph glyph-name="uni1EEF" unicode="&#x1eef;" horiz-adv-x="545" 
d="M279 937l9 6h12q16 0 21 -12v-6q-33 -83 -78 -83h-6q-9 0 -77 30h-12q-6 0 -32 -36q-12 -9 -27 -9h-9q-16 0 -21 12v6q35 92 83 92q12 0 92 -45h3q19 0 42 45zM63 751h25q18 -9 18 -20q-50 -101 -46 -232v-14q9 -81 31 -88h4q48 1 144 260q31 67 69 69q5 0 18 -13
q0 -4 -1 -11t-2 -11q2 1 13.5 9t13.5 9.5t11 8.5t10 10t5.5 10t2.5 12t-3 12.5t-7 15t-14 16.5q-22 5 -17.5 26t24.5 20q37 -2 58.5 -45.5t-1.5 -78.5q-9 -16 -25.5 -28t-41 -24.5t-34.5 -19.5q-15 -134 -12 -201l1 -43q2 -62 14.5 -92.5t35.5 -29.5q22 6 124 245
q44 81 68 83l14 1q5 0 11 -11q0 -8 -47 -90q-109 -250 -141 -252q0 -8 -31 -12h-22q-81 -3 -86 171q1 73 6 138v4l-4 -1q-94 -211 -174 -214q-38 -1 -61.5 28.5t-30.5 89.5l-2 60q20 232 82 233z" />
    <glyph glyph-name="uni1EF0" unicode="&#x1ef0;" horiz-adv-x="1982" 
d="M805 -889q78 -19 78 -61v-6q-4 -58 -46 -58q-52 0 -76 63l1 33q20 29 43 29zM144 2200h13q31 0 40 -48q-78 -712 -78 -1239v-105q0 -960 248 -1331q90 -113 183 -113q323 0 706 1172q100 286 277 910q64 172 138 172h10q23 0 43 -41q14 11 40 28t40 27t29 26.5t16.5 31.5
t-7.5 36.5t-33 47.5q-24 6 -30 25.5t7 36.5t34 16q41 -1 75 -38t40.5 -83.5t-17.5 -90.5q-16 -28 -45 -48.5t-70 -42t-60 -34.5q19 -84 27 -236q17 -206 17 -442v-83q0 -444 -76 -1530q-19 -19 -46 -19q-17 0 -27 19l3 11q62 1051 62 1435v30q0 28 3 43q-3 15 -3 43v27
q0 417 -43 676l-14 19q-34 0 -110 -307q-161 -569 -355 -1080q-183 -459 -340 -639q-161 -183 -301 -183h-22q-165 0 -312 267q-189 398 -189 1225v105q0 556 81 1258q21 46 46 46z" />
    <glyph glyph-name="uni1EF1" unicode="&#x1ef1;" horiz-adv-x="545" 
d="M101 201q64 -16 64 -50v-5q-5 -47 -38 -47q-43 0 -62 51l1 27q16 24 35 24zM63 751h25q18 -9 18 -20q-50 -101 -46 -232v-14q9 -81 31 -88h4q48 1 144 260q31 67 69 69q5 0 18 -13q0 -4 -1 -11t-2 -11q2 1 13.5 9t13.5 9.5t11 8.5t10 10t5.5 10t2.5 12t-3 12.5t-7 15
t-14 16.5q-22 5 -17.5 26t24.5 20q37 -2 58.5 -45.5t-1.5 -78.5q-9 -16 -25.5 -28t-41 -24.5t-34.5 -19.5q-15 -134 -12 -201l1 -43q2 -62 14.5 -92.5t35.5 -29.5q22 6 124 245q44 81 68 83l14 1q5 0 11 -11q0 -8 -47 -90q-109 -250 -141 -252q0 -8 -31 -12h-22
q-81 -3 -86 171q1 73 6 138v4l-4 -1q-94 -211 -174 -214q-38 -1 -61.5 28.5t-30.5 89.5l-2 60q20 232 82 233z" />
    <glyph glyph-name="Ygrave" unicode="&#x1ef2;" horiz-adv-x="1601" 
d="M632 2535q22 21 36 13v-1q70 -128 118 -182l19 -21q17 -18 -3 -45l-4 -4q-19 -16 -47 15q-49 51 -60 63q-52 58 -84 116q2 26 25 46zM167 2188q37 0 48 -53q-114 -461 -114 -914q13 -742 268 -932q54 -26 93 -26q265 0 606 962q139 379 229 379h9q92 0 92 -330v-40
q0 -587 -224 -2026q-12 -18 -31 -18h-4q-18 8 -18 31q211 1547 211 2035v84q-6 162 -40 162q-54 0 -219 -461q-319 -844 -647 -844q-307 0 -408 668q-18 165 -18 286v132q0 407 119 866q23 39 48 39z" />
    <glyph glyph-name="ygrave" unicode="&#x1ef3;" horiz-adv-x="625" 
d="M91 1034q17 20 29 15l1 -1q83 -109 126 -145l18 -15q17 -14 4 -41l-4 -4q-14 -18 -43 8q-56 44 -60 47q-55 47 -88 92q-1 22 17 44zM338 748h7q54 0 70 -112q18 -102 18 -168l3 -1q83 66 172 126q9 6 22 6q10 0 17 -10v-4q0 -10 -59 -48l-152 -116v-45q0 -13 2 -21
q-2 -14 -2 -24v-6q0 -302 -81 -545q-36 -104 -103 -180q-70 -70 -146 -70h-7q-100 0 -148 109q-15 42 -15 80v21q0 186 204 443q83 100 223 225q-8 260 -24 260q0 2 -7 3q-20 0 -84 -168q-84 -198 -173 -198q-54 0 -79 69q-19 50 -19 132q0 126 46 217q17 18 34 18
q29 -5 29 -23v-5q-12 -37 -24 -77q-12 -60 -12 -123q0 -117 41 -158l1 -1q1 0 3 -0.5t4 -0.5q27 0 91 136q54 135 92 210q33 49 56 49zM-12 -258v-6q4 -136 77 -160q9 -4 31 -4q100 0 169 149q100 246 100 636q-110 -101 -154 -154q-223 -262 -223 -461z" />
    <glyph glyph-name="uni1EF4" unicode="&#x1ef4;" horiz-adv-x="1601" 
d="M1105 -889q78 -19 78 -61v-6q-4 -58 -46 -58q-52 0 -76 63l1 33q20 29 43 29zM167 2188q37 0 48 -53q-114 -461 -114 -914q13 -742 268 -932q54 -26 93 -26q265 0 606 962q139 379 229 379h9q92 0 92 -330v-40q0 -587 -224 -2026q-12 -18 -31 -18h-4q-18 8 -18 31
q211 1547 211 2035v84q-6 162 -40 162q-54 0 -219 -461q-319 -844 -647 -844q-307 0 -408 668q-18 165 -18 286v132q0 407 119 866q23 39 48 39z" />
    <glyph glyph-name="uni1EF5" unicode="&#x1ef5;" horiz-adv-x="625" 
d="M561 201q64 -16 64 -50v-5q-5 -47 -38 -47q-43 0 -62 51l1 27q16 24 35 24zM338 748h7q54 0 70 -112q18 -102 18 -168l3 -1q83 66 172 126q9 6 22 6q10 0 17 -10v-4q0 -10 -59 -48l-152 -116v-45q0 -13 2 -21q-2 -14 -2 -24v-6q0 -302 -81 -545q-36 -104 -103 -180
q-70 -70 -146 -70h-7q-100 0 -148 109q-15 42 -15 80v21q0 186 204 443q83 100 223 225q-8 260 -24 260q0 2 -7 3q-20 0 -84 -168q-84 -198 -173 -198q-54 0 -79 69q-19 50 -19 132q0 126 46 217q17 18 34 18q29 -5 29 -23v-5q-12 -37 -24 -77q-12 -60 -12 -123
q0 -117 41 -158l1 -1q1 0 3 -0.5t4 -0.5q27 0 91 136q54 135 92 210q33 49 56 49zM-12 -258v-6q4 -136 77 -160q9 -4 31 -4q100 0 169 149q100 246 100 636q-110 -101 -154 -154q-223 -262 -223 -461z" />
    <glyph glyph-name="uni1EF6" unicode="&#x1ef6;" horiz-adv-x="1601" 
d="M817 2521h7q62 0 64 -62q9 -71 -91 -180h-10q-17 0 -20 10v6q64 98 28 106t-38 44q1 73 60 76zM167 2188q37 0 48 -53q-114 -461 -114 -914q13 -742 268 -932q54 -26 93 -26q265 0 606 962q139 379 229 379h9q92 0 92 -330v-40q0 -587 -224 -2026q-12 -18 -31 -18h-4
q-18 8 -18 31q211 1547 211 2035v84q-6 162 -40 162q-54 0 -219 -461q-319 -844 -647 -844q-307 0 -408 668q-18 165 -18 286v132q0 407 119 866q23 39 48 39z" />
    <glyph glyph-name="uni1EF7" unicode="&#x1ef7;" horiz-adv-x="625" 
d="M222 1033h5q50 0 51 -49q8 -56 -72 -141h-7q-14 0 -16 8v5q50 77 22 83q-29 6 -30 34q1 58 47 60zM338 748h7q54 0 70 -112q18 -102 18 -168l3 -1q83 66 172 126q9 6 22 6q10 0 17 -10v-4q0 -10 -59 -48l-152 -116v-45q0 -13 2 -21q-2 -14 -2 -24v-6q0 -302 -81 -545
q-36 -104 -103 -180q-70 -70 -146 -70h-7q-100 0 -148 109q-15 42 -15 80v21q0 186 204 443q83 100 223 225q-8 260 -24 260q0 2 -7 3q-20 0 -84 -168q-84 -198 -173 -198q-54 0 -79 69q-19 50 -19 132q0 126 46 217q17 18 34 18q29 -5 29 -23v-5q-12 -37 -24 -77
q-12 -60 -12 -123q0 -117 41 -158l1 -1q1 0 3 -0.5t4 -0.5q27 0 91 136q54 135 92 210q33 49 56 49zM-12 -258v-6q4 -136 77 -160q9 -4 31 -4q100 0 169 149q100 246 100 636q-110 -101 -154 -154q-223 -262 -223 -461z" />
    <glyph glyph-name="uni1EF8" unicode="&#x1ef8;" horiz-adv-x="1601" 
d="M673 2425h7q50 0 157 -74l2 -1q2 0 5.5 -0.5t7.5 -0.5q16 0 40 57q20 19 36 19h7q21 0 29 -14v-7q-40 -108 -110 -108h-7q-51 0 -148 67q-16 10 -24 10q-14 -1 -40 -62q-23 -15 -41 -15q-29 0 -29 22q39 107 108 107zM167 2188q37 0 48 -53q-114 -461 -114 -914
q13 -742 268 -932q54 -26 93 -26q265 0 606 962q139 379 229 379h9q92 0 92 -330v-40q0 -587 -224 -2026q-12 -18 -31 -18h-4q-18 8 -18 31q211 1547 211 2035v84q-6 162 -40 162q-54 0 -219 -461q-319 -844 -647 -844q-307 0 -408 668q-18 165 -18 286v132q0 407 119 866
q23 39 48 39z" />
    <glyph glyph-name="uni1EF9" unicode="&#x1ef9;" horiz-adv-x="625" 
d="M279 947l9 6h12q16 0 21 -12v-6q-33 -83 -78 -83h-6q-9 0 -77 30h-12q-6 0 -32 -36q-12 -9 -27 -9h-9q-16 0 -21 12v6q35 92 83 92q12 0 92 -45h3q19 0 42 45zM338 748h7q54 0 70 -112q18 -102 18 -168l3 -1q83 66 172 126q9 6 22 6q10 0 17 -10v-4q0 -10 -59 -48
l-152 -116v-45q0 -13 2 -21q-2 -14 -2 -24v-6q0 -302 -81 -545q-36 -104 -103 -180q-70 -70 -146 -70h-7q-100 0 -148 109q-15 42 -15 80v21q0 186 204 443q83 100 223 225q-8 260 -24 260q0 2 -7 3q-20 0 -84 -168q-84 -198 -173 -198q-54 0 -79 69q-19 50 -19 132
q0 126 46 217q17 18 34 18q29 -5 29 -23v-5q-12 -37 -24 -77q-12 -60 -12 -123q0 -117 41 -158l1 -1q1 0 3 -0.5t4 -0.5q27 0 91 136q54 135 92 210q33 49 56 49zM-12 -258v-6q4 -136 77 -160q9 -4 31 -4q100 0 169 149q100 246 100 636q-110 -101 -154 -154
q-223 -262 -223 -461z" />
    <glyph glyph-name="endash" unicode="&#x2013;" horiz-adv-x="718" 
d="M86 589q32 -4 53 -4h91q434 0 434 -26l2 -15q-10 -34 -31 -34q-102 10 -564 15q-19 10 -19 19v4q0 31 34 41z" />
    <glyph glyph-name="emdash" unicode="&#x2014;" horiz-adv-x="1148" 
d="M108 589q52 -4 87 -4h150q715 0 715 -26l4 -15q-16 -34 -52 -34q-168 11 -928 15q-32 11 -32 19v4q0 30 56 41z" />
    <glyph glyph-name="quoteleft" unicode="&#x2018;" horiz-adv-x="190" 
d="M104 1931h-6q-49 0 -49 42v13q0 49 60 73h8q13 0 15 -8v-5q-13 -17 -13 -26q0 -4 26 -27v-7q-4 -55 -41 -55z" />
    <glyph glyph-name="quoteright" unicode="&#x2019;" horiz-adv-x="202" 
d="M91 2059h5q49 0 49 -42v-13q0 -50 -60 -73h-7q-14 0 -16 8v5q13 17 13 26q0 3 -26 26v8q4 55 42 55z" />
    <glyph glyph-name="quotesinglbase" unicode="&#x201a;" horiz-adv-x="219" 
d="M108 326h5q49 0 49 -42v-13q0 -51 -60 -73h-7q-14 0 -16 8v5q13 17 13 26q0 3 -26 26v8q4 55 42 55z" />
    <glyph glyph-name="quotedblleft" unicode="&#x201c;" horiz-adv-x="369" 
d="M104 1931h-6q-49 0 -49 42v13q0 49 60 73h8q13 0 15 -8v-5q-13 -17 -13 -26q0 -4 26 -27v-7q-4 -55 -41 -55zM254 1931h-6q-49 0 -49 42v13q0 49 60 73h8q13 0 15 -8v-5q-13 -17 -13 -26q0 -4 26 -27v-7q-4 -55 -41 -55z" />
    <glyph glyph-name="quotedblright" unicode="&#x201d;" horiz-adv-x="355" 
d="M241 2059h5q49 0 49 -42v-13q0 -50 -60 -73h-7q-14 0 -16 8v5q13 17 13 26q0 3 -26 26v8q4 55 42 55zM91 2059h5q49 0 49 -42v-13q0 -50 -60 -73h-7q-14 0 -16 8v5q13 17 13 26q0 3 -26 26v8q4 55 42 55z" />
    <glyph glyph-name="quotedblbase" unicode="&#x201e;" horiz-adv-x="383" 
d="M251 329h5q49 0 49 -42v-13q0 -50 -60 -73h-7q-14 0 -16 8v5q13 17 13 26q0 3 -26 26v8q4 55 42 55zM101 329h5q49 0 49 -42v-13q0 -50 -60 -73h-7q-14 0 -16 8v5q13 17 13 26q0 3 -26 26v8q4 55 42 55z" />
    <glyph glyph-name="dagger" unicode="&#x2020;" horiz-adv-x="2130" 
d="M1171 2131l13 -1q23 -2 26 -59q-11 -96 -28 -94q-3 -9 -3 -15q-77 -1110 -91 -1837q-2 -74 -4 -105q-7 -361 10 -818l-14 -19l-10 1q-35 2 -23 1045l5 254q20 1148 73 1608q0 24 46 40zM18 1141v13q10 46 28 46q326 53 1142 73l181 5q741 12 742 -22v-11l-13 -14
q-325 17 -581 10q-22 -2 -75 -4q-508 -12 -1305 -90q-3 -2 -10 -3q2 -18 -67 -29q-40 3 -42 26z" />
    <glyph glyph-name="daggerdbl" unicode="&#x2021;" horiz-adv-x="2136" 
d="M1171 2131l13 -1q23 -2 26 -59q-11 -96 -28 -94q-3 -9 -3 -15q-77 -1110 -91 -1837q-2 -74 -4 -105q-7 -361 10 -818l-14 -19l-10 1q-35 2 -23 1045l5 254q20 1148 73 1608q0 24 46 40zM18 1141v13q10 46 28 46q326 53 1142 73l181 5q741 12 742 -22v-11l-13 -14
q-325 17 -581 10q-22 -2 -75 -4q-508 -12 -1305 -90q-3 -2 -10 -3q2 -18 -67 -29q-40 3 -42 26zM88 21v13q10 46 27 46q310 53 1082 73l172 5q703 12 704 -22v-11l-12 -14q-307 17 -551 10q-21 -2 -72 -4q-483 -12 -1237 -90l-9 -3q0 -19 -64 -29q-38 3 -40 26z" />
    <glyph glyph-name="bullet" unicode="&#x2022;" horiz-adv-x="285" 
d="M125 617q106 12 112 -88v-8q-8 -83 -68 -83q-89 -14 -108 90l2 47q29 42 62 42z" />
    <glyph glyph-name="ellipsis" unicode="&#x2026;" horiz-adv-x="732" 
d="M83 315q62 -9 64 -50v-5q-5 -47 -38 -47q-51 -8 -62 51l1 27q16 24 35 24zM363 315q62 -9 64 -50v-5q-5 -47 -38 -47q-51 -8 -62 51l1 27q16 24 35 24zM623 315q62 -9 64 -50v-5q-5 -47 -38 -47q-51 -8 -62 51l1 27q16 24 35 24z" />
    <glyph glyph-name="guilsinglleft" unicode="&#x2039;" horiz-adv-x="405" 
d="M256 896q22 -7 22 -25q0 -13 -67 -110l-124 -210q140 -212 174 -259q8 -21 8 -23q-5 -24 -24 -24q-24 3 -114 124q-121 157 -121 182q40 95 201 315q23 30 45 30z" />
    <glyph glyph-name="guilsinglright" unicode="&#x203a;" horiz-adv-x="410" 
d="M140 904l25 -14q203 -263 229 -331q0 -29 -108 -157q-122 -144 -138 -144q-24 4 -24 22q2 6 2 12q98 131 191 264q-44 78 -149 249q-50 65 -50 83v2q8 14 22 14z" />
    <glyph glyph-name="fraction" unicode="&#x2044;" horiz-adv-x="1058" 
d="M961 1500h15q27 -4 27 -25q-93 -217 -315 -597q-406 -664 -543 -992q-22 -52 -62 -164q-21 -27 -34 -27h-10q-9 0 -13 22q0 25 57 174q101 246 397 768q307 520 437 819q19 22 44 22z" />
    <glyph glyph-name="fraction" unicode="&#x2215;" horiz-adv-x="1058" 
d="M961 1500h15q27 -4 27 -25q-93 -217 -315 -597q-406 -664 -543 -992q-22 -52 -62 -164q-21 -27 -34 -27h-10q-9 0 -13 22q0 25 57 174q101 246 397 768q307 520 437 819q19 22 44 22z" />
    <glyph glyph-name="franc" unicode="&#x20a3;" horiz-adv-x="1864" 
d="M625 1563q37 -7 37 -19v-3q0 -21 -13 -77h3q471 83 851 83q278 -8 278 -30l2 -13q-17 -32 -56 -32q-100 16 -213 16h-35q-11 0 -21 3q-11 -3 -22 -3h-18q-296 0 -780 -83q-84 -524 -88 -827h3q331 45 427 45q32 -3 32 -24q0 -40 -149 -40q-228 -21 -315 -40l-3 -24
q-3 -128 -3 -152h3q180 24 256 24q24 -11 24 -24q0 -36 -136 -40q-52 -4 -147 -16v-104q0 -134 11 -352q-13 -27 -37 -27t-24 45q-16 265 -16 430q-89 -16 -107 -16q-32 0 -32 24q0 36 131 45q4 3 8 3v176q-157 -27 -182 -27q-32 0 -32 24q0 34 171 51q0 4 43 8
q0 277 58 745q2 2 14 74q-230 -49 -377 -112q-44 -26 -69 -26q-19 0 -32 16v8q0 46 366 147q122 24 122 29q14 107 43 107q0 3 24 8z" />
    <glyph glyph-name="lira" unicode="&#x20a4;" horiz-adv-x="1042" 
d="M587 1597h26q119 0 209 -133q85 -151 85 -366q-18 -29 -56 -29q-35 0 -35 48q0 185 -90 339q-71 83 -137 83h-26q-94 0 -208 -139q-142 -197 -142 -425q0 -170 94 -362q114 10 330 10q30 -7 30 -16v-13q-15 -30 -72 -30h-22q-93 0 -248 -5q24 -85 24 -120h3q122 5 227 5
h61q27 -3 27 -24q-20 -32 -46 -32q-17 0 -269 -5v-32q0 -200 -158 -462l6 -2q530 114 691 114h21q32 0 40 -18v-3q-8 -35 -53 -35h-13q-155 0 -649 -109q-105 -32 -123 -32q-16 0 -29 19v2q5 18 88 150q110 214 110 371v32q-108 -11 -134 -11q-27 7 -27 16v8q0 40 145 40
q0 3 13 3q0 40 -27 117q-88 -5 -101 -5q-30 0 -30 24q0 31 91 35q19 1 19 5q-94 195 -94 379q0 342 259 544q103 64 190 64z" />
    <glyph glyph-name="peseta" unicode="&#x20a7;" horiz-adv-x="2305" 
d="M936 1563q255 0 376 -211q53 -112 53 -214v-29q0 -120 -80 -280h3l200 13q29 176 69 176q15 3 22 3q25 0 35 -16v-5q-35 -132 -35 -158q9 0 24 3q12 0 57.5 0.5t155 2t209.5 2.5q37 -4 37 -27v-2q-16 -30 -61 -30q-118 0 -433 -5q-51 -343 -51 -587q0 -283 73 -347
q8 -5 13 -5q86 151 235 488q10 10 21 85q56 131 160 131q45 0 78 -35v-2q0 -32 -59 -38q-1 0 -37 14h-6q-56 -45 -56 -123q0 -82 80 -136q173 165 216 165q20 0 22 -8v-2q-2 -21 -102 -91q-77 -71 -98 -96v-3q90 -106 90 -208q0 -108 -141 -187q-42 -13 -64 -13h-19
q-62 0 -83 96v32q0 94 123 251v2q-91 82 -91 102h-5q-199 -483 -285 -483h-3q-144 0 -144 440q0 250 42 555h-2q-230 -9 -230 -16q-36 -67 -179 -197q-139 -113 -256 -158q-189 -82 -344 -82v-3q-8 -139 -8 -240q0 -52 8 -278q-20 -21 -35 -21q-29 0 -29 37q-11 181 -11 374
v83q0 14 3 45l-5 3h-22q-53 0 -53 26q7 19 26 19q14 0 54 -3l3 6v5q0 247 88 678q19 24 40 24h21q20 0 27 -19q-94 -473 -94 -590q-6 -23 -10 -104q254 0 528 206q143 126 174 187q-22 0 -22 21q18 32 54 32q74 150 74 304q0 168 -125 299q-98 83 -235 83q-292 0 -552 -320
q-118 -162 -187 -393q-22 -88 -40 -178q-19 -25 -54 -25h-5q-19 0 -29 22q31 168 72 280q54 146 146 283q188 269 481 360q101 30 187 30zM2003 127h-2q-78 -126 -78 -200q0 -48 32 -83q60 19 94 88q8 26 8 40v16q0 55 -54 139z" />
    <glyph glyph-name="Euro" unicode="&#x20ac;" horiz-adv-x="1094" 
d="M929 1632q102 0 102 -22v-14q-22 -28 -44 -28q-65 3 -96 3q-153 0 -307 -138q-142 -153 -201 -320q-86 -247 -86 -392q-2 0 -2 -5q122 5 231 5h28q10 0 30 3q27 0 39 -19v-6q0 -27 -50 -36q-30 0 -278 -5l-3 -6v-66q0 -18 3 -55l13 2q194 6 279 6q24 0 36 -19v-9
q-13 -33 -77 -33h-17q-134 0 -229 -5q22 -239 146 -422q141 -174 345 -174q65 0 202 33h13q18 0 28 -22q0 -51 -265 -72q-393 0 -532 472q-22 89 -31 179q-88 -7 -105 -11q-41 8 -41 17v8q0 41 132 41q0 3 9 3v17q0 35 -3 80q3 14 3 27q-101 -8 -111 -8q-20 0 -30 22
q0 44 143 44v3q0 128 81 384q216 538 645 538z" />
    <glyph glyph-name="uni2116" unicode="&#x2116;" horiz-adv-x="1667" 
d="M237 1611h9q74 0 229 -555q213 -683 350 -921q41 -60 55 -61q91 49 91 579q0 385 -36 848q0 36 25 52h14q24 0 30 -204q31 -394 31 -668q0 -507 -88 -635q-37 -35 -78 -35q-136 0 -306 491q-103 292 -306 927q-6 2 -25 74h-3q-58 -803 -58 -1382v-127q0 -76 6 -201
q-16 -28 -47 -28h-17q-30 0 -30 50q-6 127 -6 231q0 805 64 1333q37 232 96 232zM1275 800h13q61 -13 61 -36q11 -38 36 -38q32 -13 76 -13h20q31 0 103 9q8 -3 13 -12v-6q-17 -27 -134 -27q-39 0 -94 11l4 -65q0 -170 -118 -222q-16 -2 -21 -2h-17q-57 0 -92 96
q-7 29 -7 56v34q0 114 94 190q46 25 63 25zM1273 746q-70 -57 -70 -152v-23q0 -89 45 -118l13 -2q47 0 56 141v42q0 88 -22 88q-19 24 -22 24zM1087 340q23 -2 29 -1l49 2q233 13 234 -9l2 -13q-4 -27 -15 -29q-59 6 -304 -4q-11 8 -11 15v4q-1 25 16 35z" />
    <glyph glyph-name="trademark" unicode="&#x2122;" horiz-adv-x="903" 
d="M735 2110h10q21 -7 25 -61q8 -150 14 -319q1 -3 7 -44v-2q-11 -15 -29 -15q-26 0 -26 43q-5 40 -13 293h-2q-35 -164 -73 -164h-7q-42 0 -69 158q-2 0 -2 3h-1q-6 -34 -21 -236q-11 -92 -17 -92q-18 -8 -22 -8q-21 3 -21 12q28 310 45 357q13 42 34 42h3q34 0 66 -152
q2 -3 13 -47q5 0 14 65q35 162 55 162q13 5 17 5zM521 2105q11 0 16 -9v-3q0 -20 -41 -20h-12q-56 0 -138 -5q5 -5 5 -7q-9 -87 -9 -151v-38q0 -60 7 -189q-11 -17 -31 -17t-20 27q-7 120 -7 194q3 178 18 178h-2q-116 -8 -195 -19q-17 2 -17 13v3q0 16 93 24q162 19 333 19
z" />
    <glyph glyph-name="partialdiff" unicode="&#x2202;" horiz-adv-x="1014" 
d="M431 1618q259 0 423 -312q94 -209 94 -458v-48q63 -54 65 -60v-2q-5 -27 -35 -27h-17l-16 11q0 -164 -91 -404q-68 -168 -227 -340q-199 -191 -342 -191h-21q-164 0 -242 221q-22 82 -22 143v51q0 205 154 425q116 137 183 173q161 110 312 110q97 0 207 -51v3
q0 166 -70 369q-94 227 -258 301q-54 25 -102 25h-30q-125 0 -232 -173q-22 -75 -67 -75h-24q-19 10 -19 16v8q65 170 210 245q89 40 167 40zM67 156q9 -245 151 -302q30 -8 54 -8q164 0 374 267q210 295 210 681q-112 70 -212 70h-14q-212 0 -417 -255q-146 -212 -146 -453
z" />
    <glyph glyph-name="increment" unicode="&#x2206;" horiz-adv-x="1071" 
d="M562 1559l26 19h45q22 0 96 -380q242 -988 310 -1379v-6q0 -9 -33 -26q-75 6 -109 6q-182 0 -290 7q-130 -7 -354 -7h-78q-8 0 -19 20v6q0 39 225 39h529l32 -7l-342 1514h-12q-279 -1063 -464 -1546l-39 -32h-32q-13 0 -13 19q218 558 522 1753z" />
    <glyph glyph-name="product" unicode="&#x220f;" horiz-adv-x="963" 
d="M489 1572h132q245 0 245 -38v-11q0 -3 -8 -8q2 -302 2 -364v-541q0 -115 -2 -765q-10 -21 -35 -21h-11q-13 0 -22 13q3 137 3 216v229q0 340 3 638l-6 579q-11 3 -11 11q-83 6 -145 8q-106 -3 -188 -3h-267q-5 -2 -5 -5q0 -59 2 -267l-13 -1441q0 -18 -51 -29h-6
q-23 0 -35 18q11 1767 30 1767q129 14 388 14z" />
    <glyph glyph-name="summation" unicode="&#x2211;" horiz-adv-x="1206" 
d="M973 1596q32 -5 32 -24v-8q0 -47 -391 -60q-195 -4 -272 -5q-139 8 -158 8h-22q198 -212 409 -495q192 -266 192 -313q0 -9 -81 -102q-512 -630 -550 -760q172 64 496 116q155 22 248 22h29q179 0 229 -68q11 -19 11 -32v-13q-12 -19 -35 -19h-16q-12 0 -22 43
q-43 46 -180 46h-24q-238 0 -639 -105q-110 -43 -129 -43q-35 11 -35 32q0 90 458 668q131 177 148 215v3q-21 70 -355 498q-145 178 -237 269q-38 26 -38 38q0 51 261 51q511 0 671 38z" />
    <glyph glyph-name="minus" unicode="&#x2212;" horiz-adv-x="718" 
d="M86 589q32 -4 53 -4h91q434 0 434 -26l2 -15q-10 -34 -31 -34q-102 10 -564 15q-19 10 -19 19v4q0 31 34 41z" />
    <glyph glyph-name="radical" unicode="&#x221a;" horiz-adv-x="1119" 
d="M940 1672h5q27 0 54 -97q4 -2 65 -183q-6 -17 -22 -17h-8q-24 0 -46 78q-35 76 -51 95h-3l-449 -1595q-36 -126 -52 -126q-18 -8 -24 -8h-16q-39 0 -94 204q-104 316 -202 499l-49 56v8q19 30 49 30h16q87 0 285 -598l17 -54h2q371 1316 488 1691q17 17 35 17z" />
    <glyph glyph-name="infinity" unicode="&#x221e;" horiz-adv-x="921" 
d="M767 770q116 -15 116 -116q0 -159 -168 -232l-27 -4h-28q-98 0 -213 138q-175 -163 -256 -163h-19q-98 0 -111 145q0 149 134 214l52 9q93 0 218 -135q193 144 302 144zM508 591q96 -128 162 -128q106 0 141 153v31q0 68 -64 68q-85 0 -239 -124zM122 564v-35
q0 -69 61 -84q71 0 226 150q-101 119 -181 119q-82 0 -106 -150z" />
    <glyph glyph-name="integral" unicode="&#x222b;" horiz-adv-x="628" 
d="M364 1667h19q101 0 140 -237v-11q0 -49 -75 -62h-5q-48 5 -48 38v27q0 38 29 73q-20 77 -56 110h-9q-54 -60 -78 -180q-17 -94 -17 -173q0 -213 121 -684q49 -209 49 -342v-13q0 -5 2 -11q-2 -6 -2 -11v-8q0 -197 -112 -318q-47 -40 -87 -40h-24q-65 0 -99 108
q-9 39 -12 137q13 49 63 49h14q51 -11 51 -57v-8q0 -54 -36 -89q21 -81 51 -81q31 0 79 119q29 87 29 188v11q0 172 -94 547q-75 294 -75 495q0 224 92 367q53 56 90 56z" />
    <glyph glyph-name="approxequal" unicode="&#x2248;" horiz-adv-x="591" 
d="M180 529h10q63 0 202 -68q2 0 18 -3q20 0 52 53q27 18 46 18h9q27 0 37 -13v-7q-52 -99 -141 -99h-9q-64 0 -190 62q-22 8 -30 8q-22 -2 -53 -57q-27 -13 -52 -13q-36 0 -36 20q49 99 137 99zM171 713h9q64 0 202 -68q1 0 3 -0.5t6.5 -1t9.5 -0.5q21 0 52 52q26 18 46 18
h9q27 0 37 -13v-7q-53 -98 -141 -98h-9q-67 0 -190 61q-23 9 -31 9q-21 -2 -52 -57q-27 -13 -52 -13q-37 0 -37 19q49 99 138 99z" />
    <glyph glyph-name="lessequal" unicode="&#x2264;" horiz-adv-x="707" 
d="M543 982q16 0 17 -19q0 -17 -40 -50q-99 -88 -217 -177q-17 -13 -77.5 -57.5t-100.5 -74.5q109 -50 300 -150q72 -37 143 -69q14 -11 14 -20q0 -14 -18 -17h-7q-8 0 -86 35q-281 126 -417 184q-14 11 -14 23v3q0 21 31 43q77 61 272 201q119 85 185 142q9 3 15 3zM56 279
q23 -1 51 -1l87 4q414 16 416 -5l3 -12q-7 -27 -28 -29q-97 4 -540 -9q-19 7 -19 14v3q-1 25 30 35z" />
    <glyph glyph-name="greaterequal" unicode="&#x2265;" horiz-adv-x="605" 
d="M98 964h5q11 0 36 -22q73 -46 265 -154q79 -46 151 -98q31 -25 31 -47v-6q0 -19 -42 -38q-278 -165 -414 -254q-14 -12 -26 -12h-1q-18 5 -18 19v4q0 18 48 49q108 77 264 171q112 66 119 71q-100 68 -271 165q-82 49 -145 101q-19 16 -19 29v6q0 11 17 16zM550 273
q30 -11 29 -35v-3q-1 -6 -18 -14q-418 13 -511 9q-19 1 -26 29l2 12q2 22 394 5l82 -4q27 0 48 1z" />
    </font>
</defs>
</svg>
